<svg xmlns="http://www.w3.org/2000/svg" viewBox="0 0 200 200" id="svg8"><g id="layer1" transform="translate(0 -97)"><path d="M97.827 119.59c-34.518 0-62.5 27.983-62.5 62.502a62.5 62.5 0 0 0 11.646 36.199c15.888 24.264 8.404 29.89 13.758 46.464.003.01.016.017.025.024 13.884 18.41 60.015 18.648 74.362-.413 8.817-16.23 5.866-35.542 16.944-46.68 8.529-10.945 8.24-21.719 8.266-35.594 0-34.519-27.982-62.502-62.5-62.502z" id="path817" fill="#fff" stroke-width=".865" stroke-linecap="round" stroke-linejoin="bevel" paint-order="fill markers stroke"/><path id="path26-0" d="M83.14 218.411c.483 4.346 4.104 7.725 8.45 7.725 3.62 0 6.518-2.172 7.725-5.07 1.207 3.139 4.345 5.07 7.725 5.07 4.345 0 7.967-3.38 8.449-7.725v-.965c0-10.38-12.553-15.209-16.174-21.968-3.621 6.76-16.174 11.828-16.174 21.968v.965z" fill="#f0c" stroke-width=".714"/><path d="M59.436 133.197c35.993 4.1 71.171 13.056 92.494 18.554 4.966 9.593 3.294 5.186 6.545 17.03-31.522-7.073-70.121-16.774-111.227-22.682 6.941-8.734 6.154-7.1 12.188-12.902z" id="path971" fill="purple" fill-rule="evenodd" stroke-width=".265"/><ellipse id="path826" cx="75.837" cy="180.304" rx="9.816" ry="11.708" stroke="#000" stroke-width=".302" stroke-linecap="round" stroke-linejoin="bevel" paint-order="fill markers stroke"/><path d="M77.025 242.555l-.274 21.96" id="path847" fill="none" fill-rule="evenodd" stroke="#000" stroke-width=".965"/><path d="M90.064 242.613l-.274 21.96" id="path847-3" fill="none" fill-rule="evenodd" stroke="#000" stroke-width=".965"/><path d="M103.309 242.595l-.275 21.96" id="path847-1" fill="none" fill-rule="evenodd" stroke="#000" stroke-width=".965"/><path d="M116.21 242.378l-.274 21.96" id="path847-3-8" fill="none" fill-rule="evenodd" stroke="#000" stroke-width=".965"/><ellipse id="path826-6" cx="122.02" cy="181.593" rx="9.816" ry="11.708" stroke="#000" stroke-width=".302" stroke-linecap="round" stroke-linejoin="bevel" paint-order="fill markers stroke"/><path id="path26" d="M86.38 217.135c.383 3.452 3.26 6.138 6.712 6.138 2.878 0 5.18-1.727 6.138-4.029.96 2.494 3.453 4.029 6.139 4.029 3.452 0 6.33-2.686 6.712-6.138v-.768c0-8.247-9.973-12.084-12.85-17.454-2.878 5.37-12.852 9.398-12.852 17.454v.768z" fill="#f0f" stroke-width="1.918"/><g id="g990" transform="translate(-2.717 -12.034)"><ellipse ry="5.15" rx="4.544" cy="153.962" cx="78.151" id="path966" fill="#0ff" stroke-width="1.35" stroke-linecap="round" stroke-linejoin="bevel" paint-order="fill markers stroke"/><path d="M87.091 144.958a4.296 4.296 0 0 1 0 6.082c-.388.388-.776.647-1.164.776 1.164-.129 2.329.389 3.235 1.295a4.296 4.296 0 0 1 0 6.081c-1.424 1.423-3.753 1.682-5.435.518 1.164 1.681.906 3.881-.518 5.434a4.295 4.295 0 0 1-6.081 0c-.906-.905-1.294-2.07-1.294-3.235-.26.388-.518.777-.777 1.165a4.295 4.295 0 0 1-6.081 0 4.295 4.295 0 0 1 0-6.082c.388-.388.776-.647 1.164-.776-1.164.13-2.329-.388-3.235-1.294a4.295 4.295 0 0 1 0-6.082c1.424-1.423 3.753-1.682 5.435-.518-1.165-1.681-.906-4.01.518-5.434a4.295 4.295 0 0 1 6.081 0c.906.906 1.294 2.07 1.294 3.235l.777-1.165a4.295 4.295 0 0 1 6.081 0zm-5.693 5.694c-1.812-1.812-4.658-1.812-6.47 0-1.812 1.812-1.812 4.658 0 6.47 1.812 1.811 4.658 1.811 6.47 0 1.682-1.812 1.682-4.658 0-6.47zm-12.94-6.47l.13 2.07c.776-.129 1.552 0 2.2.26a4.154 4.154 0 0 1-.26-2.2zm13.199-3.494l-1.683 1.035c.518.647.777 1.294.906 2.07.388-.646 1.035-1.035 1.812-1.423zM64.964 157.51l1.812.906c.259-.777.776-1.294 1.423-1.812-.776-.13-1.423-.388-2.07-.906zm26.397-7.247l-1.811-.905c-.259.776-.777 1.294-1.424 1.811.777.13 1.424.389 2.07.906zm-3.493 13.328l-.13-2.07c-.776.13-1.553 0-2.2-.259.26.647.389 1.424.26 2.2zm-13.328 3.494l1.682-1.035c-.518-.647-.776-1.294-.906-2.07-.388.647-1.035 1.035-1.811 1.423z" id="path28" fill="red" stroke-width="1.294"/></g><path d="M132.2 255.457c0 1.592-21.709-1.183-32.689-1.134-10.978.048-33.603 2.863-33.603 1.271s15.446-7.822 33.563-7.822c18.116 0 32.73 6.093 32.73 7.685z" id="path1037" fill="red" stroke-width="1.614" stroke-linecap="round" stroke-linejoin="bevel" paint-order="fill markers stroke"/><path d="M131.795 255.726c0 .872-15.576 7.773-33.238 7.773S66.4 256.255 66.4 256.255c0-.485 14.495 4.083 32.157 4.083s33.238-5.485 33.238-4.613z" id="path1039" fill="red" stroke-width="1.614" stroke-linecap="round" stroke-linejoin="bevel" paint-order="fill markers stroke"/><ellipse id="path1043" cx="67.353" cy="214.507" rx="10.287" ry="6.794" fill="#ff8080" stroke-width=".714" stroke-linecap="round" stroke-linejoin="bevel" paint-order="fill markers stroke"/><ellipse id="path1043-7" cx="133.542" cy="213.924" rx="10.287" ry="6.794" fill="#ff8080" stroke-width=".714" stroke-linecap="round" stroke-linejoin="bevel" paint-order="fill markers stroke"/></g></svg>