<?xml version="1.0" encoding="UTF-8" standalone="no"?>
<svg
   xmlns:ns="http://ns.adobe.com/SaveForWeb/1.0/"
   xmlns:dc="http://purl.org/dc/elements/1.1/"
   xmlns:cc="http://creativecommons.org/ns#"
   xmlns:rdf="http://www.w3.org/1999/02/22-rdf-syntax-ns#"
   xmlns:svg="http://www.w3.org/2000/svg"
   xmlns="http://www.w3.org/2000/svg"
   xmlns:sodipodi="http://sodipodi.sourceforge.net/DTD/sodipodi-0.dtd"
   xmlns:inkscape="http://www.inkscape.org/namespaces/inkscape"
   version="1.1"
   x="0px"
   y="0px"
   viewBox="0 0 64 80"
   enable-background="new 0 0 64 64"
   xml:space="preserve"
   id="svg20"
   sodipodi:docname="billing.svg"
   inkscape:version="0.92.3 (2405546, 2018-03-11)"><defs
     id="defs24" /><sodipodi:namedview
     pagecolor="#ffffff"
     bordercolor="#666666"
     borderopacity="1"
     objecttolerance="10"
     gridtolerance="10"
     guidetolerance="10"
     inkscape:pageopacity="0"
     inkscape:pageshadow="2"
     inkscape:window-width="1600"
     inkscape:window-height="837"
     id="namedview22"
     showgrid="false"
     inkscape:zoom="7.928125"
     inkscape:cx="32"
     inkscape:cy="19.818683"
     inkscape:window-x="-8"
     inkscape:window-y="-8"
     inkscape:window-maximized="1"
     inkscape:current-layer="svg20" /><metadata
     id="metadata2"><ns:sfw><ns:slices /><ns:sliceSourceBounds
         height="16384"
         width="16389"
         x="-8165"
         y="-8160"
         bottomLeftOrigin="true" /></ns:sfw><rdf:RDF><cc:Work
         rdf:about=""><dc:format>image/svg+xml</dc:format><dc:type
           rdf:resource="http://purl.org/dc/dcmitype/StillImage" /><dc:title></dc:title></cc:Work></rdf:RDF></metadata><g
     id="g14"><g
       id="g12"><path
         d="M48,7.5H16c-0.276,0-0.5,0.224-0.5,0.5v48c0,0.173,0.09,0.334,0.237,0.426c0.147,0.089,0.331,0.098,0.486,0.021L20,54.559    l3.776,1.889c0.141,0.07,0.307,0.07,0.447,0L28,54.559l3.776,1.889c0.141,0.07,0.307,0.07,0.447,0L36,54.559l3.776,1.889    C39.847,56.482,39.924,56.5,40,56.5s0.153-0.018,0.224-0.053L44,54.559l3.776,1.889c0.154,0.078,0.34,0.068,0.486-0.021    C48.41,56.334,48.5,56.173,48.5,56V8C48.5,7.724,48.276,7.5,48,7.5z M47.5,55.191l-3.276-1.639c-0.141-0.07-0.307-0.07-0.447,0    L40,55.441l-3.776-1.889C36.153,53.518,36.076,53.5,36,53.5s-0.153,0.018-0.224,0.053L32,55.441l-3.776-1.889    c-0.141-0.07-0.307-0.07-0.447,0L24,55.441l-3.776-1.889c-0.141-0.07-0.307-0.07-0.447,0L16.5,55.191V8.5h31V55.191z"
         id="path4" /><path
         d="M40,39.5H24c-0.276,0-0.5,0.224-0.5,0.5s0.224,0.5,0.5,0.5h16c0.276,0,0.5-0.224,0.5-0.5S40.276,39.5,40,39.5z"
         id="path6" /><path
         d="M40,45.5H24c-0.276,0-0.5,0.224-0.5,0.5s0.224,0.5,0.5,0.5h16c0.276,0,0.5-0.224,0.5-0.5S40.276,45.5,40,45.5z"
         id="path8" /><path
         d="M23.242,27c0,0.276,0.224,0.5,0.5,0.5h2.931c1.119,4.252,4.311,7.333,8.069,7.333c2.126,0,4.164-0.998,5.738-2.81    c0.182-0.208,0.159-0.524-0.049-0.706s-0.524-0.159-0.705,0.049c-1.382,1.59-3.152,2.466-4.984,2.466    c-3.226,0-5.974-2.643-7.031-6.333h6.031c0.276,0,0.5-0.224,0.5-0.5s-0.224-0.5-0.5-0.5h-6.271    c-0.145-0.749-0.23-1.528-0.23-2.333c0-0.926,0.107-1.818,0.297-2.667h6.204c0.276,0,0.5-0.224,0.5-0.5s-0.224-0.5-0.5-0.5h-5.937    c1.124-3.516,3.808-6,6.937-6c1.907,0,3.729,0.936,5.13,2.634c0.176,0.214,0.489,0.242,0.704,0.068    c0.213-0.176,0.243-0.491,0.067-0.704c-1.594-1.934-3.689-2.999-5.901-2.999c-3.659,0-6.777,2.922-7.972,7h-3.028    c-0.276,0-0.5,0.224-0.5,0.5s0.224,0.5,0.5,0.5h2.78c-0.176,0.854-0.28,1.744-0.28,2.667c0,0.802,0.077,1.582,0.211,2.333h-2.711    C23.465,26.5,23.242,26.724,23.242,27z"
         id="path10" /></g></g><text
     x="0"
     y="87"
     font-size="5px"
     font-weight="bold"
     id="text16"
     style="font-weight:bold;font-size:5px;font-family:'Helvetica Neue', Helvetica, Arial-Unicode, Arial, Sans-serif;fill:#000000">Created by Ralf Schmitzer</text>
<text
     x="0"
     y="92"
     font-size="5px"
     font-weight="bold"
     id="text18"
     style="font-weight:bold;font-size:5px;font-family:'Helvetica Neue', Helvetica, Arial-Unicode, Arial, Sans-serif;fill:#000000">from the Noun Project</text>
</svg>