<?xml version="1.0" encoding="UTF-8" standalone="no"?>
<svg
   xmlns:ns="http://ns.adobe.com/SaveForWeb/1.0/"
   xmlns:dc="http://purl.org/dc/elements/1.1/"
   xmlns:cc="http://creativecommons.org/ns#"
   xmlns:rdf="http://www.w3.org/1999/02/22-rdf-syntax-ns#"
   xmlns:svg="http://www.w3.org/2000/svg"
   xmlns="http://www.w3.org/2000/svg"
   xmlns:sodipodi="http://sodipodi.sourceforge.net/DTD/sodipodi-0.dtd"
   xmlns:inkscape="http://www.inkscape.org/namespaces/inkscape"
   version="1.1"
   x="0px"
   y="0px"
   viewBox="0 0 80 80"
   xml:space="preserve"
   id="svg20"
   sodipodi:docname="billing.svg"
   inkscape:version="0.92.3 (2405546, 2018-03-11)"><defs
   id="defs24"><inkscape:path-effect
     effect="spiro"
     id="path-effect885"
     is_visible="true" /><inkscape:path-effect
     effect="spiro"
     id="path-effect881"
     is_visible="true" /><inkscape:path-effect
     effect="spiro"
     id="path-effect831"
     is_visible="true" /><inkscape:path-effect
     effect="spiro"
     id="path-effect831-7"
     is_visible="true" /><inkscape:path-effect
     effect="spiro"
     id="path-effect831-2"
     is_visible="true" /><inkscape:path-effect
     effect="spiro"
     id="path-effect885-2"
     is_visible="true" /><inkscape:path-effect
     effect="spiro"
     id="path-effect885-4"
     is_visible="true" /></defs><sodipodi:namedview
   pagecolor="#ffffff"
   bordercolor="#666666"
   borderopacity="1"
   objecttolerance="10"
   gridtolerance="10"
   guidetolerance="10"
   inkscape:pageopacity="0"
   inkscape:pageshadow="2"
   inkscape:window-width="1600"
   inkscape:window-height="837"
   id="namedview22"
   showgrid="false"
   inkscape:zoom="3.6589205"
   inkscape:cx="-10.33552"
   inkscape:cy="41.174772"
   inkscape:window-x="-8"
   inkscape:window-y="-8"
   inkscape:window-maximized="1"
   inkscape:current-layer="g12" /><metadata
   id="metadata2"><ns:sfw><ns:slices /><ns:sliceSourceBounds
       height="16384"
       width="16389"
       x="-8165"
       y="-8160"
       bottomLeftOrigin="true" /></ns:sfw><rdf:RDF><cc:Work
       rdf:about=""><dc:format>image/svg+xml</dc:format><dc:type
         rdf:resource="http://purl.org/dc/dcmitype/StillImage" /><dc:title /></cc:Work></rdf:RDF></metadata><g
   id="g12"
   transform="translate(-2.4613819,-2.4613817)"><rect
     style="opacity:1;fill:#fbfbfb;fill-opacity:1;fill-rule:nonzero;stroke:#4f4f4f;stroke-width:0.2;stroke-linecap:round;stroke-linejoin:round;stroke-miterlimit:4;stroke-dasharray:none;stroke-dashoffset:261.3973999;stroke-opacity:1;paint-order:markers fill stroke"
     id="rect827"
     width="51.948109"
     height="63.089096"
     x="16.690769"
     y="17.701002" /><path
     inkscape:connector-curvature="0"
     id="path10"
     d="M 18.516703,71.746045 C 18.516703,72.022045 18.740703,72.246045 19.016702,72.246045 H 21.947702 C 23.066702,76.498045 26.258702,79.579045 30.016702,79.579045 32.142702,79.579045 34.180702,78.581045 35.754702,76.769045 35.936702,76.561045 35.913702,76.245045 35.705702,76.063045 35.497702,75.881045 35.181702,75.904045 35.000702,76.112045 33.618702,77.702045 31.848702,78.578045 30.016702,78.578045 26.790702,78.578045 24.042702,75.935045 22.985702,72.245045 H 29.016702 C 29.292702,72.245045 29.516702,72.021045 29.516702,71.745045 29.516702,71.469045 29.292702,71.245045 29.016702,71.245045 H 22.745702 C 22.600702,70.496045 22.515702,69.717045 22.515702,68.912045 22.515702,67.986045 22.622702,67.094045 22.812702,66.245045 H 29.016702 C 29.292702,66.245045 29.516702,66.021045 29.516702,65.745045 29.516702,65.469045 29.292702,65.245045 29.016702,65.245045 H 23.079702 C 24.203702,61.729045 26.887702,59.245045 30.016702,59.245045 31.923702,59.245045 33.745702,60.181045 35.146702,61.879045 35.322702,62.093045 35.635702,62.121045 35.850702,61.947045 36.063702,61.771045 36.093702,61.456045 35.917702,61.243045 34.323702,59.309045 32.228702,58.244045 30.016702,58.244045 26.357702,58.244045 23.239702,61.166045 22.044702,65.244045 H 19.016702 C 18.740703,65.244045 18.516703,65.468045 18.516703,65.744045 18.516703,66.020045 18.740703,66.244045 19.016702,66.244045 H 21.796702 C 21.620702,67.098045 21.516702,67.988045 21.516702,68.911045 21.516702,69.713045 21.593702,70.493045 21.727702,71.244045 H 19.016702 C 18.739703,71.246045 18.516703,71.470045 18.516703,71.746045 Z" /><path
     style="fill:none;fill-rule:evenodd;stroke:#000000;stroke-width:0.30000001;stroke-linecap:butt;stroke-linejoin:miter;stroke-miterlimit:4;stroke-dasharray:none;stroke-opacity:1"
     d="M 20.188522,22.88286 H 31.07042"
     id="path829"
     inkscape:connector-curvature="0"
     inkscape:path-effect="#path-effect831"
     inkscape:original-d="M 20.188522,22.88286 H 31.07042" /><path
     style="fill:none;fill-rule:evenodd;stroke:#000000;stroke-width:0.30000001;stroke-linecap:butt;stroke-linejoin:miter;stroke-miterlimit:4;stroke-dasharray:none;stroke-opacity:1"
     d="M 20.280125,26.731308 H 31.162023"
     id="path829-5"
     inkscape:connector-curvature="0"
     inkscape:path-effect="#path-effect831-7"
     inkscape:original-d="M 20.280125,26.731308 H 31.162023" /><path
     style="fill:none;fill-rule:evenodd;stroke:#000000;stroke-width:0.30000001;stroke-linecap:butt;stroke-linejoin:miter;stroke-miterlimit:4;stroke-dasharray:none;stroke-opacity:1"
     d="M 20.226466,30.747246 H 31.108364"
     id="path829-8"
     inkscape:connector-curvature="0"
     inkscape:path-effect="#path-effect831-2"
     inkscape:original-d="M 20.226466,30.747246 H 31.108364" /><path
     style="fill:none;fill-rule:evenodd;stroke:#000000;stroke-width:0.30000001;stroke-linecap:butt;stroke-linejoin:miter;stroke-miterlimit:4;stroke-dasharray:none;stroke-opacity:1"
     d="M 39.800993,69.045831 61.046602,68.916285"
     id="path879"
     inkscape:connector-curvature="0"
     inkscape:path-effect="#path-effect881"
     inkscape:original-d="M 39.800993,69.045831 61.046602,68.916285" /><path
     style="fill:none;fill-rule:evenodd;stroke:#000000;stroke-width:0.30000001;stroke-linecap:butt;stroke-linejoin:miter;stroke-miterlimit:4;stroke-dasharray:none;stroke-opacity:1"
     d="M 33.272709,46.20121 H 64.234299"
     id="path883"
     inkscape:connector-curvature="0"
     inkscape:path-effect="#path-effect885"
     inkscape:original-d="M 33.272709,46.20121 H 64.234299" /><path
     style="fill:none;fill-rule:evenodd;stroke:#000000;stroke-width:0.30000001;stroke-linecap:butt;stroke-linejoin:miter;stroke-miterlimit:4;stroke-dasharray:none;stroke-opacity:1"
     d="M 32.948843,50.994428 H 63.910433"
     id="path883-2"
     inkscape:connector-curvature="0"
     inkscape:path-effect="#path-effect885-2"
     inkscape:original-d="M 32.948843,50.994428 H 63.910433" /><path
     style="fill:none;fill-rule:evenodd;stroke:#000000;stroke-width:0.30000001;stroke-linecap:butt;stroke-linejoin:miter;stroke-miterlimit:4;stroke-dasharray:none;stroke-opacity:1"
     d="M 33.07839,41.407995 H 64.03998"
     id="path883-8"
     inkscape:connector-curvature="0"
     inkscape:path-effect="#path-effect885-4"
     inkscape:original-d="M 33.07839,41.407995 H 64.03998" /><path
     inkscape:connector-curvature="0"
     id="path10-6"
     d="M 26.481662,46.266605 C 26.481662,46.320106 26.525074,46.363514 26.578566,46.363514 H 27.146632 C 27.363513,47.187608 27.982158,47.784746 28.710515,47.784746 29.122558,47.784746 29.51755,47.59132 29.822607,47.24013 29.857885,47.199818 29.853427,47.138573 29.813114,47.103301 29.772802,47.068023 29.711555,47.072483 29.67647,47.112796 29.408626,47.420958 29.065575,47.59074 28.710515,47.59074 28.085277,47.59074 27.552676,47.078491 27.347808,46.363319 H 28.516697 C 28.570188,46.363319 28.613606,46.319904 28.613606,46.266414 28.613606,46.212927 28.570188,46.169512 28.516697,46.169512 H 27.301295 C 27.273198,46.024343 27.256716,45.873363 27.256716,45.717347 27.256716,45.537873 27.277463,45.36499 27.31428,45.200444 H 28.516697 C 28.570188,45.200444 28.613606,45.157031 28.613606,45.103539 28.613606,45.050043 28.570188,45.006628 28.516697,45.006628 H 27.366035 C 27.583874,44.32518 28.104071,43.843752 28.710515,43.843752 29.080117,43.843752 29.433246,44.02516 29.704774,44.354258 29.738881,44.395732 29.799548,44.401161 29.841215,44.367437 29.882499,44.333324 29.888313,44.272273 29.8542,44.230991 29.545263,43.856156 29.139222,43.649746 28.710515,43.649746 28.001346,43.649746 27.397045,44.216066 27.165438,45.006436 H 26.578566 C 26.525074,45.006436 26.481662,45.049852 26.481662,45.103343 26.481662,45.156835 26.525074,45.20025 26.578566,45.20025 H 27.117365 C 27.083255,45.365768 27.063105,45.538263 27.063105,45.717145 27.063105,45.872589 27.078028,46.023761 27.104,46.169316 H 26.578566 C 26.524885,46.169701 26.481662,46.213118 26.481662,46.266605 Z"
     style="stroke-width:0.19381309" /><path
     inkscape:connector-curvature="0"
     id="path10-6-1"
     d="M 26.546595,51.292553 C 26.546595,51.346054 26.590007,51.389462 26.643499,51.389462 H 27.211565 C 27.428446,52.213556 28.047091,52.810694 28.775448,52.810694 29.187491,52.810694 29.582483,52.617268 29.88754,52.266078 29.922818,52.225766 29.91836,52.164521 29.878047,52.129249 29.837735,52.093971 29.776488,52.098431 29.741403,52.138744 29.473559,52.446906 29.130508,52.616688 28.775448,52.616688 28.15021,52.616688 27.617609,52.104439 27.412741,51.389267 H 28.58163 C 28.635121,51.389267 28.678539,51.345852 28.678539,51.292362 28.678539,51.238875 28.635121,51.19546 28.58163,51.19546 H 27.366228 C 27.338131,51.050291 27.321649,50.899311 27.321649,50.743295 27.321649,50.563821 27.342396,50.390938 27.379213,50.226392 H 28.58163 C 28.635121,50.226392 28.678539,50.182979 28.678539,50.129487 28.678539,50.075991 28.635121,50.032576 28.58163,50.032576 H 27.430968 C 27.648807,49.351128 28.169004,48.8697 28.775448,48.8697 29.14505,48.8697 29.498179,49.051108 29.769707,49.380206 29.803814,49.42168 29.864481,49.427109 29.906148,49.393385 29.947432,49.359272 29.953246,49.298221 29.919133,49.256939 29.610196,48.882104 29.204155,48.675694 28.775448,48.675694 28.066279,48.675694 27.461978,49.242014 27.230371,50.032384 H 26.643499 C 26.590007,50.032384 26.546595,50.0758 26.546595,50.129291 26.546595,50.182783 26.590007,50.226198 26.643499,50.226198 H 27.182298 C 27.148188,50.391716 27.128038,50.564211 27.128038,50.743093 27.128038,50.898537 27.142961,51.049709 27.168933,51.195264 H 26.643499 C 26.589818,51.195649 26.546595,51.239066 26.546595,51.292553 Z"
     style="stroke-width:0.19381309" /><path
     inkscape:connector-curvature="0"
     id="path10-6-2"
     d="M 26.668284,41.499336 C 26.668284,41.552837 26.711696,41.596245 26.765188,41.596245 H 27.333254 C 27.550135,42.420339 28.16878,43.017477 28.897137,43.017477 29.30918,43.017477 29.704172,42.824051 30.009229,42.472861 30.044507,42.432549 30.040049,42.371304 29.999736,42.336032 29.959424,42.300754 29.898177,42.305214 29.863092,42.345527 29.595248,42.653689 29.252197,42.823471 28.897137,42.823471 28.271899,42.823471 27.739298,42.311222 27.53443,41.59605 H 28.703319 C 28.75681,41.59605 28.800228,41.552635 28.800228,41.499145 28.800228,41.445658 28.75681,41.402243 28.703319,41.402243 H 27.487917 C 27.45982,41.257074 27.443338,41.106094 27.443338,40.950078 27.443338,40.770604 27.464085,40.597721 27.500902,40.433175 H 28.703319 C 28.75681,40.433175 28.800228,40.389762 28.800228,40.33627 28.800228,40.282774 28.75681,40.239359 28.703319,40.239359 H 27.552657 C 27.770496,39.557911 28.290693,39.076483 28.897137,39.076483 29.266739,39.076483 29.619868,39.257891 29.891396,39.586989 29.925503,39.628463 29.98617,39.633892 30.027837,39.600168 30.069121,39.566055 30.074935,39.505004 30.040822,39.463722 29.731885,39.088887 29.325844,38.882477 28.897137,38.882477 28.187968,38.882477 27.583667,39.448797 27.35206,40.239167 H 26.765188 C 26.711696,40.239167 26.668284,40.282583 26.668284,40.336074 26.668284,40.389566 26.711696,40.432981 26.765188,40.432981 H 27.303987 C 27.269877,40.598499 27.249727,40.770994 27.249727,40.949876 27.249727,41.10532 27.26465,41.256492 27.290622,41.402047 H 26.765188 C 26.711507,41.402432 26.668284,41.445849 26.668284,41.499336 Z"
     style="stroke-width:0.19381309" /></g>

</svg>