<?xml version="1.0" encoding="UTF-8" standalone="no"?>
<svg
   xmlns:ns="http://ns.adobe.com/SaveForWeb/1.0/"
   xmlns:dc="http://purl.org/dc/elements/1.1/"
   xmlns:cc="http://creativecommons.org/ns#"
   xmlns:rdf="http://www.w3.org/1999/02/22-rdf-syntax-ns#"
   xmlns:svg="http://www.w3.org/2000/svg"
   xmlns="http://www.w3.org/2000/svg"
   xmlns:sodipodi="http://sodipodi.sourceforge.net/DTD/sodipodi-0.dtd"
   xmlns:inkscape="http://www.inkscape.org/namespaces/inkscape"
   version="1.1"
   x="0px"
   y="0px"
   viewBox="0 0 80 80"
   xml:space="preserve"
   id="svg20"
   sodipodi:docname="billing.svg"
   inkscape:version="0.92.3 (2405546, 2018-03-11)"><defs
   id="defs24"><inkscape:path-effect
     effect="spiro"
     id="path-effect885"
     is_visible="true" /><inkscape:path-effect
     effect="spiro"
     id="path-effect881"
     is_visible="true" /><inkscape:path-effect
     effect="spiro"
     id="path-effect831"
     is_visible="true" /><inkscape:path-effect
     effect="spiro"
     id="path-effect831-7"
     is_visible="true" /><inkscape:path-effect
     effect="spiro"
     id="path-effect831-2"
     is_visible="true" /><inkscape:path-effect
     effect="spiro"
     id="path-effect885-2"
     is_visible="true" /><inkscape:path-effect
     effect="spiro"
     id="path-effect885-4"
     is_visible="true" /></defs><sodipodi:namedview
   pagecolor="#ffffff"
   bordercolor="#666666"
   borderopacity="1"
   objecttolerance="10"
   gridtolerance="10"
   guidetolerance="10"
   inkscape:pageopacity="0"
   inkscape:pageshadow="2"
   inkscape:window-width="1600"
   inkscape:window-height="837"
   id="namedview22"
   showgrid="false"
   inkscape:zoom="7.1250371"
   inkscape:cx="33.65413"
   inkscape:cy="41.174772"
   inkscape:window-x="-8"
   inkscape:window-y="-8"
   inkscape:window-maximized="1"
   inkscape:current-layer="g12" /><metadata
   id="metadata2"><ns:sfw><ns:slices /><ns:sliceSourceBounds
       height="16384"
       width="16389"
       x="-8165"
       y="-8160"
       bottomLeftOrigin="true" /></ns:sfw><rdf:RDF><cc:Work
       rdf:about=""><dc:format>image/svg+xml</dc:format><dc:type
         rdf:resource="http://purl.org/dc/dcmitype/StillImage" /><dc:title /></cc:Work></rdf:RDF></metadata><g
   id="g12"
   transform="translate(-2.4613819,-2.4613817)"><rect
     style="opacity:1;fill:#fbfbfb;fill-opacity:1;fill-rule:nonzero;stroke:#4f4f4f;stroke-width:0.22630616;stroke-linecap:round;stroke-linejoin:round;stroke-miterlimit:4;stroke-dasharray:none;stroke-dashoffset:261.3973999;stroke-opacity:1;paint-order:markers fill stroke"
     id="rect827"
     width="59.721703"
     height="70.262695"
     x="13.195167"
     y="8.268651" /><path
     inkscape:connector-curvature="0"
     id="path10"
     d="M 20.481605,66.553089 C 20.481605,66.829089 20.705605,67.053089 20.981604,67.053089 H 23.912604 C 25.031604,71.305089 28.223604,74.386089 31.981604,74.386089 34.107604,74.386089 36.145604,73.388089 37.719604,71.576089 37.901604,71.368089 37.878604,71.052089 37.670604,70.870089 37.462604,70.688089 37.146604,70.711089 36.965604,70.919089 35.583604,72.509089 33.813604,73.385089 31.981604,73.385089 28.755604,73.385089 26.007604,70.742089 24.950604,67.052089 H 30.981604 C 31.257604,67.052089 31.481604,66.828089 31.481604,66.552089 31.481604,66.276089 31.257604,66.052089 30.981604,66.052089 H 24.710604 C 24.565604,65.303089 24.480604,64.524089 24.480604,63.719089 24.480604,62.793089 24.587604,61.901089 24.777604,61.052089 H 30.981604 C 31.257604,61.052089 31.481604,60.828089 31.481604,60.552089 31.481604,60.276089 31.257604,60.052089 30.981604,60.052089 H 25.044604 C 26.168604,56.536089 28.852604,54.052089 31.981604,54.052089 33.888604,54.052089 35.710604,54.988089 37.111604,56.686089 37.287604,56.900089 37.600604,56.928089 37.815604,56.754089 38.028604,56.578089 38.058604,56.263089 37.882604,56.050089 36.288604,54.116089 34.193604,53.051089 31.981604,53.051089 28.322604,53.051089 25.204604,55.973089 24.009604,60.051089 H 20.981604 C 20.705605,60.051089 20.481605,60.275089 20.481605,60.551089 20.481605,60.827089 20.705605,61.051089 20.981604,61.051089 H 23.761604 C 23.585604,61.905089 23.481604,62.795089 23.481604,63.718089 23.481604,64.520089 23.558604,65.300089 23.692604,66.051089 H 20.981604 C 20.704605,66.053089 20.481605,66.277089 20.481605,66.553089 Z" /><path
     style="fill:none;fill-rule:evenodd;stroke:#000000;stroke-width:0.30000001;stroke-linecap:butt;stroke-linejoin:miter;stroke-miterlimit:4;stroke-dasharray:none;stroke-opacity:1"
     d="M 22.153424,17.689904 H 33.035322"
     id="path829"
     inkscape:connector-curvature="0"
     inkscape:path-effect="#path-effect831"
     inkscape:original-d="M 22.153424,17.689904 H 33.035322" /><path
     style="fill:none;fill-rule:evenodd;stroke:#000000;stroke-width:0.30000001;stroke-linecap:butt;stroke-linejoin:miter;stroke-miterlimit:4;stroke-dasharray:none;stroke-opacity:1"
     d="M 22.245027,21.538352 H 33.126925"
     id="path829-5"
     inkscape:connector-curvature="0"
     inkscape:path-effect="#path-effect831-7"
     inkscape:original-d="M 22.245027,21.538352 H 33.126925" /><path
     style="fill:none;fill-rule:evenodd;stroke:#000000;stroke-width:0.30000001;stroke-linecap:butt;stroke-linejoin:miter;stroke-miterlimit:4;stroke-dasharray:none;stroke-opacity:1"
     d="M 22.191368,25.55429 H 33.073266"
     id="path829-8"
     inkscape:connector-curvature="0"
     inkscape:path-effect="#path-effect831-2"
     inkscape:original-d="M 22.191368,25.55429 H 33.073266" /><path
     style="fill:none;fill-rule:evenodd;stroke:#000000;stroke-width:0.30000001;stroke-linecap:butt;stroke-linejoin:miter;stroke-miterlimit:4;stroke-dasharray:none;stroke-opacity:1"
     d="M 41.765895,63.852875 63.011504,63.723329"
     id="path879"
     inkscape:connector-curvature="0"
     inkscape:path-effect="#path-effect881"
     inkscape:original-d="M 41.765895,63.852875 63.011504,63.723329" /><path
     style="fill:none;fill-rule:evenodd;stroke:#000000;stroke-width:0.30000001;stroke-linecap:butt;stroke-linejoin:miter;stroke-miterlimit:4;stroke-dasharray:none;stroke-opacity:1"
     d="M 35.237611,41.008254 H 66.199201"
     id="path883"
     inkscape:connector-curvature="0"
     inkscape:path-effect="#path-effect885"
     inkscape:original-d="M 35.237611,41.008254 H 66.199201" /><path
     style="fill:none;fill-rule:evenodd;stroke:#000000;stroke-width:0.30000001;stroke-linecap:butt;stroke-linejoin:miter;stroke-miterlimit:4;stroke-dasharray:none;stroke-opacity:1"
     d="M 34.913745,45.801472 H 65.875335"
     id="path883-2"
     inkscape:connector-curvature="0"
     inkscape:path-effect="#path-effect885-2"
     inkscape:original-d="M 34.913745,45.801472 H 65.875335" /><path
     style="fill:none;fill-rule:evenodd;stroke:#000000;stroke-width:0.30000001;stroke-linecap:butt;stroke-linejoin:miter;stroke-miterlimit:4;stroke-dasharray:none;stroke-opacity:1"
     d="M 35.043292,36.215039 H 66.004882"
     id="path883-8"
     inkscape:connector-curvature="0"
     inkscape:path-effect="#path-effect885-4"
     inkscape:original-d="M 35.043292,36.215039 H 66.004882" /><path
     inkscape:connector-curvature="0"
     id="path10-6"
     d="M 28.446564,41.073649 C 28.446564,41.12715 28.489976,41.170558 28.543468,41.170558 H 29.111534 C 29.328415,41.994652 29.94706,42.59179 30.675417,42.59179 31.08746,42.59179 31.482452,42.398364 31.787509,42.047174 31.822787,42.006862 31.818329,41.945617 31.778016,41.910345 31.737704,41.875067 31.676457,41.879527 31.641372,41.91984 31.373528,42.228002 31.030477,42.397784 30.675417,42.397784 30.050179,42.397784 29.517578,41.885535 29.31271,41.170363 H 30.481599 C 30.53509,41.170363 30.578508,41.126948 30.578508,41.073458 30.578508,41.019971 30.53509,40.976556 30.481599,40.976556 H 29.266197 C 29.2381,40.831387 29.221618,40.680407 29.221618,40.524391 29.221618,40.344917 29.242365,40.172034 29.279182,40.007488 H 30.481599 C 30.53509,40.007488 30.578508,39.964075 30.578508,39.910583 30.578508,39.857087 30.53509,39.813672 30.481599,39.813672 H 29.330937 C 29.548776,39.132224 30.068973,38.650796 30.675417,38.650796 31.045019,38.650796 31.398148,38.832204 31.669676,39.161302 31.703783,39.202776 31.76445,39.208205 31.806117,39.174481 31.847401,39.140368 31.853215,39.079317 31.819102,39.038035 31.510165,38.6632 31.104124,38.45679 30.675417,38.45679 29.966248,38.45679 29.361947,39.02311 29.13034,39.81348 H 28.543468 C 28.489976,39.81348 28.446564,39.856896 28.446564,39.910387 28.446564,39.963879 28.489976,40.007294 28.543468,40.007294 H 29.082267 C 29.048157,40.172812 29.028007,40.345307 29.028007,40.524189 29.028007,40.679633 29.04293,40.830805 29.068902,40.97636 H 28.543468 C 28.489787,40.976745 28.446564,41.020162 28.446564,41.073649 Z"
     style="stroke-width:0.19381309" /><path
     inkscape:connector-curvature="0"
     id="path10-6-1"
     d="M 28.511497,46.099597 C 28.511497,46.153098 28.554909,46.196506 28.608401,46.196506 H 29.176467 C 29.393348,47.0206 30.011993,47.617738 30.74035,47.617738 31.152393,47.617738 31.547385,47.424312 31.852442,47.073122 31.88772,47.03281 31.883262,46.971565 31.842949,46.936293 31.802637,46.901015 31.74139,46.905475 31.706305,46.945788 31.438461,47.25395 31.09541,47.423732 30.74035,47.423732 30.115112,47.423732 29.582511,46.911483 29.377643,46.196311 H 30.546532 C 30.600023,46.196311 30.643441,46.152896 30.643441,46.099406 30.643441,46.045919 30.600023,46.002504 30.546532,46.002504 H 29.33113 C 29.303033,45.857335 29.286551,45.706355 29.286551,45.550339 29.286551,45.370865 29.307298,45.197982 29.344115,45.033436 H 30.546532 C 30.600023,45.033436 30.643441,44.990023 30.643441,44.936531 30.643441,44.883035 30.600023,44.83962 30.546532,44.83962 H 29.39587 C 29.613709,44.158172 30.133906,43.676744 30.74035,43.676744 31.109952,43.676744 31.463081,43.858152 31.734609,44.18725 31.768716,44.228724 31.829383,44.234153 31.87105,44.200429 31.912334,44.166316 31.918148,44.105265 31.884035,44.063983 31.575098,43.689148 31.169057,43.482738 30.74035,43.482738 30.031181,43.482738 29.42688,44.049058 29.195273,44.839428 H 28.608401 C 28.554909,44.839428 28.511497,44.882844 28.511497,44.936335 28.511497,44.989827 28.554909,45.033242 28.608401,45.033242 H 29.1472 C 29.11309,45.19876 29.09294,45.371255 29.09294,45.550137 29.09294,45.705581 29.107863,45.856753 29.133835,46.002308 H 28.608401 C 28.55472,46.002693 28.511497,46.04611 28.511497,46.099597 Z"
     style="stroke-width:0.19381309" /><path
     inkscape:connector-curvature="0"
     id="path10-6-2"
     d="M 28.633186,36.30638 C 28.633186,36.359881 28.676598,36.403289 28.73009,36.403289 H 29.298156 C 29.515037,37.227383 30.133682,37.824521 30.862039,37.824521 31.274082,37.824521 31.669074,37.631095 31.974131,37.279905 32.009409,37.239593 32.004951,37.178348 31.964638,37.143076 31.924326,37.107798 31.863079,37.112258 31.827994,37.152571 31.56015,37.460733 31.217099,37.630515 30.862039,37.630515 30.236801,37.630515 29.7042,37.118266 29.499332,36.403094 H 30.668221 C 30.721712,36.403094 30.76513,36.359679 30.76513,36.306189 30.76513,36.252702 30.721712,36.209287 30.668221,36.209287 H 29.452819 C 29.424722,36.064118 29.40824,35.913138 29.40824,35.757122 29.40824,35.577648 29.428987,35.404765 29.465804,35.240219 H 30.668221 C 30.721712,35.240219 30.76513,35.196806 30.76513,35.143314 30.76513,35.089818 30.721712,35.046403 30.668221,35.046403 H 29.517559 C 29.735398,34.364955 30.255595,33.883527 30.862039,33.883527 31.231641,33.883527 31.58477,34.064935 31.856298,34.394033 31.890405,34.435507 31.951072,34.440936 31.992739,34.407212 32.034023,34.373099 32.039837,34.312048 32.005724,34.270766 31.696787,33.895931 31.290746,33.689521 30.862039,33.689521 30.15287,33.689521 29.548569,34.255841 29.316962,35.046211 H 28.73009 C 28.676598,35.046211 28.633186,35.089627 28.633186,35.143118 28.633186,35.19661 28.676598,35.240025 28.73009,35.240025 H 29.268889 C 29.234779,35.405543 29.214629,35.578038 29.214629,35.75692 29.214629,35.912364 29.229552,36.063536 29.255524,36.209091 H 28.73009 C 28.676409,36.209476 28.633186,36.252893 28.633186,36.30638 Z"
     style="stroke-width:0.19381309" /></g>

</svg>