<?xml version="1.0" encoding="UTF-8" standalone="no"?>
<svg
   xmlns:dc="http://purl.org/dc/elements/1.1/"
   xmlns:cc="http://creativecommons.org/ns#"
   xmlns:rdf="http://www.w3.org/1999/02/22-rdf-syntax-ns#"
   xmlns:svg="http://www.w3.org/2000/svg"
   xmlns="http://www.w3.org/2000/svg"
   xmlns:sodipodi="http://sodipodi.sourceforge.net/DTD/sodipodi-0.dtd"
   xmlns:inkscape="http://www.inkscape.org/namespaces/inkscape"
   version="1.1"
   x="0px"
   y="0px"
   viewBox="0 0 50 62.5"
   enable-background="new 0 0 50 50"
   xml:space="preserve"
   id="svg10"
   sodipodi:docname="blackjack.svg"
   inkscape:version="0.92.3 (2405546, 2018-03-11)"><metadata
     id="metadata16"><rdf:RDF><cc:Work
         rdf:about=""><dc:format>image/svg+xml</dc:format><dc:type
           rdf:resource="http://purl.org/dc/dcmitype/StillImage" /><dc:title></dc:title></cc:Work></rdf:RDF></metadata><defs
     id="defs14" /><sodipodi:namedview
     pagecolor="#ffffff"
     bordercolor="#666666"
     borderopacity="1"
     objecttolerance="10"
     gridtolerance="10"
     guidetolerance="10"
     inkscape:pageopacity="0"
     inkscape:pageshadow="2"
     inkscape:window-width="1600"
     inkscape:window-height="837"
     id="namedview12"
     showgrid="false"
     inkscape:zoom="10.148"
     inkscape:cx="25"
     inkscape:cy="47.016654"
     inkscape:window-x="-8"
     inkscape:window-y="-8"
     inkscape:window-maximized="1"
     inkscape:current-layer="svg10" /><g
     id="g4"
     transform="translate(0,4)"><path
       d="M 28.388,33.957 H 26.772 L 27.022,34.973 C 26.317,34.61 25.557,35.197 25.557,35.963 25.557,36.878 27.032,38.298 27.579,38.951 28.126,38.299 29.601,36.877 29.601,35.963 29.601,35.197 28.843,34.611 28.137,34.972 Z M 33.906,43.452 V 0 H 4.453 V 43.452 Z M 31.092,2.813 V 40.638 H 7.266 V 2.813 Z M 36.486,13.239 C 36.391,13.999 37.071,14.674 37.816,14.403 L 37.442,15.379 39.046,15.579 38.923,14.54 C 39.578,14.987 40.404,14.498 40.499,13.738 40.612,12.831 39.324,11.238 38.862,10.523 38.238,11.103 36.599,12.332 36.486,13.239 Z M 11.561,9.408 11.311,8.392 C 12.017,8.753 12.775,8.168 12.775,7.401 12.775,6.487 11.3,5.065 10.753,4.413 10.206,5.065 8.731,6.486 8.731,7.401 8.731,8.167 9.49,8.753 10.195,8.391 L 9.945,9.407 H 11.561 Z M 35.256,5.601 V 8.434 L 42.409,9.325 37.734,46.862 21.194,44.801 H 11.144 L 10.95,46.359 40.177,50 45.547,6.882 Z M 23.775,22.842 C 23.775,20.765 20.423,17.533 19.179,16.051 17.935,17.535 14.583,20.763 14.583,22.842 14.583,24.582 16.308,25.916 17.912,25.092 L 17.344,27.401 H 21.015 L 20.447,25.093 C 22.052,25.913 23.775,24.582 23.775,22.842 Z"
       id="path2"
       inkscape:connector-curvature="0"
       style="clip-rule:evenodd;fill-rule:evenodd" /></g></svg>