<?xml version="1.0" encoding="UTF-8" standalone="no"?>
<svg
   xmlns:dc="http://purl.org/dc/elements/1.1/"
   xmlns:cc="http://creativecommons.org/ns#"
   xmlns:rdf="http://www.w3.org/1999/02/22-rdf-syntax-ns#"
   xmlns:svg="http://www.w3.org/2000/svg"
   xmlns="http://www.w3.org/2000/svg"
   xmlns:sodipodi="http://sodipodi.sourceforge.net/DTD/sodipodi-0.dtd"
   xmlns:inkscape="http://www.inkscape.org/namespaces/inkscape"
   viewBox="0 0 104.246 105.833"
   version="1.1"
   id="svg27"
   sodipodi:docname="java-training.svg"
   inkscape:version="0.92.3 (2405546, 2018-03-11)">
  <metadata
     id="metadata52">
    <rdf:RDF>
      <cc:Work
         rdf:about="">
        <dc:format>image/svg+xml</dc:format>
        <dc:type
           rdf:resource="http://purl.org/dc/dcmitype/StillImage" />
        <dc:title />
      </cc:Work>
    </rdf:RDF>
  </metadata>
  <defs
     id="defs50" />
  <sodipodi:namedview
     pagecolor="#ffffff"
     bordercolor="#666666"
     borderopacity="1"
     objecttolerance="10"
     gridtolerance="10"
     guidetolerance="10"
     inkscape:pageopacity="0"
     inkscape:pageshadow="2"
     inkscape:window-width="1600"
     inkscape:window-height="837"
     id="namedview48"
     showgrid="false"
     inkscape:zoom="4.4660781"
     inkscape:cx="89.75311"
     inkscape:cy="36.253673"
     inkscape:window-x="-8"
     inkscape:window-y="-8"
     inkscape:window-maximized="1"
     inkscape:current-layer="svg27" />
  <style>
  <![CDATA[

#plant{
  animation-name:grow;
  animation-duration:10s;
  animation-iteration-count: infinite;
  transform-origin: center center;
}

#can{
  animation-name:tip;
  animation-duration:10s;
  animation-iteration-count: infinite;
  transform-origin: center center;
}

#water{
  animation-name:pour;
  animation-duration:10s;
  animation-iteration-count: infinite;
  transform-origin: center center;
}

#hand{
  animation-name:throw;
  animation-duration:10s;
  animation-iteration-count: infinite;
  transform-origin: center center;
}

#seed{
  animation-name:throw-seed;
  animation-duration:10s;
  animation-iteration-count: infinite;
  transform-origin: center center;
}

@keyframes grow{
  0%{transform: scale(0) translateY(0);}
  20%{ transform: scale(0.1) translateY(5px);}
  100%{ transform: scale(1) translateY(0);}
}

@keyframes tip {
  0%{ transform: rotate(50deg);}
  10%{transform: rotate(0deg);}
  90%{transform: rotate(0deg);}
  100%{transform: rotate(50deg);}
}

@keyframes pour {
  0%{ opacity:0;}
  8%{ opacity:0;}
  11%{opacity: 1;}
  90%{opacity: 1;}
  100%{opacity: 0;}
}

@keyframes throw {
  0%{ transform: translateX(0);}
  1%{ transform: translateX(-40px);}
  3%{ transform:translateX(-50px) rotate(-10deg);}
  15%{ transform: translateX(0) rotate(0deg);}
}

@keyframes throw-seed {
  0%{ transform: translateX(0);}
  1%{ transform: translateX(-40px);}
  3%{ transform: translateX(-50px) scale(.75)}
  10%{opacity:0;}
  99%{opacity:0;
       transform:translateX(0) scale(1);}
}
]]>
  </style>
  <path
     d="M 53.380559,65.724454 A 1.69,1.69 0 1 0 53.380559,69.103454 1.69,1.69 0 0 0 53.380559,65.723454 M 44.944559,67.413454 A 1.69,1.69 0 1 0 41.565559,67.413454 1.69,1.69 0 0 0 44.944559,67.413454 M 48.318559,75.428454 A 6.488,6.488 0 0 1 43.699559,73.515454 L 42.402559,74.812454 A 8.311,8.311 0 0 0 48.318559,77.262454 C 50.552559,77.262454 52.653559,76.392454 54.234559,74.812454 L 52.936559,73.515454 A 6.488,6.488 0 0 1 48.318559,75.428454 M 56.791559,76.141454 C 59.211559,73.028454 60.543559,68.857454 60.543559,64.398454 59.888559,56.134454 56.507559,53.519454 48.374559,53.432454 46.076559,53.432454 43.750559,53.939454 41.754559,54.975454 36.828559,57.534454 36.092559,61.033454 36.092559,64.398454 36.092559,67.928454 36.825559,72.955454 40.312559,76.847454 42.649559,79.456454 45.508559,81.621454 49.204559,81.249454 52.476559,80.919454 54.867559,78.619454 56.791559,76.141454 M 54.291559,81.167454 C 54.264559,82.321454 54.384559,84.360454 55.436559,85.556454 55.996559,86.191454 56.757559,86.499454 57.764559,86.499454 V 88.335454 C 56.218559,88.335454 54.970559,87.806454 54.054559,86.763454 52.924559,85.475454 52.567559,83.649454 52.478559,82.228454 A 9.69,9.69 0 0 1 44.156559,82.237454 C 44.066559,83.657454 43.708559,85.478454 42.580559,86.763454 41.665559,87.806454 40.417559,88.335454 38.870559,88.335454 V 86.499454 C 39.880559,86.499454 40.642559,86.189454 41.201559,85.553454 42.188559,84.428454 42.374559,82.462454 42.348559,81.188454 41.015559,80.260454 39.892559,79.128454 38.945559,78.071454 35.071559,73.747454 34.258559,68.249454 34.257559,64.398454 34.257559,57.868454 36.620559,55.574454 40.909559,53.347454 46.021559,50.692454 53.091559,51.134454 57.355559,54.374454 60.641559,56.872454 62.378559,58.684454 62.378559,64.398454 62.378559,69.263454 60.908559,73.833454 58.240559,77.268454 56.957559,78.918454 55.645559,80.213454 54.291559,81.168454"
     id="path4"
     inkscape:connector-curvature="0"
     style="fill-rule:evenodd" />
  <path
     d="M 60.449559,48.855224 C 59.636559,49.212224 58.870559,49.661224 58.110559,50.117224 57.251559,50.642224 56.450559,51.254224 55.664559,51.881224 55.110559,52.334224 54.602559,52.836224 54.098559,53.343224 53.692559,53.739224 53.302559,54.153224 52.935559,54.585224 52.711559,54.861224 52.491559,55.138224 52.261559,55.408224 52.071559,55.626224 51.879559,55.841224 51.689559,56.058224 51.565559,56.206224 51.434559,56.348224 51.342559,56.518224 A 3.697,3.697 0 0 1 51.035559,57.020224 C 50.969559,57.117224 51.000559,57.069224 50.941559,57.164224 L 50.390559,57.267224 C 50.449559,57.169224 50.418559,57.219224 50.484559,57.120224 50.598559,56.962224 50.707559,56.802224 50.792559,56.626224 50.880559,56.448224 51.012559,56.303224 51.140559,56.153224 L 51.713559,55.503224 C 51.946559,55.233224 52.168559,54.955224 52.393559,54.679224 52.760559,54.243224 53.153559,53.829224 53.559559,53.431224 54.067559,52.924224 54.576559,52.418224 55.132559,51.962224 55.921559,51.332224 56.727559,50.720224 57.587559,50.189224 58.339559,49.737224 59.097559,49.291224 59.894559,48.923224 Z M 61.397559,51.338224 C 60.584559,51.695224 59.817559,52.144224 59.057559,52.600224 58.199559,53.125224 57.397559,53.737224 56.611559,54.364224 56.058559,54.817224 55.549559,55.319224 55.045559,55.826224 54.639559,56.222224 54.249559,56.636224 53.882559,57.068224 53.659559,57.344224 53.439559,57.621224 53.209559,57.891224 53.019559,58.109224 52.827559,58.324224 52.637559,58.541224 52.512559,58.689224 52.382559,58.831224 52.290559,59.001224 A 3.697,3.697 0 0 1 51.982559,59.503224 C 51.916559,59.600224 51.947559,59.552224 51.888559,59.647224 L 51.338559,59.750224 C 51.397559,59.652224 51.365559,59.702224 51.432559,59.603224 51.545559,59.445224 51.655559,59.285224 51.740559,59.109224 51.827559,58.931224 51.960559,58.786224 52.088559,58.636224 L 52.661559,57.986224 C 52.893559,57.716224 53.116559,57.438224 53.341559,57.162224 53.707559,56.726224 54.101559,56.312224 54.507559,55.914224 55.014559,55.407224 55.524559,54.901224 56.079559,54.445224 56.869559,53.815224 57.674559,53.203224 58.534559,52.672224 59.286559,52.220224 60.044559,51.774224 60.842559,51.406224 Z"
     id="water"
     inkscape:connector-curvature="0"
     style="fill:#1a90ff;stroke:#1a90ff;stroke-width:0.37799999;stroke-linecap:round;stroke-linejoin:round;stroke-dashoffset:261.39700317"
     inkscape:label="#path34" />
  <g
     id="plant"
     inkscape:label="#g849"
     transform="translate(-0.10107661)">
    <path
       style="fill:none;stroke:#009d00;stroke-width:0.96499997;stroke-linecap:round;stroke-linejoin:bevel;paint-order:stroke fill markers"
       inkscape:connector-curvature="0"
       id="path6"
       d="M 44.987837,33.370028 A 1.297,0.698 64.687 0 1 45.249837,32.250028 1.297,0.698 64.687 0 1 46.290837,32.960028 1.297,0.698 64.687 0 1 46.510837,34.409028" />
    <path
       style="fill:none;stroke:#009d00;stroke-width:1.05200005;stroke-linecap:round;stroke-linejoin:bevel;paint-order:stroke fill markers"
       inkscape:connector-curvature="0"
       id="path8"
       d="M 48.349837,34.093028 C 49.024837,33.568028 48.871837,35.368028 48.427837,38.207028 A 19.618,19.618 0 0 1 48.098837,39.887028 C 47.524837,42.167028 46.577837,44.114028 45.962837,44.838028" />
    <path
       style="fill:none;stroke:#009d00;stroke-width:0.93099999;stroke-linecap:round;stroke-linejoin:bevel;paint-order:stroke fill markers"
       inkscape:connector-curvature="0"
       id="path10"
       d="M 44.795837,35.746028 A 0.676,3.195 13.886 0 1 44.065837,39.876028 0.676,3.195 13.886 0 1 42.847837,41.186028" />
    <path
       style="fill:none;stroke:#009d00;stroke-width:0.99199998;stroke-linecap:round;stroke-linejoin:bevel;paint-order:stroke fill markers"
       inkscape:connector-curvature="0"
       id="path12"
       d="M 46.694837,36.287028 A 0.676,3.195 13.886 0 1 46.074837,40.262028 0.676,3.195 13.886 0 1 44.808837,41.980028" />
    <path
       style="fill:none;stroke:#009d00;stroke-width:0.93079054;stroke-linecap:round;stroke-linejoin:bevel;paint-order:stroke fill markers"
       inkscape:connector-curvature="0"
       id="path14"
       d="M 43.013477,33.739368 A 0.67618213,3.9448501 13.99801 0 1 42.500217,37.507958 0.67618213,3.9448501 13.99801 0 1 41.185094,40.882818 0.67618213,3.9448501 13.99801 0 1 40.765958,39.503038" />
    <path
       style="fill:none;stroke:#009d00;stroke-width:0.89700001;stroke-linecap:round;stroke-linejoin:bevel;paint-order:stroke fill markers"
       inkscape:connector-curvature="0"
       id="path16"
       d="M 50.386837,35.238028 C 50.570837,35.691028 50.562837,37.533028 50.258837,39.226028 49.954837,41.355028 48.889837,43.038028 48.354837,44.320028" />
    <path
       style="fill:none;stroke:#ff0000;stroke-width:0.89700001"
       inkscape:connector-curvature="0"
       id="path18"
       d="M 41.849837,34.920028 41.442837,35.288028 C 41.220837,35.502028 40.880837,35.670028 40.696837,35.044028 40.622837,34.774028 40.597837,34.305028 40.478837,34.109028 40.303837,33.822028 40.204837,33.768028 39.947837,33.991028 M 40.519837,37.127028 40.113837,37.495028 C 39.890837,37.708028 39.550837,37.876028 39.366837,37.250028 39.292837,36.980028 39.268837,36.511028 39.148837,36.315028 38.973837,36.028028 38.874837,35.975028 38.618837,36.197028" />
    <path
       style="fill:#00ff00;stroke:#009d00;stroke-width:0.68000001;stroke-linecap:round;stroke-linejoin:round;stroke-dashoffset:261.39700317"
       inkscape:connector-curvature="0"
       id="path20"
       d="M 48.060837,61.483028 C 48.061837,61.403028 48.060837,61.322028 48.064837,61.241028 48.079837,60.869028 48.120837,60.397028 48.148837,60.047028 48.262837,58.607028 47.908837,53.186028 48.052837,51.750028 48.362837,48.612028 50.450837,45.616028 50.889837,42.501028 L 51.021837,41.629028 51.465837,41.364028 51.322837,42.242028 C 50.854837,45.356028 48.856837,48.424028 48.564837,51.572028 48.510837,52.137028 48.562837,52.902028 48.513837,53.469028 48.429837,54.429028 48.655837,58.833028 48.596837,59.772028 48.581837,60.012028 48.541837,60.642028 48.534837,60.946028 48.532837,61.026028 48.536837,61.106028 48.538837,61.184028 Z" />
  </g>
  <g
     id="sun"
     inkscape:label="#g839">
    <path
       d="M 71.112,20.372 68.927,18.188 67.995,21.133 67.195,18.149 64.915,20.234 65.714,17.25 62.698,17.916 64.881,15.731 61.936,14.799 64.92,13.999 62.835,11.719 65.819,12.518 65.153,9.501 67.338,11.685 68.27,8.7400004 69.07,11.723 71.35,9.639 70.551,12.623 73.568,11.957 71.384,14.142 74.329,15.074 71.345,15.874 73.43,18.154 70.446,17.355 Z"
       id="path36"
       inkscape:connector-curvature="0"
       style="fill:#ffa200" />
    <ellipse
       ry="4.1849999"
       rx="4.2820001"
       cy="14.956982"
       cx="68.281998"
       id="ellipse38"
       style="fill:#ffa200" />
  </g>
  <g
     id="can"
     inkscape:label="#g845">
    <path
       inkscape:connector-curvature="0"
       id="path24"
       d="M 75.47,28.632 76.051,28.942 A 5.301,5.301 0 0 1 85.35401,33.913 L 85.93501,34.223 A 5.957,5.957 0 0 0 75.47,28.63 Z" />
    <path
       inkscape:connector-curvature="0"
       id="path26"
       d="M 73.195,27.178 A 8.693,8.693 0 0 0 72.701,28.046 1.283,1.283 0 0 1 73.597,27.776 L 73.751,27.54 A 8,8 0 0 1 87.75001,35.197 L 88.33001,35.507 A 8.657,8.657 0 0 0 73.2,27.183 Z" />
    <path
       inkscape:connector-curvature="0"
       id="path28"
       d="M 90.37601,36.597 74.194,27.95 C 73.559,27.611 72.81,27.77 72.451,28.322 L 65.601,38.845 C 65.243,39.395 65.4,40.146 65.967,40.589 L 80.425,51.885 A 1.466,1.466 0 0 0 81.563,52.188 1.207,1.207 0 0 0 82.389,51.658 L 90.96401,38.485 A 1.207,1.207 0 0 0 91.11401,37.514 1.466,1.466 0 0 0 90.37601,36.597 Z M 90.41301,38.128 81.839,51.301 C 81.639,51.606 81.17,51.639 80.829,51.371 L 66.369,40.073 C 66.074,39.841 65.981,39.467 66.153,39.203 L 73.002,28.681 C 73.172,28.418 73.555,28.351 73.885,28.527 L 90.06701,37.175 C 90.45001,37.381 90.61101,37.825 90.41201,38.129 Z" />
    <path
       inkscape:connector-curvature="0"
       id="path30"
       d="M 78.941,50.281 88.49101,35.609 88.92501,35.891 79.374,50.563 Z M 65.157,50.516 79.116,50.866 78.248,50.186 65.253,49.863 A 5.21,5.21 0 0 1 65.157,50.516 Z M 64.832,47.049 A 5.542,5.542 0 0 1 65.048,47.68 L 73.402,46.4 72.692,45.846 Z" />
    <path
       inkscape:connector-curvature="0"
       id="path32"
       d="M 62.552,45.206 61.902,45.284 62.771,52.639 63.423,52.56 A 1.763,1.763 0 0 0 64.689,51.701 C 65.169,50.963 65.371,49.811 65.23,48.617 A 5.385,5.385 0 0 0 64.4,46.238 C 63.887,45.494 63.23,45.128 62.552,45.206 Z M 64.585,48.698 C 64.783,50.369 64.23,51.808 63.35,51.912 L 62.628,45.859 C 63.508,45.755 64.382,47.026 64.578,48.696 Z" />
    <path
       inkscape:label="#path42"
       style="fill:#cccccc"
       inkscape:connector-curvature="0"
       id="inner"
       d="M 72.737,45.011 C 69.245,42.285 66.317,39.957 66.233,39.838 66.14,39.708 66.09,39.558 66.105,39.458 66.131,39.293 72.852,28.912 73.118,28.625 A 0.478,0.478 0 0 1 73.488,28.477 C 73.666,28.477 75.326,29.334 80.802,32.257 84.69801,34.335 87.92601,36.074 87.97501,36.119 88.05001,36.189 87.30201,37.376 83.61801,43.039 81.172,46.799 79.152,49.896 79.129,49.921 79.106,49.946 76.229,47.736 72.737,45.011 Z M 72.109,50.004 C 69.035,49.921 66.244,49.851 65.907,49.848 L 65.296,49.842 65.293,49.297 A 7.332,7.332 0 0 0 65.201,48.255 C 65.152,47.982 65.131,47.741 65.154,47.72 65.198,47.679 73.11,46.466 73.321,46.468 73.415,46.468 77.631,49.685 78.06,50.083 78.143,50.16 78.124,50.172 77.927,50.163 77.801,50.159 75.183,50.087 72.109,50.004 Z M 63.375,51.841 C 63.374,51.815 63.213,50.469 63.018,48.851 62.822,47.231 62.674,45.894 62.688,45.879 62.772,45.794 63.295,46.052 63.545,46.302 64.139,46.896 64.499,47.894 64.551,49.089 64.614,50.549 64.216,51.586 63.493,51.847 63.429,51.87 63.376,51.867 63.375,51.841 Z M 80.398,50.993 C 80.041,50.716 79.708,50.451 79.66,50.405 79.586,50.335 80.35,49.124 84.08401,43.385 86.56601,39.569 88.60101,36.443 88.60501,36.438 88.63401,36.404 90.14201,37.272 90.27101,37.397 90.64101,37.755 90.81101,37.456 86.13001,44.652 83.76401,48.289 81.766,51.317 81.69,51.38 81.612,51.446 81.445,51.496 81.3,51.496 81.086,51.496 80.948,51.419 80.398,50.993 Z M 86.80401,34.653 C 86.17401,34.316 85.99601,34.193 86.02401,34.109 86.38901,33 86.49901,32.178 86.40101,31.297 86.11601,28.743 84.39701,26.755 81.894,26.085 81.119,25.878 79.866,25.877 79.034,26.083 77.74,26.403 76.571,27.146 75.788,28.147 L 75.447,28.583 74.797,28.235 C 74.44,28.044 74.046,27.854 73.922,27.813 73.798,27.773 73.696,27.723 73.696,27.703 73.696,27.588 74.396,26.713 74.851,26.259 77.547,23.571 81.706,23.166 84.89701,25.282 85.51301,25.691 86.38701,26.526 86.85801,27.159 88.24401,29.019 88.76501,31.559 88.21001,33.758 88.05501,34.372 87.77801,35.091 87.69601,35.09 87.65501,35.09 87.25301,34.892 86.80401,34.653 Z" />
  </g>
  <path
     style="opacity:1;fill:#ffb380;fill-opacity:1;fill-rule:nonzero;stroke:#000000;stroke-width:0.37795275;stroke-linecap:round;stroke-linejoin:round;stroke-miterlimit:4;stroke-dasharray:none;stroke-dashoffset:261.3973999;stroke-opacity:1;paint-order:normal"
     d="M 108.88797,67.188658 C 112.64128,65.465324 122.12806,68.15565 125.23779,67.149381 126.24912,66.822127 117.75638,66.164375 119.06926,63.791828 119.55786,62.908868 120.14959,61.764599 123.52748,61.081627 124.65199,60.468928 126.31258,60.592329 127.68164,60.583703 130.76779,60.564258 133.79297,61.294347 135.94609,61.498798 V 73.589945 H 119.37674 C 115.79524,73.360372 112.85492,73.439882 110.81892,71.19149 110.01798,70.306998 109.43052,68.841629 108.88797,67.188658 Z"
     id="hand"
     inkscape:connector-curvature="0"
     sodipodi:nodetypes="csscscccsc"
     inkscape:label="#rect847" />
  <ellipse
     style="opacity:1;fill:#ac7550;fill-opacity:1;fill-rule:nonzero;stroke:none;stroke-width:0.37795275;stroke-linecap:round;stroke-linejoin:round;stroke-miterlimit:4;stroke-dasharray:none;stroke-dashoffset:261.3973999;stroke-opacity:1;paint-order:normal"
     id="seed"
     cx="113.95957"
     cy="64.311386"
     rx="3.0082386"
     ry="2.0186865"
     inkscape:label="#path852" />
</svg>
