<?xml version="1.0" encoding="UTF-8" standalone="no"?>
<svg
   xmlns:dc="http://purl.org/dc/elements/1.1/"
   xmlns:cc="http://creativecommons.org/ns#"
   xmlns:rdf="http://www.w3.org/1999/02/22-rdf-syntax-ns#"
   xmlns:svg="http://www.w3.org/2000/svg"
   xmlns="http://www.w3.org/2000/svg"
   xmlns:sodipodi="http://sodipodi.sourceforge.net/DTD/sodipodi-0.dtd"
   xmlns:inkscape="http://www.inkscape.org/namespaces/inkscape"
   viewBox="0 0 104.246 105.833"
   version="1.1"
   id="svg27"
   sodipodi:docname="java-training-anim.svg"
   inkscape:version="0.92.3 (2405546, 2018-03-11)">
  <metadata
     id="metadata52">
    <rdf:RDF>
      <cc:Work
         rdf:about="">
        <dc:format>image/svg+xml</dc:format>
        <dc:type
           rdf:resource="http://purl.org/dc/dcmitype/StillImage" />
        <dc:title />
      </cc:Work>
    </rdf:RDF>
  </metadata>
  <defs
     id="defs50" />
  <sodipodi:namedview
     pagecolor="#ffffff"
     bordercolor="#666666"
     borderopacity="1"
     objecttolerance="10"
     gridtolerance="10"
     guidetolerance="10"
     inkscape:pageopacity="0"
     inkscape:pageshadow="2"
     inkscape:window-width="1600"
     inkscape:window-height="837"
     id="namedview48"
     showgrid="false"
     inkscape:zoom="4.2435546"
     inkscape:cx="75.172917"
     inkscape:cy="31.179243"
     inkscape:window-x="-8"
     inkscape:window-y="-8"
     inkscape:window-maximized="1"
     inkscape:current-layer="svg27" />
  <style
     id="style5"><![CDATA[

.training-plant{
animation-name:training-grow;
animation-duration:6s;
animation-iteration-count: infinite;
transform-origin: center center;
}

.training-can{
animation-name:training-tip;
animation-duration:6s;
animation-iteration-count: infinite;
transform-origin: center center;
}

.training-water{
animation-name:training-pour;
animation-duration:6s;
animation-iteration-count: infinite;
transform-origin: center center;
}

.training-hand{
animation-name:training-throw;
animation-duration:6s;
animation-iteration-count: infinite;
transform-origin: center center;
}

.training-seed{
animation-name:training-throw-seed;
animation-duration:6s;
animation-iteration-count: infinite;
transform-origin: center center;
}

@keyframes training-grow{
0%{transform: scale(0) translateY(0);}
20%{ transform: scale(0.1) translateX(5px);}
100%{ transform: scale(1) translateX(5px);}
}

@keyframes training-tip {
0%{ transform: rotate(50deg);}
10%{transform: rotate(0deg);}
90%{transform: rotate(0deg);}
100%{transform: rotate(50deg);}
}

@keyframes training-pour {
0%{ opacity:0;}
8%{ opacity:0;}
11%{opacity: 1;}
90%{opacity: 1;}
100%{opacity: 0;}
}

@keyframes training-throw {
0%{ opacity:0;
    transform: translateX(0);}
3%{ opacity:1;
  transform: translateX(-40px);}
5%{ transform:translateX(-50px) rotate(-10deg);}
15%{ opacity:0;
  transform: translateX(0) rotate(0deg);}
100%{
  opacity:0;
  transform: translateX(0) rotate(0deg);}
}

@keyframes training-throw-seed {
0%{opacity:0;}
3%{opacity:1;
    transform: translateX(-40px);}
5%{ transform: translateX(-45px) scale(.75)}
10%{opacity:0;}
99%{opacity:0;
     transform:translateX(0) scale(1);}
}

]]></style>
  <rect
     style="opacity:1;fill:#ffffff;fill-opacity:1;fill-rule:nonzero;stroke:none;stroke-width:0.37795275;stroke-linecap:round;stroke-linejoin:round;stroke-miterlimit:4;stroke-dasharray:none;stroke-dashoffset:261.3973999;stroke-opacity:1;paint-order:normal"
     id="rect4539"
     width="154.11607"
     height="156.0013"
     x="-45.48074"
     y="-3.7449512" />
  <path
     d="M 58.781,65.724454 A 1.69,1.69 0 1 0 58.781,69.103454 1.69,1.69 0 0 0 58.781,65.723454 M 50.345,67.413454 A 1.69,1.69 0 1 0 46.966,67.413454 1.69,1.69 0 0 0 50.345,67.413454 M 53.719,75.428454 A 6.488,6.488 0 0 1 49.1,73.515454 L 47.803,74.812454 A 8.311,8.311 0 0 0 53.719,77.262454 C 55.953,77.262454 58.054,76.392454 59.635,74.812454 L 58.337,73.515454 A 6.488,6.488 0 0 1 53.719,75.428454 M 62.192,76.141454 C 64.612,73.028454 65.944,68.857454 65.944,64.398454 65.289,56.134454 61.908,53.519454 53.775,53.432454 51.477,53.432454 49.151,53.939454 47.155,54.975454 42.229,57.534454 41.493,61.033454 41.493,64.398454 41.493,67.928454 42.226,72.955454 45.713,76.847454 48.05,79.456454 50.909,81.621454 54.605,81.249454 57.877,80.919454 60.268,78.619454 62.192,76.141454 M 59.692,81.167454 C 59.665,82.321454 59.785,84.360454 60.837,85.556454 61.397,86.191454 62.158,86.499454 63.165,86.499454 V 88.335454 C 61.619,88.335454 60.371,87.806454 59.455,86.763454 58.325,85.475454 57.968,83.649454 57.879,82.228454 A 9.69,9.69 0 0 1 49.557,82.237454 C 49.467,83.657454 49.109,85.478454 47.981,86.763454 47.066,87.806454 45.818,88.335454 44.271,88.335454 V 86.499454 C 45.281,86.499454 46.043,86.189454 46.602,85.553454 47.589,84.428454 47.775,82.462454 47.749,81.188454 46.416,80.260454 45.293,79.128454 44.346,78.071454 40.472,73.747454 39.659,68.249454 39.658,64.398454 39.658,57.868454 42.021,55.574454 46.31,53.347454 51.422,50.692454 58.492,51.134454 62.756,54.374454 66.042,56.872454 67.779,58.684454 67.779,64.398454 67.779,69.263454 66.309,73.833454 63.641,77.268454 62.358,78.918454 61.046,80.213454 59.692,81.168454"
     id="path4"
     inkscape:connector-curvature="0"
     style="fill-rule:evenodd" />
  <path
     d="M 65.85,48.855224 C 65.037,49.212224 64.271,49.661224 63.511,50.117224 62.652,50.642224 61.851,51.254224 61.065,51.881224 60.511,52.334224 60.003,52.836224 59.499,53.343224 59.093,53.739224 58.703,54.153224 58.336,54.585224 58.112,54.861224 57.892,55.138224 57.662,55.408224 57.472,55.626224 57.28,55.841224 57.09,56.058224 56.966,56.206224 56.835,56.348224 56.743,56.518224 A 3.697,3.697 0 0 1 56.436,57.020224 C 56.37,57.117224 56.401,57.069224 56.342,57.164224 L 55.791,57.267224 C 55.85,57.169224 55.819,57.219224 55.885,57.120224 55.999,56.962224 56.108,56.802224 56.193,56.626224 56.281,56.448224 56.413,56.303224 56.541,56.153224 L 57.114,55.503224 C 57.347,55.233224 57.569,54.955224 57.794,54.679224 58.161,54.243224 58.554,53.829224 58.96,53.431224 59.468,52.924224 59.977,52.418224 60.533,51.962224 61.322,51.332224 62.128,50.720224 62.988,50.189224 63.74,49.737224 64.498,49.291224 65.295,48.923224 Z M 66.798,51.338224 C 65.985,51.695224 65.218,52.144224 64.458,52.600224 63.6,53.125224 62.798,53.737224 62.012,54.364224 61.459,54.817224 60.95,55.319224 60.446,55.826224 60.04,56.222224 59.65,56.636224 59.283,57.068224 59.06,57.344224 58.84,57.621224 58.61,57.891224 58.42,58.109224 58.228,58.324224 58.038,58.541224 57.913,58.689224 57.783,58.831224 57.691,59.001224 A 3.697,3.697 0 0 1 57.383,59.503224 C 57.317,59.600224 57.348,59.552224 57.289,59.647224 L 56.739,59.750224 C 56.798,59.652224 56.766,59.702224 56.833,59.603224 56.946,59.445224 57.056,59.285224 57.141,59.109224 57.228,58.931224 57.361,58.786224 57.489,58.636224 L 58.062,57.986224 C 58.294,57.716224 58.517,57.438224 58.742,57.162224 59.108,56.726224 59.502,56.312224 59.908,55.914224 60.415,55.407224 60.925,54.901224 61.48,54.445224 62.27,53.815224 63.075,53.203224 63.935,52.672224 64.687,52.220224 65.445,51.774224 66.243,51.406224 Z"
     class="training-water"
     inkscape:connector-curvature="0"
     style="fill:#1a90ff;stroke:#1a90ff;stroke-width:0.37799999;stroke-linecap:round;stroke-linejoin:round;stroke-dashoffset:261.39700317"
     inkscape:label="#path34" />
  <g
     class="training-plant"
     inkscape:label="#g849">
    <path
       style="fill:none;stroke:#009d00;stroke-width:0.96499997;stroke-linecap:round;stroke-linejoin:bevel;paint-order:stroke fill markers"
       inkscape:connector-curvature="0"
       id="path6"
       d="M 44.987837,33.370028 A 1.297,0.698 64.687 0 1 45.249837,32.250028 1.297,0.698 64.687 0 1 46.290837,32.960028 1.297,0.698 64.687 0 1 46.510837,34.409028" />
    <path
       style="fill:none;stroke:#009d00;stroke-width:1.05200005;stroke-linecap:round;stroke-linejoin:bevel;paint-order:stroke fill markers"
       inkscape:connector-curvature="0"
       id="path8"
       d="M 48.349837,34.093028 C 49.024837,33.568028 48.871837,35.368028 48.427837,38.207028 A 19.618,19.618 0 0 1 48.098837,39.887028 C 47.524837,42.167028 46.577837,44.114028 45.962837,44.838028" />
    <path
       style="fill:none;stroke:#009d00;stroke-width:0.93099999;stroke-linecap:round;stroke-linejoin:bevel;paint-order:stroke fill markers"
       inkscape:connector-curvature="0"
       id="path10"
       d="M 44.795837,35.746028 A 0.676,3.195 13.886 0 1 44.065837,39.876028 0.676,3.195 13.886 0 1 42.847837,41.186028" />
    <path
       style="fill:none;stroke:#009d00;stroke-width:0.99199998;stroke-linecap:round;stroke-linejoin:bevel;paint-order:stroke fill markers"
       inkscape:connector-curvature="0"
       id="path12"
       d="M 46.694837,36.287028 A 0.676,3.195 13.886 0 1 46.074837,40.262028 0.676,3.195 13.886 0 1 44.808837,41.980028" />
    <path
       style="fill:none;stroke:#009d00;stroke-width:0.93079054;stroke-linecap:round;stroke-linejoin:bevel;paint-order:stroke fill markers"
       inkscape:connector-curvature="0"
       id="path14"
       d="M 43.013477,33.739368 A 0.67618213,3.9448501 13.99801 0 1 42.500217,37.507958 0.67618213,3.9448501 13.99801 0 1 41.185094,40.882818 0.67618213,3.9448501 13.99801 0 1 40.765958,39.503038" />
    <path
       style="fill:none;stroke:#009d00;stroke-width:0.89700001;stroke-linecap:round;stroke-linejoin:bevel;paint-order:stroke fill markers"
       inkscape:connector-curvature="0"
       id="path16"
       d="M 50.386837,35.238028 C 50.570837,35.691028 50.562837,37.533028 50.258837,39.226028 49.954837,41.355028 48.889837,43.038028 48.354837,44.320028" />
    <path
       style="fill:none;stroke:#ff0000;stroke-width:0.89700001"
       inkscape:connector-curvature="0"
       id="path18"
       d="M 41.849837,34.920028 41.442837,35.288028 C 41.220837,35.502028 40.880837,35.670028 40.696837,35.044028 40.622837,34.774028 40.597837,34.305028 40.478837,34.109028 40.303837,33.822028 40.204837,33.768028 39.947837,33.991028 M 40.519837,37.127028 40.113837,37.495028 C 39.890837,37.708028 39.550837,37.876028 39.366837,37.250028 39.292837,36.980028 39.268837,36.511028 39.148837,36.315028 38.973837,36.028028 38.874837,35.975028 38.618837,36.197028" />
    <path
       style="fill:#00ff00;stroke:#009d00;stroke-width:0.68000001;stroke-linecap:round;stroke-linejoin:round;stroke-dashoffset:261.39700317"
       inkscape:connector-curvature="0"
       id="path20"
       d="M 48.060837,61.483028 C 48.061837,61.403028 48.060837,61.322028 48.064837,61.241028 48.079837,60.869028 48.120837,60.397028 48.148837,60.047028 48.262837,58.607028 47.908837,53.186028 48.052837,51.750028 48.362837,48.612028 50.450837,45.616028 50.889837,42.501028 L 51.021837,41.629028 51.465837,41.364028 51.322837,42.242028 C 50.854837,45.356028 48.856837,48.424028 48.564837,51.572028 48.510837,52.137028 48.562837,52.902028 48.513837,53.469028 48.429837,54.429028 48.655837,58.833028 48.596837,59.772028 48.581837,60.012028 48.541837,60.642028 48.534837,60.946028 48.532837,61.026028 48.536837,61.106028 48.538837,61.184028 Z" />
  </g>
  <g
     class="training-sun"
     inkscape:label="#g839"
     transform="translate(5.400441)">
    <path
       d="M 71.112,20.372 68.927,18.188 67.995,21.133 67.195,18.149 64.915,20.234 65.714,17.25 62.698,17.916 64.881,15.731 61.936,14.799 64.92,13.999 62.835,11.719 65.819,12.518 65.153,9.501 67.338,11.685 68.27,8.7400004 69.07,11.723 71.35,9.639 70.551,12.623 73.568,11.957 71.384,14.142 74.329,15.074 71.345,15.874 73.43,18.154 70.446,17.355 Z"
       id="path36"
       inkscape:connector-curvature="0"
       style="fill:#ffa200" />
    <ellipse
       ry="4.1849999"
       rx="4.2820001"
       cy="14.956982"
       cx="68.281998"
       id="ellipse38"
       style="fill:#ffa200" />
  </g>
  <g
     class="training-can"
     inkscape:label="#g4553">
    <path
       inkscape:connector-curvature="0"
       id="path24"
       d="M 80.870441,28.632 81.451441,28.942 A 5.301,5.301 0 0 1 90.754451,33.913 L 91.335451,34.223 A 5.957,5.957 0 0 0 80.870441,28.63 Z" />
    <path
       inkscape:connector-curvature="0"
       id="path26"
       d="M 78.595441,27.178 A 8.693,8.693 0 0 0 78.101441,28.046 1.283,1.283 0 0 1 78.997441,27.776 L 79.151441,27.54 A 8,8 0 0 1 93.150451,35.197 L 93.730451,35.507 A 8.657,8.657 0 0 0 78.600441,27.183 Z" />
    <path
       inkscape:connector-curvature="0"
       id="path28"
       d="M 95.776451,36.597 79.594441,27.95 C 78.959441,27.611 78.210441,27.77 77.851441,28.322 L 71.001441,38.845 C 70.643441,39.395 70.800441,40.146 71.367441,40.589 L 85.825441,51.885 A 1.466,1.466 0 0 0 86.963441,52.188 1.207,1.207 0 0 0 87.789441,51.658 L 96.364451,38.485 A 1.207,1.207 0 0 0 96.514451,37.514 1.466,1.466 0 0 0 95.776451,36.597 Z M 95.813451,38.128 87.239441,51.301 C 87.039441,51.606 86.570441,51.639 86.229441,51.371 L 71.769441,40.073 C 71.474441,39.841 71.381441,39.467 71.553441,39.203 L 78.402441,28.681 C 78.572441,28.418 78.955441,28.351 79.285441,28.527 L 95.467451,37.175 C 95.850451,37.381 96.011451,37.825 95.812451,38.129 Z" />
    <path
       inkscape:connector-curvature="0"
       id="path30"
       d="M 84.341441,50.281 93.891451,35.609 94.325451,35.891 84.774441,50.563 Z M 70.557441,50.516 84.516441,50.866 83.648441,50.186 70.653441,49.863 A 5.21,5.21 0 0 1 70.557441,50.516 Z M 70.232441,47.049 A 5.542,5.542 0 0 1 70.448441,47.68 L 78.802441,46.4 78.092441,45.846 Z" />
    <path
       inkscape:connector-curvature="0"
       id="path32"
       d="M 67.952441,45.206 67.302441,45.284 68.171441,52.639 68.823441,52.56 A 1.763,1.763 0 0 0 70.089441,51.701 C 70.569441,50.963 70.771441,49.811 70.630441,48.617 A 5.385,5.385 0 0 0 69.800441,46.238 C 69.287441,45.494 68.630441,45.128 67.952441,45.206 Z M 69.985441,48.698 C 70.183441,50.369 69.630441,51.808 68.750441,51.912 L 68.028441,45.859 C 68.908441,45.755 69.782441,47.026 69.978441,48.696 Z" />
    <path
       inkscape:label="#path42"
       style="fill:#cccccc"
       inkscape:connector-curvature="0"
       id="inner"
       d="M 78.137441,45.011 C 74.645441,42.285 71.717441,39.957 71.633441,39.838 71.540441,39.708 71.490441,39.558 71.505441,39.458 71.531441,39.293 78.252441,28.912 78.518441,28.625 A 0.478,0.478 0 0 1 78.888441,28.477 C 79.066441,28.477 80.726441,29.334 86.202441,32.257 90.098451,34.335 93.326451,36.074 93.375451,36.119 93.450451,36.189 92.702451,37.376 89.018451,43.039 86.572441,46.799 84.552441,49.896 84.529441,49.921 84.506441,49.946 81.629441,47.736 78.137441,45.011 Z M 77.509441,50.004 C 74.435441,49.921 71.644441,49.851 71.307441,49.848 L 70.696441,49.842 70.693441,49.297 A 7.332,7.332 0 0 0 70.601441,48.255 C 70.552441,47.982 70.531441,47.741 70.554441,47.72 70.598441,47.679 78.510441,46.466 78.721441,46.468 78.815441,46.468 83.031441,49.685 83.460441,50.083 83.543441,50.16 83.524441,50.172 83.327441,50.163 83.201441,50.159 80.583441,50.087 77.509441,50.004 Z M 68.775441,51.841 C 68.774441,51.815 68.613441,50.469 68.418441,48.851 68.222441,47.231 68.074441,45.894 68.088441,45.879 68.172441,45.794 68.695441,46.052 68.945441,46.302 69.539441,46.896 69.899441,47.894 69.951441,49.089 70.014441,50.549 69.616441,51.586 68.893441,51.847 68.829441,51.87 68.776441,51.867 68.775441,51.841 Z M 85.798441,50.993 C 85.441441,50.716 85.108441,50.451 85.060441,50.405 84.986441,50.335 85.750441,49.124 89.484451,43.385 91.966451,39.569 94.001451,36.443 94.005451,36.438 94.034451,36.404 95.542451,37.272 95.671451,37.397 96.041451,37.755 96.211451,37.456 91.530451,44.652 89.164451,48.289 87.166441,51.317 87.090441,51.38 87.012441,51.446 86.845441,51.496 86.700441,51.496 86.486441,51.496 86.348441,51.419 85.798441,50.993 Z M 92.204451,34.653 C 91.574451,34.316 91.396451,34.193 91.424451,34.109 91.789451,33 91.899451,32.178 91.801451,31.297 91.516451,28.743 89.797451,26.755 87.294441,26.085 86.519441,25.878 85.266441,25.877 84.434441,26.083 83.140441,26.403 81.971441,27.146 81.188441,28.147 L 80.847441,28.583 80.197441,28.235 C 79.840441,28.044 79.446441,27.854 79.322441,27.813 79.198441,27.773 79.096441,27.723 79.096441,27.703 79.096441,27.588 79.796441,26.713 80.251441,26.259 82.947441,23.571 87.106441,23.166 90.297451,25.282 90.913451,25.691 91.787451,26.526 92.258451,27.159 93.644451,29.019 94.165451,31.559 93.610451,33.758 93.455451,34.372 93.178451,35.091 93.096451,35.09 93.055451,35.09 92.653451,34.892 92.204451,34.653 Z" />
  </g>
  <path
     style="opacity:1;fill:#ffb380;fill-opacity:1;fill-rule:nonzero;stroke:#000000;stroke-width:0.37795275;stroke-linecap:round;stroke-linejoin:round;stroke-miterlimit:4;stroke-dasharray:none;stroke-dashoffset:261.3973999;stroke-opacity:1;paint-order:normal"
     d="M 108.88797,67.188658 C 112.64128,65.465324 122.12806,68.15565 125.23779,67.149381 126.24912,66.822127 117.75638,66.164375 119.06926,63.791828 119.55786,62.908868 120.14959,61.764599 123.52748,61.081627 124.65199,60.468928 126.31258,60.592329 127.68164,60.583703 130.76779,60.564258 133.79297,61.294347 135.94609,61.498798 V 73.589945 H 119.37674 C 115.79524,73.360372 112.85492,73.439882 110.81892,71.19149 110.01798,70.306998 109.43052,68.841629 108.88797,67.188658 Z"
     class="training-hand"
     inkscape:connector-curvature="0"
     sodipodi:nodetypes="csscscccsc"
     inkscape:label="#rect847" />
  <ellipse
     style="opacity:1;fill:#ac7550;fill-opacity:1;fill-rule:nonzero;stroke:none;stroke-width:0.37795275;stroke-linecap:round;stroke-linejoin:round;stroke-miterlimit:4;stroke-dasharray:none;stroke-dashoffset:261.3973999;stroke-opacity:1;paint-order:normal"
     class="training-seed"
     cx="113.95957"
     cy="64.311386"
     rx="3.0082386"
     ry="2.0186865"
     inkscape:label="#path852" />
</svg>
