<?xml version="1.0" encoding="UTF-8" standalone="no"?>
<svg
   xmlns:dc="http://purl.org/dc/elements/1.1/"
   xmlns:cc="http://creativecommons.org/ns#"
   xmlns:rdf="http://www.w3.org/1999/02/22-rdf-syntax-ns#"
   xmlns:svg="http://www.w3.org/2000/svg"
   xmlns="http://www.w3.org/2000/svg"
   xmlns:sodipodi="http://sodipodi.sourceforge.net/DTD/sodipodi-0.dtd"
   xmlns:inkscape="http://www.inkscape.org/namespaces/inkscape"
   id="svg27"
   version="1.1"
   viewBox="0 0 104.246 105.833"
   sodipodi:docname="java-training.svg"
   inkscape:version="0.92.3 (2405546, 2018-03-11)">
  <metadata
     id="metadata31">
    <rdf:RDF>
      <cc:Work
         rdf:about="">
        <dc:format>image/svg+xml</dc:format>
        <dc:type
           rdf:resource="http://purl.org/dc/dcmitype/StillImage" />
      </cc:Work>
    </rdf:RDF>
  </metadata>
  <defs
     id="defs29" />
  <sodipodi:namedview
     pagecolor="#ffffff"
     bordercolor="#666666"
     borderopacity="1"
     objecttolerance="10"
     gridtolerance="10"
     guidetolerance="10"
     inkscape:pageopacity="0"
     inkscape:pageshadow="2"
     inkscape:window-width="1600"
     inkscape:window-height="837"
     id="namedview27"
     showgrid="false"
     inkscape:zoom="6.1410134"
     inkscape:cx="25.010212"
     inkscape:cy="52.9165"
     inkscape:window-x="-8"
     inkscape:window-y="-8"
     inkscape:window-maximized="1"
     inkscape:current-layer="svg27" />
  <rect
     id="rect4539"
     style="fill:#fff;paint-order:normal"
     height="156"
     width="154.12"
     y="-3.745"
     x="-45.481" />
  <path
     id="path4"
     style="fill-rule:evenodd"
     d="m58.781 65.724a1.69 1.69 0 1 0 0 3.379 1.69 1.69 0 0 0 0 -3.38m-8.436 1.69a1.69 1.69 0 1 0 -3.379 0 1.69 1.69 0 0 0 3.379 0m3.374 8.015a6.488 6.488 0 0 1 -4.619 -1.913l-1.297 1.297a8.311 8.311 0 0 0 5.916 2.45c2.234 0 4.335-0.87 5.916-2.45l-1.298-1.297a6.488 6.488 0 0 1 -4.618 1.913m8.473 0.713c2.42-3.113 3.752-7.284 3.752-11.743-0.655-8.264-4.036-10.879-12.169-10.966-2.298 0-4.624 0.507-6.62 1.543-4.926 2.559-5.662 6.058-5.662 9.423 0 3.53 0.733 8.557 4.22 12.449 2.337 2.609 5.196 4.774 8.892 4.402 3.272-0.33 5.663-2.63 7.587-5.108m-2.5 5.026c-0.027 1.154 0.093 3.193 1.145 4.389 0.56 0.635 1.321 0.943 2.328 0.943v1.836c-1.546 0-2.794-0.529-3.71-1.572-1.13-1.288-1.487-3.114-1.576-4.535a9.69 9.69 0 0 1 -8.322 0.009c-0.09 1.42-0.448 3.241-1.576 4.526-0.915 1.043-2.163 1.572-3.71 1.572v-1.836c1.01 0 1.772-0.31 2.331-0.946 0.987-1.125 1.173-3.091 1.147-4.365-1.333-0.928-2.456-2.06-3.403-3.117-3.874-4.324-4.687-9.822-4.688-13.673 0-6.53 2.363-8.824 6.652-11.051 5.112-2.655 12.182-2.213 16.446 1.027 3.286 2.498 5.023 4.31 5.023 10.024 0 4.865-1.47 9.435-4.138 12.87-1.283 1.65-2.595 2.945-3.949 3.9" />
  <path
     id="path7"
     style="stroke-linejoin:round;stroke-dashoffset:261.4;stroke:#1a90ff;stroke-linecap:round;stroke-width:0.378;fill:#1a90ff"
     d="m65.85 48.855c-0.813 0.357-1.579 0.806-2.339 1.262-0.859 0.525-1.66 1.137-2.446 1.764-0.554 0.453-1.062 0.955-1.566 1.462-0.406 0.396-0.796 0.81-1.163 1.242-0.224 0.276-0.444 0.553-0.674 0.823-0.19 0.218-0.382 0.433-0.572 0.65-0.124 0.148-0.255 0.29-0.347 0.46a3.697 3.697 0 0 1 -0.307 0.502c-0.066 0.097-0.035 0.049-0.094 0.144l-0.551 0.103c0.059-0.098 0.028-0.048 0.094-0.147 0.114-0.158 0.223-0.318 0.308-0.494 0.088-0.178 0.22-0.323 0.348-0.473l0.573-0.65c0.233-0.27 0.455-0.548 0.68-0.824 0.367-0.436 0.76-0.85 1.166-1.248 0.508-0.507 1.017-1.013 1.573-1.469 0.789-0.63 1.595-1.242 2.455-1.773 0.752-0.452 1.51-0.898 2.307-1.266zm0.948 2.483c-0.813 0.357-1.58 0.806-2.34 1.262-0.858 0.525-1.66 1.137-2.446 1.764-0.553 0.453-1.062 0.955-1.566 1.462-0.406 0.396-0.796 0.81-1.163 1.242-0.223 0.276-0.443 0.553-0.673 0.823-0.19 0.218-0.382 0.433-0.572 0.65-0.125 0.148-0.255 0.29-0.347 0.46a3.697 3.697 0 0 1 -0.308 0.502c-0.066 0.097-0.035 0.049-0.094 0.144l-0.55 0.103c0.059-0.098 0.027-0.048 0.094-0.147 0.113-0.158 0.223-0.318 0.308-0.494 0.087-0.178 0.22-0.323 0.348-0.473l0.573-0.65c0.232-0.27 0.455-0.548 0.68-0.824 0.366-0.436 0.76-0.85 1.166-1.248 0.507-0.507 1.017-1.013 1.572-1.469 0.79-0.63 1.595-1.242 2.455-1.773 0.752-0.452 1.51-0.898 2.308-1.266z"
     class="training-water" />
  <g
     id="g17"
     class="training-plant"
     transform="translate(5.2108663,-0.81419786)">
    <path
       id="path6"
       d="M 44.988,33.37 A 1.297,0.698 64.687 0 1 45.25,32.25 1.297,0.698 64.687 0 1 46.291,32.96 1.297,0.698 64.687 0 1 46.511,34.409"
       style="fill:none;stroke:#009d00;stroke-width:0.96499997;stroke-linecap:round;stroke-linejoin:bevel;paint-order:stroke fill markers"
       inkscape:connector-curvature="0" />
    <path
       id="path8"
       d="M 48.35,34.093 C 49.025,33.568 48.872,35.368 48.428,38.207 A 19.618,19.618 0 0 1 48.099,39.887 C 47.525,42.167 46.578,44.114 45.963,44.838"
       style="fill:none;stroke:#009d00;stroke-width:1.05200005;stroke-linecap:round;stroke-linejoin:bevel;paint-order:stroke fill markers"
       inkscape:connector-curvature="0" />
    <path
       id="path10"
       d="M 44.796,35.746 A 0.676,3.195 13.886 0 1 44.066,39.876 0.676,3.195 13.886 0 1 42.848,41.186"
       style="fill:none;stroke:#009d00;stroke-width:0.93099999;stroke-linecap:round;stroke-linejoin:bevel;paint-order:stroke fill markers"
       inkscape:connector-curvature="0" />
    <path
       id="path12"
       d="M 46.695,36.287 A 0.676,3.195 13.886 0 1 46.075,40.262 0.676,3.195 13.886 0 1 44.809,41.98"
       style="fill:none;stroke:#009d00;stroke-width:0.99199998;stroke-linecap:round;stroke-linejoin:bevel;paint-order:stroke fill markers"
       inkscape:connector-curvature="0" />
    <path
       id="path14"
       d="M 43.013,33.739 A 0.67618,3.9449 13.998 0 1 42.5,37.508 0.67618,3.9449 13.998 0 1 41.185,40.883 0.67618,3.9449 13.998 0 1 40.766,39.503"
       style="fill:none;stroke:#009d00;stroke-width:0.93079001;stroke-linecap:round;stroke-linejoin:bevel;paint-order:stroke fill markers"
       inkscape:connector-curvature="0" />
    <path
       id="path16"
       d="M 50.387,35.238 C 50.571,35.691 50.563,37.533 50.259,39.226 49.955,41.355 48.89,43.038 48.355,44.32"
       style="fill:none;stroke:#009d00;stroke-width:0.89700001;stroke-linecap:round;stroke-linejoin:bevel;paint-order:stroke fill markers"
       inkscape:connector-curvature="0" />
    <path
       id="path18"
       d="M 41.85,34.92 41.443,35.288 C 41.221,35.502 40.881,35.67 40.697,35.044 40.623,34.774 40.598,34.305 40.479,34.109 40.304,33.822 40.205,33.768 39.948,33.991 M 40.52,37.127 40.114,37.495 C 39.891,37.708 39.551,37.876 39.367,37.25 39.293,36.98 39.269,36.511 39.149,36.315 38.974,36.028 38.875,35.975 38.619,36.197"
       style="fill:none;stroke:#ff0000;stroke-width:0.89700001"
       inkscape:connector-curvature="0" />
    <path
       id="path20"
       d="M 48.061,61.483 C 48.062,61.403 48.061,61.322 48.065,61.241 48.08,60.869 48.121,60.397 48.149,60.047 48.263,58.607 47.909,53.186 48.053,51.75 48.363,48.612 50.451,45.616 50.89,42.501 L 51.022,41.629 51.466,41.364 51.323,42.242 C 50.855,45.356 48.857,48.424 48.565,51.572 48.511,52.137 48.563,52.902 48.514,53.469 48.43,54.429 48.656,58.833 48.597,59.772 48.582,60.012 48.542,60.642 48.535,60.946 48.533,61.026 48.537,61.106 48.539,61.184 Z"
       style="fill:#00ff00;stroke:#009d00;stroke-width:0.68000001;stroke-linecap:round;stroke-linejoin:round;stroke-dashoffset:261.3999939"
       inkscape:connector-curvature="0" />
  </g>
  <g
     id="g21"
     class="training-sun"
     transform="translate(5.4004)">
    <path
       id="path36"
       style="fill:#ffa200"
       d="m71.112 20.372-2.185-2.184-0.932 2.945-0.8-2.984-2.28 2.085 0.799-2.984-3.016 0.666 2.183-2.185-2.945-0.932 2.984-0.8-2.085-2.28 2.984 0.799-0.666-3.017 2.185 2.184 0.932-2.945 0.8 2.983 2.28-2.084-0.799 2.984 3.017-0.666-2.184 2.185 2.945 0.932-2.984 0.8 2.085 2.28-2.984-0.799z" />
    <ellipse
       id="ellipse38"
       style="fill:#ffa200"
       rx="4.282"
       ry="4.185"
       cy="14.957"
       cx="68.282" />
  </g>
  <g
     id="g29"
     class="training-can">
    <path
       id="path24"
       d="m80.87 28.632 0.581 0.31a5.301 5.301 0 0 1 9.303 4.971l0.581 0.31a5.957 5.957 0 0 0 -10.465 -5.593z" />
    <path
       id="path26"
       d="m78.595 27.178a8.693 8.693 0 0 0 -0.494 0.868 1.283 1.283 0 0 1 0.896 -0.27l0.154-0.236a8 8 0 0 1 13.999 7.657l0.58 0.31a8.657 8.657 0 0 0 -15.13 -8.324z" />
    <path
       id="path28"
       d="m95.776 36.597-16.182-8.647c-0.635-0.339-1.384-0.18-1.743 0.372l-6.85 10.523c-0.358 0.55-0.201 1.301 0.366 1.744l14.458 11.296a1.466 1.466 0 0 0 1.138 0.303 1.207 1.207 0 0 0 0.826 -0.53l8.575-13.173a1.207 1.207 0 0 0 0.15 -0.971 1.466 1.466 0 0 0 -0.738 -0.917zm0.037 1.531-8.574 13.173c-0.2 0.305-0.669 0.338-1.01 0.07l-14.46-11.298c-0.295-0.232-0.388-0.606-0.216-0.87l6.849-10.522c0.17-0.263 0.553-0.33 0.883-0.154l16.182 8.648c0.383 0.206 0.544 0.65 0.345 0.954z" />
    <path
       id="path30"
       d="m84.341 50.281 9.55-14.672 0.434 0.282-9.551 14.672zm-13.784 0.235 13.959 0.35-0.868-0.68-12.995-0.323a5.21 5.21 0 0 1 -0.096 0.653zm-0.325-3.467a5.542 5.542 0 0 1 0.216 0.631l8.354-1.28-0.71-0.554z" />
    <path
       id="path32"
       d="m67.952 45.206-0.65 0.078 0.869 7.355 0.652-0.079a1.763 1.763 0 0 0 1.266 -0.859c0.48-0.738 0.682-1.89 0.541-3.084a5.385 5.385 0 0 0 -0.83 -2.379c-0.513-0.744-1.17-1.11-1.848-1.032zm2.033 3.492c0.198 1.671-0.355 3.11-1.235 3.214l-0.722-6.053c0.88-0.104 1.754 1.167 1.95 2.837z" />
    <path
       id="inner"
       d="m78.137 45.011c-3.492-2.726-6.42-5.054-6.504-5.173-0.093-0.13-0.143-0.28-0.128-0.38 0.026-0.165 6.747-10.546 7.013-10.833a0.478 0.478 0 0 1 0.37 -0.148c0.178 0 1.838 0.857 7.314 3.78 3.896 2.078 7.124 3.817 7.173 3.862 0.075 0.07-0.673 1.257-4.357 6.92-2.446 3.76-4.466 6.857-4.489 6.882s-2.9-2.185-6.392-4.91zm-0.628 4.993c-3.074-0.083-5.865-0.153-6.202-0.156l-0.611-0.006-0.003-0.545a7.332 7.332 0 0 0 -0.092 -1.042c-0.049-0.273-0.07-0.514-0.047-0.535 0.044-0.041 7.956-1.254 8.167-1.252 0.094 0 4.31 3.217 4.739 3.615 0.083 0.077 0.064 0.089-0.133 0.08-0.126-0.004-2.744-0.076-5.818-0.159zm-8.734 1.837c-0.001-0.026-0.162-1.372-0.357-2.99-0.196-1.62-0.344-2.957-0.33-2.972 0.084-0.085 0.607 0.173 0.857 0.423 0.594 0.594 0.954 1.592 1.006 2.787 0.063 1.46-0.335 2.497-1.058 2.758-0.064 0.023-0.117 0.02-0.118-0.006zm17.023-0.848c-0.357-0.277-0.69-0.542-0.738-0.588-0.074-0.07 0.69-1.281 4.424-7.02 2.482-3.816 4.517-6.942 4.521-6.947 0.029-0.034 1.537 0.834 1.666 0.959 0.37 0.358 0.54 0.059-4.141 7.255-2.366 3.637-4.364 6.665-4.44 6.728-0.078 0.066-0.245 0.116-0.39 0.116-0.214 0-0.352-0.077-0.902-0.503zm6.406-16.34c-0.63-0.337-0.808-0.46-0.78-0.544 0.365-1.109 0.475-1.931 0.377-2.812-0.285-2.554-2.004-4.542-4.507-5.212-0.775-0.207-2.028-0.208-2.86-0.002-1.294 0.32-2.463 1.063-3.246 2.064l-0.341 0.436-0.65-0.348c-0.357-0.191-0.751-0.381-0.875-0.422-0.124-0.04-0.226-0.09-0.226-0.11 0-0.115 0.7-0.99 1.155-1.444 2.696-2.688 6.855-3.093 10.046-0.977 0.616 0.409 1.49 1.244 1.961 1.877 1.386 1.86 1.907 4.4 1.352 6.599-0.155 0.614-0.432 1.333-0.514 1.332-0.041 0-0.443-0.198-0.892-0.437z"
       style="fill:#ccc" />
  </g>
  <path
     id="path31"
     style="stroke-linejoin:round;paint-order:normal;stroke-dashoffset:261.4;stroke:#000;stroke-linecap:round;stroke-width:.37795;fill:#ffb380"
     d="m108.89 67.189c3.75-1.724 13.24 0.967 16.35-0.04 1.01-0.327-7.48-0.985-6.17-3.357 0.49-0.883 1.08-2.027 4.46-2.71 1.12-0.613 2.78-0.49 4.15-0.498 3.09-0.02 6.11 0.71 8.27 0.915v12.091h-16.57c-3.58-0.23-6.53-0.15-8.56-2.399-0.8-0.884-1.39-2.349-1.93-4.002z"
     class="training-hand" />
  <ellipse
     id="ellipse33"
     style="fill:#ac7550;paint-order:normal"
     rx="3.0082"
     ry="2.0187"
     cy="64.311"
     cx="113.96"
     class="training-seed" />
</svg>
