<?xml version="1.0" encoding="UTF-8" standalone="no"?>
<svg
   xmlns:dc="http://purl.org/dc/elements/1.1/"
   xmlns:cc="http://creativecommons.org/ns#"
   xmlns:rdf="http://www.w3.org/1999/02/22-rdf-syntax-ns#"
   xmlns:svg="http://www.w3.org/2000/svg"
   xmlns="http://www.w3.org/2000/svg"
   xmlns:xlink="http://www.w3.org/1999/xlink"
   xmlns:sodipodi="http://sodipodi.sourceforge.net/DTD/sodipodi-0.dtd"
   xmlns:inkscape="http://www.inkscape.org/namespaces/inkscape"
   viewBox="0 0 210 297"
   id="svg8"
   version="1.1"
   sodipodi:docname="a clockwork orange 3.svg"
   inkscape:export-filename="D:\Graphic Design\Alternative Movie Posters\A Clockwork Orange\a clockwork orange 3.png"
   inkscape:export-xdpi="365.57574"
   inkscape:export-ydpi="365.57574"
   inkscape:version="0.92.3 (2405546, 2018-03-11)">
  <metadata
     id="metadata136">
    <rdf:RDF>
      <cc:Work
         rdf:about="">
        <dc:format>image/svg+xml</dc:format>
        <dc:type
           rdf:resource="http://purl.org/dc/dcmitype/StillImage" />
      </cc:Work>
    </rdf:RDF>
  </metadata>
  <sodipodi:namedview
     pagecolor="#ffffff"
     bordercolor="#666666"
     borderopacity="1"
     objecttolerance="10"
     gridtolerance="10"
     guidetolerance="10"
     inkscape:pageopacity="0"
     inkscape:pageshadow="2"
     inkscape:window-width="1600"
     inkscape:window-height="837"
     id="namedview134"
     showgrid="false"
     inkscape:zoom="4.261268"
     inkscape:cx="122.24839"
     inkscape:cy="73.404982"
     inkscape:window-x="-8"
     inkscape:window-y="-8"
     inkscape:window-maximized="1"
     inkscape:current-layer="svg8" />
  <defs
     id="defs2">
    <linearGradient
       id="linearGradient7126">
      <stop
         offset="0"
         id="stop7122" />
      <stop
         offset="1"
         id="stop7124"
         stop-opacity="0" />
    </linearGradient>
    <linearGradient
       id="linearGradient7096">
      <stop
         offset="0"
         id="stop7092"
         stop-color="#fa6400" />
      <stop
         offset="1"
         id="stop7094"
         stop-color="#faff0a"
         stop-opacity="0" />
    </linearGradient>
    <filter
       id="filter3365"
       color-interpolation-filters="sRGB">
      <feFlood
         flood-opacity="1"
         flood-color="#FFF"
         result="flood"
         id="feFlood3355" />
      <feComposite
         in="flood"
         in2="SourceGraphic"
         operator="in"
         result="composite1"
         id="feComposite3357" />
      <feGaussianBlur
         in="composite1"
         stdDeviation="1.7"
         result="blur"
         id="feGaussianBlur3359" />
      <feOffset
         dx=".1"
         dy="3.4"
         result="offset"
         id="feOffset3361" />
      <feComposite
         in="SourceGraphic"
         in2="offset"
         result="fbSourceGraphic"
         id="feComposite3363" />
      <feColorMatrix
         result="fbSourceGraphicAlpha"
         in="fbSourceGraphic"
         values="0 0 0 -1 0 0 0 0 -1 0 0 0 0 -1 0 0 0 0 1 0"
         id="feColorMatrix901" />
      <feFlood
         id="feFlood903"
         flood-opacity=".498"
         flood-color="#000"
         result="flood" />
      <feComposite
         in2="fbSourceGraphic"
         id="feComposite905"
         in="flood"
         operator="in"
         result="composite1" />
      <feGaussianBlur
         id="feGaussianBlur907"
         in="composite1"
         stdDeviation="4.2"
         result="blur" />
      <feOffset
         id="feOffset909"
         dx="1.3"
         dy="-6.9"
         result="offset" />
      <feComposite
         in2="offset"
         id="feComposite911"
         in="fbSourceGraphic"
         result="composite2" />
    </filter>
    <filter
       id="filter3635"
       x="-.15"
       width="1.3"
       y="-.15"
       height="1.3"
       color-interpolation-filters="sRGB">
      <feFlood
         flood-opacity="1"
         flood-color="#FE3C19"
         result="flood"
         id="feFlood3625" />
      <feComposite
         in="flood"
         in2="SourceGraphic"
         operator="in"
         result="composite1"
         id="feComposite3627" />
      <feGaussianBlur
         in="composite1"
         stdDeviation="4.2"
         result="blur"
         id="feGaussianBlur3629" />
      <feOffset
         dy="3.2"
         result="offset"
         id="feOffset3631" />
      <feComposite
         in="SourceGraphic"
         in2="offset"
         result="fbSourceGraphic"
         id="feComposite3633" />
      <feColorMatrix
         result="fbSourceGraphicAlpha"
         in="fbSourceGraphic"
         values="0 0 0 -1 0 0 0 0 -1 0 0 0 0 -1 0 0 0 0 1 0"
         id="feColorMatrix11757" />
      <feGaussianBlur
         id="feGaussianBlur11759"
         in="fbSourceGraphic"
         stdDeviation="0.947187 1.18"
         result="blur1" />
      <feTurbulence
         id="feTurbulence11761"
         type="fractalNoise"
         baseFrequency=".042"
         numOctaves="2"
         seed="24"
         result="turbulence" />
      <feDisplacementMap
         in2="turbulence"
         id="feDisplacementMap11763"
         in="blur1"
         xChannelSelector="R"
         yChannelSelector="G"
         scale="6.25"
         result="map" />
      <feGaussianBlur
         id="feGaussianBlur11765"
         in="map"
         stdDeviation=".01"
         result="blur2" />
      <feComposite
         in2="map"
         id="feComposite11767"
         in="blur2"
         operator="atop"
         result="composite" />
    </filter>
    <filter
       id="filter1114"
       color-interpolation-filters="sRGB">
      <feFlood
         flood-opacity="1"
         flood-color="#FFF"
         result="flood"
         id="feFlood1104" />
      <feComposite
         in="flood"
         in2="SourceGraphic"
         operator="in"
         result="composite1"
         id="feComposite1106" />
      <feGaussianBlur
         in="composite1"
         result="blur"
         id="feGaussianBlur1108" />
      <feOffset
         dx=".3"
         dy="2.5"
         result="offset"
         id="feOffset1110" />
      <feComposite
         in="SourceGraphic"
         in2="offset"
         result="composite2"
         id="feComposite1112" />
    </filter>
    <filter
       id="filter6510"
       color-interpolation-filters="sRGB">
      <feFlood
         flood-opacity=".992"
         flood-color="#FFF"
         result="flood"
         id="feFlood6500" />
      <feComposite
         in="flood"
         in2="SourceGraphic"
         operator="out"
         result="composite1"
         id="feComposite6502" />
      <feGaussianBlur
         in="composite1"
         stdDeviation="2.083"
         result="blur"
         id="feGaussianBlur6504" />
      <feOffset
         dx="-5.4"
         dy="4.7"
         result="offset"
         id="feOffset6506" />
      <feComposite
         in="offset"
         in2="SourceGraphic"
         operator="atop"
         result="fbSourceGraphic"
         id="feComposite6508" />
      <feColorMatrix
         result="fbSourceGraphicAlpha"
         in="fbSourceGraphic"
         values="0 0 0 -1 0 0 0 0 -1 0 0 0 0 -1 0 0 0 0 1 0"
         id="feColorMatrix7041" />
      <feFlood
         id="feFlood7043"
         flood-opacity=".992"
         flood-color="#FFF"
         result="flood" />
      <feComposite
         in2="fbSourceGraphic"
         id="feComposite7045"
         in="flood"
         operator="out"
         result="composite1" />
      <feGaussianBlur
         id="feGaussianBlur7047"
         in="composite1"
         result="blur" />
      <feOffset
         id="feOffset7049"
         dy="-.1"
         result="offset" />
      <feComposite
         in2="fbSourceGraphic"
         id="feComposite7051"
         in="offset"
         operator="atop"
         result="composite2" />
    </filter>
    <radialGradient
       xlink:href="#linearGradient7126"
       id="radialGradient7130"
       cx="121.384"
       cy="83.88"
       fx="121.384"
       fy="83.88"
       r="7.621"
       gradientTransform="matrix(4.3161,0.07114,-0.06676,4.0503,-396.92,-264.493)"
       gradientUnits="userSpaceOnUse" />
    <radialGradient
       xlink:href="#linearGradient7126"
       id="radialGradient7130-0"
       cx="121.384"
       cy="83.88"
       fx="121.384"
       fy="83.88"
       r="7.621"
       gradientTransform="matrix(4.3161,0.07114,-0.06676,4.0503,-425.167,-264.207)"
       gradientUnits="userSpaceOnUse" />
    <radialGradient
       xlink:href="#linearGradient7096"
       id="radialGradient7156"
       cx="125.85"
       cy="93.729"
       fx="125.85"
       fy="93.729"
       r="42.371"
       gradientUnits="userSpaceOnUse"
       spreadMethod="reflect"
       gradientTransform="matrix(-5.0336,0.0052,-0.00306,-2.95683,740.326,365.655)" />
    <filter
       id="filter7443"
       color-interpolation-filters="sRGB">
      <feFlood
         flood-opacity=".992"
         flood-color="#FFF"
         result="flood"
         id="feFlood7433" />
      <feComposite
         in="flood"
         in2="SourceGraphic"
         operator="in"
         result="composite1"
         id="feComposite7435" />
      <feGaussianBlur
         in="composite1"
         result="blur"
         id="feGaussianBlur7437" />
      <feOffset
         dx="-2"
         dy="-2.1"
         result="offset"
         id="feOffset7439" />
      <feComposite
         in="SourceGraphic"
         in2="offset"
         result="fbSourceGraphic"
         id="feComposite7441" />
      <feColorMatrix
         result="fbSourceGraphicAlpha"
         in="fbSourceGraphic"
         values="0 0 0 -1 0 0 0 0 -1 0 0 0 0 -1 0 0 0 0 1 0"
         id="feColorMatrix7805" />
      <feFlood
         id="feFlood7807"
         flood-opacity=".992"
         flood-color="#D8D8D8"
         result="flood" />
      <feComposite
         in2="fbSourceGraphic"
         id="feComposite7809"
         in="flood"
         operator="out"
         result="composite1" />
      <feGaussianBlur
         id="feGaussianBlur7811"
         in="composite1"
         result="blur" />
      <feOffset
         id="feOffset7813"
         dx="2"
         dy="12.8"
         result="offset" />
      <feComposite
         in2="fbSourceGraphic"
         id="feComposite7815"
         in="offset"
         operator="atop"
         result="composite2" />
    </filter>
    <filter
       height="2"
       width="1.3"
       y="-.59"
       x="-.23"
       id="filter8253"
       color-interpolation-filters="sRGB">
      <feConvolveMatrix
         order="3 3"
         kernelMatrix="0 -1 0 0 -1 0 0 2 0"
         result="result1"
         divisor="560.526"
         id="feConvolveMatrix8231"
         bias="-.7" />
      <feTurbulence
         numOctaves="10"
         baseFrequency="0.17499999999999999 0.01"
         result="result0"
         id="feTurbulence8233" />
      <feColorMatrix
         result="result2"
         values="1 0 0 0 0 0 1 0 0 0 0 0 1 0 0 0 0 0 10 -3.5"
         id="feColorMatrix8235" />
      <feComposite
         in2="result2"
         in="result1"
         operator="in"
         id="feComposite8237" />
      <feMorphology
         operator="dilate"
         radius="1 30"
         id="feMorphology8239" />
      <feColorMatrix
         values="1 0 0 0 0 0 1 0 0 0 0 0 1 0 0 0 0 0 50 0"
         result="result3"
         id="feColorMatrix8241" />
      <feOffset
         dy="1.4"
         result="result4"
         id="feOffset8243" />
      <feTurbulence
         numOctaves="2"
         baseFrequency="0.032 0.025"
         result="result8"
         id="feTurbulence8245" />
      <feColorMatrix
         values="0 0 0 0 0.52 0 -0.4 0 0 0.45 0 0 1 0 0 0 0 0 1 0"
         result="result91"
         id="feColorMatrix8247" />
      <feDisplacementMap
         in="result4"
         xChannelSelector="R"
         yChannelSelector="G"
         scale="100"
         result="result9"
         in2="result91"
         id="feDisplacementMap8249" />
      <feComposite
         in="SourceGraphic"
         in2="result9"
         id="feComposite8251" />
    </filter>
    <filter
       id="filter9609"
       color-interpolation-filters="sRGB">
      <feTurbulence
         baseFrequency=".009"
         numOctaves="2"
         result="result1"
         type="fractalNoise"
         id="feTurbulence9585" />
      <feGaussianBlur
         stdDeviation="4"
         result="result7"
         id="feGaussianBlur9587" />
      <feDisplacementMap
         result="result5"
         in="SourceGraphic"
         scale="20"
         xChannelSelector="G"
         in2="result7"
         id="feDisplacementMap9589" />
      <feComposite
         result="result2"
         operator="in"
         in2="result1"
         in="result5"
         id="feComposite9591" />
      <feGaussianBlur
         stdDeviation="1"
         result="result6"
         id="feGaussianBlur9593" />
      <feSpecularLighting
         surfaceScale="-3"
         result="result4"
         specularConstant="3.5"
         specularExponent="35"
         in="result6"
         id="feSpecularLighting9597">
        <feDistantLight
           elevation="45"
           azimuth="225"
           id="feDistantLight9595" />
      </feSpecularLighting>
      <feComposite
         k1="1.7"
         k3=".7"
         in2="result2"
         in="result4"
         operator="arithmetic"
         result="result91"
         id="feComposite9599" />
      <feBlend
         result="fbSourceGraphic"
         mode="multiply"
         in2="result91"
         id="feBlend9601" />
      <feComposite
         in2="fbSourceGraphic"
         in="fbSourceGraphic"
         result="result2"
         operator="arithmetic"
         id="feComposite9603" />
      <feComposite
         in="result2"
         result="result4"
         operator="arithmetic"
         k2="2"
         k3="2"
         in2="fbSourceGraphic"
         id="feComposite9605" />
      <feBlend
         mode="screen"
         in="result4"
         in2="result4"
         id="feBlend9607" />
    </filter>
    <filter
       x="-.15"
       width="1.3"
       y="-.15"
       height="1.3"
       id="filter11033"
       color-interpolation-filters="sRGB">
      <feGaussianBlur
         in="SourceGraphic"
         stdDeviation="0.24 0.01"
         result="blur1"
         id="feGaussianBlur11023" />
      <feTurbulence
         baseFrequency=".018"
         numOctaves="2"
         result="turbulence"
         id="feTurbulence11025" />
      <feDisplacementMap
         in="blur1"
         in2="turbulence"
         xChannelSelector="R"
         yChannelSelector="G"
         scale="8.85"
         result="map"
         id="feDisplacementMap11027" />
      <feGaussianBlur
         in="map"
         stdDeviation="2.04"
         result="blur2"
         id="feGaussianBlur11029" />
      <feComposite
         in="blur2"
         in2="map"
         operator="atop"
         result="composite"
         id="feComposite11031" />
    </filter>
  </defs>
  <path
     style="stroke:#000000;stroke-width:0.178;stroke-linecap:square;stroke-linejoin:round;stroke-dashoffset:261.39700317;paint-order:markers fill stroke"
     inkscape:connector-curvature="0"
     d="M 0.089,-0.33 H 212.097 V 299.911 H 0.089 Z"
     id="rect1261" />
  <path
     style="fill:#ffffff;stroke:#000000;stroke-width:0.185;stroke-linecap:square;stroke-linejoin:round;stroke-dashoffset:261.39700317;paint-order:markers fill stroke;filter:url(#filter3635)"
     inkscape:connector-curvature="0"
     transform="matrix(0.86511,0,0,0.86511,16.334,16.072)"
     id="path1263"
     d="M 103.086,-15.116 163.753,89.961 224.419,195.039 H 129.902 L 106.212,144.562 83.603,195.039 H -18.247 L 42.42,89.96 Z" />
  <circle
     style="fill:url(#radialGradient7156);stroke:#ffff72;stroke-width:0.85600001;stroke-linecap:round;stroke-linejoin:round;stroke-dashoffset:261.39700317;paint-order:markers fill stroke"
     r="41.943001"
     cy="94.736"
     cx="105.684"
     id="path1130" />
  <path
     style="fill:#008000;stroke-width:0;stroke-linecap:round;stroke-linejoin:round;stroke-dashoffset:261.39700317;paint-order:markers fill stroke"
     inkscape:connector-curvature="0"
     d="M 120.85576,63.989163 111.88655,59.133153 102.07199,56.356668 110.76238,51.017008 118.07413,43.905785 118.35357,54.101562 Z"
     id="path1237" />
  <path
     style="stroke-width:0.03399247;stroke-linecap:round;stroke-linejoin:round;stroke-dashoffset:261.39700317;paint-order:markers fill stroke"
     inkscape:connector-curvature="0"
     id="path1124"
     d="M 86.031402,52.458356 C 86.349974,45.614755 88.242994,39.793362 94.696949,36.851786 101.15095,33.90921 110.56462,33.46478 116.69905,37.36573 122.83444,41.267755 127.03863,48.715679 126.72006,55.55928 L 106.37623,54.008856 Z" />
  <ellipse
     style="stroke-width:0.027;stroke-linecap:round;stroke-linejoin:round;stroke-dashoffset:261.39700317;paint-order:markers fill stroke"
     ry="5.0019999"
     rx="25.909"
     cy="55.146999"
     cx="105.919"
     id="path1126" />
  <path
     style="fill:#ffffff;fill-rule:evenodd;stroke:#000000;stroke-width:0.49000001"
     inkscape:connector-curvature="0"
     id="path1136"
     d="M 85.11,106.11 C 81.033,109.239 82.131,114.54 85.718,116.252 L 126.98,116.284 C 132.27,114.379 131.59,108.187 128.415,106.244 Z" />
  <path
     style="fill:none;fill-rule:evenodd;stroke:#000000;stroke-width:0.142"
     inkscape:connector-curvature="0"
     id="path1142"
     d="M 88.996,106.237 88.926,116.191" />
  <path
     style="fill:none;fill-rule:evenodd;stroke:#000000;stroke-width:0.142"
     inkscape:connector-curvature="0"
     id="path1142-8"
     d="M 96.303,106.272 96.233,116.226" />
  <path
     style="fill:none;fill-rule:evenodd;stroke:#000000;stroke-width:0.142"
     inkscape:connector-curvature="0"
     id="path1142-4"
     d="M 104.35,106.201 104.28,116.155" />
  <path
     style="fill:none;fill-rule:evenodd;stroke:#000000;stroke-width:0.142"
     inkscape:connector-curvature="0"
     id="path1142-2"
     d="M 111.763,106.342 111.693,116.296" />
  <path
     style="fill:none;fill-rule:evenodd;stroke:#000000;stroke-width:0.142"
     inkscape:connector-curvature="0"
     id="path1142-48"
     d="M 118.4,106.342 118.329,116.296" />
  <path
     style="fill:none;fill-rule:evenodd;stroke:#000000;stroke-width:0.142"
     inkscape:connector-curvature="0"
     id="path1142-7"
     d="M 124.965,106.342 124.894,116.296" />
  <path
     style="fill:none;fill-rule:evenodd;stroke:#000000;stroke-width:0.242"
     inkscape:connector-curvature="0"
     id="path1208"
     d="M 82.462,111.357 131.083,111.457" />
  <path
     inkscape:connector-curvature="0"
     style="fill:url(#radialGradient7130);stroke-width:8.81400013;stroke-linecap:round;stroke-linejoin:round;stroke-dashoffset:261.39700317;stroke-opacity:0;paint-order:markers fill stroke"
     id="path1212-8"
     d="M 128.995,92.027 C 128.878,94.926 125.933,86.632 121.486,86.639 116.94,86.648 114.554,94.464 113.91,92.135 A 5.17,5.17 0 0 1 113.78,90.975 C 113.859,85.909 114.075,75.435 120.79,75.385 128.14,75.331 128.981,85.862 129.046,90.834 129.052,91.301 129.009,91.658 128.995,92.027 Z" />
  <path
     style="stroke-width:0;stroke-linecap:round;stroke-linejoin:round;stroke-dashoffset:261.39700317;paint-order:markers fill stroke"
     inkscape:connector-curvature="0"
     d="M 89.042,106.219 H 96.271 V 111.339 H 89.042 Z"
     id="rect1231" />
  <path
     style="fill:#ff0000;fill-rule:evenodd;stroke-width:0.142"
     inkscape:connector-curvature="0"
     id="path1233"
     d="M 82.823,113.124 C 82.711,116.499 82.528,118.885 82.683,122.26 82.081,122.775 81.503,123.93 81.583,124.746 81.803,125.631 82.285,125.906 82.782,126.144 83.496,126.233 84.139,126.056 84.479,124.746 84.379,124.228 84.325,123.686 83.863,123.349 84.025,120.569 84.192,118.266 84.263,115.122 83.783,114.81 83.185,113.894 82.823,113.124 Z" />
  <path
     style="fill:#ff0000;stroke-width:0.52200001;stroke-linecap:round;stroke-linejoin:round;stroke-dashoffset:261.39700317;paint-order:markers fill stroke"
     inkscape:connector-curvature="0"
     d="M 82.543,124.204 C 82.913,124.204 82.416,124.172 82.445,124.446 82.454,124.533 82.655,124.389 82.707,124.46 82.755,124.526 82.638,124.61 82.622,124.69 82.609,124.76 82.582,124.843 82.62,124.904 82.662,124.972 82.759,124.981 82.828,125.02 82.751,125.226 82.67,125.295 82.761,125.5 82.823,125.639 82.933,125.64 82.958,125.801 82.969,125.871 82.939,125.941 82.935,126.012 82.931,126.076 82.934,126.141 82.933,126.205 82.957,126.255 83.006,126.301 83.006,126.357 83.006,126.437 82.934,126.503 82.929,126.583 82.926,126.637 82.977,126.683 82.983,126.737 82.991,126.799 82.956,126.864 82.97,126.926 83.056,127.297 83.125,126.779 83.01,127.271 83.041,127.284 83.306,127.371 83.315,127.454 83.324,127.526 83.209,127.586 83.231,127.655 83.249,127.71 83.372,127.651 83.397,127.703 83.642,128.213 83.122,127.65 83.391,127.921 83.291,128.42 83.477,127.323 83.585,127.987 83.599,128.075 83.445,128.102 83.396,128.177 83.384,128.197 83.402,128.238 83.425,128.24 83.664,128.254 83.632,128.098 83.642,128.258 L 83.547,128.378 C 83.576,128.382 83.635,128.361 83.634,128.39 83.632,128.438 83.502,128.475 83.542,128.5 83.721,128.611 83.792,128.3 83.676,128.546 83.664,128.571 83.659,128.599 83.65,128.626 83.813,128.671 83.678,128.607 83.73,128.699 83.74,128.714 83.785,128.715 83.773,128.728 83.702,128.803 83.564,128.82 83.525,128.916 L 83.857,128.793 C 83.716,128.863 83.58,128.945 83.432,129.003 83.392,129.018 83.345,128.999 83.302,129.006 83.202,129.022 83.032,129.168 83.005,129.07 82.971,128.948 83.193,128.89 83.238,128.772 83.288,128.644 83.084,128.498 83.028,128.444 82.698,128.29 82.728,128.405 82.845,128.02 82.877,127.914 82.988,127.815 82.96,127.708 82.95,127.674 82.568,127.569 82.537,127.556 82.494,127.539 82.457,127.51 82.416,127.486 82.494,127.293 82.51,127.38 82.369,127.334 82.352,127.328 82.316,127.319 82.326,127.304 82.36,127.249 82.426,127.219 82.469,127.17 82.483,127.155 82.515,127.104 82.496,127.113 82.381,127.165 82.278,127.241 82.168,127.306 82.243,127.243 82.334,127.195 82.393,127.116 82.421,127.078 82.31,127.167 82.263,127.178 82.253,127.18 82.259,127.158 82.257,127.148 82.165,127.206 82.084,127.288 81.981,127.323 81.925,127.343 82.066,127.24 82.109,127.199 L 81.959,127.279 C 81.999,127.149 81.967,127.293 81.777,127.349 81.751,127.356 81.825,127.306 81.82,127.279 81.816,127.261 81.766,127.305 81.763,127.286 81.759,127.258 81.837,127.213 81.81,127.216 81.746,127.223 81.695,127.272 81.638,127.3 81.443,127.316 81.728,127.308 81.663,127.195 81.64,127.155 81.517,127.281 81.532,127.237 81.557,127.165 81.762,127.13 81.702,127.084 81.634,127.032 81.546,127.154 81.466,127.187 81.396,127.215 81.326,127.241 81.256,127.267 81.32,127.214 81.395,127.171 81.45,127.107 81.46,127.097 81.438,127.077 81.424,127.074 81.394,127.067 81.362,127.081 81.331,127.077 81.311,127.074 81.261,127.071 81.272,127.052 81.46,126.722 81.411,127.038 81.432,126.849 81.388,126.851 81.31,126.899 81.299,126.856 81.287,126.802 81.381,126.777 81.403,126.726 81.412,126.706 81.383,126.683 81.384,126.66 81.385,126.629 81.42,126.597 81.407,126.569 81.388,126.528 81.217,126.521 81.205,126.52 L 81.411,126.34 C 81.396,126.326 81.362,126.317 81.366,126.296 81.372,126.256 81.435,126.237 81.436,126.197 81.436,126.147 81.275,126.184 81.299,126.141 81.337,126.076 81.413,126.041 81.47,125.991 81.319,125.999 81.256,126.046 81.375,125.897 81.415,125.848 81.524,125.822 81.506,125.761 81.491,125.706 81.371,125.802 81.336,125.758 81.306,125.721 81.383,125.675 81.404,125.633 81.426,125.591 81.444,125.548 81.464,125.506 81.502,125.456 81.551,125.414 81.576,125.356 81.631,125.233 81.513,125.277 81.46,125.243 81.442,125.232 81.422,125.201 81.436,125.184 81.705,124.854 81.626,125.134 81.673,124.922 81.698,124.867 81.565,124.868 81.578,124.825 81.594,124.773 81.66,124.75 81.682,124.701 81.69,124.681 81.647,124.663 81.656,124.644 81.678,124.596 81.783,124.574 81.763,124.524 81.745,124.478 81.663,124.534 81.614,124.54 81.715,124.435 81.712,124.462 81.754,124.358 81.762,124.338 81.794,124.305 81.774,124.298 81.674,124.255 81.628,124.386 81.548,124.27 81.613,124.142 81.531,124.292 81.635,124.153 81.641,124.144 81.653,124.129 81.645,124.123 81.633,124.113 81.609,124.133 81.597,124.121 81.594,124.118 81.619,124.094 81.65,124.061 82.262,123.761 81.899,123.958 81.7,123.993 81.685,123.995 81.707,123.963 81.717,123.951 81.827,123.834 81.837,123.895 81.867,123.731 81.952,123.672 82.063,123.639 82.122,123.555 82.258,123.359 81.879,123.679 81.935,123.516 81.939,123.504 82.113,123.363 82.078,123.298 82.058,123.259 81.998,123.258 81.959,123.238 82.119,123.014 82.192,123.018 82.159,122.768 A 0.476,0.476 0 0 0 82.101,122.575 C 82.062,122.514 82,122.471 81.944,122.425 81.887,122.377 81.789,122.364 81.764,122.294 81.735,122.217 81.793,122.132 81.808,122.052 81.845,121.928 81.731,121.838 81.723,121.727 81.719,121.669 81.796,121.595 81.753,121.557 81.696,121.507 81.532,121.627 81.523,121.55 81.493,121.304 82.003,121.321 81.537,121.345 L 81.797,121.136 C 81.757,121.136 81.69,121.171 81.68,121.133 81.668,121.091 81.803,121.063 81.768,121.036 81.722,121.001 81.655,121.061 81.598,121.072 81.287,121.126 81.553,121.042 81.877,120.854 81.497,120.956 81.655,120.954 81.727,120.839 81.734,120.829 81.725,120.815 81.724,120.803 81.753,120.778 81.782,120.755 81.81,120.729 81.83,120.711 81.882,120.691 81.865,120.67 81.845,120.645 81.802,120.675 81.77,120.678 81.798,120.532 82.03,120.541 82.097,120.419 82.113,120.389 82.03,120.426 81.996,120.429 81.856,120.441 81.867,120.467 81.939,120.363 82.021,120.304 82.179,120.289 82.186,120.188 82.19,120.108 81.99,120.281 81.948,120.213 81.908,120.149 82.048,120.1 82.098,120.044 82.153,119.981 82.24,119.936 82.265,119.856 82.277,119.821 82.201,119.816 82.18,119.785 82.161,119.757 82.16,119.721 82.15,119.69 82.08,119.557 82.459,119.492 82.388,119.384 82.344,119.317 82.194,119.478 82.149,119.411 82.109,119.351 82.253,119.307 82.297,119.249 82.384,119.132 82.37,119.151 82.354,119.04 82.114,118.984 82.398,118.903 82.359,118.783 82.351,118.756 82.308,118.76 82.282,118.748 82.172,118.699 82.192,118.738 82.261,118.617 82.27,118.589 82.268,118.554 82.288,118.533 82.774,118.018 82.388,118.649 82.165,118.46 82.085,118.393 82.365,118.361 82.411,118.268 82.435,118.22 82.305,118.286 82.252,118.28 82.229,118.278 82.213,118.256 82.194,118.243 82.217,118.179 82.225,118.143 82.264,118.085 82.284,118.055 82.337,118.037 82.33,118.002 82.244,118.01 82.252,118.037 82.246,118.001 L 82.77,117.758 C 82.722,117.797 82.642,117.815 82.627,117.875 82.618,117.91 82.699,117.887 82.735,117.893 82.733,117.932 82.745,117.973 82.73,118.009 82.62,118.269 82.504,118.269 82.409,118.562 82.379,118.655 82.393,118.758 82.386,118.856 82.396,118.96 82.423,119.064 82.414,119.167 82.402,119.303 82.347,119.432 82.322,119.567 82.298,119.697 82.29,119.828 82.266,119.958 82.241,120.098 82.192,120.232 82.174,120.372 82.144,120.615 82.175,120.779 82.202,121.014 82.377,121.314 81.898,121.414 81.913,121.644 81.92,121.742 82.191,121.588 82.204,121.684 82.221,121.806 81.932,121.837 81.957,121.957 82.01,122.226 82.747,121.502 81.989,122.157 81.918,122.29 81.943,122.287 82.067,122.314 82.087,122.319 82.106,122.329 82.126,122.329 82.253,122.325 82.349,122.222 82.037,122.438 L 82.122,122.394 C 82.034,122.441 81.948,122.494 81.856,122.534 81.849,122.538 81.852,122.517 81.856,122.51 A 0.248,0.248 0 0 1 81.897,122.439 C 81.947,122.386 82.004,122.341 82.056,122.291 82.12,122.229 82.182,122.165 82.245,122.101 81.481,122.264 81.947,122.245 82.047,121.971 82.061,121.932 81.963,121.933 81.953,121.894 81.926,121.796 82.07,121.632 82.087,121.565 82.097,121.525 82.072,121.483 82.065,121.443 82.145,121.139 82.101,121.426 82.064,121.184 82.058,121.143 82.094,121.093 82.069,121.058 82.042,121.018 81.949,121.048 81.939,121.002 81.93,120.969 82.128,120.652 82.129,120.651 82.106,120.612 82.061,120.579 82.059,120.534 82.059,120.467 82.119,120.41 82.122,120.343 82.123,120.293 82.082,120.25 82.071,120.202 82.06,120.15 82.068,120.094 82.056,120.042 81.988,119.759 81.988,120.065 82.013,119.749 81.7,119.589 82.009,119.805 81.997,119.49 81.995,119.444 81.843,119.48 81.867,119.44 81.937,119.324 82.088,119.281 82.183,119.184 82.206,119.16 82.23,119.115 82.211,119.088 82.189,119.058 82.138,119.077 82.101,119.071 82.281,118.91 81.955,119.039 81.983,119.003 82.053,118.913 82.189,118.898 82.269,118.818 82.294,118.793 82.144,118.847 82.165,118.819 82.294,118.652 82.678,118.585 82.089,118.744 L 82.191,118.631 C 82.175,118.615 82.133,118.604 82.143,118.584 82.203,118.459 82.323,118.461 82.341,118.32 82.345,118.293 82.319,118.271 82.309,118.247 L 82.346,118.144 C 82.236,118.052 82.313,118.142 82.274,118.008 82.266,117.981 82.224,117.958 82.236,117.931 82.267,117.857 82.353,117.816 82.388,117.743 82.45,117.611 82.333,117.583 82.253,117.53 82.451,117.157 82.391,117.432 82.293,117.173 82.275,117.126 82.283,117.073 82.271,117.025 82.299,116.923 82.177,116.9 82.157,116.827 82.147,116.794 82.168,116.759 82.174,116.725 82.25,116.665 82.335,116.614 82.403,116.544 82.413,116.534 82.39,116.52 82.383,116.509 82.346,116.515 82.243,116.549 82.273,116.527 82.342,116.474 82.433,116.458 82.508,116.414 82.874,116.195 82.658,116.252 82.839,116.211 83.071,116.421 82.205,116.253 83.053,116.193 83.091,116.191 82.997,116.26 83.006,116.297 83.013,116.324 83.059,116.317 83.087,116.323 83.123,116.333 83.161,116.337 83.197,116.343 83.25,116.363 83.204,116.475 83.254,116.493 83.304,116.513 83.364,116.473 83.417,116.488 83.44,116.495 83.465,116.527 83.457,116.55 83.333,116.886 83.327,116.566 83.345,116.788 83.323,116.898 83.504,116.838 83.508,116.904 83.511,116.967 83.396,117.004 83.408,117.067 83.418,117.116 83.54,117.063 83.55,117.111 83.432,117.321 83.421,117.227 83.506,117.393 83.495,117.45 83.463,117.506 83.473,117.563 83.509,117.753 83.644,117.618 83.599,117.855 83.581,117.947 83.474,118.015 83.479,118.11 83.509,118.659 83.888,117.648 83.511,118.46 83.565,118.756 83.539,118.46 83.465,118.793 83.455,118.836 83.48,118.883 83.469,118.925 83.453,118.985 83.367,119.032 83.387,119.09 83.491,119.384 83.627,118.863 83.496,119.242 83.626,119.265 83.382,119.493 83.446,119.501 83.523,119.511 83.608,119.403 83.674,119.445 83.822,119.54 83.118,119.66 83.742,119.523 82.982,120.103 83.603,119.542 83.629,119.72 83.639,119.782 83.524,119.811 83.523,119.874 83.523,119.914 83.624,119.9 83.625,119.941 83.639,120.347 83.388,119.954 83.634,120.261 82.929,121.32 83.629,120.094 83.479,120.768 83.453,120.885 83.307,120.967 83.31,121.088 83.312,121.166 83.48,121.158 83.492,121.236 83.508,121.339 83.407,121.428 83.378,121.528 83.355,121.61 83.35,121.696 83.336,121.781 83.344,121.85 83.366,121.919 83.359,121.988 83.349,122.072 83.281,122.147 83.287,122.231 83.292,122.289 83.352,122.328 83.387,122.375 83.419,122.418 83.49,122.449 83.487,122.503 83.487,122.526 83.257,122.93 83.247,122.95 V 123.1 C 83.264,123.137 83.296,123.172 83.298,123.213 83.301,123.265 83.246,123.315 83.263,123.365 83.276,123.405 83.357,123.394 83.372,123.435 83.404,123.523 83.221,123.716 83.2,123.743 83.207,123.803 83.412,123.739 83.427,123.817 83.435,123.861 83.357,123.891 83.365,123.935 83.37,123.966 83.454,123.937 83.454,123.969 83.454,124.021 83.387,124.05 83.364,124.097 83.352,124.122 83.354,124.153 83.348,124.181 83.418,124.167 83.528,124.076 83.558,124.141 83.588,124.207 83.424,124.227 83.402,124.297 83.392,124.33 83.508,124.288 83.501,124.321 83.485,124.389 83.342,124.409 83.359,124.477 83.562,124.461 83.529,124.404 83.548,124.54 83.524,124.58 83.44,124.63 83.477,124.659 83.529,124.699 83.619,124.604 83.675,124.639 83.71,124.662 83.643,124.717 83.629,124.756 83.516,125.075 83.723,124.578 83.469,125.014 83.456,125.037 83.464,125.067 83.462,125.094 83.965,124.94 83.81,124.909 83.726,125.098 83.716,125.12 83.718,125.145 83.716,125.168 83.713,125.188 83.724,125.214 83.711,125.23 83.565,125.408 83.408,125.402 83.741,125.342 83.729,125.373 83.681,125.413 83.705,125.436 83.742,125.47 83.87,125.4 83.855,125.448 83.825,125.545 83.692,125.576 83.635,125.66 83.631,125.666 83.641,125.86 83.645,125.866 83.661,125.896 83.701,125.904 83.729,125.922 83.836,125.93 83.456,126.125 83.54,126.197 83.585,126.237 83.71,126.137 83.72,126.197 83.73,126.272 83.61,126.305 83.565,126.366 83.429,126.544 83.512,126.483 83.692,126.469 L 83.708,126.539 C 83.655,126.589 83.542,126.619 83.548,126.691 83.555,126.749 83.738,126.613 83.721,126.668 83.696,126.756 83.474,126.752 83.507,126.837 83.658,127.223 83.808,126.57 83.743,126.823 83.823,126.909 83.677,126.928 83.662,127.039 83.659,127.06 83.68,127.079 83.689,127.099 83.721,127.107 83.789,127.089 83.786,127.123 83.781,127.18 83.712,127.211 83.676,127.256 83.626,127.343 83.734,127.368 83.693,127.456 83.673,127.496 83.59,127.528 83.615,127.566 83.642,127.606 83.711,127.556 83.759,127.556 83.794,127.556 83.828,127.561 83.862,127.564 83.804,127.735 83.537,127.745 83.486,127.907 83.463,127.978 83.631,127.869 83.706,127.869 83.854,127.87 83.76,127.926 83.793,128 83.805,128.026 83.836,128.036 83.857,128.054 83.832,128.094 83.807,128.133 83.78,128.172 83.798,128.186 83.835,128.191 83.833,128.212 83.829,128.254 83.752,128.28 83.767,128.319 83.809,128.429 83.908,128.241 83.935,128.371 83.942,128.403 83.915,128.434 83.905,128.465 84.205,128.475 83.869,128.435 83.834,128.648 83.818,128.747 84.157,128.507 84.131,128.604 84.092,128.746 83.801,128.787 84.101,128.721 84.117,128.725 84.164,128.721 84.151,128.731 84.096,128.781 84.023,128.807 83.961,128.848 83.773,128.968 83.604,129.118 83.403,129.214 83.328,129.249 83.553,129.113 83.57,129.032 83.58,128.988 83.482,129.044 83.438,129.05 L 83.601,128.871 C 83.534,128.884 83.462,128.938 83.399,128.911 83.363,128.894 83.429,128.834 83.426,128.794 83.426,128.765 83.4,128.744 83.391,128.716 83.382,128.687 83.401,128.645 83.375,128.628 83.239,128.537 83.205,128.734 83.29,128.509 83.44,128.545 83.006,128.623 83.007,128.529 83.007,128.485 83.087,128.452 83.068,128.412 83.051,128.376 82.947,128.446 82.95,128.407 82.964,128.217 83.512,128.067 82.719,128.387 82.805,128.09 82.732,128.467 82.627,128.261 82.607,128.222 82.674,128.181 82.674,128.138 82.674,128.108 82.644,128.088 82.631,128.063 82.574,127.948 82.592,127.989 82.635,127.846 82.564,127.834 82.449,127.844 82.415,127.751 82.357,127.589 82.481,127.688 82.397,127.542 82.34,127.442 82.265,127.468 82.16,127.456 82.19,127.4 82.238,127.35 82.251,127.287 82.299,127.057 82.043,127.327 82.016,127.2 81.998,127.116 82.249,127.042 82.176,126.996 82.077,126.936 81.958,127.071 81.846,127.096 81.786,127.11 81.725,127.108 81.664,127.114 81.628,127.11 81.547,127.136 81.556,127.101 81.576,127.026 81.681,127.001 81.713,126.93 81.723,126.907 81.663,126.922 81.641,126.91 81.627,126.904 81.625,126.877 81.609,126.876 81.455,126.874 81.479,126.971 81.472,126.851 81.417,126.821 81.589,126.701 81.532,126.675 81.478,126.652 81.416,126.718 81.359,126.707 81.335,126.702 81.359,126.653 81.342,126.637 81.322,126.616 81.287,126.62 81.261,126.609 81.239,126.599 81.219,126.585 81.198,126.574 80.946,126.566 81.195,126.6 81.243,126.42 81.253,126.382 81.149,126.457 81.126,126.425 81.106,126.397 81.215,126.353 81.183,126.337 81.041,126.264 81.007,126.454 81.036,126.337 81.053,126.323 81.068,126.305 81.087,126.294 81.093,126.291 81.101,126.303 81.107,126.3 81.219,126.243 81.325,126.174 81.437,126.116 81.476,126.096 81.517,126.052 81.557,126.068 81.587,126.081 81.51,126.114 81.485,126.136 L 81.359,126.243 C 81.365,126.258 81.363,126.281 81.378,126.286 81.415,126.298 81.464,126.263 81.495,126.287 81.516,126.304 81.479,126.34 81.481,126.367 81.483,126.39 81.509,126.409 81.507,126.433 81.503,126.475 81.437,126.52 81.463,126.553 81.498,126.594 81.57,126.567 81.623,126.573 81.62,126.615 81.593,126.663 81.613,126.698 81.634,126.735 81.713,126.715 81.728,126.756 81.761,126.849 81.591,126.982 81.693,127.029 81.934,127.14 82.011,126.859 81.86,127.177 81.875,127.201 81.915,127.222 81.907,127.249 81.889,127.309 81.815,127.34 81.793,127.399 81.785,127.419 81.821,127.434 81.827,127.455 81.832,127.476 81.803,127.523 81.825,127.521 82.091,127.494 82.105,127.319 82.065,127.507 82.258,127.487 82.031,127.79 82.041,127.79 82.174,127.798 82.291,127.623 82.419,127.66 82.819,127.774 81.549,128.026 82.515,127.793 82.201,127.74 82.435,128.027 82.508,128.023 82.564,128.021 82.615,127.975 82.671,127.983 82.691,127.986 82.661,128.025 82.656,128.045 L 82.763,128.021 C 82.483,128.341 82.801,127.941 82.843,128.069 82.863,128.135 82.721,128.152 82.693,128.217 82.682,128.243 82.765,128.19 82.78,128.215 82.835,128.305 82.439,128.395 82.92,128.23 83.261,128.115 83.083,128.131 83.05,128.259 83.047,128.272 83.065,128.291 83.079,128.289 83.14,128.279 83.284,128.169 83.255,128.225 83.128,128.471 82.845,128.445 83.079,128.451 83.149,128.425 83.212,128.374 83.286,128.371 83.316,128.371 83.211,128.451 83.24,128.446 83.33,128.43 83.441,128.259 83.489,128.336 83.536,128.413 83.352,128.456 83.274,128.501 82.844,128.755 82.842,128.825 82.902,128.621 82.848,128.512 82.658,128.679 82.622,128.593 82.593,128.523 82.744,128.471 82.737,128.395 82.731,128.345 82.601,128.387 82.596,128.336 82.56,127.974 82.928,128.186 82.516,128.03 82.499,127.945 82.483,127.751 82.392,127.692 82.319,127.645 82.181,127.702 82.14,127.626 82.098,127.546 82.197,127.455 82.222,127.368 82.31,127.063 82.342,127.176 82.156,126.978 81.712,126.412 82.353,127.251 81.971,126.675 81.939,126.625 81.856,126.603 81.852,126.545 81.847,126.457 81.925,126.384 81.948,126.299 82.01,126.07 81.994,126.116 81.868,125.954 81.903,125.877 81.961,125.806 81.973,125.721 81.979,125.674 81.931,125.634 81.919,125.587 A 0.381,0.381 0 0 1 81.903,125.45 C 81.909,125.396 81.937,125.347 81.953,125.295 81.99,125.171 81.99,125.162 82.017,125.041 81.879,124.858 82.036,125.104 81.992,124.859 81.985,124.819 81.866,124.773 81.908,124.706 82.075,124.446 82.247,124.543 81.991,124.461 82.551,123.963 82.164,124.389 81.985,124.277 81.937,124.247 82.053,124.187 82.082,124.137 82.102,124.095 82.122,124.052 82.144,124.009 82.114,123.989 82.044,123.983 82.057,123.951 82.088,123.871 82.178,123.827 82.239,123.765 82.257,123.649 82.114,123.721 82.087,123.668 82.077,123.646 82.201,123.493 82.207,123.488 82.241,123.452 82.359,123.413 82.317,123.388 82.258,123.352 82.184,123.418 82.117,123.434 82.137,123.407 82.17,123.385 82.173,123.353 82.175,123.333 82.144,123.325 82.13,123.31 82.191,123.258 82.274,123.223 82.314,123.153 82.328,123.129 82.238,123.147 82.239,123.12 82.239,123.077 82.285,123.047 82.317,123.017 82.38,122.96 82.452,122.913 82.519,122.861 L 82.698,122.775 82.618,122.875 C 82.596,122.907 82.576,122.94 82.553,122.97 82.523,123.01 82.413,123.063 82.457,123.084 82.531,123.119 82.62,123.017 82.699,123.04 82.758,123.057 82.559,123.154 82.604,123.199 82.256,123.489 82.597,123.172 82.728,123.239 82.79,123.272 82.608,123.318 82.563,123.372 82.55,123.388 82.569,123.414 82.564,123.434 82.523,123.602 82.505,123.47 82.544,123.614 82.59,123.686 82.627,123.704 82.568,123.8 82.565,123.806 82.358,123.981 82.404,124.07 82.419,124.1 82.47,124.09 82.492,124.114 82.512,124.134 82.512,124.168 82.522,124.195 82.589,124.434 82.526,124.103 82.356,124.485 82.343,124.515 82.438,124.513 82.434,124.545 82.427,124.605 82.363,124.64 82.332,124.691 82.26,124.809 82.271,124.804 82.246,124.927 82.324,124.922 82.451,124.84 82.481,124.913 82.512,124.991 82.37,125.04 82.319,125.108 82.273,125.17 82.212,125.228 82.192,125.303 82.18,125.345 82.218,125.385 82.232,125.427 82.296,125.614 82.248,125.533 82.404,125.678 82.061,126.172 82.214,125.788 82.244,126.144 82.25,126.211 82.207,126.282 82.228,126.346 82.248,126.402 82.351,126.412 82.354,126.471 82.358,126.563 82.196,126.648 82.245,126.726 82.298,126.811 82.443,126.756 82.542,126.77 82.529,126.904 82.482,127.05 82.585,127.169 82.631,127.222 82.722,127.224 82.767,127.279 82.806,127.325 82.809,127.392 82.821,127.451 82.87,127.694 82.836,127.651 82.725,127.909 82.761,127.949 82.793,127.993 82.833,128.029 82.882,128.071 83.02,128.149 83.073,128.193 83.103,128.216 83.155,128.234 83.153,128.271 83.15,128.334 83.06,128.374 83.063,128.436 83.065,128.471 83.129,128.457 83.162,128.467 83.211,128.464 83.342,128.422 83.308,128.456 83.185,128.579 83.026,128.66 82.878,128.751 82.868,128.757 82.838,128.751 82.845,128.743 82.913,128.673 83.091,128.651 83.067,128.557 83.039,128.444 82.833,128.735 82.737,128.667 82.92,128.446 82.806,128.616 82.56,128.679 82.543,128.684 82.556,128.642 82.564,128.626 82.584,128.588 82.64,128.566 82.64,128.524 82.64,128.499 82.59,128.52 82.565,128.518 L 82.631,128.419 C 82.583,128.432 82.535,128.449 82.486,128.458 82.456,128.464 82.376,128.489 82.395,128.466 82.469,128.373 82.601,128.333 82.667,128.234 82.695,128.193 82.569,128.258 82.522,128.275 82.446,128.303 82.378,128.385 82.299,128.37 82.247,128.36 82.369,128.292 82.405,128.253 82.295,128.16 82.433,128.26 82.12,128.33 82.103,128.334 82.085,128.304 82.09,128.288 82.111,128.237 82.238,128.18 82.189,128.156 82.022,128.073 81.792,128.432 82.088,128.056 81.922,127.858 82.246,128.209 81.814,128.032 81.776,128.017 81.869,127.942 81.84,127.914 81.804,127.878 81.694,127.957 81.687,127.907 81.648,127.655 81.953,127.778 81.731,127.709 81.775,127.52 81.756,127.713 81.541,127.687 81.512,127.683 81.589,127.615 81.563,127.604 81.51,127.582 81.372,127.678 81.39,127.624 81.426,127.52 81.574,127.494 81.632,127.403 81.648,127.378 81.593,127.358 81.573,127.335 81.472,127.279 81.442,127.298 81.446,127.165 81.448,127.117 81.506,127.061 81.476,127.022 81.444,126.978 81.364,127.012 81.314,126.988 81.13,126.903 81.312,126.81 81.396,126.702 80.738,126.768 81.355,126.772 81.228,126.59 81.198,126.546 81.121,126.606 81.068,126.597 80.955,126.579 81.032,126.5 81.068,126.455 81.099,126.415 81.138,126.381 81.174,126.344 81.156,126.338 81.139,126.324 81.121,126.327 81.068,126.334 81.015,126.391 80.966,126.37 80.932,126.355 81.014,126.314 81.044,126.293 81.212,126.176 81.38,126.058 81.559,125.957 81.621,125.922 81.944,126.266 81.415,126.119 81.41,126.135 81.395,126.151 81.401,126.166 81.408,126.182 81.434,126.18 81.446,126.192 81.457,126.204 81.456,126.225 81.466,126.235 81.481,126.249 81.504,126.251 81.52,126.263 81.619,126.33 81.494,126.277 81.625,126.323 81.621,126.348 81.619,126.373 81.612,126.397 81.602,126.429 81.568,126.458 81.577,126.491 81.584,126.516 81.636,126.501 81.647,126.524 81.66,126.55 81.604,126.609 81.633,126.61 82.281,126.644 81.647,126.475 81.925,126.555 81.998,126.528 82.067,126.485 82.144,126.474 82.16,126.471 82.169,126.508 82.158,126.521 82.096,126.597 81.969,126.626 81.941,126.721 81.925,126.776 82.058,126.659 82.111,126.681 82.143,126.695 82.088,126.746 82.076,126.778 L 82.214,126.776 82.337,126.793 C 82.341,126.825 82.322,126.873 82.35,126.89 82.397,126.917 82.462,126.879 82.513,126.897 82.543,126.908 82.587,126.941 82.577,126.972 82.55,127.056 82.434,127.098 82.42,127.185 82.413,127.225 82.495,127.216 82.533,127.232 82.617,127.221 82.701,127.194 82.787,127.198 82.825,127.2 82.91,127.218 82.89,127.25 82.818,127.372 82.598,127.401 82.582,127.542 82.572,127.637 82.799,127.42 82.863,127.49 83.215,127.877 82.348,127.58 82.843,127.725 82.857,127.945 82.809,127.75 83.073,127.805 83.101,127.81 83.108,127.855 83.103,127.883 83.093,127.935 82.987,127.99 83.028,128.023 83.166,128.136 83.418,127.766 83.091,128.153 83.13,128.156 83.168,128.165 83.207,128.163 83.317,128.155 83.369,128.1 83.457,128.168 83.474,128.181 83.495,128.201 83.492,128.223 83.484,128.296 83.401,128.347 83.417,128.429 83.942,128.299 83.474,128.367 83.491,128.557 83.501,128.669 83.754,128.459 83.831,128.542 83.863,128.577 83.735,128.652 83.778,128.672 83.846,128.706 83.925,128.64 83.999,128.624 83.953,128.678 83.894,128.723 83.862,128.786 83.812,128.886 84.06,128.744 83.976,128.791 83.814,128.883 83.64,128.953 83.483,129.055 83.401,129.109 83.667,128.981 83.755,128.935 83.772,128.927 83.717,128.941 83.697,128.945 83.68,128.941 83.654,128.951 83.644,128.935 83.601,128.874 83.764,128.825 83.771,128.749 83.774,128.714 83.671,128.778 83.665,128.743 83.642,128.6 84.038,128.556 83.529,128.678 L 83.572,128.578 C 83.557,128.56 83.527,128.548 83.528,128.524 83.53,128.486 83.584,128.46 83.579,128.423 83.571,128.365 83.255,128.39 83.227,128.393 83.291,128.328 83.375,128.279 83.421,128.201 83.434,128.178 83.378,128.158 83.381,128.131 83.391,128.063 83.525,127.988 83.377,127.966 83.325,127.958 83.259,128.009 83.219,127.975 83.19,127.951 83.255,127.91 83.273,127.878 83.32,127.828 83.483,127.688 83.41,127.673 83.347,127.66 83.283,127.715 83.22,127.704 83.198,127.7 83.237,127.64 83.215,127.638 82.997,127.613 82.845,127.813 83.165,127.516 L 83.313,127.364 C 83.299,127.347 83.267,127.334 83.27,127.312 83.275,127.272 83.32,127.244 83.333,127.206 83.341,127.185 83.357,127.137 83.334,127.138 83.105,127.148 82.824,127.385 83.331,127.033 83.144,126.994 83.371,127.063 83.344,126.92 83.338,126.885 83.249,126.947 83.24,126.914 83.228,126.874 83.293,126.849 83.312,126.812 83.337,126.765 83.342,126.696 83.348,126.645 83.302,126.641 83.219,126.678 83.208,126.633 83.195,126.577 83.28,126.543 83.312,126.495 83.338,126.455 83.39,126.415 83.382,126.368 83.377,126.333 83.298,126.36 83.285,126.328 83.209,126.141 83.476,126.273 83.217,126.183 83.213,126.152 83.212,126.12 83.205,126.09 83.197,126.06 83.171,126.034 83.17,126.002 83.165,125.856 83.277,125.8 83.367,125.696 83.41,125.646 83.555,125.568 83.493,125.544 83.396,125.504 83.29,125.597 83.188,125.624 L 83.334,125.484 C 83.297,125.484 83.199,125.512 83.222,125.482 83.289,125.395 83.418,125.372 83.487,125.286 83.507,125.262 83.425,125.269 83.393,125.271 83.324,125.277 83.209,125.376 83.189,125.31 83.168,125.235 83.302,125.202 83.359,125.149 83.368,125.119 83.404,125.085 83.387,125.058 83.344,124.988 83.15,125.078 83.153,125.011 83.156,124.939 83.32,124.911 83.293,124.844 83.221,124.666 82.785,125.175 83.271,124.689 83.234,124.681 83.198,124.666 83.161,124.665 83.104,124.662 82.988,124.731 82.991,124.675 82.996,124.591 83.123,124.566 83.171,124.497 83.211,124.439 83.099,124.367 83.103,124.31 83.104,124.301 83.126,124.15 83.123,124.143 83.104,124.087 83.023,124.098 83.034,124.021 83.041,123.976 83.139,123.908 83.094,123.898 82.988,123.876 82.88,123.943 82.773,123.965 82.851,123.889 82.951,123.829 83.008,123.735 83.027,123.706 82.971,123.672 82.974,123.637 82.977,123.606 83.094,123.413 83.017,123.357 82.961,123.316 82.806,123.39 82.812,123.321 82.822,123.203 82.966,123.142 83.044,123.053 83.432,122.329 83.004,123.293 82.912,122.793 82.892,122.684 83.061,122.622 83.102,122.518 A 0.259,0.259 0 0 0 83.096,122.328 C 82.936,121.96 82.899,122.468 83.012,121.943 82.855,121.499 82.982,122.029 83.197,121.383 83.22,121.315 83.14,121.248 83.131,121.176 A 0.735,0.735 0 0 1 83.14,120.937 C 83.233,120.482 83.268,120.853 83.2,120.48 82.96,119.9 83.284,120.74 83.142,120.187 83.133,120.152 83.084,120.135 83.079,120.1 83.074,120.06 83.106,120.022 83.115,119.982 83.122,119.954 83.122,119.925 83.129,119.897 83.136,119.871 83.148,119.847 83.157,119.821 83.14,119.811 83.107,119.809 83.107,119.789 83.104,119.619 83.347,119.792 83.325,119.562 83.309,119.398 83.067,119.727 83.14,119.512 83.155,119.466 83.187,119.429 83.21,119.388 82.993,119.3 83.163,119.41 83.193,119.189 83.198,119.153 83.129,119.131 83.135,119.095 83.148,119.025 83.227,118.978 83.243,118.907 83.257,118.843 83.151,118.697 83.126,118.657 83.13,118.641 83.236,118.245 83.234,118.236 83.224,118.178 83.135,118.157 83.123,118.1 83.055,117.803 83.266,117.977 83.259,117.674 83.258,117.626 83.186,117.611 83.149,117.579 83.137,117.54 83.146,117.486 83.112,117.462 83.064,117.429 82.955,117.488 82.938,117.432 82.918,117.365 83.018,117.318 83.05,117.257 83.072,117.214 83.078,117.165 83.098,117.122 83.183,116.936 83.244,116.992 83.058,116.945 83.054,116.878 83.045,116.841 83.068,116.774 83.08,116.734 83.127,116.701 83.121,116.66 83.116,116.63 83.063,116.64 83.044,116.618 82.895,116.45 83.44,116.378 82.649,116.688 82.733,116.608 82.844,116.548 82.899,116.446 82.919,116.41 82.817,116.448 82.776,116.455 82.73,116.463 82.687,116.493 82.641,116.49 82.626,116.49 82.635,116.461 82.631,116.447 L 82.519,116.49 C 82.481,116.506 82.444,116.524 82.406,116.542 82.232,116.606 82.382,116.555 82.67,116.349 82.686,116.339 82.493,116.442 82.525,116.443 82.752,116.452 82.675,116.317 82.728,116.44 82.344,117.073 83.021,115.878 82.892,116.562 82.866,116.698 82.607,116.717 82.596,116.855 82.589,116.945 82.836,116.789 82.867,116.875 82.903,116.971 82.755,117.047 82.699,117.135 L 82.763,117.269 82.671,117.472 C 82.734,117.482 82.868,117.442 82.859,117.504 82.846,117.609 82.692,117.639 82.637,117.729 82.622,117.754 82.659,117.783 82.673,117.809 82.744,117.943 82.751,117.838 82.583,118.028 82.584,118.028 82.749,118.104 82.743,118.123 82.727,118.187 82.631,118.209 82.615,118.273 82.607,118.303 82.704,118.291 82.693,118.319 82.606,118.563 82.478,118.385 82.588,118.511 82.564,118.541 82.542,118.574 82.516,118.604 82.486,118.638 82.409,118.658 82.419,118.703 82.429,118.741 82.499,118.68 82.537,118.693 82.553,118.698 82.547,118.73 82.536,118.743 82.428,118.887 82.352,118.825 82.479,118.887 82.497,118.902 82.542,118.908 82.534,118.93 82.525,118.956 82.268,119.222 82.274,119.235 82.306,119.301 82.476,119.165 82.495,119.236 82.518,119.322 82.385,119.377 82.331,119.448 L 82.396,119.554 C 82.421,119.791 82.436,119.657 82.266,119.936 82.275,120.066 82.63,119.975 82.616,120.091 82.586,120.316 82.22,120.395 82.187,120.621 82.607,120.679 82.263,120.571 82.232,120.853 82.226,120.9 82.322,120.883 82.36,120.91 82.63,121.09 82.274,121.292 82.144,121.403 82.204,121.417 82.268,121.421 82.324,121.445 82.366,121.462 82.394,121.501 82.432,121.524 82.473,121.549 82.588,121.549 82.562,121.589 82.467,121.728 82.24,121.755 82.172,121.909 82.139,121.984 82.339,121.905 82.422,121.904 L 82.244,122.102 C 82.576,122.189 82.224,122.054 82.214,122.295 82.212,122.349 82.384,122.229 82.377,122.283 82.367,122.353 82.261,122.366 82.199,122.402 81.873,122.591 81.94,122.56 81.71,122.641 81.71,122.578 81.708,122.611 81.716,122.544 81.716,122.528 81.702,122.509 81.71,122.496 81.799,122.353 82.065,122.251 81.661,122.321 81.554,122.136 81.647,122.351 81.823,122.024 81.846,121.981 81.807,121.924 81.818,121.877 81.849,121.737 81.981,121.552 81.963,121.397 81.953,121.319 81.89,121.257 81.853,121.187 82.237,119.999 81.782,121.563 81.948,120.483 81.992,120.198 82.201,119.816 82.319,119.568 82.339,119.462 82.262,119.36 82.234,119.256 L 82.304,118.896 C 82.297,118.806 82.282,118.715 82.284,118.623 82.286,118.541 82.33,118.46 82.317,118.38 82.308,118.33 82.239,118.308 82.222,118.26 82.209,118.222 82.264,118.166 82.234,118.14 82.197,118.107 82.053,118.177 82.085,118.14 82.169,118.044 82.301,118.006 82.41,117.94 82.473,117.902 82.534,117.861 82.6,117.828 82.669,117.794 82.87,117.688 82.811,117.738 82.713,117.818 82.58,117.85 82.479,117.928 82.459,117.944 82.529,117.938 82.554,117.938 82.609,117.934 82.72,117.858 82.717,117.913 82.713,117.989 82.604,118.013 82.547,118.063 82.883,118.073 82.566,118.023 82.665,118.138 82.685,118.161 82.762,118.132 82.752,118.16 82.727,118.225 82.625,118.24 82.601,118.306 82.586,118.346 82.783,118.286 82.693,118.394 82.682,118.423 82.636,118.459 82.659,118.481 82.774,118.589 82.949,118.297 82.649,118.632 82.609,118.679 82.562,118.722 82.53,118.776 82.514,118.804 82.477,118.864 82.51,118.873 82.586,118.895 82.668,118.85 82.747,118.838 L 82.676,118.965 C 82.698,118.985 82.746,118.997 82.742,119.027 82.719,119.225 82.351,119.24 82.498,119.523 82.588,119.656 82.572,119.578 82.468,119.761 82.483,119.81 82.635,119.757 82.614,119.803 82.566,119.909 82.422,119.939 82.347,120.028 82.33,120.049 82.353,120.083 82.355,120.111 L 82.118,120.281 C 82.203,120.259 82.286,120.226 82.373,120.214 82.386,120.213 82.408,120.232 82.4,120.244 82.377,120.279 82.326,120.289 82.3,120.323 82.272,120.36 82.378,120.393 82.391,120.403 L 82.128,120.555 C 82.138,120.562 82.159,120.565 82.158,120.577 82.154,120.599 82.095,120.622 82.116,120.631 82.154,120.647 82.266,120.581 82.239,120.611 82.003,120.875 82.001,120.646 82.009,120.792 82.127,120.879 81.958,120.737 82.018,120.87 82.019,120.873 82.138,120.897 82.134,120.904 82.043,121.069 81.869,121.03 82.119,121.042 82.251,121.221 82.089,120.959 81.948,121.326 81.932,121.366 82.024,121.367 82.052,121.399 82.179,121.538 82.087,121.691 82.189,121.845 82.157,121.935 82.095,122.019 82.093,122.115 82.092,122.182 82.16,122.232 82.18,122.296 82.201,122.366 82.188,122.445 82.215,122.513 82.242,122.58 82.421,122.739 82.392,122.842 82.362,122.945 82.27,123.019 82.209,123.108 82.315,123.098 82.425,123.044 82.527,123.076 82.567,123.089 82.497,123.156 82.48,123.194 82.467,123.224 82.453,123.254 82.437,123.284 82.421,123.314 82.377,123.338 82.383,123.373 82.388,123.399 82.473,123.378 82.459,123.401 82.417,123.467 82.336,123.496 82.274,123.544 82.273,123.566 82.267,123.587 82.27,123.608 82.273,123.627 82.295,123.641 82.293,123.66 82.29,123.683 82.268,123.7 82.257,123.72 82.25,123.733 82.225,123.758 82.239,123.76 82.341,123.78 82.617,123.598 82.127,123.865 81.879,124.004 82.077,123.878 82.095,123.908 82.105,123.924 82.061,123.928 82.047,123.941 81.928,124.054 82.407,123.806 81.969,124.055 82.265,124.029 81.885,124.043 81.902,124.183 81.91,124.248 82.027,124.124 82.091,124.136 82.137,124.144 81.89,124.333 81.987,124.349 81.963,124.382 81.899,124.409 81.913,124.448 81.927,124.484 81.998,124.431 82.027,124.455 82.047,124.471 82.019,124.505 82.016,124.531 82.012,124.557 82.015,124.583 82.008,124.608 81.95,124.815 81.978,124.594 81.962,124.778 81.966,124.801 81.965,124.825 81.973,124.847 81.982,124.869 82.026,124.887 82.011,124.905 81.981,124.945 81.735,125.073 81.728,125.195 81.725,125.252 81.84,125.274 81.808,125.345 82.144,125.466 81.701,125.265 81.757,125.56 81.769,125.626 81.973,125.481 81.96,125.548 81.932,125.698 81.573,125.713 81.616,125.919 81.627,125.934 81.636,125.951 81.65,125.962 81.668,125.976 81.716,125.97 81.711,125.992 81.701,126.04 81.641,126.062 81.617,126.104 81.557,126.213 81.653,126.127 81.637,126.224 81.632,126.26 81.605,126.289 81.587,126.322 81.543,126.487 81.541,126.386 81.756,126.387 81.791,126.387 81.871,126.38 81.856,126.412 81.821,126.491 81.682,126.503 81.664,126.588 81.609,126.848 82.213,126.195 81.679,126.719 81.629,126.765 81.497,126.799 81.531,126.857 81.566,126.915 81.661,126.816 81.729,126.804 81.782,126.795 81.81,126.798 81.84,126.835 81.848,126.845 81.86,126.855 81.858,126.868 81.854,126.892 81.836,126.911 81.824,126.932 81.824,126.945 81.826,126.959 81.821,126.971 81.815,126.991 81.772,127.025 81.793,127.028 81.854,127.038 82.051,126.901 82.077,126.91 82.127,126.929 81.934,126.99 81.99,127.045 81.865,127.258 81.995,127.015 82.325,126.865 82.385,126.837 82.223,126.953 82.182,127.006 82.176,127.013 82.189,127.031 82.198,127.029 82.345,126.981 82.465,126.833 82.179,127.113 L 82.509,126.898 C 82.487,126.924 82.418,126.956 82.444,126.978 82.474,127.002 82.514,126.934 82.552,126.933 82.567,126.933 82.53,126.979 82.544,126.975 82.716,126.927 82.732,126.814 82.702,126.933 L 82.782,126.919 C 82.784,126.935 82.772,126.96 82.787,126.965 82.821,126.975 82.859,126.95 82.895,126.955 82.92,126.957 82.973,126.962 82.963,126.985 82.851,127.225 82.678,127.124 82.915,127.208 82.884,127.45 82.845,127.354 83.176,127.376 83.203,127.503 82.992,127.576 82.967,127.704 82.922,127.936 83.519,128.004 83.309,128.284 83.318,128.322 83.378,128.618 83.426,128.663 83.469,128.703 83.546,128.686 83.596,128.718 83.733,128.806 83.544,128.948 83.486,128.99 83.312,129.069 83.39,129.077 83.297,129.042 83.28,129.035 83.234,129.038 83.245,129.022 83.292,128.959 83.388,128.938 83.426,128.869 83.468,128.792 83.014,128.977 83.165,128.894 83.17,128.871 83.178,128.847 83.18,128.824 83.183,128.803 83.167,128.777 83.18,128.76 83.23,128.7 83.36,128.683 83.356,128.605 83.353,128.523 82.903,128.828 83.108,128.563 L 83.158,128.464 C 83.133,128.454 83.084,128.46 83.084,128.434 83.084,128.386 83.173,128.357 83.158,128.312 83.146,128.274 83.056,128.333 83.039,128.297 83.02,128.257 83.076,128.217 83.094,128.176 L 83.05,128.11 C 83.077,128.03 83.133,127.964 83.03,127.904 82.978,127.875 82.885,127.91 82.86,127.858 82.832,127.798 82.92,127.736 82.918,127.67 82.916,127.577 82.791,127.473 82.738,127.419 82.785,127.042 82.788,127.381 82.668,127.09 82.646,127.038 82.663,126.974 82.638,126.924 82.615,126.874 82.528,126.854 82.528,126.798 82.528,126.708 82.626,126.641 82.639,126.553 82.648,126.496 82.607,126.443 82.591,126.388 82.509,126.144 82.518,126.279 82.618,125.982 82.598,125.915 82.441,125.951 82.433,125.882 82.421,125.776 82.611,125.696 82.575,125.597 82.543,125.507 82.35,125.6 82.302,125.519 82.256,125.439 82.351,125.342 82.375,125.254 82.379,125.178 82.392,125.102 82.387,125.025 82.383,124.96 82.335,124.895 82.35,124.832 82.371,124.736 82.54,124.657 82.49,124.573 82.438,124.489 82.271,124.639 82.194,124.578 82.144,124.54 82.254,124.469 82.285,124.415 L 82.224,124.373 Z"
     id="path1149" />
  <g
     word-spacing="0"
     letter-spacing="0"
     font-size="32"
     font-weight="100"
     id="text4612"
     style="font-weight:100;font-size:32px;line-height:20px;font-family:Timepiece;-inkscape-font-specification:'Calibri, Normal';font-variant-ligatures:normal;font-variant-caps:normal;font-variant-numeric:normal;font-feature-settings:normal;text-align:start;letter-spacing:0;word-spacing:0;fill:#f8a81c;stroke-width:2.13499999;filter:url(#filter11033)"
     transform="translate(-3.0613123)">
    <path
       inkscape:connector-curvature="0"
       id="path11769"
       style="-inkscape-font-specification:'Timepiece, Thin';font-variant-ligatures:normal;font-variant-caps:normal;font-variant-numeric:normal;font-feature-settings:normal;text-align:start"
       d="M 21.35,216.138 14.919,222.031 Q 14.253,221.271 13.239,221.271 12.289,221.271 11.624,221.968 10.958,222.633 10.958,223.584 10.958,224.534 11.624,225.231 12.289,225.897 13.24,225.897 14.285,225.897 14.982,225.073 L 20.843,231.853 Q 17.042,234.578 13.176,234.578 8.487,234.578 5.224,231.41 1.992,228.21 1.992,223.552 1.992,218.8 5.414,215.758 8.677,212.843 13.461,212.843 18.277,212.843 21.351,216.138 Z" />
    <path
       inkscape:connector-curvature="0"
       id="path11771"
       style="-inkscape-font-specification:'Timepiece, Thin';font-variant-ligatures:normal;font-variant-caps:normal;font-variant-numeric:normal;font-feature-settings:normal;text-align:start"
       d="M 44.091,234.388 H 22.831 V 213.287 H 32.368 V 225.643 H 39.338 Z" />
    <path
       inkscape:connector-curvature="0"
       id="path11773"
       style="-inkscape-font-specification:'Timepiece, Thin';font-variant-ligatures:normal;font-variant-caps:normal;font-variant-numeric:normal;font-feature-settings:normal;text-align:start"
       d="M 63.29,223.742 Q 63.29,228.432 60.28,231.505 57.27,234.578 52.58,234.578 47.701,234.578 44.596,231.568 41.491,228.526 41.491,223.711 41.491,218.99 44.533,215.916 47.574,212.843 52.263,212.843 57.079,212.843 60.184,215.885 63.289,218.926 63.289,223.742 Z M 58.125,218.8 Q 58.125,217.85 57.459,217.184 56.794,216.487 55.844,216.487 54.924,216.487 54.259,217.184 53.594,217.849 53.594,218.8 53.594,219.75 54.259,220.447 54.925,221.112 55.844,221.112 56.794,221.112 57.459,220.447 58.125,219.75 58.125,218.8 Z" />
    <path
       inkscape:connector-curvature="0"
       id="path11775"
       style="-inkscape-font-specification:'Timepiece, Thin';font-variant-ligatures:normal;font-variant-caps:normal;font-variant-numeric:normal;font-feature-settings:normal;text-align:start"
       d="M 84.475,216.138 78.044,222.031 Q 77.378,221.271 76.364,221.271 75.414,221.271 74.749,221.968 74.083,222.633 74.083,223.584 74.083,224.534 74.749,225.231 75.414,225.897 76.365,225.897 77.41,225.897 78.107,225.073 L 83.968,231.853 Q 80.167,234.578 76.301,234.578 71.612,234.578 68.349,231.41 65.117,228.21 65.117,223.552 65.117,218.8 68.539,215.758 71.802,212.843 76.586,212.843 81.402,212.843 84.476,216.138 Z" />
    <path
       inkscape:connector-curvature="0"
       id="path11777"
       style="-inkscape-font-specification:'Timepiece, Thin';font-variant-ligatures:normal;font-variant-caps:normal;font-variant-numeric:normal;font-feature-settings:normal;text-align:start"
       d="M 109.878,234.388 H 98.598 L 95.525,230.048 V 234.388 H 85.957 V 213.287 H 95.525 V 217.659 L 98.598,213.287 H 107.501 L 101.038,221.967 Z" />
    <path
       inkscape:connector-curvature="0"
       id="path11779"
       style="-inkscape-font-specification:'Timepiece, Thin';font-variant-ligatures:normal;font-variant-caps:normal;font-variant-numeric:normal;font-feature-settings:normal;text-align:start"
       d="M 139.515,213.287 130.073,234.387 H 117.241 L 107.831,213.287 H 119.269 L 121.043,217.406 123.673,211.734 126.208,217.406 128.014,213.286 Z" />
    <path
       inkscape:connector-curvature="0"
       id="path11781"
       style="-inkscape-font-specification:'Timepiece, Thin';font-variant-ligatures:normal;font-variant-caps:normal;font-variant-numeric:normal;font-feature-settings:normal;text-align:start"
       d="M 159.383,223.742 Q 159.383,228.432 156.373,231.505 153.363,234.578 148.674,234.578 143.794,234.578 140.69,231.568 137.585,228.526 137.585,223.711 137.585,218.99 140.626,215.916 143.668,212.843 148.357,212.843 153.173,212.843 156.278,215.885 159.383,218.926 159.383,223.742 Z M 154.219,218.8 Q 154.219,217.85 153.553,217.184 152.888,216.487 151.937,216.487 151.019,216.487 150.353,217.184 149.688,217.849 149.688,218.8 149.688,219.75 150.353,220.447 151.019,221.112 151.937,221.112 152.887,221.112 153.553,220.447 154.219,219.75 154.219,218.8 Z" />
    <path
       inkscape:connector-curvature="0"
       id="path11783"
       style="-inkscape-font-specification:'Timepiece, Thin';font-variant-ligatures:normal;font-variant-caps:normal;font-variant-numeric:normal;font-feature-settings:normal;text-align:start"
       d="M 183.07,234.388 H 161.082 V 213.287 H 172.139 Q 176.575,213.287 179.236,215.79 181.898,218.293 181.898,222.665 181.898,226.499 178.919,229.572 Z M 174.04,221.968 Q 174.04,221.018 173.375,220.352 172.71,219.655 171.759,219.655 170.809,219.655 170.143,220.352 169.478,221.017 169.478,221.968 169.478,222.918 170.143,223.615 170.809,224.281 171.759,224.281 172.709,224.281 173.375,223.615 174.04,222.918 174.04,221.968 Z" />
    <path
       inkscape:connector-curvature="0"
       id="path11785"
       style="-inkscape-font-specification:'Timepiece, Thin';font-variant-ligatures:normal;font-variant-caps:normal;font-variant-numeric:normal;font-feature-settings:normal;text-align:start"
       d="M 207.909,234.388 H 196.629 L 193.556,230.048 V 234.388 H 183.988 V 213.287 H 193.556 V 217.659 L 196.63,213.287 H 205.533 L 199.069,221.967 Z" />
    <path
       inkscape:connector-curvature="0"
       id="path11787"
       style="-inkscape-font-specification:'Timepiece, Thin';font-variant-ligatures:normal;font-variant-caps:normal;font-variant-numeric:normal;font-feature-settings:normal;text-align:start"
       d="M 60.852,249.375 Q 60.852,254.065 57.842,257.138 54.832,260.211 50.142,260.211 45.264,260.211 42.159,257.201 39.054,254.159 39.054,249.344 39.054,244.623 42.095,241.549 45.137,238.476 49.825,238.476 54.642,238.476 57.747,241.518 60.852,244.559 60.852,249.375 Z M 55.687,244.433 Q 55.687,243.483 55.022,242.817 54.357,242.12 53.406,242.12 52.487,242.12 51.822,242.817 51.157,243.482 51.157,244.433 51.157,245.383 51.822,246.08 52.487,246.745 53.406,246.745 54.356,246.745 55.022,246.08 55.687,245.383 55.687,244.433 Z" />
    <path
       inkscape:connector-curvature="0"
       id="path11789"
       style="-inkscape-font-specification:'Timepiece, Thin';font-variant-ligatures:normal;font-variant-caps:normal;font-variant-numeric:normal;font-feature-settings:normal;text-align:start"
       d="M 84.507,260.02 H 62.52 V 238.92 H 73.578 Q 78.013,238.92 80.675,241.423 83.336,243.926 83.336,248.298 83.336,252.132 80.358,255.205 Z M 75.477,247.6 Q 75.477,246.65 74.812,245.985 74.147,245.288 73.197,245.288 72.247,245.288 71.581,245.985 70.915,246.65 70.915,247.601 70.915,248.551 71.581,249.248 72.246,249.914 73.197,249.914 74.147,249.914 74.812,249.248 75.478,248.551 75.478,247.601 Z" />
    <path
       inkscape:connector-curvature="0"
       id="path11791"
       style="-inkscape-font-specification:'Timepiece, Thin';font-variant-ligatures:normal;font-variant-caps:normal;font-variant-numeric:normal;font-feature-settings:normal;text-align:start"
       d="M 108.244,260.02 H 98.739 L 96.521,255.902 94.335,260.021 H 84.925 L 96.49,238.159 Z" />
    <path
       inkscape:connector-curvature="0"
       id="path11793"
       style="-inkscape-font-specification:'Timepiece, Thin';font-variant-ligatures:normal;font-variant-caps:normal;font-variant-numeric:normal;font-feature-settings:normal;text-align:start"
       d="M 128.23,259.99 115.937,258.151 V 260.021 H 108.269 V 238.951 L 120.753,240.789 V 238.919 H 128.23 Z" />
    <path
       inkscape:connector-curvature="0"
       id="path11795"
       style="-inkscape-font-specification:'Timepiece, Thin';font-variant-ligatures:normal;font-variant-caps:normal;font-variant-numeric:normal;font-feature-settings:normal;text-align:start"
       d="M 157.506,260.02 H 140.207 Q 135.423,260.02 132.191,257.01 128.991,253.97 128.991,249.185 128.991,244.369 132.381,241.391 135.645,238.476 140.619,238.476 144.484,238.476 146.924,240.599 L 141.506,247.347 Q 140.936,246.904 140.239,246.904 139.289,246.904 138.623,247.601 137.957,248.266 137.957,249.217 137.957,250.136 138.623,250.833 139.288,251.53 140.239,251.53 140.999,251.53 141.633,251.023 142.266,250.484 142.361,249.723 H 151.866 Z" />
    <path
       inkscape:connector-curvature="0"
       id="path11797"
       style="-inkscape-font-specification:'Timepiece, Thin';font-variant-ligatures:normal;font-variant-caps:normal;font-variant-numeric:normal;font-feature-settings:normal;text-align:start"
       d="M 180.648,260.02 H 157.488 V 238.92 H 175.294 V 244.591 H 171.144 V 247.949 H 167.024 V 251.276 H 175.896 Z" />
  </g>
  <path
     inkscape:connector-curvature="0"
     style="fill:url(#radialGradient7130-0);stroke-width:8.81400013;stroke-linecap:round;stroke-linejoin:round;stroke-dashoffset:261.39700317;stroke-opacity:0;paint-order:markers fill stroke"
     id="path1212-8-7"
     d="M 100.748,92.312 C 100.632,95.212 97.686,86.917 93.239,86.925 88.694,86.933 86.307,94.75 85.664,92.42 A 5.17,5.17 0 0 1 85.534,91.26 C 85.612,86.194 85.829,75.72 92.543,75.67 99.894,75.616 100.735,86.148 100.8,91.12 100.806,91.587 100.763,91.943 100.748,92.312 Z" />
</svg>
