<?xml version="1.0" encoding="UTF-8" standalone="no"?>
<svg
   xmlns:dc="http://purl.org/dc/elements/1.1/"
   xmlns:cc="http://creativecommons.org/ns#"
   xmlns:rdf="http://www.w3.org/1999/02/22-rdf-syntax-ns#"
   xmlns:svg="http://www.w3.org/2000/svg"
   xmlns="http://www.w3.org/2000/svg"
   xmlns:xlink="http://www.w3.org/1999/xlink"
   xmlns:sodipodi="http://sodipodi.sourceforge.net/DTD/sodipodi-0.dtd"
   xmlns:inkscape="http://www.inkscape.org/namespaces/inkscape"
   viewBox="0 0 400 300"
   id="svg8"
   version="1.1"
   sodipodi:docname="a clockwork orange.svg"
   inkscape:export-filename="D:\Desktop\a clockwork orange 3.png"
   inkscape:export-xdpi="192"
   inkscape:export-ydpi="192"
   inkscape:version="0.92.3 (2405546, 2018-03-11)"
   width="400"
   height="300">
  <metadata
     id="metadata136">
    <rdf:RDF>
      <cc:Work
         rdf:about="">
        <dc:format>image/svg+xml</dc:format>
        <dc:type
           rdf:resource="http://purl.org/dc/dcmitype/StillImage" />
        <dc:title />
      </cc:Work>
    </rdf:RDF>
  </metadata>
  <sodipodi:namedview
     pagecolor="#ffffff"
     bordercolor="#666666"
     borderopacity="1"
     objecttolerance="10"
     gridtolerance="10"
     guidetolerance="10"
     inkscape:pageopacity="0"
     inkscape:pageshadow="2"
     inkscape:window-width="1600"
     inkscape:window-height="837"
     id="namedview134"
     showgrid="false"
     inkscape:zoom="21.429075"
     inkscape:cx="398.78999"
     inkscape:cy="9.3109829"
     inkscape:window-x="-8"
     inkscape:window-y="-8"
     inkscape:window-maximized="1"
     inkscape:current-layer="svg8" />
  <defs
     id="defs2">
    <linearGradient
       id="linearGradient7126">
      <stop
         offset="0"
         id="stop7122" />
      <stop
         offset="1"
         id="stop7124"
         stop-opacity="0" />
    </linearGradient>
    <linearGradient
       id="linearGradient7096">
      <stop
         offset="0"
         id="stop7092"
         stop-color="#fa6400" />
      <stop
         offset="1"
         id="stop7094"
         stop-color="#faff0a"
         stop-opacity="0" />
    </linearGradient>
    <filter
       id="filter3365"
       style="color-interpolation-filters:sRGB">
      <feFlood
         flood-opacity="1"
         flood-color="#FFF"
         result="flood"
         id="feFlood3355" />
      <feComposite
         in="flood"
         in2="SourceGraphic"
         operator="in"
         result="composite1"
         id="feComposite3357" />
      <feGaussianBlur
         in="composite1"
         stdDeviation="1.7"
         result="blur"
         id="feGaussianBlur3359" />
      <feOffset
         dx=".1"
         dy="3.4"
         result="offset"
         id="feOffset3361" />
      <feComposite
         in="SourceGraphic"
         in2="offset"
         result="fbSourceGraphic"
         id="feComposite3363" />
      <feColorMatrix
         result="fbSourceGraphicAlpha"
         in="fbSourceGraphic"
         values="0 0 0 -1 0 0 0 0 -1 0 0 0 0 -1 0 0 0 0 1 0"
         id="feColorMatrix901" />
      <feFlood
         id="feFlood903"
         flood-opacity=".498"
         flood-color="#000"
         result="flood" />
      <feComposite
         in2="fbSourceGraphic"
         id="feComposite905"
         in="flood"
         operator="in"
         result="composite1" />
      <feGaussianBlur
         id="feGaussianBlur907"
         in="composite1"
         stdDeviation="4.2"
         result="blur" />
      <feOffset
         id="feOffset909"
         dx="1.3"
         dy="-6.9"
         result="offset" />
      <feComposite
         in2="offset"
         id="feComposite911"
         in="fbSourceGraphic"
         result="composite2" />
    </filter>
    <filter
       id="filter3635"
       x="-0.15000001"
       width="1.3"
       y="-0.15000001"
       height="1.3"
       style="color-interpolation-filters:sRGB">
      <feFlood
         flood-opacity="1"
         flood-color="#FE3C19"
         result="flood"
         id="feFlood3625" />
      <feComposite
         in="flood"
         in2="SourceGraphic"
         operator="in"
         result="composite1"
         id="feComposite3627" />
      <feGaussianBlur
         in="composite1"
         stdDeviation="4.2"
         result="blur"
         id="feGaussianBlur3629" />
      <feOffset
         dy="3.2"
         result="offset"
         id="feOffset3631" />
      <feComposite
         in="SourceGraphic"
         in2="offset"
         result="fbSourceGraphic"
         id="feComposite3633" />
      <feColorMatrix
         result="fbSourceGraphicAlpha"
         in="fbSourceGraphic"
         values="0 0 0 -1 0 0 0 0 -1 0 0 0 0 -1 0 0 0 0 1 0"
         id="feColorMatrix11757" />
      <feGaussianBlur
         id="feGaussianBlur11759"
         in="fbSourceGraphic"
         stdDeviation="0.947187 1.18"
         result="blur1" />
      <feTurbulence
         id="feTurbulence11761"
         type="fractalNoise"
         baseFrequency=".042"
         numOctaves="2"
         seed="24"
         result="turbulence" />
      <feDisplacementMap
         in2="turbulence"
         id="feDisplacementMap11763"
         in="blur1"
         xChannelSelector="R"
         yChannelSelector="G"
         scale="6.25"
         result="map" />
      <feGaussianBlur
         id="feGaussianBlur11765"
         in="map"
         stdDeviation=".01"
         result="blur2" />
      <feComposite
         in2="map"
         id="feComposite11767"
         in="blur2"
         operator="atop"
         result="composite" />
    </filter>
    <filter
       id="filter1114"
       style="color-interpolation-filters:sRGB">
      <feFlood
         flood-opacity="1"
         flood-color="#FFF"
         result="flood"
         id="feFlood1104" />
      <feComposite
         in="flood"
         in2="SourceGraphic"
         operator="in"
         result="composite1"
         id="feComposite1106" />
      <feGaussianBlur
         in="composite1"
         result="blur"
         id="feGaussianBlur1108" />
      <feOffset
         dx=".3"
         dy="2.5"
         result="offset"
         id="feOffset1110" />
      <feComposite
         in="SourceGraphic"
         in2="offset"
         result="composite2"
         id="feComposite1112" />
    </filter>
    <filter
       id="filter6510"
       style="color-interpolation-filters:sRGB">
      <feFlood
         flood-opacity=".992"
         flood-color="#FFF"
         result="flood"
         id="feFlood6500" />
      <feComposite
         in="flood"
         in2="SourceGraphic"
         operator="out"
         result="composite1"
         id="feComposite6502" />
      <feGaussianBlur
         in="composite1"
         stdDeviation="2.083"
         result="blur"
         id="feGaussianBlur6504" />
      <feOffset
         dx="-5.4"
         dy="4.7"
         result="offset"
         id="feOffset6506" />
      <feComposite
         in="offset"
         in2="SourceGraphic"
         operator="atop"
         result="fbSourceGraphic"
         id="feComposite6508" />
      <feColorMatrix
         result="fbSourceGraphicAlpha"
         in="fbSourceGraphic"
         values="0 0 0 -1 0 0 0 0 -1 0 0 0 0 -1 0 0 0 0 1 0"
         id="feColorMatrix7041" />
      <feFlood
         id="feFlood7043"
         flood-opacity=".992"
         flood-color="#FFF"
         result="flood" />
      <feComposite
         in2="fbSourceGraphic"
         id="feComposite7045"
         in="flood"
         operator="out"
         result="composite1" />
      <feGaussianBlur
         id="feGaussianBlur7047"
         in="composite1"
         result="blur" />
      <feOffset
         id="feOffset7049"
         dy="-.1"
         result="offset" />
      <feComposite
         in2="fbSourceGraphic"
         id="feComposite7051"
         in="offset"
         operator="atop"
         result="composite2" />
    </filter>
    <radialGradient
       xlink:href="#linearGradient7126"
       id="radialGradient7130"
       cx="121.384"
       cy="83.879997"
       fx="121.384"
       fy="83.879997"
       r="7.6209998"
       gradientTransform="matrix(4.3161,0.07114,-0.06676,4.0503,-302.55842,-251.39039)"
       gradientUnits="userSpaceOnUse" />
    <radialGradient
       xlink:href="#linearGradient7126"
       id="radialGradient7130-0"
       cx="121.384"
       cy="83.879997"
       fx="121.384"
       fy="83.879997"
       r="7.6209998"
       gradientTransform="matrix(4.3161,0.07114,-0.06676,4.0503,-330.80542,-251.10439)"
       gradientUnits="userSpaceOnUse" />
    <radialGradient
       xlink:href="#linearGradient7096"
       id="radialGradient7156"
       cx="125.85"
       cy="93.728996"
       fx="125.85"
       fy="93.728996"
       r="42.370998"
       gradientUnits="userSpaceOnUse"
       spreadMethod="reflect"
       gradientTransform="matrix(-5.0336,0.0052,-0.00306,-2.95683,834.68758,378.75761)" />
    <filter
       id="filter7443"
       style="color-interpolation-filters:sRGB">
      <feFlood
         flood-opacity=".992"
         flood-color="#FFF"
         result="flood"
         id="feFlood7433" />
      <feComposite
         in="flood"
         in2="SourceGraphic"
         operator="in"
         result="composite1"
         id="feComposite7435" />
      <feGaussianBlur
         in="composite1"
         result="blur"
         id="feGaussianBlur7437" />
      <feOffset
         dx="-2"
         dy="-2.1"
         result="offset"
         id="feOffset7439" />
      <feComposite
         in="SourceGraphic"
         in2="offset"
         result="fbSourceGraphic"
         id="feComposite7441" />
      <feColorMatrix
         result="fbSourceGraphicAlpha"
         in="fbSourceGraphic"
         values="0 0 0 -1 0 0 0 0 -1 0 0 0 0 -1 0 0 0 0 1 0"
         id="feColorMatrix7805" />
      <feFlood
         id="feFlood7807"
         flood-opacity=".992"
         flood-color="#D8D8D8"
         result="flood" />
      <feComposite
         in2="fbSourceGraphic"
         id="feComposite7809"
         in="flood"
         operator="out"
         result="composite1" />
      <feGaussianBlur
         id="feGaussianBlur7811"
         in="composite1"
         result="blur" />
      <feOffset
         id="feOffset7813"
         dx="2"
         dy="12.8"
         result="offset" />
      <feComposite
         in2="fbSourceGraphic"
         id="feComposite7815"
         in="offset"
         operator="atop"
         result="composite2" />
    </filter>
    <filter
       height="2"
       width="1.3"
       y="-0.58999997"
       x="-0.23"
       id="filter8253"
       style="color-interpolation-filters:sRGB">
      <feConvolveMatrix
         order="3 3"
         kernelMatrix="0 -1 0 0 -1 0 0 2 0"
         result="result1"
         divisor="560.526"
         id="feConvolveMatrix8231"
         bias="-.7" />
      <feTurbulence
         numOctaves="10"
         baseFrequency="0.17499999999999999 0.01"
         result="result0"
         id="feTurbulence8233" />
      <feColorMatrix
         result="result2"
         values="1 0 0 0 0 0 1 0 0 0 0 0 1 0 0 0 0 0 10 -3.5"
         id="feColorMatrix8235" />
      <feComposite
         in2="result2"
         in="result1"
         operator="in"
         id="feComposite8237" />
      <feMorphology
         operator="dilate"
         radius="1 30"
         id="feMorphology8239" />
      <feColorMatrix
         values="1 0 0 0 0 0 1 0 0 0 0 0 1 0 0 0 0 0 50 0"
         result="result3"
         id="feColorMatrix8241" />
      <feOffset
         dy="1.4"
         result="result4"
         id="feOffset8243" />
      <feTurbulence
         numOctaves="2"
         baseFrequency="0.032 0.025"
         result="result8"
         id="feTurbulence8245" />
      <feColorMatrix
         values="0 0 0 0 0.52 0 -0.4 0 0 0.45 0 0 1 0 0 0 0 0 1 0"
         result="result91"
         id="feColorMatrix8247" />
      <feDisplacementMap
         in="result4"
         xChannelSelector="R"
         yChannelSelector="G"
         scale="100"
         result="result9"
         in2="result91"
         id="feDisplacementMap8249" />
      <feComposite
         in="SourceGraphic"
         in2="result9"
         id="feComposite8251" />
    </filter>
    <filter
       id="filter9609"
       style="color-interpolation-filters:sRGB">
      <feTurbulence
         baseFrequency=".009"
         numOctaves="2"
         result="result1"
         type="fractalNoise"
         id="feTurbulence9585" />
      <feGaussianBlur
         stdDeviation="4"
         result="result7"
         id="feGaussianBlur9587" />
      <feDisplacementMap
         result="result5"
         in="SourceGraphic"
         scale="20"
         xChannelSelector="G"
         in2="result7"
         id="feDisplacementMap9589"
         yChannelSelector="A" />
      <feComposite
         result="result2"
         operator="in"
         in2="result1"
         in="result5"
         id="feComposite9591" />
      <feGaussianBlur
         stdDeviation="1"
         result="result6"
         id="feGaussianBlur9593" />
      <feSpecularLighting
         surfaceScale="-3"
         result="result4"
         specularConstant="3.5"
         specularExponent="35"
         in="result6"
         id="feSpecularLighting9597">
        <feDistantLight
           elevation="45"
           azimuth="225"
           id="feDistantLight9595" />
      </feSpecularLighting>
      <feComposite
         k1="1.7"
         k3="0.7"
         in2="result2"
         in="result4"
         operator="arithmetic"
         result="result91"
         id="feComposite9599"
         k2="0"
         k4="0" />
      <feBlend
         result="fbSourceGraphic"
         mode="multiply"
         in2="result91"
         id="feBlend9601" />
      <feComposite
         in2="fbSourceGraphic"
         in="fbSourceGraphic"
         result="result2"
         operator="arithmetic"
         id="feComposite9603"
         k1="0"
         k2="0"
         k3="0"
         k4="0" />
      <feComposite
         in="result2"
         result="result4"
         operator="arithmetic"
         k2="2"
         k3="2"
         in2="fbSourceGraphic"
         id="feComposite9605"
         k1="0"
         k4="0" />
      <feBlend
         mode="screen"
         in="result4"
         in2="result4"
         id="feBlend9607" />
    </filter>
    <filter
       x="-0.15000001"
       width="1.3"
       y="-0.15000001"
       height="1.3"
       id="filter11033"
       style="color-interpolation-filters:sRGB">
      <feGaussianBlur
         in="SourceGraphic"
         stdDeviation="0.24 0.01"
         result="blur1"
         id="feGaussianBlur11023" />
      <feTurbulence
         baseFrequency=".018"
         numOctaves="2"
         result="turbulence"
         id="feTurbulence11025" />
      <feDisplacementMap
         in="blur1"
         in2="turbulence"
         xChannelSelector="R"
         yChannelSelector="G"
         scale="8.85"
         result="map"
         id="feDisplacementMap11027" />
      <feGaussianBlur
         in="map"
         stdDeviation="2.04"
         result="blur2"
         id="feGaussianBlur11029" />
      <feComposite
         in="blur2"
         in2="map"
         operator="atop"
         result="composite"
         id="feComposite11031" />
    </filter>
    <inkscape:path-effect
       effect="spiro"
       id="path-effect893"
       is_visible="true" />
    <inkscape:path-effect
       effect="spiro"
       id="path-effect889"
       is_visible="true" />
    <inkscape:path-effect
       effect="spiro"
       id="path-effect881"
       is_visible="true" />
  </defs>
  <path
     style="stroke:#000000;stroke-width:0.24422495;stroke-linecap:square;stroke-linejoin:round;stroke-dashoffset:261.39700317;paint-order:markers fill stroke"
     inkscape:connector-curvature="0"
     d="M 0.12211248,0.12211021 H 399.87789 V 299.87789 H 0.12211248 Z"
     id="rect1261" />
  <path
     style="fill:#ffffff;stroke:#000000;stroke-width:0.185;stroke-linecap:square;stroke-linejoin:round;stroke-dashoffset:261.39700317;paint-order:markers fill stroke;filter:url(#filter3635)"
     inkscape:connector-curvature="0"
     transform="matrix(0.86511,0,0,0.86511,110.69558,29.554172)"
     id="path1263"
     d="M 103.086,-15.116 163.753,89.961 224.419,195.039 H 129.902 L 106.212,144.562 83.603,195.039 H -18.247 L 42.42,89.96 Z" />
  <circle
     style="fill:url(#radialGradient7156);stroke:#ffff72;stroke-width:0.85600001;stroke-linecap:round;stroke-linejoin:round;stroke-dashoffset:261.39700317;paint-order:markers fill stroke"
     r="41.943001"
     cy="107.83862"
     cx="200.04558"
     id="path1130" />
  <path
     style="fill:#008000;stroke-width:0;stroke-linecap:round;stroke-linejoin:round;stroke-dashoffset:261.39700317;paint-order:markers fill stroke"
     inkscape:connector-curvature="0"
     d="M 215.21734,77.091772 206.24813,72.235762 196.43357,69.459277 205.12396,64.119617 212.43571,57.008394 212.71515,67.204171 Z"
     id="path1237" />
  <path
     style="stroke-width:0.03399247;stroke-linecap:round;stroke-linejoin:round;stroke-dashoffset:261.39700317;paint-order:markers fill stroke"
     inkscape:connector-curvature="0"
     id="path1124"
     d="M 180.39298,65.560965 C 180.71155,58.717364 182.60457,52.895971 189.05853,49.954395 195.51253,47.011819 204.9262,46.567389 211.06063,50.468339 217.19602,54.370364 221.40021,61.818288 221.08164,68.661889 L 200.73781,67.111465 Z" />
  <ellipse
     style="stroke-width:0.027;stroke-linecap:round;stroke-linejoin:round;stroke-dashoffset:261.39700317;paint-order:markers fill stroke"
     ry="5.0019999"
     rx="25.909"
     cy="68.249611"
     cx="200.28058"
     id="path1126" />
  <path
     style="fill:#ffffff;fill-rule:evenodd;stroke:#000000;stroke-width:0.49000001"
     inkscape:connector-curvature="0"
     id="path1136"
     d="M 179.47158,119.21261 C 175.39458,122.34161 176.49258,127.64261 180.07958,129.35461 L 221.34158,129.38661 C 226.63158,127.48161 225.95158,121.28961 222.77658,119.34661 Z" />
  <path
     style="fill:none;fill-rule:evenodd;stroke:#000000;stroke-width:0.142"
     inkscape:connector-curvature="0"
     id="path1142"
     d="M 183.35758,119.33961 183.28758,129.29361" />
  <path
     style="fill:none;fill-rule:evenodd;stroke:#000000;stroke-width:0.142"
     inkscape:connector-curvature="0"
     id="path1142-8"
     d="M 190.66458,119.37461 190.59458,129.32861" />
  <path
     style="fill:none;fill-rule:evenodd;stroke:#000000;stroke-width:0.142"
     inkscape:connector-curvature="0"
     id="path1142-4"
     d="M 198.71158,119.30361 198.64158,129.25761" />
  <path
     style="fill:none;fill-rule:evenodd;stroke:#000000;stroke-width:0.142"
     inkscape:connector-curvature="0"
     id="path1142-2"
     d="M 206.12458,119.44461 206.05458,129.39861" />
  <path
     style="fill:none;fill-rule:evenodd;stroke:#000000;stroke-width:0.142"
     inkscape:connector-curvature="0"
     id="path1142-48"
     d="M 212.76158,119.44461 212.69058,129.39861" />
  <path
     style="fill:none;fill-rule:evenodd;stroke:#000000;stroke-width:0.142"
     inkscape:connector-curvature="0"
     id="path1142-7"
     d="M 219.32658,119.44461 219.25558,129.39861" />
  <path
     style="fill:none;fill-rule:evenodd;stroke:#000000;stroke-width:0.242"
     inkscape:connector-curvature="0"
     id="path1208"
     d="M 176.82358,124.45961 225.44458,124.55961" />
  <path
     inkscape:connector-curvature="0"
     style="fill:url(#radialGradient7130);stroke-width:8.81400013;stroke-linecap:round;stroke-linejoin:round;stroke-dashoffset:261.39700317;stroke-opacity:0;paint-order:markers fill stroke"
     id="path1212-8"
     d="M 223.35658,105.12961 C 223.23958,108.02861 220.29458,99.734609 215.84758,99.741609 211.30158,99.750609 208.91558,107.56661 208.27158,105.23761 A 5.17,5.17 0 0 1 208.14158,104.07761 C 208.22058,99.011609 208.43658,88.537609 215.15158,88.487609 222.50158,88.433609 223.34258,98.964609 223.40758,103.93661 223.41358,104.40361 223.37058,104.76061 223.35658,105.12961 Z" />
  <path
     style="stroke-width:0;stroke-linecap:round;stroke-linejoin:round;stroke-dashoffset:261.39700317;paint-order:markers fill stroke"
     inkscape:connector-curvature="0"
     d="M 183.40358,119.32161 H 190.63258 V 124.44161 H 183.40358 Z"
     id="rect1231" />
  <path
     style="fill:#ff0000;fill-rule:evenodd;stroke-width:0.142"
     inkscape:connector-curvature="0"
     id="path1233"
     d="M 177.18458,126.22661 C 177.07258,129.60161 176.88958,131.98761 177.04458,135.36261 176.44258,135.87761 175.86458,137.03261 175.94458,137.84861 176.16458,138.73361 176.64658,139.00861 177.14358,139.24661 177.85758,139.33561 178.50058,139.15861 178.84058,137.84861 178.74058,137.33061 178.68658,136.78861 178.22458,136.45161 178.38658,133.67161 178.55358,131.36861 178.62458,128.22461 178.14458,127.91261 177.54658,126.99661 177.18458,126.22661 Z" />
  <path
     style="fill:#ff0000;stroke-width:0.52200001;stroke-linecap:round;stroke-linejoin:round;stroke-dashoffset:261.39700317;paint-order:markers fill stroke"
     inkscape:connector-curvature="0"
     d="M 176.90458,137.30661 C 177.27458,137.30661 176.77758,137.27461 176.80658,137.54861 176.81558,137.63561 177.01658,137.49161 177.06858,137.56261 177.11658,137.62861 176.99958,137.71261 176.98358,137.79261 176.97058,137.86261 176.94358,137.94561 176.98158,138.00661 177.02358,138.07461 177.12058,138.08361 177.18958,138.12261 177.11258,138.32861 177.03158,138.39761 177.12258,138.60261 177.18458,138.74161 177.29458,138.74261 177.31958,138.90361 177.33058,138.97361 177.30058,139.04361 177.29658,139.11461 177.29258,139.17861 177.29558,139.24361 177.29458,139.30761 177.31858,139.35761 177.36758,139.40361 177.36758,139.45961 177.36758,139.53961 177.29558,139.60561 177.29058,139.68561 177.28758,139.73961 177.33858,139.78561 177.34458,139.83961 177.35258,139.90161 177.31758,139.96661 177.33158,140.02861 177.41758,140.39961 177.48658,139.88161 177.37158,140.37361 177.40258,140.38661 177.66758,140.47361 177.67658,140.55661 177.68558,140.62861 177.57058,140.68861 177.59258,140.75761 177.61058,140.81261 177.73358,140.75361 177.75858,140.80561 178.00358,141.31561 177.48358,140.75261 177.75258,141.02361 177.65258,141.52261 177.83858,140.42561 177.94658,141.08961 177.96058,141.17761 177.80658,141.20461 177.75758,141.27961 177.74558,141.29961 177.76358,141.34061 177.78658,141.34261 178.02558,141.35661 177.99358,141.20061 178.00358,141.36061 L 177.90858,141.48061 C 177.93758,141.48461 177.99658,141.46361 177.99558,141.49261 177.99358,141.54061 177.86358,141.57761 177.90358,141.60261 178.08258,141.71361 178.15358,141.40261 178.03758,141.64861 178.02558,141.67361 178.02058,141.70161 178.01158,141.72861 178.17458,141.77361 178.03958,141.70961 178.09158,141.80161 178.10158,141.81661 178.14658,141.81761 178.13458,141.83061 178.06358,141.90561 177.92558,141.92261 177.88658,142.01861 L 178.21858,141.89561 C 178.07758,141.96561 177.94158,142.04761 177.79358,142.10561 177.75358,142.12061 177.70658,142.10161 177.66358,142.10861 177.56358,142.12461 177.39358,142.27061 177.36658,142.17261 177.33258,142.05061 177.55458,141.99261 177.59958,141.87461 177.64958,141.74661 177.44558,141.60061 177.38958,141.54661 177.05958,141.39261 177.08958,141.50761 177.20658,141.12261 177.23858,141.01661 177.34958,140.91761 177.32158,140.81061 177.31158,140.77661 176.92958,140.67161 176.89858,140.65861 176.85558,140.64161 176.81858,140.61261 176.77758,140.58861 176.85558,140.39561 176.87158,140.48261 176.73058,140.43661 176.71358,140.43061 176.67758,140.42161 176.68758,140.40661 176.72158,140.35161 176.78758,140.32161 176.83058,140.27261 176.84458,140.25761 176.87658,140.20661 176.85758,140.21561 176.74258,140.26761 176.63958,140.34361 176.52958,140.40861 176.60458,140.34561 176.69558,140.29761 176.75458,140.21861 176.78258,140.18061 176.67158,140.26961 176.62458,140.28061 176.61458,140.28261 176.62058,140.26061 176.61858,140.25061 176.52658,140.30861 176.44558,140.39061 176.34258,140.42561 176.28658,140.44561 176.42758,140.34261 176.47058,140.30161 L 176.32058,140.38161 C 176.36058,140.25161 176.32858,140.39561 176.13858,140.45161 176.11258,140.45861 176.18658,140.40861 176.18158,140.38161 176.17758,140.36361 176.12758,140.40761 176.12458,140.38861 176.12058,140.36061 176.19858,140.31561 176.17158,140.31861 176.10758,140.32561 176.05658,140.37461 175.99958,140.40261 175.80458,140.41861 176.08958,140.41061 176.02458,140.29761 176.00158,140.25761 175.87858,140.38361 175.89358,140.33961 175.91858,140.26761 176.12358,140.23261 176.06358,140.18661 175.99558,140.13461 175.90758,140.25661 175.82758,140.28961 175.75758,140.31761 175.68758,140.34361 175.61758,140.36961 175.68158,140.31661 175.75658,140.27361 175.81158,140.20961 175.82158,140.19961 175.79958,140.17961 175.78558,140.17661 175.75558,140.16961 175.72358,140.18361 175.69258,140.17961 175.67258,140.17661 175.62258,140.17361 175.63358,140.15461 175.82158,139.82461 175.77258,140.14061 175.79358,139.95161 175.74958,139.95361 175.67158,140.00161 175.66058,139.95861 175.64858,139.90461 175.74258,139.87961 175.76458,139.82861 175.77358,139.80861 175.74458,139.78561 175.74558,139.76261 175.74658,139.73161 175.78158,139.69961 175.76858,139.67161 175.74958,139.63061 175.57858,139.62361 175.56658,139.62261 L 175.77258,139.44261 C 175.75758,139.42861 175.72358,139.41961 175.72758,139.39861 175.73358,139.35861 175.79658,139.33961 175.79758,139.29961 175.79758,139.24961 175.63658,139.28661 175.66058,139.24361 175.69858,139.17861 175.77458,139.14361 175.83158,139.09361 175.68058,139.10161 175.61758,139.14861 175.73658,138.99961 175.77658,138.95061 175.88558,138.92461 175.86758,138.86361 175.85258,138.80861 175.73258,138.90461 175.69758,138.86061 175.66758,138.82361 175.74458,138.77761 175.76558,138.73561 175.78758,138.69361 175.80558,138.65061 175.82558,138.60861 175.86358,138.55861 175.91258,138.51661 175.93758,138.45861 175.99258,138.33561 175.87458,138.37961 175.82158,138.34561 175.80358,138.33461 175.78358,138.30361 175.79758,138.28661 176.06658,137.95661 175.98758,138.23661 176.03458,138.02461 176.05958,137.96961 175.92658,137.97061 175.93958,137.92761 175.95558,137.87561 176.02158,137.85261 176.04358,137.80361 176.05158,137.78361 176.00858,137.76561 176.01758,137.74661 176.03958,137.69861 176.14458,137.67661 176.12458,137.62661 176.10658,137.58061 176.02458,137.63661 175.97558,137.64261 176.07658,137.53761 176.07358,137.56461 176.11558,137.46061 176.12358,137.44061 176.15558,137.40761 176.13558,137.40061 176.03558,137.35761 175.98958,137.48861 175.90958,137.37261 175.97458,137.24461 175.89258,137.39461 175.99658,137.25561 176.00258,137.24661 176.01458,137.23161 176.00658,137.22561 175.99458,137.21561 175.97058,137.23561 175.95858,137.22361 175.95558,137.22061 175.98058,137.19661 176.01158,137.16361 176.62358,136.86361 176.26058,137.06061 176.06158,137.09561 176.04658,137.09761 176.06858,137.06561 176.07858,137.05361 176.18858,136.93661 176.19858,136.99761 176.22858,136.83361 176.31358,136.77461 176.42458,136.74161 176.48358,136.65761 176.61958,136.46161 176.24058,136.78161 176.29658,136.61861 176.30058,136.60661 176.47458,136.46561 176.43958,136.40061 176.41958,136.36161 176.35958,136.36061 176.32058,136.34061 176.48058,136.11661 176.55358,136.12061 176.52058,135.87061 A 0.476,0.476 0 0 0 176.46258,135.67761 C 176.42358,135.61661 176.36158,135.57361 176.30558,135.52761 176.24858,135.47961 176.15058,135.46661 176.12558,135.39661 176.09658,135.31961 176.15458,135.23461 176.16958,135.15461 176.20658,135.03061 176.09258,134.94061 176.08458,134.82961 176.08058,134.77161 176.15758,134.69761 176.11458,134.65961 176.05758,134.60961 175.89358,134.72961 175.88458,134.65261 175.85458,134.40661 176.36458,134.42361 175.89858,134.44761 L 176.15858,134.23861 C 176.11858,134.23861 176.05158,134.27361 176.04158,134.23561 176.02958,134.19361 176.16458,134.16561 176.12958,134.13861 176.08358,134.10361 176.01658,134.16361 175.95958,134.17461 175.64858,134.22861 175.91458,134.14461 176.23858,133.95661 175.85858,134.05861 176.01658,134.05661 176.08858,133.94161 176.09558,133.93161 176.08658,133.91761 176.08558,133.90561 176.11458,133.88061 176.14358,133.85761 176.17158,133.83161 176.19158,133.81361 176.24358,133.79361 176.22658,133.77261 176.20658,133.74761 176.16358,133.77761 176.13158,133.78061 176.15958,133.63461 176.39158,133.64361 176.45858,133.52161 176.47458,133.49161 176.39158,133.52861 176.35758,133.53161 176.21758,133.54361 176.22858,133.56961 176.30058,133.46561 176.38258,133.40661 176.54058,133.39161 176.54758,133.29061 176.55158,133.21061 176.35158,133.38361 176.30958,133.31561 176.26958,133.25161 176.40958,133.20261 176.45958,133.14661 176.51458,133.08361 176.60158,133.03861 176.62658,132.95861 176.63858,132.92361 176.56258,132.91861 176.54158,132.88761 176.52258,132.85961 176.52158,132.82361 176.51158,132.79261 176.44158,132.65961 176.82058,132.59461 176.74958,132.48661 176.70558,132.41961 176.55558,132.58061 176.51058,132.51361 176.47058,132.45361 176.61458,132.40961 176.65858,132.35161 176.74558,132.23461 176.73158,132.25361 176.71558,132.14261 176.47558,132.08661 176.75958,132.00561 176.72058,131.88561 176.71258,131.85861 176.66958,131.86261 176.64358,131.85061 176.53358,131.80161 176.55358,131.84061 176.62258,131.71961 176.63158,131.69161 176.62958,131.65661 176.64958,131.63561 177.13558,131.12061 176.74958,131.75161 176.52658,131.56261 176.44658,131.49561 176.72658,131.46361 176.77258,131.37061 176.79658,131.32261 176.66658,131.38861 176.61358,131.38261 176.59058,131.38061 176.57458,131.35861 176.55558,131.34561 176.57858,131.28161 176.58658,131.24561 176.62558,131.18761 176.64558,131.15761 176.69858,131.13961 176.69158,131.10461 176.60558,131.11261 176.61358,131.13961 176.60758,131.10361 L 177.13158,130.86061 C 177.08358,130.89961 177.00358,130.91761 176.98858,130.97761 176.97958,131.01261 177.06058,130.98961 177.09658,130.99561 177.09458,131.03461 177.10658,131.07561 177.09158,131.11161 176.98158,131.37161 176.86558,131.37161 176.77058,131.66461 176.74058,131.75761 176.75458,131.86061 176.74758,131.95861 176.75758,132.06261 176.78458,132.16661 176.77558,132.26961 176.76358,132.40561 176.70858,132.53461 176.68358,132.66961 176.65958,132.79961 176.65158,132.93061 176.62758,133.06061 176.60258,133.20061 176.55358,133.33461 176.53558,133.47461 176.50558,133.71761 176.53658,133.88161 176.56358,134.11661 176.73858,134.41661 176.25958,134.51661 176.27458,134.74661 176.28158,134.84461 176.55258,134.69061 176.56558,134.78661 176.58258,134.90861 176.29358,134.93961 176.31858,135.05961 176.37158,135.32861 177.10858,134.60461 176.35058,135.25961 176.27958,135.39261 176.30458,135.38961 176.42858,135.41661 176.44858,135.42161 176.46758,135.43161 176.48758,135.43161 176.61458,135.42761 176.71058,135.32461 176.39858,135.54061 L 176.48358,135.49661 C 176.39558,135.54361 176.30958,135.59661 176.21758,135.63661 176.21058,135.64061 176.21358,135.61961 176.21758,135.61261 A 0.248,0.248 0 0 1 176.25858,135.54161 C 176.30858,135.48861 176.36558,135.44361 176.41758,135.39361 176.48158,135.33161 176.54358,135.26761 176.60658,135.20361 175.84258,135.36661 176.30858,135.34761 176.40858,135.07361 176.42258,135.03461 176.32458,135.03561 176.31458,134.99661 176.28758,134.89861 176.43158,134.73461 176.44858,134.66761 176.45858,134.62761 176.43358,134.58561 176.42658,134.54561 176.50658,134.24161 176.46258,134.52861 176.42558,134.28661 176.41958,134.24561 176.45558,134.19561 176.43058,134.16061 176.40358,134.12061 176.31058,134.15061 176.30058,134.10461 176.29158,134.07161 176.48958,133.75461 176.49058,133.75361 176.46758,133.71461 176.42258,133.68161 176.42058,133.63661 176.42058,133.56961 176.48058,133.51261 176.48358,133.44561 176.48458,133.39561 176.44358,133.35261 176.43258,133.30461 176.42158,133.25261 176.42958,133.19661 176.41758,133.14461 176.34958,132.86161 176.34958,133.16761 176.37458,132.85161 176.06158,132.69161 176.37058,132.90761 176.35858,132.59261 176.35658,132.54661 176.20458,132.58261 176.22858,132.54261 176.29858,132.42661 176.44958,132.38361 176.54458,132.28661 176.56758,132.26261 176.59158,132.21761 176.57258,132.19061 176.55058,132.16061 176.49958,132.17961 176.46258,132.17361 176.64258,132.01261 176.31658,132.14161 176.34458,132.10561 176.41458,132.01561 176.55058,132.00061 176.63058,131.92061 176.65558,131.89561 176.50558,131.94961 176.52658,131.92161 176.65558,131.75461 177.03958,131.68761 176.45058,131.84661 L 176.55258,131.73361 C 176.53658,131.71761 176.49458,131.70661 176.50458,131.68661 176.56458,131.56161 176.68458,131.56361 176.70258,131.42261 176.70658,131.39561 176.68058,131.37361 176.67058,131.34961 L 176.70758,131.24661 C 176.59758,131.15461 176.67458,131.24461 176.63558,131.11061 176.62758,131.08361 176.58558,131.06061 176.59758,131.03361 176.62858,130.95961 176.71458,130.91861 176.74958,130.84561 176.81158,130.71361 176.69458,130.68561 176.61458,130.63261 176.81258,130.25961 176.75258,130.53461 176.65458,130.27561 176.63658,130.22861 176.64458,130.17561 176.63258,130.12761 176.66058,130.02561 176.53858,130.00261 176.51858,129.92961 176.50858,129.89661 176.52958,129.86161 176.53558,129.82761 176.61158,129.76761 176.69658,129.71661 176.76458,129.64661 176.77458,129.63661 176.75158,129.62261 176.74458,129.61161 176.70758,129.61761 176.60458,129.65161 176.63458,129.62961 176.70358,129.57661 176.79458,129.56061 176.86958,129.51661 177.23558,129.29761 177.01958,129.35461 177.20058,129.31361 177.43258,129.52361 176.56658,129.35561 177.41458,129.29561 177.45258,129.29361 177.35858,129.36261 177.36758,129.39961 177.37458,129.42661 177.42058,129.41961 177.44858,129.42561 177.48458,129.43561 177.52258,129.43961 177.55858,129.44561 177.61158,129.46561 177.56558,129.57761 177.61558,129.59561 177.66558,129.61561 177.72558,129.57561 177.77858,129.59061 177.80158,129.59761 177.82658,129.62961 177.81858,129.65261 177.69458,129.98861 177.68858,129.66861 177.70658,129.89061 177.68458,130.00061 177.86558,129.94061 177.86958,130.00661 177.87258,130.06961 177.75758,130.10661 177.76958,130.16961 177.77958,130.21861 177.90158,130.16561 177.91158,130.21361 177.79358,130.42361 177.78258,130.32961 177.86758,130.49561 177.85658,130.55261 177.82458,130.60861 177.83458,130.66561 177.87058,130.85561 178.00558,130.72061 177.96058,130.95761 177.94258,131.04961 177.83558,131.11761 177.84058,131.21261 177.87058,131.76161 178.24958,130.75061 177.87258,131.56261 177.92658,131.85861 177.90058,131.56261 177.82658,131.89561 177.81658,131.93861 177.84158,131.98561 177.83058,132.02761 177.81458,132.08761 177.72858,132.13461 177.74858,132.19261 177.85258,132.48661 177.98858,131.96561 177.85758,132.34461 177.98758,132.36761 177.74358,132.59561 177.80758,132.60361 177.88458,132.61361 177.96958,132.50561 178.03558,132.54761 178.18358,132.64261 177.47958,132.76261 178.10358,132.62561 177.34358,133.20561 177.96458,132.64461 177.99058,132.82261 178.00058,132.88461 177.88558,132.91361 177.88458,132.97661 177.88458,133.01661 177.98558,133.00261 177.98658,133.04361 178.00058,133.44961 177.74958,133.05661 177.99558,133.36361 177.29058,134.42261 177.99058,133.19661 177.84058,133.87061 177.81458,133.98761 177.66858,134.06961 177.67158,134.19061 177.67358,134.26861 177.84158,134.26061 177.85358,134.33861 177.86958,134.44161 177.76858,134.53061 177.73958,134.63061 177.71658,134.71261 177.71158,134.79861 177.69758,134.88361 177.70558,134.95261 177.72758,135.02161 177.72058,135.09061 177.71058,135.17461 177.64258,135.24961 177.64858,135.33361 177.65358,135.39161 177.71358,135.43061 177.74858,135.47761 177.78058,135.52061 177.85158,135.55161 177.84858,135.60561 177.84858,135.62861 177.61858,136.03261 177.60858,136.05261 V 136.20261 C 177.62558,136.23961 177.65758,136.27461 177.65958,136.31561 177.66258,136.36761 177.60758,136.41761 177.62458,136.46761 177.63758,136.50761 177.71858,136.49661 177.73358,136.53761 177.76558,136.62561 177.58258,136.81861 177.56158,136.84561 177.56858,136.90561 177.77358,136.84161 177.78858,136.91961 177.79658,136.96361 177.71858,136.99361 177.72658,137.03761 177.73158,137.06861 177.81558,137.03961 177.81558,137.07161 177.81558,137.12361 177.74858,137.15261 177.72558,137.19961 177.71358,137.22461 177.71558,137.25561 177.70958,137.28361 177.77958,137.26961 177.88958,137.17861 177.91958,137.24361 177.94958,137.30961 177.78558,137.32961 177.76358,137.39961 177.75358,137.43261 177.86958,137.39061 177.86258,137.42361 177.84658,137.49161 177.70358,137.51161 177.72058,137.57961 177.92358,137.56361 177.89058,137.50661 177.90958,137.64261 177.88558,137.68261 177.80158,137.73261 177.83858,137.76161 177.89058,137.80161 177.98058,137.70661 178.03658,137.74161 178.07158,137.76461 178.00458,137.81961 177.99058,137.85861 177.87758,138.17761 178.08458,137.68061 177.83058,138.11661 177.81758,138.13961 177.82558,138.16961 177.82358,138.19661 178.32658,138.04261 178.17158,138.01161 178.08758,138.20061 178.07758,138.22261 178.07958,138.24761 178.07758,138.27061 178.07458,138.29061 178.08558,138.31661 178.07258,138.33261 177.92658,138.51061 177.76958,138.50461 178.10258,138.44461 178.09058,138.47561 178.04258,138.51561 178.06658,138.53861 178.10358,138.57261 178.23158,138.50261 178.21658,138.55061 178.18658,138.64761 178.05358,138.67861 177.99658,138.76261 177.99258,138.76861 178.00258,138.96261 178.00658,138.96861 178.02258,138.99861 178.06258,139.00661 178.09058,139.02461 178.19758,139.03261 177.81758,139.22761 177.90158,139.29961 177.94658,139.33961 178.07158,139.23961 178.08158,139.29961 178.09158,139.37461 177.97158,139.40761 177.92658,139.46861 177.79058,139.64661 177.87358,139.58561 178.05358,139.57161 L 178.06958,139.64161 C 178.01658,139.69161 177.90358,139.72161 177.90958,139.79361 177.91658,139.85161 178.09958,139.71561 178.08258,139.77061 178.05758,139.85861 177.83558,139.85461 177.86858,139.93961 178.01958,140.32561 178.16958,139.67261 178.10458,139.92561 178.18458,140.01161 178.03858,140.03061 178.02358,140.14161 178.02058,140.16261 178.04158,140.18161 178.05058,140.20161 178.08258,140.20961 178.15058,140.19161 178.14758,140.22561 178.14258,140.28261 178.07358,140.31361 178.03758,140.35861 177.98758,140.44561 178.09558,140.47061 178.05458,140.55861 178.03458,140.59861 177.95158,140.63061 177.97658,140.66861 178.00358,140.70861 178.07258,140.65861 178.12058,140.65861 178.15558,140.65861 178.18958,140.66361 178.22358,140.66661 178.16558,140.83761 177.89858,140.84761 177.84758,141.00961 177.82458,141.08061 177.99258,140.97161 178.06758,140.97161 178.21558,140.97261 178.12158,141.02861 178.15458,141.10261 178.16658,141.12861 178.19758,141.13861 178.21858,141.15661 178.19358,141.19661 178.16858,141.23561 178.14158,141.27461 178.15958,141.28861 178.19658,141.29361 178.19458,141.31461 178.19058,141.35661 178.11358,141.38261 178.12858,141.42161 178.17058,141.53161 178.26958,141.34361 178.29658,141.47361 178.30358,141.50561 178.27658,141.53661 178.26658,141.56761 178.56658,141.57761 178.23058,141.53761 178.19558,141.75061 178.17958,141.84961 178.51858,141.60961 178.49258,141.70661 178.45358,141.84861 178.16258,141.88961 178.46258,141.82361 178.47858,141.82761 178.52558,141.82361 178.51258,141.83361 178.45758,141.88361 178.38458,141.90961 178.32258,141.95061 178.13458,142.07061 177.96558,142.22061 177.76458,142.31661 177.68958,142.35161 177.91458,142.21561 177.93158,142.13461 177.94158,142.09061 177.84358,142.14661 177.79958,142.15261 L 177.96258,141.97361 C 177.89558,141.98661 177.82358,142.04061 177.76058,142.01361 177.72458,141.99661 177.79058,141.93661 177.78758,141.89661 177.78758,141.86761 177.76158,141.84661 177.75258,141.81861 177.74358,141.78961 177.76258,141.74761 177.73658,141.73061 177.60058,141.63961 177.56658,141.83661 177.65158,141.61161 177.80158,141.64761 177.36758,141.72561 177.36858,141.63161 177.36858,141.58761 177.44858,141.55461 177.42958,141.51461 177.41258,141.47861 177.30858,141.54861 177.31158,141.50961 177.32558,141.31961 177.87358,141.16961 177.08058,141.48961 177.16658,141.19261 177.09358,141.56961 176.98858,141.36361 176.96858,141.32461 177.03558,141.28361 177.03558,141.24061 177.03558,141.21061 177.00558,141.19061 176.99258,141.16561 176.93558,141.05061 176.95358,141.09161 176.99658,140.94861 176.92558,140.93661 176.81058,140.94661 176.77658,140.85361 176.71858,140.69161 176.84258,140.79061 176.75858,140.64461 176.70158,140.54461 176.62658,140.57061 176.52158,140.55861 176.55158,140.50261 176.59958,140.45261 176.61258,140.38961 176.66058,140.15961 176.40458,140.42961 176.37758,140.30261 176.35958,140.21861 176.61058,140.14461 176.53758,140.09861 176.43858,140.03861 176.31958,140.17361 176.20758,140.19861 176.14758,140.21261 176.08658,140.21061 176.02558,140.21661 175.98958,140.21261 175.90858,140.23861 175.91758,140.20361 175.93758,140.12861 176.04258,140.10361 176.07458,140.03261 176.08458,140.00961 176.02458,140.02461 176.00258,140.01261 175.98858,140.00661 175.98658,139.97961 175.97058,139.97861 175.81658,139.97661 175.84058,140.07361 175.83358,139.95361 175.77858,139.92361 175.95058,139.80361 175.89358,139.77761 175.83958,139.75461 175.77758,139.82061 175.72058,139.80961 175.69658,139.80461 175.72058,139.75561 175.70358,139.73961 175.68358,139.71861 175.64858,139.72261 175.62258,139.71161 175.60058,139.70161 175.58058,139.68761 175.55958,139.67661 175.30758,139.66861 175.55658,139.70261 175.60458,139.52261 175.61458,139.48461 175.51058,139.55961 175.48758,139.52761 175.46758,139.49961 175.57658,139.45561 175.54458,139.43961 175.40258,139.36661 175.36858,139.55661 175.39758,139.43961 175.41458,139.42561 175.42958,139.40761 175.44858,139.39661 175.45458,139.39361 175.46258,139.40561 175.46858,139.40261 175.58058,139.34561 175.68658,139.27661 175.79858,139.21861 175.83758,139.19861 175.87858,139.15461 175.91858,139.17061 175.94858,139.18361 175.87158,139.21661 175.84658,139.23861 L 175.72058,139.34561 C 175.72658,139.36061 175.72458,139.38361 175.73958,139.38861 175.77658,139.40061 175.82558,139.36561 175.85658,139.38961 175.87758,139.40661 175.84058,139.44261 175.84258,139.46961 175.84458,139.49261 175.87058,139.51161 175.86858,139.53561 175.86458,139.57761 175.79858,139.62261 175.82458,139.65561 175.85958,139.69661 175.93158,139.66961 175.98458,139.67561 175.98158,139.71761 175.95458,139.76561 175.97458,139.80061 175.99558,139.83761 176.07458,139.81761 176.08958,139.85861 176.12258,139.95161 175.95258,140.08461 176.05458,140.13161 176.29558,140.24261 176.37258,139.96161 176.22158,140.27961 176.23658,140.30361 176.27658,140.32461 176.26858,140.35161 176.25058,140.41161 176.17658,140.44261 176.15458,140.50161 176.14658,140.52161 176.18258,140.53661 176.18858,140.55761 176.19358,140.57861 176.16458,140.62561 176.18658,140.62361 176.45258,140.59661 176.46658,140.42161 176.42658,140.60961 176.61958,140.58961 176.39258,140.89261 176.40258,140.89261 176.53558,140.90061 176.65258,140.72561 176.78058,140.76261 177.18058,140.87661 175.91058,141.12861 176.87658,140.89561 176.56258,140.84261 176.79658,141.12961 176.86958,141.12561 176.92558,141.12361 176.97658,141.07761 177.03258,141.08561 177.05258,141.08861 177.02258,141.12761 177.01758,141.14761 L 177.12458,141.12361 C 176.84458,141.44361 177.16258,141.04361 177.20458,141.17161 177.22458,141.23761 177.08258,141.25461 177.05458,141.31961 177.04358,141.34561 177.12658,141.29261 177.14158,141.31761 177.19658,141.40761 176.80058,141.49761 177.28158,141.33261 177.62258,141.21761 177.44458,141.23361 177.41158,141.36161 177.40858,141.37461 177.42658,141.39361 177.44058,141.39161 177.50158,141.38161 177.64558,141.27161 177.61658,141.32761 177.48958,141.57361 177.20658,141.54761 177.44058,141.55361 177.51058,141.52761 177.57358,141.47661 177.64758,141.47361 177.67758,141.47361 177.57258,141.55361 177.60158,141.54861 177.69158,141.53261 177.80258,141.36161 177.85058,141.43861 177.89758,141.51561 177.71358,141.55861 177.63558,141.60361 177.20558,141.85761 177.20358,141.92761 177.26358,141.72361 177.20958,141.61461 177.01958,141.78161 176.98358,141.69561 176.95458,141.62561 177.10558,141.57361 177.09858,141.49761 177.09258,141.44761 176.96258,141.48961 176.95758,141.43861 176.92158,141.07661 177.28958,141.28861 176.87758,141.13261 176.86058,141.04761 176.84458,140.85361 176.75358,140.79461 176.68058,140.74761 176.54258,140.80461 176.50158,140.72861 176.45958,140.64861 176.55858,140.55761 176.58358,140.47061 176.67158,140.16561 176.70358,140.27861 176.51758,140.08061 176.07358,139.51461 176.71458,140.35361 176.33258,139.77761 176.30058,139.72761 176.21758,139.70561 176.21358,139.64761 176.20858,139.55961 176.28658,139.48661 176.30958,139.40161 176.37158,139.17261 176.35558,139.21861 176.22958,139.05661 176.26458,138.97961 176.32258,138.90861 176.33458,138.82361 176.34058,138.77661 176.29258,138.73661 176.28058,138.68961 A 0.381,0.381 0 0 1 176.26458,138.55261 C 176.27058,138.49861 176.29858,138.44961 176.31458,138.39761 176.35158,138.27361 176.35158,138.26461 176.37858,138.14361 176.24058,137.96061 176.39758,138.20661 176.35358,137.96161 176.34658,137.92161 176.22758,137.87561 176.26958,137.80861 176.43658,137.54861 176.60858,137.64561 176.35258,137.56361 176.91258,137.06561 176.52558,137.49161 176.34658,137.37961 176.29858,137.34961 176.41458,137.28961 176.44358,137.23961 176.46358,137.19761 176.48358,137.15461 176.50558,137.11161 176.47558,137.09161 176.40558,137.08561 176.41858,137.05361 176.44958,136.97361 176.53958,136.92961 176.60058,136.86761 176.61858,136.75161 176.47558,136.82361 176.44858,136.77061 176.43858,136.74861 176.56258,136.59561 176.56858,136.59061 176.60258,136.55461 176.72058,136.51561 176.67858,136.49061 176.61958,136.45461 176.54558,136.52061 176.47858,136.53661 176.49858,136.50961 176.53158,136.48761 176.53458,136.45561 176.53658,136.43561 176.50558,136.42761 176.49158,136.41261 176.55258,136.36061 176.63558,136.32561 176.67558,136.25561 176.68958,136.23161 176.59958,136.24961 176.60058,136.22261 176.60058,136.17961 176.64658,136.14961 176.67858,136.11961 176.74158,136.06261 176.81358,136.01561 176.88058,135.96361 L 177.05958,135.87761 176.97958,135.97761 C 176.95758,136.00961 176.93758,136.04261 176.91458,136.07261 176.88458,136.11261 176.77458,136.16561 176.81858,136.18661 176.89258,136.22161 176.98158,136.11961 177.06058,136.14261 177.11958,136.15961 176.92058,136.25661 176.96558,136.30161 176.61758,136.59161 176.95858,136.27461 177.08958,136.34161 177.15158,136.37461 176.96958,136.42061 176.92458,136.47461 176.91158,136.49061 176.93058,136.51661 176.92558,136.53661 176.88458,136.70461 176.86658,136.57261 176.90558,136.71661 176.95158,136.78861 176.98858,136.80661 176.92958,136.90261 176.92658,136.90861 176.71958,137.08361 176.76558,137.17261 176.78058,137.20261 176.83158,137.19261 176.85358,137.21661 176.87358,137.23661 176.87358,137.27061 176.88358,137.29761 176.95058,137.53661 176.88758,137.20561 176.71758,137.58761 176.70458,137.61761 176.79958,137.61561 176.79558,137.64761 176.78858,137.70761 176.72458,137.74261 176.69358,137.79361 176.62158,137.91161 176.63258,137.90661 176.60758,138.02961 176.68558,138.02461 176.81258,137.94261 176.84258,138.01561 176.87358,138.09361 176.73158,138.14261 176.68058,138.21061 176.63458,138.27261 176.57358,138.33061 176.55358,138.40561 176.54158,138.44761 176.57958,138.48761 176.59358,138.52961 176.65758,138.71661 176.60958,138.63561 176.76558,138.78061 176.42258,139.27461 176.57558,138.89061 176.60558,139.24661 176.61158,139.31361 176.56858,139.38461 176.58958,139.44861 176.60958,139.50461 176.71258,139.51461 176.71558,139.57361 176.71958,139.66561 176.55758,139.75061 176.60658,139.82861 176.65958,139.91361 176.80458,139.85861 176.90358,139.87261 176.89058,140.00661 176.84358,140.15261 176.94658,140.27161 176.99258,140.32461 177.08358,140.32661 177.12858,140.38161 177.16758,140.42761 177.17058,140.49461 177.18258,140.55361 177.23158,140.79661 177.19758,140.75361 177.08658,141.01161 177.12258,141.05161 177.15458,141.09561 177.19458,141.13161 177.24358,141.17361 177.38158,141.25161 177.43458,141.29561 177.46458,141.31861 177.51658,141.33661 177.51458,141.37361 177.51158,141.43661 177.42158,141.47661 177.42458,141.53861 177.42658,141.57361 177.49058,141.55961 177.52358,141.56961 177.57258,141.56661 177.70358,141.52461 177.66958,141.55861 177.54658,141.68161 177.38758,141.76261 177.23958,141.85361 177.22958,141.85961 177.19958,141.85361 177.20658,141.84561 177.27458,141.77561 177.45258,141.75361 177.42858,141.65961 177.40058,141.54661 177.19458,141.83761 177.09858,141.76961 177.28158,141.54861 177.16758,141.71861 176.92158,141.78161 176.90458,141.78661 176.91758,141.74461 176.92558,141.72861 176.94558,141.69061 177.00158,141.66861 177.00158,141.62661 177.00158,141.60161 176.95158,141.62261 176.92658,141.62061 L 176.99258,141.52161 C 176.94458,141.53461 176.89658,141.55161 176.84758,141.56061 176.81758,141.56661 176.73758,141.59161 176.75658,141.56861 176.83058,141.47561 176.96258,141.43561 177.02858,141.33661 177.05658,141.29561 176.93058,141.36061 176.88358,141.37761 176.80758,141.40561 176.73958,141.48761 176.66058,141.47261 176.60858,141.46261 176.73058,141.39461 176.76658,141.35561 176.65658,141.26261 176.79458,141.36261 176.48158,141.43261 176.46458,141.43661 176.44658,141.40661 176.45158,141.39061 176.47258,141.33961 176.59958,141.28261 176.55058,141.25861 176.38358,141.17561 176.15358,141.53461 176.44958,141.15861 176.28358,140.96061 176.60758,141.31161 176.17558,141.13461 176.13758,141.11961 176.23058,141.04461 176.20158,141.01661 176.16558,140.98061 176.05558,141.05961 176.04858,141.00961 176.00958,140.75761 176.31458,140.88061 176.09258,140.81161 176.13658,140.62261 176.11758,140.81561 175.90258,140.78961 175.87358,140.78561 175.95058,140.71761 175.92458,140.70661 175.87158,140.68461 175.73358,140.78061 175.75158,140.72661 175.78758,140.62261 175.93558,140.59661 175.99358,140.50561 176.00958,140.48061 175.95458,140.46061 175.93458,140.43761 175.83358,140.38161 175.80358,140.40061 175.80758,140.26761 175.80958,140.21961 175.86758,140.16361 175.83758,140.12461 175.80558,140.08061 175.72558,140.11461 175.67558,140.09061 175.49158,140.00561 175.67358,139.91261 175.75758,139.80461 175.09958,139.87061 175.71658,139.87461 175.58958,139.69261 175.55958,139.64861 175.48258,139.70861 175.42958,139.69961 175.31658,139.68161 175.39358,139.60261 175.42958,139.55761 175.46058,139.51761 175.49958,139.48361 175.53558,139.44661 175.51758,139.44061 175.50058,139.42661 175.48258,139.42961 175.42958,139.43661 175.37658,139.49361 175.32758,139.47261 175.29358,139.45761 175.37558,139.41661 175.40558,139.39561 175.57358,139.27861 175.74158,139.16061 175.92058,139.05961 175.98258,139.02461 176.30558,139.36861 175.77658,139.22161 175.77158,139.23761 175.75658,139.25361 175.76258,139.26861 175.76958,139.28461 175.79558,139.28261 175.80758,139.29461 175.81858,139.30661 175.81758,139.32761 175.82758,139.33761 175.84258,139.35161 175.86558,139.35361 175.88158,139.36561 175.98058,139.43261 175.85558,139.37961 175.98658,139.42561 175.98258,139.45061 175.98058,139.47561 175.97358,139.49961 175.96358,139.53161 175.92958,139.56061 175.93858,139.59361 175.94558,139.61861 175.99758,139.60361 176.00858,139.62661 176.02158,139.65261 175.96558,139.71161 175.99458,139.71261 176.64258,139.74661 176.00858,139.57761 176.28658,139.65761 176.35958,139.63061 176.42858,139.58761 176.50558,139.57661 176.52158,139.57361 176.53058,139.61061 176.51958,139.62361 176.45758,139.69961 176.33058,139.72861 176.30258,139.82361 176.28658,139.87861 176.41958,139.76161 176.47258,139.78361 176.50458,139.79761 176.44958,139.84861 176.43758,139.88061 L 176.57558,139.87861 176.69858,139.89561 C 176.70258,139.92761 176.68358,139.97561 176.71158,139.99261 176.75858,140.01961 176.82358,139.98161 176.87458,139.99961 176.90458,140.01061 176.94858,140.04361 176.93858,140.07461 176.91158,140.15861 176.79558,140.20061 176.78158,140.28761 176.77458,140.32761 176.85658,140.31861 176.89458,140.33461 176.97858,140.32361 177.06258,140.29661 177.14858,140.30061 177.18658,140.30261 177.27158,140.32061 177.25158,140.35261 177.17958,140.47461 176.95958,140.50361 176.94358,140.64461 176.93358,140.73961 177.16058,140.52261 177.22458,140.59261 177.57658,140.97961 176.70958,140.68261 177.20458,140.82761 177.21858,141.04761 177.17058,140.85261 177.43458,140.90761 177.46258,140.91261 177.46958,140.95761 177.46458,140.98561 177.45458,141.03761 177.34858,141.09261 177.38958,141.12561 177.52758,141.23861 177.77958,140.86861 177.45258,141.25561 177.49158,141.25861 177.52958,141.26761 177.56858,141.26561 177.67858,141.25761 177.73058,141.20261 177.81858,141.27061 177.83558,141.28361 177.85658,141.30361 177.85358,141.32561 177.84558,141.39861 177.76258,141.44961 177.77858,141.53161 178.30358,141.40161 177.83558,141.46961 177.85258,141.65961 177.86258,141.77161 178.11558,141.56161 178.19258,141.64461 178.22458,141.67961 178.09658,141.75461 178.13958,141.77461 178.20758,141.80861 178.28658,141.74261 178.36058,141.72661 178.31458,141.78061 178.25558,141.82561 178.22358,141.88861 178.17358,141.98861 178.42158,141.84661 178.33758,141.89361 178.17558,141.98561 178.00158,142.05561 177.84458,142.15761 177.76258,142.21161 178.02858,142.08361 178.11658,142.03761 178.13358,142.02961 178.07858,142.04361 178.05858,142.04761 178.04158,142.04361 178.01558,142.05361 178.00558,142.03761 177.96258,141.97661 178.12558,141.92761 178.13258,141.85161 178.13558,141.81661 178.03258,141.88061 178.02658,141.84561 178.00358,141.70261 178.39958,141.65861 177.89058,141.78061 L 177.93358,141.68061 C 177.91858,141.66261 177.88858,141.65061 177.88958,141.62661 177.89158,141.58861 177.94558,141.56261 177.94058,141.52561 177.93258,141.46761 177.61658,141.49261 177.58858,141.49561 177.65258,141.43061 177.73658,141.38161 177.78258,141.30361 177.79558,141.28061 177.73958,141.26061 177.74258,141.23361 177.75258,141.16561 177.88658,141.09061 177.73858,141.06861 177.68658,141.06061 177.62058,141.11161 177.58058,141.07761 177.55158,141.05361 177.61658,141.01261 177.63458,140.98061 177.68158,140.93061 177.84458,140.79061 177.77158,140.77561 177.70858,140.76261 177.64458,140.81761 177.58158,140.80661 177.55958,140.80261 177.59858,140.74261 177.57658,140.74061 177.35858,140.71561 177.20658,140.91561 177.52658,140.61861 L 177.67458,140.46661 C 177.66058,140.44961 177.62858,140.43661 177.63158,140.41461 177.63658,140.37461 177.68158,140.34661 177.69458,140.30861 177.70258,140.28761 177.71858,140.23961 177.69558,140.24061 177.46658,140.25061 177.18558,140.48761 177.69258,140.13561 177.50558,140.09661 177.73258,140.16561 177.70558,140.02261 177.69958,139.98761 177.61058,140.04961 177.60158,140.01661 177.58958,139.97661 177.65458,139.95161 177.67358,139.91461 177.69858,139.86761 177.70358,139.79861 177.70958,139.74761 177.66358,139.74361 177.58058,139.78061 177.56958,139.73561 177.55658,139.67961 177.64158,139.64561 177.67358,139.59761 177.69958,139.55761 177.75158,139.51761 177.74358,139.47061 177.73858,139.43561 177.65958,139.46261 177.64658,139.43061 177.57058,139.24361 177.83758,139.37561 177.57858,139.28561 177.57458,139.25461 177.57358,139.22261 177.56658,139.19261 177.55858,139.16261 177.53258,139.13661 177.53158,139.10461 177.52658,138.95861 177.63858,138.90261 177.72858,138.79861 177.77158,138.74861 177.91658,138.67061 177.85458,138.64661 177.75758,138.60661 177.65158,138.69961 177.54958,138.72661 L 177.69558,138.58661 C 177.65858,138.58661 177.56058,138.61461 177.58358,138.58461 177.65058,138.49761 177.77958,138.47461 177.84858,138.38861 177.86858,138.36461 177.78658,138.37161 177.75458,138.37361 177.68558,138.37961 177.57058,138.47861 177.55058,138.41261 177.52958,138.33761 177.66358,138.30461 177.72058,138.25161 177.72958,138.22161 177.76558,138.18761 177.74858,138.16061 177.70558,138.09061 177.51158,138.18061 177.51458,138.11361 177.51758,138.04161 177.68158,138.01361 177.65458,137.94661 177.58258,137.76861 177.14658,138.27761 177.63258,137.79161 177.59558,137.78361 177.55958,137.76861 177.52258,137.76761 177.46558,137.76461 177.34958,137.83361 177.35258,137.77761 177.35758,137.69361 177.48458,137.66861 177.53258,137.59961 177.57258,137.54161 177.46058,137.46961 177.46458,137.41261 177.46558,137.40361 177.48758,137.25261 177.48458,137.24561 177.46558,137.18961 177.38458,137.20061 177.39558,137.12361 177.40258,137.07861 177.50058,137.01061 177.45558,137.00061 177.34958,136.97861 177.24158,137.04561 177.13458,137.06761 177.21258,136.99161 177.31258,136.93161 177.36958,136.83761 177.38858,136.80861 177.33258,136.77461 177.33558,136.73961 177.33858,136.70861 177.45558,136.51561 177.37858,136.45961 177.32258,136.41861 177.16758,136.49261 177.17358,136.42361 177.18358,136.30561 177.32758,136.24461 177.40558,136.15561 177.79358,135.43161 177.36558,136.39561 177.27358,135.89561 177.25358,135.78661 177.42258,135.72461 177.46358,135.62061 A 0.259,0.259 0 0 0 177.45758,135.43061 C 177.29758,135.06261 177.26058,135.57061 177.37358,135.04561 177.21658,134.60161 177.34358,135.13161 177.55858,134.48561 177.58158,134.41761 177.50158,134.35061 177.49258,134.27861 A 0.735,0.735 0 0 1 177.50158,134.03961 C 177.59458,133.58461 177.62958,133.95561 177.56158,133.58261 177.32158,133.00261 177.64558,133.84261 177.50358,133.28961 177.49458,133.25461 177.44558,133.23761 177.44058,133.20261 177.43558,133.16261 177.46758,133.12461 177.47658,133.08461 177.48358,133.05661 177.48358,133.02761 177.49058,132.99961 177.49758,132.97361 177.50958,132.94961 177.51858,132.92361 177.50158,132.91361 177.46858,132.91161 177.46858,132.89161 177.46558,132.72161 177.70858,132.89461 177.68658,132.66461 177.67058,132.50061 177.42858,132.82961 177.50158,132.61461 177.51658,132.56861 177.54858,132.53161 177.57158,132.49061 177.35458,132.40261 177.52458,132.51261 177.55458,132.29161 177.55958,132.25561 177.49058,132.23361 177.49658,132.19761 177.50958,132.12761 177.58858,132.08061 177.60458,132.00961 177.61858,131.94561 177.51258,131.79961 177.48758,131.75961 177.49158,131.74361 177.59758,131.34761 177.59558,131.33861 177.58558,131.28061 177.49658,131.25961 177.48458,131.20261 177.41658,130.90561 177.62758,131.07961 177.62058,130.77661 177.61958,130.72861 177.54758,130.71361 177.51058,130.68161 177.49858,130.64261 177.50758,130.58861 177.47358,130.56461 177.42558,130.53161 177.31658,130.59061 177.29958,130.53461 177.27958,130.46761 177.37958,130.42061 177.41158,130.35961 177.43358,130.31661 177.43958,130.26761 177.45958,130.22461 177.54458,130.03861 177.60558,130.09461 177.41958,130.04761 177.41558,129.98061 177.40658,129.94361 177.42958,129.87661 177.44158,129.83661 177.48858,129.80361 177.48258,129.76261 177.47758,129.73261 177.42458,129.74261 177.40558,129.72061 177.25658,129.55261 177.80158,129.48061 177.01058,129.79061 177.09458,129.71061 177.20558,129.65061 177.26058,129.54861 177.28058,129.51261 177.17858,129.55061 177.13758,129.55761 177.09158,129.56561 177.04858,129.59561 177.00258,129.59261 176.98758,129.59261 176.99658,129.56361 176.99258,129.54961 L 176.88058,129.59261 C 176.84258,129.60861 176.80558,129.62661 176.76758,129.64461 176.59358,129.70861 176.74358,129.65761 177.03158,129.45161 177.04758,129.44161 176.85458,129.54461 176.88658,129.54561 177.11358,129.55461 177.03658,129.41961 177.08958,129.54261 176.70558,130.17561 177.38258,128.98061 177.25358,129.66461 177.22758,129.80061 176.96858,129.81961 176.95758,129.95761 176.95058,130.04761 177.19758,129.89161 177.22858,129.97761 177.26458,130.07361 177.11658,130.14961 177.06058,130.23761 L 177.12458,130.37161 177.03258,130.57461 C 177.09558,130.58461 177.22958,130.54461 177.22058,130.60661 177.20758,130.71161 177.05358,130.74161 176.99858,130.83161 176.98358,130.85661 177.02058,130.88561 177.03458,130.91161 177.10558,131.04561 177.11258,130.94061 176.94458,131.13061 176.94558,131.13061 177.11058,131.20661 177.10458,131.22561 177.08858,131.28961 176.99258,131.31161 176.97658,131.37561 176.96858,131.40561 177.06558,131.39361 177.05458,131.42161 176.96758,131.66561 176.83958,131.48761 176.94958,131.61361 176.92558,131.64361 176.90358,131.67661 176.87758,131.70661 176.84758,131.74061 176.77058,131.76061 176.78058,131.80561 176.79058,131.84361 176.86058,131.78261 176.89858,131.79561 176.91458,131.80061 176.90858,131.83261 176.89758,131.84561 176.78958,131.98961 176.71358,131.92761 176.84058,131.98961 176.85858,132.00461 176.90358,132.01061 176.89558,132.03261 176.88658,132.05861 176.62958,132.32461 176.63558,132.33761 176.66758,132.40361 176.83758,132.26761 176.85658,132.33861 176.87958,132.42461 176.74658,132.47961 176.69258,132.55061 L 176.75758,132.65661 C 176.78258,132.89361 176.79758,132.75961 176.62758,133.03861 176.63658,133.16861 176.99158,133.07761 176.97758,133.19361 176.94758,133.41861 176.58158,133.49761 176.54858,133.72361 176.96858,133.78161 176.62458,133.67361 176.59358,133.95561 176.58758,134.00261 176.68358,133.98561 176.72158,134.01261 176.99158,134.19261 176.63558,134.39461 176.50558,134.50561 176.56558,134.51961 176.62958,134.52361 176.68558,134.54761 176.72758,134.56461 176.75558,134.60361 176.79358,134.62661 176.83458,134.65161 176.94958,134.65161 176.92358,134.69161 176.82858,134.83061 176.60158,134.85761 176.53358,135.01161 176.50058,135.08661 176.70058,135.00761 176.78358,135.00661 L 176.60558,135.20461 C 176.93758,135.29161 176.58558,135.15661 176.57558,135.39761 176.57358,135.45161 176.74558,135.33161 176.73858,135.38561 176.72858,135.45561 176.62258,135.46861 176.56058,135.50461 176.23458,135.69361 176.30158,135.66261 176.07158,135.74361 176.07158,135.68061 176.06958,135.71361 176.07758,135.64661 176.07758,135.63061 176.06358,135.61161 176.07158,135.59861 176.16058,135.45561 176.42658,135.35361 176.02258,135.42361 175.91558,135.23861 176.00858,135.45361 176.18458,135.12661 176.20758,135.08361 176.16858,135.02661 176.17958,134.97961 176.21058,134.83961 176.34258,134.65461 176.32458,134.49961 176.31458,134.42161 176.25158,134.35961 176.21458,134.28961 176.59858,133.10161 176.14358,134.66561 176.30958,133.58561 176.35358,133.30061 176.56258,132.91861 176.68058,132.67061 176.70058,132.56461 176.62358,132.46261 176.59558,132.35861 L 176.66558,131.99861 C 176.65858,131.90861 176.64358,131.81761 176.64558,131.72561 176.64758,131.64361 176.69158,131.56261 176.67858,131.48261 176.66958,131.43261 176.60058,131.41061 176.58358,131.36261 176.57058,131.32461 176.62558,131.26861 176.59558,131.24261 176.55858,131.20961 176.41458,131.27961 176.44658,131.24261 176.53058,131.14661 176.66258,131.10861 176.77158,131.04261 176.83458,131.00461 176.89558,130.96361 176.96158,130.93061 177.03058,130.89661 177.23158,130.79061 177.17258,130.84061 177.07458,130.92061 176.94158,130.95261 176.84058,131.03061 176.82058,131.04661 176.89058,131.04061 176.91558,131.04061 176.97058,131.03661 177.08158,130.96061 177.07858,131.01561 177.07458,131.09161 176.96558,131.11561 176.90858,131.16561 177.24458,131.17561 176.92758,131.12561 177.02658,131.24061 177.04658,131.26361 177.12358,131.23461 177.11358,131.26261 177.08858,131.32761 176.98658,131.34261 176.96258,131.40861 176.94758,131.44861 177.14458,131.38861 177.05458,131.49661 177.04358,131.52561 176.99758,131.56161 177.02058,131.58361 177.13558,131.69161 177.31058,131.39961 177.01058,131.73461 176.97058,131.78161 176.92358,131.82461 176.89158,131.87861 176.87558,131.90661 176.83858,131.96661 176.87158,131.97561 176.94758,131.99761 177.02958,131.95261 177.10858,131.94061 L 177.03758,132.06761 C 177.05958,132.08761 177.10758,132.09961 177.10358,132.12961 177.08058,132.32761 176.71258,132.34261 176.85958,132.62561 176.94958,132.75861 176.93358,132.68061 176.82958,132.86361 176.84458,132.91261 176.99658,132.85961 176.97558,132.90561 176.92758,133.01161 176.78358,133.04161 176.70858,133.13061 176.69158,133.15161 176.71458,133.18561 176.71658,133.21361 L 176.47958,133.38361 C 176.56458,133.36161 176.64758,133.32861 176.73458,133.31661 176.74758,133.31561 176.76958,133.33461 176.76158,133.34661 176.73858,133.38161 176.68758,133.39161 176.66158,133.42561 176.63358,133.46261 176.73958,133.49561 176.75258,133.50561 L 176.48958,133.65761 C 176.49958,133.66461 176.52058,133.66761 176.51958,133.67961 176.51558,133.70161 176.45658,133.72461 176.47758,133.73361 176.51558,133.74961 176.62758,133.68361 176.60058,133.71361 176.36458,133.97761 176.36258,133.74861 176.37058,133.89461 176.48858,133.98161 176.31958,133.83961 176.37958,133.97261 176.38058,133.97561 176.49958,133.99961 176.49558,134.00661 176.40458,134.17161 176.23058,134.13261 176.48058,134.14461 176.61258,134.32361 176.45058,134.06161 176.30958,134.42861 176.29358,134.46861 176.38558,134.46961 176.41358,134.50161 176.54058,134.64061 176.44858,134.79361 176.55058,134.94761 176.51858,135.03761 176.45658,135.12161 176.45458,135.21761 176.45358,135.28461 176.52158,135.33461 176.54158,135.39861 176.56258,135.46861 176.54958,135.54761 176.57658,135.61561 176.60358,135.68261 176.78258,135.84161 176.75358,135.94461 176.72358,136.04761 176.63158,136.12161 176.57058,136.21061 176.67658,136.20061 176.78658,136.14661 176.88858,136.17861 176.92858,136.19161 176.85858,136.25861 176.84158,136.29661 176.82858,136.32661 176.81458,136.35661 176.79858,136.38661 176.78258,136.41661 176.73858,136.44061 176.74458,136.47561 176.74958,136.50161 176.83458,136.48061 176.82058,136.50361 176.77858,136.56961 176.69758,136.59861 176.63558,136.64661 176.63458,136.66861 176.62858,136.68961 176.63158,136.71061 176.63458,136.72961 176.65658,136.74361 176.65458,136.76261 176.65158,136.78561 176.62958,136.80261 176.61858,136.82261 176.61158,136.83561 176.58658,136.86061 176.60058,136.86261 176.70258,136.88261 176.97858,136.70061 176.48858,136.96761 176.24058,137.10661 176.43858,136.98061 176.45658,137.01061 176.46658,137.02661 176.42258,137.03061 176.40858,137.04361 176.28958,137.15661 176.76858,136.90861 176.33058,137.15761 176.62658,137.13161 176.24658,137.14561 176.26358,137.28561 176.27158,137.35061 176.38858,137.22661 176.45258,137.23861 176.49858,137.24661 176.25158,137.43561 176.34858,137.45161 176.32458,137.48461 176.26058,137.51161 176.27458,137.55061 176.28858,137.58661 176.35958,137.53361 176.38858,137.55761 176.40858,137.57361 176.38058,137.60761 176.37758,137.63361 176.37358,137.65961 176.37658,137.68561 176.36958,137.71061 176.31158,137.91761 176.33958,137.69661 176.32358,137.88061 176.32758,137.90361 176.32658,137.92761 176.33458,137.94961 176.34358,137.97161 176.38758,137.98961 176.37258,138.00761 176.34258,138.04761 176.09658,138.17561 176.08958,138.29761 176.08658,138.35461 176.20158,138.37661 176.16958,138.44761 176.50558,138.56861 176.06258,138.36761 176.11858,138.66261 176.13058,138.72861 176.33458,138.58361 176.32158,138.65061 176.29358,138.80061 175.93458,138.81561 175.97758,139.02161 175.98858,139.03661 175.99758,139.05361 176.01158,139.06461 176.02958,139.07861 176.07758,139.07261 176.07258,139.09461 176.06258,139.14261 176.00258,139.16461 175.97858,139.20661 175.91858,139.31561 176.01458,139.22961 175.99858,139.32661 175.99358,139.36261 175.96658,139.39161 175.94858,139.42461 175.90458,139.58961 175.90258,139.48861 176.11758,139.48961 176.15258,139.48961 176.23258,139.48261 176.21758,139.51461 176.18258,139.59361 176.04358,139.60561 176.02558,139.69061 175.97058,139.95061 176.57458,139.29761 176.04058,139.82161 175.99058,139.86761 175.85858,139.90161 175.89258,139.95961 175.92758,140.01761 176.02258,139.91861 176.09058,139.90661 176.14358,139.89761 176.17158,139.90061 176.20158,139.93761 176.20958,139.94761 176.22158,139.95761 176.21958,139.97061 176.21558,139.99461 176.19758,140.01361 176.18558,140.03461 176.18558,140.04761 176.18758,140.06161 176.18258,140.07361 176.17658,140.09361 176.13358,140.12761 176.15458,140.13061 176.21558,140.14061 176.41258,140.00361 176.43858,140.01261 176.48858,140.03161 176.29558,140.09261 176.35158,140.14761 176.22658,140.36061 176.35658,140.11761 176.68658,139.96761 176.74658,139.93961 176.58458,140.05561 176.54358,140.10861 176.53758,140.11561 176.55058,140.13361 176.55958,140.13161 176.70658,140.08361 176.82658,139.93561 176.54058,140.21561 L 176.87058,140.00061 C 176.84858,140.02661 176.77958,140.05861 176.80558,140.08061 176.83558,140.10461 176.87558,140.03661 176.91358,140.03561 176.92858,140.03561 176.89158,140.08161 176.90558,140.07761 177.07758,140.02961 177.09358,139.91661 177.06358,140.03561 L 177.14358,140.02161 C 177.14558,140.03761 177.13358,140.06261 177.14858,140.06761 177.18258,140.07761 177.22058,140.05261 177.25658,140.05761 177.28158,140.05961 177.33458,140.06461 177.32458,140.08761 177.21258,140.32761 177.03958,140.22661 177.27658,140.31061 177.24558,140.55261 177.20658,140.45661 177.53758,140.47861 177.56458,140.60561 177.35358,140.67861 177.32858,140.80661 177.28358,141.03861 177.88058,141.10661 177.67058,141.38661 177.67958,141.42461 177.73958,141.72061 177.78758,141.76561 177.83058,141.80561 177.90758,141.78861 177.95758,141.82061 178.09458,141.90861 177.90558,142.05061 177.84758,142.09261 177.67358,142.17161 177.75158,142.17961 177.65858,142.14461 177.64158,142.13761 177.59558,142.14061 177.60658,142.12461 177.65358,142.06161 177.74958,142.04061 177.78758,141.97161 177.82958,141.89461 177.37558,142.07961 177.52658,141.99661 177.53158,141.97361 177.53958,141.94961 177.54158,141.92661 177.54458,141.90561 177.52858,141.87961 177.54158,141.86261 177.59158,141.80261 177.72158,141.78561 177.71758,141.70761 177.71458,141.62561 177.26458,141.93061 177.46958,141.66561 L 177.51958,141.56661 C 177.49458,141.55661 177.44558,141.56261 177.44558,141.53661 177.44558,141.48861 177.53458,141.45961 177.51958,141.41461 177.50758,141.37661 177.41758,141.43561 177.40058,141.39961 177.38158,141.35961 177.43758,141.31961 177.45558,141.27861 L 177.41158,141.21261 C 177.43858,141.13261 177.49458,141.06661 177.39158,141.00661 177.33958,140.97761 177.24658,141.01261 177.22158,140.96061 177.19358,140.90061 177.28158,140.83861 177.27958,140.77261 177.27758,140.67961 177.15258,140.57561 177.09958,140.52161 177.14658,140.14461 177.14958,140.48361 177.02958,140.19261 177.00758,140.14061 177.02458,140.07661 176.99958,140.02661 176.97658,139.97661 176.88958,139.95661 176.88958,139.90061 176.88958,139.81061 176.98758,139.74361 177.00058,139.65561 177.00958,139.59861 176.96858,139.54561 176.95258,139.49061 176.87058,139.24661 176.87958,139.38161 176.97958,139.08461 176.95958,139.01761 176.80258,139.05361 176.79458,138.98461 176.78258,138.87861 176.97258,138.79861 176.93658,138.69961 176.90458,138.60961 176.71158,138.70261 176.66358,138.62161 176.61758,138.54161 176.71258,138.44461 176.73658,138.35661 176.74058,138.28061 176.75358,138.20461 176.74858,138.12761 176.74458,138.06261 176.69658,137.99761 176.71158,137.93461 176.73258,137.83861 176.90158,137.75961 176.85158,137.67561 176.79958,137.59161 176.63258,137.74161 176.55558,137.68061 176.50558,137.64261 176.61558,137.57161 176.64658,137.51761 L 176.58558,137.47561 Z"
     id="path1149" />
  <g
     word-spacing="0"
     letter-spacing="0"
     font-size="32"
     font-weight="100"
     id="text4612"
     style="font-weight:100;font-size:32px;line-height:20px;font-family:Timepiece;-inkscape-font-specification:'Calibri, Normal';font-variant-ligatures:normal;font-variant-caps:normal;font-variant-numeric:normal;font-feature-settings:normal;text-align:start;letter-spacing:0;word-spacing:0;fill:#f8a81c;stroke-width:2.13499999;filter:url(#filter11033)"
     transform="matrix(1.3046632,0,0,1.3046632,64.575292,-63.673506)">
    <path
       inkscape:connector-curvature="0"
       id="path11769"
       style="-inkscape-font-specification:'Timepiece, Thin';font-variant-ligatures:normal;font-variant-caps:normal;font-variant-numeric:normal;font-feature-settings:normal;text-align:start;stroke-width:2.26278877"
       d="M 22.039816,214.57722 15.379651,220.96901 Q 14.689918,220.14468 13.639782,220.14468 12.655931,220.14468 11.967234,220.90066 11.2775,221.622 11.2775,222.65346 11.2775,223.68387 11.967234,224.43991 12.655931,225.16227 13.640818,225.16227 14.72306,225.16227 15.444894,224.26847 L 21.514753,231.62235 Q 17.578302,234.578 13.57454,234.578 8.718448,234.578 5.3391718,231.1419 1.992,227.67097 1.992,222.61879 1.992,217.46456 5.5359422,214.16506 8.9152184,211.00334 13.869694,211.00334 18.85731,211.00334 22.040852,214.57722 Z" />
    <path
       inkscape:connector-curvature="0"
       id="path11771"
       style="-inkscape-font-specification:'Timepiece, Thin';font-variant-ligatures:normal;font-variant-caps:normal;font-variant-numeric:normal;font-feature-settings:normal;text-align:start"
       d="M 44.091,234.388 H 22.831 V 213.287 H 32.368 V 225.643 H 39.338 Z" />
    <path
       inkscape:connector-curvature="0"
       id="path11773"
       style="-inkscape-font-specification:'Timepiece, Thin';font-variant-ligatures:normal;font-variant-caps:normal;font-variant-numeric:normal;font-feature-settings:normal;text-align:start"
       d="M 63.29,223.742 Q 63.29,228.432 60.28,231.505 57.27,234.578 52.58,234.578 47.701,234.578 44.596,231.568 41.491,228.526 41.491,223.711 41.491,218.99 44.533,215.916 47.574,212.843 52.263,212.843 57.079,212.843 60.184,215.885 63.289,218.926 63.289,223.742 Z M 58.125,218.8 Q 58.125,217.85 57.459,217.184 56.794,216.487 55.844,216.487 54.924,216.487 54.259,217.184 53.594,217.849 53.594,218.8 53.594,219.75 54.259,220.447 54.925,221.112 55.844,221.112 56.794,221.112 57.459,220.447 58.125,219.75 58.125,218.8 Z" />
    <path
       inkscape:connector-curvature="0"
       id="path11775"
       style="-inkscape-font-specification:'Timepiece, Thin';font-variant-ligatures:normal;font-variant-caps:normal;font-variant-numeric:normal;font-feature-settings:normal;text-align:start"
       d="M 84.475,216.138 78.044,222.031 Q 77.378,221.271 76.364,221.271 75.414,221.271 74.749,221.968 74.083,222.633 74.083,223.584 74.083,224.534 74.749,225.231 75.414,225.897 76.365,225.897 77.41,225.897 78.107,225.073 L 83.968,231.853 Q 80.167,234.578 76.301,234.578 71.612,234.578 68.349,231.41 65.117,228.21 65.117,223.552 65.117,218.8 68.539,215.758 71.802,212.843 76.586,212.843 81.402,212.843 84.476,216.138 Z" />
    <path
       inkscape:connector-curvature="0"
       id="path11777"
       style="-inkscape-font-specification:'Timepiece, Thin';font-variant-ligatures:normal;font-variant-caps:normal;font-variant-numeric:normal;font-feature-settings:normal;text-align:start"
       d="M 109.878,234.388 H 98.598 L 95.525,230.048 V 234.388 H 85.957 V 213.287 H 95.525 V 217.659 L 98.598,213.287 H 107.501 L 101.038,221.967 Z" />
    <path
       inkscape:connector-curvature="0"
       id="path11779"
       style="-inkscape-font-specification:'Timepiece, Thin';font-variant-ligatures:normal;font-variant-caps:normal;font-variant-numeric:normal;font-feature-settings:normal;text-align:start"
       d="M 139.515,213.287 130.073,234.387 H 117.241 L 107.831,213.287 H 119.269 L 121.043,217.406 123.673,211.734 126.208,217.406 128.014,213.286 Z" />
    <path
       inkscape:connector-curvature="0"
       id="path11781"
       style="-inkscape-font-specification:'Timepiece, Thin';font-variant-ligatures:normal;font-variant-caps:normal;font-variant-numeric:normal;font-feature-settings:normal;text-align:start"
       d="M 159.383,223.742 Q 159.383,228.432 156.373,231.505 153.363,234.578 148.674,234.578 143.794,234.578 140.69,231.568 137.585,228.526 137.585,223.711 137.585,218.99 140.626,215.916 143.668,212.843 148.357,212.843 153.173,212.843 156.278,215.885 159.383,218.926 159.383,223.742 Z M 154.219,218.8 Q 154.219,217.85 153.553,217.184 152.888,216.487 151.937,216.487 151.019,216.487 150.353,217.184 149.688,217.849 149.688,218.8 149.688,219.75 150.353,220.447 151.019,221.112 151.937,221.112 152.887,221.112 153.553,220.447 154.219,219.75 154.219,218.8 Z" />
    <path
       inkscape:connector-curvature="0"
       id="path11783"
       style="-inkscape-font-specification:'Timepiece, Thin';font-variant-ligatures:normal;font-variant-caps:normal;font-variant-numeric:normal;font-feature-settings:normal;text-align:start"
       d="M 183.07,234.388 H 161.082 V 213.287 H 172.139 Q 176.575,213.287 179.236,215.79 181.898,218.293 181.898,222.665 181.898,226.499 178.919,229.572 Z M 174.04,221.968 Q 174.04,221.018 173.375,220.352 172.71,219.655 171.759,219.655 170.809,219.655 170.143,220.352 169.478,221.017 169.478,221.968 169.478,222.918 170.143,223.615 170.809,224.281 171.759,224.281 172.709,224.281 173.375,223.615 174.04,222.918 174.04,221.968 Z" />
    <path
       inkscape:connector-curvature="0"
       id="path11785"
       style="-inkscape-font-specification:'Timepiece, Thin';font-variant-ligatures:normal;font-variant-caps:normal;font-variant-numeric:normal;font-feature-settings:normal;text-align:start"
       d="M 207.909,234.388 H 196.629 L 193.556,230.048 V 234.388 H 183.988 V 213.287 H 193.556 V 217.659 L 196.63,213.287 H 205.533 L 199.069,221.967 Z" />
    <path
       inkscape:connector-curvature="0"
       id="path11787"
       style="-inkscape-font-specification:'Timepiece, Thin';font-variant-ligatures:normal;font-variant-caps:normal;font-variant-numeric:normal;font-feature-settings:normal;text-align:start"
       d="M 60.852,249.375 Q 60.852,254.065 57.842,257.138 54.832,260.211 50.142,260.211 45.264,260.211 42.159,257.201 39.054,254.159 39.054,249.344 39.054,244.623 42.095,241.549 45.137,238.476 49.825,238.476 54.642,238.476 57.747,241.518 60.852,244.559 60.852,249.375 Z M 55.687,244.433 Q 55.687,243.483 55.022,242.817 54.357,242.12 53.406,242.12 52.487,242.12 51.822,242.817 51.157,243.482 51.157,244.433 51.157,245.383 51.822,246.08 52.487,246.745 53.406,246.745 54.356,246.745 55.022,246.08 55.687,245.383 55.687,244.433 Z" />
    <path
       inkscape:connector-curvature="0"
       id="path11789"
       style="-inkscape-font-specification:'Timepiece, Thin';font-variant-ligatures:normal;font-variant-caps:normal;font-variant-numeric:normal;font-feature-settings:normal;text-align:start"
       d="M 84.507,260.02 H 62.52 V 238.92 H 73.578 Q 78.013,238.92 80.675,241.423 83.336,243.926 83.336,248.298 83.336,252.132 80.358,255.205 Z M 75.477,247.6 Q 75.477,246.65 74.812,245.985 74.147,245.288 73.197,245.288 72.247,245.288 71.581,245.985 70.915,246.65 70.915,247.601 70.915,248.551 71.581,249.248 72.246,249.914 73.197,249.914 74.147,249.914 74.812,249.248 75.478,248.551 75.478,247.601 Z" />
    <path
       inkscape:connector-curvature="0"
       id="path11791"
       style="-inkscape-font-specification:'Timepiece, Thin';font-variant-ligatures:normal;font-variant-caps:normal;font-variant-numeric:normal;font-feature-settings:normal;text-align:start"
       d="M 108.244,260.02 H 98.739 L 96.521,255.902 94.335,260.021 H 84.925 L 96.49,238.159 Z" />
    <path
       inkscape:connector-curvature="0"
       id="path11793"
       style="-inkscape-font-specification:'Timepiece, Thin';font-variant-ligatures:normal;font-variant-caps:normal;font-variant-numeric:normal;font-feature-settings:normal;text-align:start"
       d="M 128.23,259.99 115.937,258.151 V 260.021 H 108.269 V 238.951 L 120.753,240.789 V 238.919 H 128.23 Z" />
    <path
       inkscape:connector-curvature="0"
       id="path11795"
       style="-inkscape-font-specification:'Timepiece, Thin';font-variant-ligatures:normal;font-variant-caps:normal;font-variant-numeric:normal;font-feature-settings:normal;text-align:start"
       d="M 157.506,260.02 H 140.207 Q 135.423,260.02 132.191,257.01 128.991,253.97 128.991,249.185 128.991,244.369 132.381,241.391 135.645,238.476 140.619,238.476 144.484,238.476 146.924,240.599 L 141.506,247.347 Q 140.936,246.904 140.239,246.904 139.289,246.904 138.623,247.601 137.957,248.266 137.957,249.217 137.957,250.136 138.623,250.833 139.288,251.53 140.239,251.53 140.999,251.53 141.633,251.023 142.266,250.484 142.361,249.723 H 151.866 Z" />
    <path
       inkscape:connector-curvature="0"
       id="path11797"
       style="-inkscape-font-specification:'Timepiece, Thin';font-variant-ligatures:normal;font-variant-caps:normal;font-variant-numeric:normal;font-feature-settings:normal;text-align:start"
       d="M 180.648,260.02 H 157.488 V 238.92 H 175.294 V 244.591 H 171.144 V 247.949 H 167.024 V 251.276 H 175.896 Z" />
  </g>
  <path
     inkscape:connector-curvature="0"
     style="fill:url(#radialGradient7130-0);stroke-width:8.81400013;stroke-linecap:round;stroke-linejoin:round;stroke-dashoffset:261.39700317;stroke-opacity:0;paint-order:markers fill stroke"
     id="path1212-8-7"
     d="M 195.10958,105.41461 C 194.99358,108.31461 192.04758,100.01961 187.60058,100.02761 183.05558,100.03561 180.66858,107.85261 180.02558,105.52261 A 5.17,5.17 0 0 1 179.89558,104.36261 C 179.97358,99.296609 180.19058,88.822609 186.90458,88.772609 194.25558,88.718609 195.09658,99.250609 195.16158,104.22261 195.16758,104.68961 195.12458,105.04561 195.10958,105.41461 Z" />
  <path
     style="fill:none;fill-rule:evenodd;stroke:#fdfbf8;stroke-width:0.39223745;stroke-linecap:butt;stroke-linejoin:miter;stroke-miterlimit:4;stroke-dasharray:none;stroke-opacity:1"
     d="M 383.34318,291.12161 Z"
     id="path879"
     inkscape:connector-curvature="0"
     inkscape:original-d="M 382.49272,291.79104 C 375.42595,300.68711 390.97285,296.03126 382.49272,291.79104 Z" />
  <path
     style="fill:none;fill-rule:evenodd;stroke:#fdfbf8;stroke-width:0.31732577;stroke-linecap:butt;stroke-linejoin:miter;stroke-miterlimit:4;stroke-dasharray:none;stroke-opacity:1"
     d="M 383.34318,291.12161 C 382.79762,291.22606 382.31257,291.60726 382.08203,292.11261 381.93776,292.42889 381.89088,292.78884 381.94932,293.13151 382.00779,293.47418 382.17131,293.79823 382.41223,294.04882 382.65319,294.29943 382.97054,294.47554 383.31069,294.54733 383.6508,294.61918 384.0123,294.58649 384.33402,294.45469 384.73045,294.29234 385.06273,293.9787 385.2477,293.59234 385.43274,293.20596 385.46865,292.75048 385.34665,292.3399 385.22456,291.92923 384.94562,291.5674 384.57956,291.34483 384.21356,291.12225 383.76394,291.04111 383.34318,291.12161 Z"
     id="path887"
     inkscape:connector-curvature="0"
     inkscape:original-d="M 382.37319,290.95467 C 381.90926,291.09653 380.87784,291.73693 380.70045,292.26908 380.2113,293.73677 382.06481,296.99819 383.6874,295.37556 385.67443,293.38857 384.90615,289.6882 382.37319,290.95467 Z" />
  <path
     style="fill:none;fill-rule:evenodd;stroke:#fdfbf8;stroke-width:0.39223745;stroke-linecap:butt;stroke-linejoin:miter;stroke-miterlimit:4;stroke-dasharray:none;stroke-opacity:1"
     d="M 386.90621,287.44729 V 294.68477"
     id="path891"
     inkscape:connector-curvature="0"
     inkscape:original-d="M 386.31607,287.84828 C 385.77848,290.2523 387.0255,293.48618 386.31607,295.6145" />
  <path
     style="fill:none;fill-rule:evenodd;stroke:#fdfbf8;stroke-width:0.39223745;stroke-linecap:butt;stroke-linejoin:miter;stroke-miterlimit:4;stroke-dasharray:none;stroke-opacity:1"
     d="M 387.96401,294.51766 C 388.64937,293.40352 389.30773,292.45671 389.9681,291.45568 390.08878,291.1454 390.37244,292.46559 390.46914,292.73617 392.0064,296.98214 391.1505,292.0262 393.03013,291.23306 393.07495,291.22178 394.34145,290.95361 394.37983,290.91524"
     id="path929"
     inkscape:connector-curvature="0"
     sodipodi:nodetypes="ccccc" />
  <path
     style="fill:none;fill-rule:evenodd;stroke:#fdfbf8;stroke-width:0.39223745;stroke-linecap:butt;stroke-linejoin:miter;stroke-miterlimit:4;stroke-dasharray:none;stroke-opacity:1"
     d="M 395.86945,290.89894 395.75813,295.40855 386.7948,295.46418 V 295.46418"
     id="path935"
     inkscape:connector-curvature="0" />
</svg>
