<?xml version="1.0" encoding="UTF-8" standalone="no"?>
<!-- Created with Inkscape (http://www.inkscape.org/) -->

<svg
   xmlns:dc="http://purl.org/dc/elements/1.1/"
   xmlns:cc="http://creativecommons.org/ns#"
   xmlns:rdf="http://www.w3.org/1999/02/22-rdf-syntax-ns#"
   xmlns:svg="http://www.w3.org/2000/svg"
   xmlns="http://www.w3.org/2000/svg"
   xmlns:xlink="http://www.w3.org/1999/xlink"
   xmlns:sodipodi="http://sodipodi.sourceforge.net/DTD/sodipodi-0.dtd"
   xmlns:inkscape="http://www.inkscape.org/namespaces/inkscape"
   width="400mm"
   height="300mm"
   viewBox="0 0 400 300"
   version="1.1"
   id="svg8"
   inkscape:version="0.92.3 (2405546, 2018-03-11)"
   sodipodi:docname="darkest-hour.svg"
   enable-background="new"
   inkscape:export-filename="D:\Graphic Design\Alternative Movie Posters\Darkest Hour\darkest hour.png"
   inkscape:export-xdpi="40.005016"
   inkscape:export-ydpi="40.005016">
  <defs
     id="defs2">
    <inkscape:path-effect
       effect="spiro"
       id="path-effect893"
       is_visible="true" />
    <inkscape:path-effect
       effect="spiro"
       id="path-effect889"
       is_visible="true" />
    <inkscape:path-effect
       effect="spiro"
       id="path-effect881"
       is_visible="true" />
    <inkscape:path-effect
       effect="spiro"
       id="path-effect857"
       is_visible="true" />
    <linearGradient
       inkscape:collect="always"
       id="linearGradient4632">
      <stop
         style="stop-color:#fe0000;stop-opacity:1"
         offset="0"
         id="stop4628" />
      <stop
         style="stop-color:#000500;stop-opacity:1"
         offset="1"
         id="stop4630" />
    </linearGradient>
    <radialGradient
       inkscape:collect="always"
       xlink:href="#linearGradient4632"
       id="radialGradient4636"
       cx="217.49094"
       cy="132.53072"
       fx="217.49094"
       fy="132.53072"
       r="200"
       gradientTransform="matrix(2.4759003,-0.0073138,0.0076065,2.5749959,304.75846,159.51391)"
       gradientUnits="userSpaceOnUse"
       spreadMethod="pad" />
  </defs>
  <sodipodi:namedview
     id="base"
     pagecolor="#ffffff"
     bordercolor="#666666"
     borderopacity="1.0"
     inkscape:pageopacity="0.0"
     inkscape:pageshadow="2"
     inkscape:zoom="0.2993521"
     inkscape:cx="340.91301"
     inkscape:cy="422.72758"
     inkscape:document-units="mm"
     inkscape:current-layer="layer1"
     showgrid="false"
     inkscape:snap-global="false"
     inkscape:window-width="1600"
     inkscape:window-height="837"
     inkscape:window-x="-8"
     inkscape:window-y="-8"
     inkscape:window-maximized="1" />
  <metadata
     id="metadata5">
    <rdf:RDF>
      <cc:Work
         rdf:about="">
        <dc:format>image/svg+xml</dc:format>
        <dc:type
           rdf:resource="http://purl.org/dc/dcmitype/StillImage" />
        <dc:title />
      </cc:Work>
    </rdf:RDF>
  </metadata>
  <g
     inkscape:label="Layer 1"
     inkscape:groupmode="layer"
     id="layer1"
     transform="translate(0,3)">
    <path
       style="opacity:1;fill:url(#radialGradient4636);fill-opacity:1;fill-rule:nonzero;stroke:none;stroke-width:0;stroke-linecap:round;stroke-linejoin:bevel;stroke-miterlimit:4;stroke-dasharray:none;stroke-dashoffset:0;stroke-opacity:1;paint-order:fill markers stroke"
       d="M 0.05859375 0 C 0.025676546 0 0 0.025676546 0 0.05859375 L 0 1133.7988 C 0 1133.8317 0.025676546 1133.8574 0.05859375 1133.8574 L 1511.752 1133.8574 C 1511.7849 1133.8574 1511.8105 1133.8317 1511.8105 1133.7988 L 1511.8105 0.05859375 C 1511.8105 0.025676546 1511.7849 0 1511.752 0 L 0.05859375 0 z "
       transform="matrix(0.26458333,0,0,0.26458333,0,-3)"
       id="rect815" />
    <path
       style="fill:#ffffff;fill-opacity:0.99514561;fill-rule:evenodd;stroke:none;stroke-width:0.40000001;stroke-linecap:butt;stroke-linejoin:miter;stroke-miterlimit:4;stroke-dasharray:none;stroke-opacity:1"
       d="M 146.22838,126.09464 C 145.53908,125.13165 141.97024,123.67039 138.11772,124.27894 129.75289,125.60027 117.40379,126.09652 111.23681,124.7801 107.48907,112.48531 144.81759,112.02961 152.69244,107.10196 152.95569,102.35971 151.20144,93.752293 150.92697,87.178851 152.02568,85.116242 153.78143,84.691157 154.69928,82.605398 155.40701,73.479467 152.38509,60.331529 154.78295,46.897352 155.91966,40.528826 160.03562,30.52975 165.52553,26.162749 175.86609,17.937245 192.8166,13.70715 213.03244,11.176118 231.56773,8.8554909 247.57856,9.2439751 260.30871,16.756463 273.98665,24.828272 277.75971,50.873187 283.47955,66.784411 286.50323,68.243317 285.68008,67.85985 288.47409,69.014635 L 291.87702,90.119092 C 315.77319,95.924616 316.80236,97.027245 334.64485,102.45017 343.83938,105.24468 349.93957,106.57744 349.67905,108.59381 349.49125,110.04733 345.63725,110.53084 337.93683,110.83951 L 297.85806,112.60616 C 291.12359,112.90301 295.10738,123.73983 297.62837,127.93254 299.64836,131.29203 296.24499,136.94075 297.59692,140.33241 301.4161,149.91382 298.32577,144.55146 303.9756,155.481 307.00136,160.3823 307.28649,161.29686 306.84532,164.63097 305.64844,173.67633 295.0422,172.79912 293.15081,175.34827 291.21928,178.40463 290.42338,181.48174 291.14103,183.80593 291.80672,185.96182 292.7355,185.52086 294.47214,186.34245 L 352.42578,206.90033 C 356.00875,208.17132 353.06955,216.03609 349.25553,214.65124 L 292.62502,194.08904 C 291.65333,193.73623 289.3763,194.93436 288.57512,196.46711 287.48743,198.548 287.59737,199.4609 288.9924,203.49878 292.52232,213.716 287.65318,217.02829 285.86306,218.49096 280.33793,223.00542 268.56856,228.48882 265.98189,233.85171 264.30501,237.32833 264.10865,236.91273 265.99482,239.36107 L 289.96414,261.14316 C 213.85063,261.45868 184.02026,261.25157 81.74196,261.15944 94.554936,229.53687 100.96746,218.90305 121.98992,179.64386 122.38964,178.89739 119.81672,178.44095 120.14238,177.56241 122.0605,172.38785 127.54412,163.90187 130.48054,160.48022 131.27673,159.55246 132.66531,162.20863 133.58156,161.39776 145.57102,150.78716 146.14056,136.71958 146.22838,126.09464 Z"
       id="path817"
       inkscape:connector-curvature="0"
       sodipodi:nodetypes="csccccsssscccsscssscscscssssssscccssssc" />
    <ellipse
       style="opacity:1;fill:#000000;fill-opacity:1;fill-rule:nonzero;stroke:#000000;stroke-width:0.16573988;stroke-linecap:round;stroke-linejoin:bevel;stroke-miterlimit:4;stroke-dasharray:none;stroke-dashoffset:0;stroke-opacity:1;paint-order:fill markers stroke"
       id="path819"
       cx="215.88354"
       cy="134.09875"
       rx="6.7131753"
       ry="6.91713" />
    <path
       style="opacity:1;fill:#000000;fill-opacity:1;fill-rule:nonzero;stroke:none;stroke-width:0;stroke-linecap:round;stroke-linejoin:bevel;stroke-miterlimit:4;stroke-dasharray:none;stroke-dashoffset:0;stroke-opacity:1;paint-order:fill markers stroke"
       inkscape:transform-center-x="-6.5864826"
       inkscape:transform-center-y="1.656524"
       d="M 217.95781,88.507372 C 215.58142,91.215756 215.26963,92.314627 215.80967,92.332164 218.30031,92.413047 218.00344,92.092353 218.00862,92.730299 218.15076,110.22163 218.15522,96.906534 218.38829,119.4728 218.40721,121.30593 222.52731,123.46462 222.37486,123.4143 222.37486,123.4143 219.252,126.39652 219.30289,128.09602 219.4233,132.1157 219.61388,136.43891 219.66405,140.48323 220.04058,144.69345 225.78071,144.32664 220.37684,151.13126 218.91054,152.97766 217.09721,152.58509 216.37453,155.27214 215.611,152.62693 213.87996,152.96105 212.28237,151.20547 206.66759,145.03545 213.31534,143.62562 212.53927,140.60988 212.50844,136.55427 212.49114,132.22189 212.48427,128.11731 212.48171,126.5816 208.50562,123.63837 208.50562,123.63837 208.50562,123.63837 212.48063,121.4278 212.48559,119.4301 212.54249,96.494284 212.30404,108.40603 212.46347,92.781471 212.47061,92.080411 212.00284,92.410589 214.8333,92.341021 215.62176,92.321642 214.9941,91.01351 212.50831,88.567864 212.50922,88.730915 214.68129,85.31606 215.14486,85.253483 215.58138,85.194556 217.71684,88.382435 217.95781,88.507372 Z"
       id="rect821-0"
       inkscape:connector-curvature="0"
       sodipodi:nodetypes="cssscscscscscscscsc" />
    <path
       style="opacity:1;fill:#000000;fill-opacity:1;fill-rule:nonzero;stroke:#000500;stroke-width:0.1;stroke-linecap:round;stroke-linejoin:bevel;stroke-miterlimit:4;stroke-dasharray:none;stroke-dashoffset:0;stroke-opacity:1;paint-order:fill markers stroke"
       inkscape:transform-center-x="-8.2404005"
       inkscape:transform-center-y="0.71808892"
       d="M 200.16312,43.326043 C 204.95572,75.862087 213.93507,106.9195 220.16997,138.84588 220.53936,141.06737 222.54615,142.60759 222.69913,142.72398 220.72849,144.22197 222.1078,146.8711 223.72534,147.31505 224.26925,147.46435 224.63401,147.9388 224.0008,148.43207 222.20773,149.50144 219.85441,152.84974 219.62216,155.72049 218.58834,153.35083 216.09992,151.20088 212.71783,150.30195 211.77433,150.22017 211.99056,149.34421 212.48839,149.30589 214.42433,149.15687 214.74914,145.42861 212.17529,144.9686 212.85304,143.42638 213.75463,143.35268 212.73805,140.25057 208.86087,109.12501 201.93358,75.73372 196.59976,43.896095 199.40823,43.407243 196.97293,43.813604 200.16312,43.326043 Z"
       id="rect821"
       inkscape:connector-curvature="0"
       sodipodi:nodetypes="cccscccscccc" />
    <path
       style="opacity:1;fill:#ffffff;fill-opacity:1;fill-rule:nonzero;stroke:#000000;stroke-width:0.02208875;stroke-linecap:round;stroke-linejoin:bevel;stroke-miterlimit:4;stroke-dasharray:none;stroke-dashoffset:0;stroke-opacity:1;paint-order:fill markers stroke"
       d="M 217.30128,131.22286 C 217.30014,131.22176 217.29839,131.22176 217.29726,131.22286 L 215.63645,132.88614 214.75277,132.00812 216.40665,130.34593 C 216.40768,130.34491 216.40764,130.34327 216.40666,130.34226 L 215.61166,129.55121 C 215.61061,129.55021 215.60886,129.55017 215.60785,129.5512 L 213.20617,131.96499 C 213.20514,131.96604 213.20514,131.96783 213.20619,131.96884 L 213.21759,131.98019 213.17613,132.02204 C 213.175,132.02313 213.175,132.02497 213.17613,132.02607 L 214.84222,133.6815 214.00436,134.52057 212.39128,132.90979 C 212.39028,132.90878 212.3886,132.90878 212.38758,132.90979 L 211.59516,133.70339 C 211.5941,133.70442 211.5941,133.70607 211.59515,133.7071 L 214.00464,136.1132 C 214.00571,136.11422 214.00738,136.11423 214.00842,136.11318 L 214.01343,136.10806 214.01854,136.11321 C 214.01969,136.1143 214.02146,136.1143 214.02257,136.1132 L 215.64966,134.48378 216.46093,135.28984 214.81154,136.94665 C 214.81044,136.9477 214.8104,136.9494 214.81146,136.95042 L 215.60628,137.7416 C 215.60726,137.74262 215.6089,137.74262 215.61001,137.74154 L 217.2602,136.08398 217.27032,136.0941 C 217.27145,136.09522 217.27329,136.09527 217.27439,136.09413 L 218.06261,135.30077 C 218.06374,135.29965 218.06375,135.29783 218.06263,135.29674 L 216.44383,133.68844 217.2988,132.8322 218.90668,134.4378 C 218.90769,134.43881 218.90948,134.43881 218.91053,134.43776 L 219.70285,133.64425 C 219.70394,133.64322 219.70391,133.64146 219.70285,133.64045 L 218.09499,132.03491 218.10268,132.02715 C 218.1038,132.02602 218.10383,132.02426 218.10266,132.02312 Z"
       id="rect831-1"
       inkscape:connector-curvature="0"
       inkscape:transform-center-x="0.80665844"
       inkscape:transform-center-y="0.11887504" />
    <path
       style="fill:none;fill-rule:evenodd;stroke:#fdfbf8;stroke-width:0.44080952;stroke-linecap:butt;stroke-linejoin:miter;stroke-miterlimit:4;stroke-dasharray:none;stroke-opacity:1"
       d="M 382.5303,288.97632 Z"
       id="path879"
       inkscape:connector-curvature="0"
       inkscape:original-d="M 380.62166,288.69289 C 373.22052,298.00983 389.50312,293.13367 380.62166,288.69289 Z" />
    <path
       style="fill:none;fill-rule:evenodd;stroke:#fdfbf8;stroke-width:0.3575471;stroke-linecap:butt;stroke-linejoin:miter;stroke-miterlimit:4;stroke-dasharray:none;stroke-opacity:1"
       d="M 382.97293,288.96143 C 382.35825,289.0791 381.81169,289.50856 381.55195,290.07794 381.38932,290.43432 381.3365,290.83989 381.40236,291.22605 381.46824,291.61212 381.65249,291.97727 381.92393,292.25962 382.19546,292.54199 382.55305,292.74042 382.93636,292.8213 383.31958,292.90228 383.72692,292.86539 384.08938,292.71692 384.53599,292.53395 384.9104,292.1806 385.11881,291.74521 385.32726,291.30987 385.36772,290.79668 385.23023,290.33406 385.09266,289.87138 384.77839,289.4637 384.36594,289.21293 383.95359,288.96215 383.44699,288.87071 382.97293,288.96143 Z"
       id="path887"
       inkscape:connector-curvature="0"
       inkscape:original-d="M 380.49653,287.81696 C 380.01062,287.96551 378.93044,288.63613 378.74465,289.19347 378.23229,290.73065 380.17355,294.14637 381.87299,292.44693 383.95393,290.36599 383.14938,286.49054 380.49653,287.81696 Z" />
    <path
       style="fill:none;fill-rule:evenodd;stroke:#fdfbf8;stroke-width:0.44080952;stroke-linecap:butt;stroke-linejoin:miter;stroke-miterlimit:4;stroke-dasharray:none;stroke-opacity:1"
       d="M 386.53456,284.84695 V 292.98063"
       id="path891"
       inkscape:connector-curvature="0"
       inkscape:original-d="M 384.62592,284.56352 C 384.06289,287.08139 385.36892,290.46817 384.62592,292.6972" />
    <path
       style="fill:none;fill-rule:evenodd;stroke:#fdfbf8;stroke-width:0.44080952;stroke-linecap:butt;stroke-linejoin:miter;stroke-miterlimit:4;stroke-dasharray:none;stroke-opacity:1"
       d="M 387.72335,292.79291 C 388.49365,291.54072 389.23357,290.47665 389.97572,289.35175 390.11135,289.00305 390.43008,290.48664 390.53883,290.79079 392.2663,295.56253 391.30445,289.99284 393.41689,289.10148 393.4672,289.08889 394.89066,288.78743 394.93367,288.74439"
       id="path929"
       inkscape:connector-curvature="0"
       sodipodi:nodetypes="ccccc" />
    <path
       style="fill:none;fill-rule:evenodd;stroke:#fdfbf8;stroke-width:0.44080952;stroke-linecap:butt;stroke-linejoin:miter;stroke-miterlimit:4;stroke-dasharray:none;stroke-opacity:1"
       d="M 396.60778,288.72607 396.48265,293.794 386.40944,293.85656 V 293.85656"
       id="path935"
       inkscape:connector-curvature="0" />
  </g>
</svg>
