<?xml version="1.0" encoding="UTF-8" standalone="no"?>
<!-- Created with Inkscape (http://www.inkscape.org/) -->

<svg
   xmlns:dc="http://purl.org/dc/elements/1.1/"
   xmlns:cc="http://creativecommons.org/ns#"
   xmlns:rdf="http://www.w3.org/1999/02/22-rdf-syntax-ns#"
   xmlns:svg="http://www.w3.org/2000/svg"
   xmlns="http://www.w3.org/2000/svg"
   xmlns:xlink="http://www.w3.org/1999/xlink"
   xmlns:sodipodi="http://sodipodi.sourceforge.net/DTD/sodipodi-0.dtd"
   xmlns:inkscape="http://www.inkscape.org/namespaces/inkscape"
   width="400mm"
   height="300mm"
   viewBox="0 0 400 300"
   version="1.1"
   id="svg8"
   inkscape:version="0.92.3 (2405546, 2018-03-11)"
   sodipodi:docname="darkest-hour.svg"
   enable-background="new"
   inkscape:export-filename="D:\Graphic Design\Alternative Movie Posters\Darkest Hour\darkest hour.png"
   inkscape:export-xdpi="253.99998"
   inkscape:export-ydpi="253.99998">
  <defs
     id="defs2">
    <inkscape:path-effect
       effect="spiro"
       id="path-effect893"
       is_visible="true" />
    <inkscape:path-effect
       effect="spiro"
       id="path-effect889"
       is_visible="true" />
    <inkscape:path-effect
       effect="spiro"
       id="path-effect881"
       is_visible="true" />
    <inkscape:path-effect
       effect="spiro"
       id="path-effect857"
       is_visible="true" />
    <linearGradient
       inkscape:collect="always"
       id="linearGradient4632">
      <stop
         style="stop-color:#000000;stop-opacity:1;"
         offset="0"
         id="stop4628" />
      <stop
         style="stop-color:#fc0d32;stop-opacity:1"
         offset="1"
         id="stop4630" />
    </linearGradient>
    <radialGradient
       inkscape:collect="always"
       xlink:href="#linearGradient4632"
       id="radialGradient4636"
       cx="207.96724"
       cy="145.58588"
       fx="207.96724"
       fy="145.58588"
       r="200"
       gradientTransform="matrix(0.69147873,0.01739466,-0.019925,0.79206538,78.851793,15.044798)"
       gradientUnits="userSpaceOnUse"
       spreadMethod="pad" />
  </defs>
  <sodipodi:namedview
     id="base"
     pagecolor="#ffffff"
     bordercolor="#666666"
     borderopacity="1.0"
     inkscape:pageopacity="0.0"
     inkscape:pageshadow="2"
     inkscape:zoom="0.33309312"
     inkscape:cx="508.22547"
     inkscape:cy="611.79917"
     inkscape:document-units="mm"
     inkscape:current-layer="layer1"
     showgrid="false"
     inkscape:snap-global="false"
     inkscape:window-width="1600"
     inkscape:window-height="837"
     inkscape:window-x="-8"
     inkscape:window-y="-8"
     inkscape:window-maximized="1" />
  <metadata
     id="metadata5">
    <rdf:RDF>
      <cc:Work
         rdf:about="">
        <dc:format>image/svg+xml</dc:format>
        <dc:type
           rdf:resource="http://purl.org/dc/dcmitype/StillImage" />
        <dc:title />
      </cc:Work>
    </rdf:RDF>
  </metadata>
  <g
     inkscape:label="Layer 1"
     inkscape:groupmode="layer"
     id="layer1"
     transform="translate(0,3)">
    <rect
       style="opacity:1;fill:url(#radialGradient4636);fill-opacity:1;fill-rule:nonzero;stroke:none;stroke-width:0;stroke-linecap:round;stroke-linejoin:bevel;stroke-miterlimit:4;stroke-dasharray:none;stroke-dashoffset:0;stroke-opacity:1;paint-order:fill markers stroke"
       id="rect815"
       width="400"
       height="300"
       x="0"
       y="-3.0000205"
       ry="0.015720837" />
    <path
       style="fill:#ffffff;fill-opacity:0.99514561;fill-rule:evenodd;stroke:none;stroke-width:0.40000001;stroke-linecap:butt;stroke-linejoin:miter;stroke-miterlimit:4;stroke-dasharray:none;stroke-opacity:1"
       d="M 142.03918,120.38392 C 141.34988,119.42093 137.78104,117.95967 133.92852,118.56822 125.56369,119.88955 113.21459,120.3858 107.04761,119.06938 103.29987,106.77459 140.62839,106.31889 148.50324,101.39124 148.76649,96.648991 147.01224,88.041575 146.73777,81.468133 147.83648,79.405524 149.59223,78.980439 150.51008,76.89468 151.21781,67.768749 148.19589,54.620811 150.59375,41.186634 151.73046,34.818108 155.84642,24.819032 161.33633,20.452031 171.67689,12.226527 194.44823,7.9964323 214.66407,5.4653999 233.19936,3.1447731 249.21019,3.5332573 261.94034,11.045745 275.61828,19.117554 279.39134,45.162469 285.11118,61.073693 288.13486,62.532599 287.31171,62.149132 290.10572,63.303917 L 293.50865,84.408374 C 317.40482,90.213898 318.43399,91.316527 336.27648,96.739448 345.47101,99.533967 351.5712,100.86672 351.31068,102.88309 351.12288,104.33661 347.26888,104.82012 339.56846,105.12879 L 299.48969,106.89544 C 292.75522,107.19229 296.73901,118.02911 299.26,122.22182 301.27999,125.58131 297.87662,131.23003 299.22855,134.62169 303.04773,144.2031 299.9574,138.84074 305.60723,149.77028 308.63299,154.67158 308.91812,155.58614 308.47695,158.92025 307.28007,167.96561 296.67383,167.0884 294.78244,169.63755 292.85091,172.69391 292.05501,175.77102 292.77266,178.09521 293.43835,180.2511 294.36713,179.81014 296.10377,180.63173 L 354.05741,201.18961 C 357.64038,202.4606 354.70118,210.32537 350.88716,208.94052 L 294.25665,188.37832 C 293.28496,188.02551 291.00793,189.22364 290.20675,190.75639 289.11906,192.83728 289.229,193.75018 290.62403,197.78806 294.15395,208.00528 289.28481,211.31757 287.49469,212.78024 281.96956,217.2947 270.20019,222.7781 267.61352,228.14099 265.93664,231.61761 265.74028,231.20201 267.62645,233.65035 L 310.63264,269.07235 C 234.21487,268.4751 178.91829,267.71168 77.552761,267.61955 90.365737,235.99698 96.778261,213.19233 117.80072,173.93314 118.20044,173.18667 115.62752,172.73023 115.95318,171.85169 117.8713,166.67713 123.35492,158.19115 126.29134,154.7695 127.08753,153.84174 128.47611,156.49791 129.39236,155.68704 141.38182,145.07644 141.95136,131.00886 142.03918,120.38392 Z"
       id="path817"
       inkscape:connector-curvature="0"
       sodipodi:nodetypes="csccccsssscccsscssscscscssssssscccssssc" />
    <g
       aria-label="THE DARKEST HOUR"
       transform="matrix(0.26458333,0,0,0.26458333,49.983082,26.911619)"
       style="font-style:normal;font-variant:normal;font-weight:normal;font-stretch:normal;font-size:97.33333588px;line-height:20px;font-family:'Franklin Gothic Heavy';-inkscape-font-specification:'Franklin Gothic Heavy, Normal';font-variant-ligatures:normal;font-variant-caps:normal;font-variant-numeric:normal;font-feature-settings:normal;text-align:start;letter-spacing:0px;word-spacing:0px;writing-mode:lr-tb;text-anchor:start;fill:#000000;fill-opacity:1;stroke:none;stroke-width:2.89133859;stroke-linecap:butt;stroke-linejoin:miter;stroke-miterlimit:4;stroke-dasharray:none;stroke-opacity:1"
       id="flowRoot828">
      <g
         aria-label="DARKEST HOUR"
         transform="translate(-180.82395,-69.527439)"
         style="font-style:normal;font-variant:normal;font-weight:normal;font-stretch:normal;font-size:122.66667175px;line-height:20px;font-family:'Franklin Gothic Heavy';-inkscape-font-specification:'Franklin Gothic Heavy, Normal';font-variant-ligatures:normal;font-variant-caps:normal;font-variant-numeric:normal;font-feature-settings:normal;text-align:start;letter-spacing:0px;word-spacing:0px;writing-mode:lr-tb;text-anchor:start;fill:#000000;fill-opacity:1;stroke:none;stroke-width:1px;stroke-linecap:butt;stroke-linejoin:miter;stroke-opacity:1"
         id="flowRoot843">
        <path
           d="M 286.11719,1076.9407 V 994.29422 H 318.08594 Q 338.91406,994.29422 349.26758,1006.6458 359.62109,1018.9973 359.62109,1035.2239 359.62109,1053.7513 348.48047,1065.3763 337.40039,1076.9407 319.66016,1076.9407 Z M 311.48633,1057.929 H 318.08594 Q 324.38281,1057.929 328.68164,1051.8138 333.04102,1045.6985 333.04102,1035.1634 333.04102,1026.1419 329.16602,1019.6028 325.35156,1013.0638 318.08594,1013.0638 H 311.48633 Z"
           style="font-style:normal;font-variant:normal;font-weight:normal;font-stretch:normal;font-size:124px;font-family:'Franklin Gothic Heavy';-inkscape-font-specification:'Franklin Gothic Heavy, Normal';font-variant-ligatures:normal;font-variant-caps:normal;font-variant-numeric:normal;font-feature-settings:normal;text-align:start;writing-mode:lr-tb;text-anchor:start"
           id="path851"
           inkscape:connector-curvature="0" />
        <path
           d="M 413.44727,1076.9407 408.78516,1060.6536 H 386.625 L 381.66016,1076.9407 H 361.07422 L 386.625,994.29422 H 413.44727 L 439.30078,1076.9407 Z M 390.92383,1042.6106 H 404.36523 L 397.64453,1018.6341 Z"
           style="font-style:normal;font-variant:normal;font-weight:normal;font-stretch:normal;font-size:124px;font-family:'Franklin Gothic Heavy';-inkscape-font-specification:'Franklin Gothic Heavy, Normal';font-variant-ligatures:normal;font-variant-caps:normal;font-variant-numeric:normal;font-feature-settings:normal;text-align:start;writing-mode:lr-tb;text-anchor:start"
           id="path853"
           inkscape:connector-curvature="0" />
        <path
           d="M 520.73633,1076.9407 H 492.58203 L 480.5332,1045.3352 H 472.54102 V 1076.9407 H 447.17188 V 994.29422 H 490.3418 Q 504.63086,994.29422 512.50195,1001.0149 520.43359,1007.6751 520.43359,1018.6341 520.43359,1025.7786 517.52734,1031.2884 514.62109,1036.7376 505.78125,1040.9153 Z M 472.54102,1027.6556 H 483.37891 Q 488.16211,1027.6556 491.06836,1025.6575 493.97461,1023.6595 493.97461,1019.7845 493.97461,1011.8528 484.22656,1011.8528 H 472.54102 Z"
           style="font-style:normal;font-variant:normal;font-weight:normal;font-stretch:normal;font-size:124px;font-family:'Franklin Gothic Heavy';-inkscape-font-specification:'Franklin Gothic Heavy, Normal';font-variant-ligatures:normal;font-variant-caps:normal;font-variant-numeric:normal;font-feature-settings:normal;text-align:start;writing-mode:lr-tb;text-anchor:start"
           id="path855"
           inkscape:connector-curvature="0" />
        <path
           d="M 607.19727,1076.9407 H 579.40625 L 565.11719,1045.6985 556.58008,1057.8684 V 1076.9407 H 532.66406 V 994.29422 H 556.58008 V 1028.4427 L 579.40625,994.29422 H 602.17187 L 581.2832,1024.5071 Z"
           style="font-style:normal;font-variant:normal;font-weight:normal;font-stretch:normal;font-size:124px;font-family:'Franklin Gothic Heavy';-inkscape-font-specification:'Franklin Gothic Heavy, Normal';font-variant-ligatures:normal;font-variant-caps:normal;font-variant-numeric:normal;font-feature-settings:normal;text-align:start;writing-mode:lr-tb;text-anchor:start"
           id="path857"
           inkscape:connector-curvature="0" />
        <path
           d="M 676.2207,1057.2024 V 1076.9407 H 614.03906 V 994.29422 H 676.2207 V 1013.3665 H 638.92383 V 1025.3548 H 669.07617 V 1043.7005 H 638.92383 V 1057.2024 Z"
           style="font-style:normal;font-variant:normal;font-weight:normal;font-stretch:normal;font-size:124px;font-family:'Franklin Gothic Heavy';-inkscape-font-specification:'Franklin Gothic Heavy, Normal';font-variant-ligatures:normal;font-variant-caps:normal;font-variant-numeric:normal;font-feature-settings:normal;text-align:start;writing-mode:lr-tb;text-anchor:start"
           id="path859"
           inkscape:connector-curvature="0" />
        <path
           d="M 677.67383,1053.0247 701.22656,1048.7864 Q 704.19336,1058.7766 716.48437,1058.7766 726.05078,1058.7766 726.05078,1053.6907 726.05078,1051.0266 723.81055,1049.5735 721.63086,1048.0598 715.93945,1046.9095 694.20312,1042.7317 688.02734,1036.011 681.85156,1029.2903 681.85156,1020.2083 681.85156,1008.5227 690.69141,1000.7727 699.5918,993.02274 716.24219,993.02274 741.49023,993.02274 749.60352,1013.3059 L 728.59375,1019.6634 Q 725.32422,1011.3684 715.33398,1011.3684 707.03906,1011.3684 707.03906,1016.5149 707.03906,1018.8157 708.91602,1020.0872 710.79297,1021.3587 716.18164,1022.5091 731.01562,1025.6575 737.25195,1028.0794 743.48828,1030.5013 747.66602,1036.3743 751.84375,1042.1868 751.84375,1050.1184 751.84375,1062.6516 741.67187,1070.4622 731.5,1078.2122 714.9707,1078.2122 684.75781,1078.2122 677.67383,1053.0247 Z"
           style="font-style:normal;font-variant:normal;font-weight:normal;font-stretch:normal;font-size:124px;font-family:'Franklin Gothic Heavy';-inkscape-font-specification:'Franklin Gothic Heavy, Normal';font-variant-ligatures:normal;font-variant-caps:normal;font-variant-numeric:normal;font-feature-settings:normal;text-align:start;writing-mode:lr-tb;text-anchor:start"
           id="path861"
           inkscape:connector-curvature="0" />
        <path
           d="M 796.4668,1014.0931 V 1076.9407 H 772.42969 V 1014.0931 H 755.29492 V 994.29422 H 813.60156 V 1014.0931 Z"
           style="font-style:normal;font-variant:normal;font-weight:normal;font-stretch:normal;font-size:124px;font-family:'Franklin Gothic Heavy';-inkscape-font-specification:'Franklin Gothic Heavy, Normal';font-variant-ligatures:normal;font-variant-caps:normal;font-variant-numeric:normal;font-feature-settings:normal;text-align:start;writing-mode:lr-tb;text-anchor:start"
           id="path863"
           inkscape:connector-curvature="0" />
        <path
           d="M 921.98047,994.29422 V 1076.9407 H 896.61133 V 1044.7903 H 877.23633 V 1076.9407 H 851.86719 V 994.29422 H 877.23633 V 1024.6888 H 896.61133 V 994.29422 Z"
           style="font-style:normal;font-variant:normal;font-weight:normal;font-stretch:normal;font-size:124px;font-family:'Franklin Gothic Heavy';-inkscape-font-specification:'Franklin Gothic Heavy, Normal';font-variant-ligatures:normal;font-variant-caps:normal;font-variant-numeric:normal;font-feature-settings:normal;text-align:start;writing-mode:lr-tb;text-anchor:start"
           id="path865"
           inkscape:connector-curvature="0" />
        <path
           d="M 972.11328,1078.2122 Q 954.67578,1078.2122 943.65625,1066.6477 932.69727,1055.0833 932.69727,1035.7083 932.69727,1017.1809 943.17187,1005.1321 953.70703,993.02274 972.35547,993.02274 989.61133,993.02274 1000.4492,1004.4056 1011.3477,1015.7884 1011.3477,1034.8001 1011.3477,1054.4778 1000.3887,1066.345 989.42969,1078.2122 972.11328,1078.2122 Z M 971.99219,1059.4427 Q 978.41016,1059.4427 981.19531,1053.8723 984.04102,1048.2415 984.04102,1033.347 984.04102,1011.7923 972.47656,1011.7923 960.00391,1011.7923 960.00391,1036.3743 960.00391,1059.4427 971.99219,1059.4427 Z"
           style="font-style:normal;font-variant:normal;font-weight:normal;font-stretch:normal;font-size:124px;font-family:'Franklin Gothic Heavy';-inkscape-font-specification:'Franklin Gothic Heavy, Normal';font-variant-ligatures:normal;font-variant-caps:normal;font-variant-numeric:normal;font-feature-settings:normal;text-align:start;writing-mode:lr-tb;text-anchor:start"
           id="path867"
           inkscape:connector-curvature="0" />
        <path
           d="M 1089.1504,994.29422 V 1049.0286 Q 1089.1504,1064.5891 1079.8867,1071.4309 1070.6836,1078.2122 1055.8496,1078.2122 1040.2285,1078.2122 1030.7227,1071.6731 1021.2773,1065.1341 1021.2773,1050.3606 V 994.29422 H 1047.0703 V 1047.3938 Q 1047.0703,1053.3274 1049.5527,1056.052 1052.0957,1058.7766 1057.6055,1058.7766 1062.207,1058.7766 1065.1133,1056.8391 1068.0801,1054.8411 1068.625,1052.3587 1069.2305,1049.8763 1069.2305,1042.6712 V 994.29422 Z"
           style="font-style:normal;font-variant:normal;font-weight:normal;font-stretch:normal;font-size:124px;font-family:'Franklin Gothic Heavy';-inkscape-font-specification:'Franklin Gothic Heavy, Normal';font-variant-ligatures:normal;font-variant-caps:normal;font-variant-numeric:normal;font-feature-settings:normal;text-align:start;writing-mode:lr-tb;text-anchor:start"
           id="path869"
           inkscape:connector-curvature="0" />
        <path
           d="M 1176.3379,1076.9407 H 1148.1836 L 1136.1348,1045.3352 H 1128.1426 V 1076.9407 H 1102.7734 V 994.29422 H 1145.9434 Q 1160.2324,994.29422 1168.1035,1001.0149 1176.0352,1007.6751 1176.0352,1018.6341 1176.0352,1025.7786 1173.1289,1031.2884 1170.2227,1036.7376 1161.3828,1040.9153 Z M 1128.1426,1027.6556 H 1138.9805 Q 1143.7637,1027.6556 1146.6699,1025.6575 1149.5762,1023.6595 1149.5762,1019.7845 1149.5762,1011.8528 1139.8281,1011.8528 H 1128.1426 Z"
           style="font-style:normal;font-variant:normal;font-weight:normal;font-stretch:normal;font-size:124px;font-family:'Franklin Gothic Heavy';-inkscape-font-specification:'Franklin Gothic Heavy, Normal';font-variant-ligatures:normal;font-variant-caps:normal;font-variant-numeric:normal;font-feature-settings:normal;text-align:start;writing-mode:lr-tb;text-anchor:start"
           id="path871"
           inkscape:connector-curvature="0" />
      </g>
    </g>
    <ellipse
       style="opacity:1;fill:#000000;fill-opacity:1;fill-rule:nonzero;stroke:#000000;stroke-width:0.16573988;stroke-linecap:round;stroke-linejoin:bevel;stroke-miterlimit:4;stroke-dasharray:none;stroke-dashoffset:0;stroke-opacity:1;paint-order:fill markers stroke"
       id="path819"
       cx="217.51518"
       cy="130.04654"
       rx="6.9171295"
       ry="6.91713" />
    <path
       style="opacity:1;fill:#000000;fill-opacity:1;fill-rule:nonzero;stroke:none;stroke-width:0;stroke-linecap:round;stroke-linejoin:bevel;stroke-miterlimit:4;stroke-dasharray:none;stroke-dashoffset:0;stroke-opacity:1;paint-order:fill markers stroke"
       inkscape:transform-center-x="-6.5864826"
       inkscape:transform-center-y="1.656524"
       d="M 219.99735,82.5927 C 217.62096,85.301084 217.30917,86.399955 217.84921,86.417492 220.33985,86.498375 220.04298,86.177681 220.04816,86.815627 220.1903,104.30695 220.19476,90.991862 220.42783,113.55812 220.44675,115.39125 224.56685,117.54994 224.4144,117.49962 224.4144,117.49962 221.29154,120.48184 221.34243,122.18134 221.46284,126.20102 221.65342,130.52423 221.70359,134.56855 222.08012,138.77877 227.82025,138.41196 222.41638,145.21658 220.95008,147.06298 219.13675,146.67041 218.41407,149.35746 217.65054,146.71225 215.9195,147.04637 214.32191,145.29079 208.70713,139.12077 215.35488,137.71094 214.57881,134.6952 214.54798,130.63959 214.53068,126.30721 214.52381,122.20263 214.52125,120.66692 210.54516,117.72369 210.54516,117.72369 210.54516,117.72369 214.52017,115.51312 214.52513,113.51542 214.58203,90.579612 214.34358,102.49135 214.50301,86.866799 214.51015,86.165739 214.04238,86.495917 216.87284,86.426349 217.6613,86.40697 217.03364,85.098838 214.54785,82.653192 214.54876,82.816243 216.72083,79.401388 217.1844,79.338811 217.62092,79.279884 219.75638,82.467763 219.99735,82.5927 Z"
       id="rect821-0"
       inkscape:connector-curvature="0"
       sodipodi:nodetypes="cssscscscscscscscsc" />
    <path
       style="opacity:1;fill:#000000;fill-opacity:1;fill-rule:nonzero;stroke:none;stroke-width:0;stroke-linecap:round;stroke-linejoin:bevel;stroke-miterlimit:4;stroke-dasharray:none;stroke-dashoffset:0;stroke-opacity:1;paint-order:fill markers stroke"
       inkscape:transform-center-x="-7.1365071"
       inkscape:transform-center-y="-1.5433232"
       d="M 178.86741,49.209778 C 192.53667,79.12156 209.60447,106.83152 224.489,135.75589 225.4628,137.78645 227.81928,138.70645 227.99864,138.7756 226.52348,140.76341 228.58636,142.92323 230.26354,142.89887 230.82752,142.89068 231.59866,143.8414 231.12797,144.49159 229.70391,146.01825 228.37683,149.88969 228.95377,152.71146 227.30057,150.72376 224.31161,149.35239 220.81299,149.43151 219.88406,149.61588 219.55902,148.11764 220.02647,147.94211 221.8442,147.25954 221.11722,143.58844 218.51712,143.86389 218.7383,142.19387 219.58361,141.87186 217.74289,139.17592 205.34586,110.36364 189.38814,80.22535 175.39375,51.135129 177.89106,49.822701 175.96669,50.767351 178.86741,49.209778 Z"
       id="rect821"
       inkscape:connector-curvature="0"
       sodipodi:nodetypes="cccscccscccc" />
    <path
       style="opacity:1;fill:#ffffff;fill-opacity:1;fill-rule:nonzero;stroke:#000000;stroke-width:0.02208875;stroke-linecap:round;stroke-linejoin:bevel;stroke-miterlimit:4;stroke-dasharray:none;stroke-dashoffset:0;stroke-opacity:1;paint-order:fill markers stroke"
       d="M 219.07713,127.38697 C 219.07599,127.38587 219.07424,127.38587 219.07311,127.38697 L 217.4123,129.05025 216.52862,128.17223 218.1825,126.51004 C 218.18353,126.50902 218.18349,126.50738 218.18251,126.50637 L 217.38751,125.71532 C 217.38646,125.71432 217.38471,125.71428 217.3837,125.71531 L 214.98202,128.1291 C 214.98099,128.13015 214.98099,128.13194 214.98204,128.13295 L 214.99344,128.1443 214.95198,128.18615 C 214.95085,128.18724 214.95085,128.18908 214.95198,128.19018 L 216.61807,129.84561 215.78021,130.68468 214.16713,129.0739 C 214.16613,129.07289 214.16445,129.07289 214.16343,129.0739 L 213.37101,129.8675 C 213.36995,129.86853 213.36995,129.87018 213.371,129.87121 L 215.78049,132.27731 C 215.78156,132.27833 215.78323,132.27834 215.78427,132.27729 L 215.78928,132.27217 215.79439,132.27732 C 215.79554,132.27841 215.79731,132.27841 215.79842,132.27731 L 217.42551,130.64789 218.23678,131.45395 216.58739,133.11076 C 216.58629,133.11181 216.58625,133.11351 216.58731,133.11453 L 217.38213,133.90571 C 217.38311,133.90673 217.38475,133.90673 217.38586,133.90565 L 219.03605,132.24809 219.04617,132.25821 C 219.0473,132.25933 219.04914,132.25938 219.05024,132.25824 L 219.83846,131.46488 C 219.83959,131.46376 219.8396,131.46194 219.83848,131.46085 L 218.21968,129.85255 219.07465,128.99631 220.68253,130.60191 C 220.68354,130.60292 220.68533,130.60292 220.68638,130.60187 L 221.4787,129.80836 C 221.47979,129.80733 221.47976,129.80557 221.4787,129.80456 L 219.87084,128.19902 219.87853,128.19126 C 219.87965,128.19013 219.87968,128.18837 219.87851,128.18723 Z"
       id="rect831-1"
       inkscape:connector-curvature="0"
       inkscape:transform-center-x="0.80665844"
       inkscape:transform-center-y="0.11887504" />
    <path
       style="fill:none;fill-rule:evenodd;stroke:#fdfbf8;stroke-width:0.44080952;stroke-linecap:butt;stroke-linejoin:miter;stroke-miterlimit:4;stroke-dasharray:none;stroke-opacity:1"
       d="M 382.5303,288.97632 Z"
       id="path879"
       inkscape:connector-curvature="0"
       inkscape:original-d="M 380.62166,288.69289 C 373.22052,298.00983 389.50312,293.13367 380.62166,288.69289 Z" />
    <path
       style="fill:none;fill-rule:evenodd;stroke:#fdfbf8;stroke-width:0.3575471;stroke-linecap:butt;stroke-linejoin:miter;stroke-miterlimit:4;stroke-dasharray:none;stroke-opacity:1"
       d="M 382.97293,288.96143 C 382.35825,289.0791 381.81169,289.50856 381.55195,290.07794 381.38932,290.43432 381.3365,290.83989 381.40236,291.22605 381.46824,291.61212 381.65249,291.97727 381.92393,292.25962 382.19546,292.54199 382.55305,292.74042 382.93636,292.8213 383.31958,292.90228 383.72692,292.86539 384.08938,292.71692 384.53599,292.53395 384.9104,292.1806 385.11881,291.74521 385.32726,291.30987 385.36772,290.79668 385.23023,290.33406 385.09266,289.87138 384.77839,289.4637 384.36594,289.21293 383.95359,288.96215 383.44699,288.87071 382.97293,288.96143 Z"
       id="path887"
       inkscape:connector-curvature="0"
       inkscape:original-d="M 380.49653,287.81696 C 380.01062,287.96551 378.93044,288.63613 378.74465,289.19347 378.23229,290.73065 380.17355,294.14637 381.87299,292.44693 383.95393,290.36599 383.14938,286.49054 380.49653,287.81696 Z" />
    <path
       style="fill:none;fill-rule:evenodd;stroke:#fdfbf8;stroke-width:0.44080952;stroke-linecap:butt;stroke-linejoin:miter;stroke-miterlimit:4;stroke-dasharray:none;stroke-opacity:1"
       d="M 386.53456,284.84695 V 292.98063"
       id="path891"
       inkscape:connector-curvature="0"
       inkscape:original-d="M 384.62592,284.56352 C 384.06289,287.08139 385.36892,290.46817 384.62592,292.6972" />
    <path
       style="fill:none;fill-rule:evenodd;stroke:#fdfbf8;stroke-width:0.44080952;stroke-linecap:butt;stroke-linejoin:miter;stroke-miterlimit:4;stroke-dasharray:none;stroke-opacity:1"
       d="M 387.72335,292.79291 C 388.49365,291.54072 389.23357,290.47665 389.97572,289.35175 390.11135,289.00305 390.43008,290.48664 390.53883,290.79079 392.2663,295.56253 391.30445,289.99284 393.41689,289.10148 393.4672,289.08889 394.89066,288.78743 394.93367,288.74439"
       id="path929"
       inkscape:connector-curvature="0"
       sodipodi:nodetypes="ccccc" />
    <path
       style="fill:none;fill-rule:evenodd;stroke:#fdfbf8;stroke-width:0.44080952;stroke-linecap:butt;stroke-linejoin:miter;stroke-miterlimit:4;stroke-dasharray:none;stroke-opacity:1"
       d="M 396.60778,288.72607 396.48265,293.794 386.40944,293.85656 V 293.85656"
       id="path935"
       inkscape:connector-curvature="0" />
  </g>
</svg>
