<?xml version="1.0" encoding="UTF-8" standalone="no"?>
<!-- Created with Inkscape (http://www.inkscape.org/) -->
<svg id="svg8" xmlns:rdf="http://www.w3.org/1999/02/22-rdf-syntax-ns#" xmlns="http://www.w3.org/2000/svg" height="300mm" width="400mm" version="1.1" enable-background="new" xmlns:cc="http://creativecommons.org/ns#" xmlns:xlink="http://www.w3.org/1999/xlink" viewBox="0 0 400 300" xmlns:dc="http://purl.org/dc/elements/1.1/">
 <defs id="defs2">
  <radialGradient id="radialGradient4636" gradientUnits="userSpaceOnUse" cy="179.15" cx="207.23" gradientTransform="matrix(.89613 .00095957 -.001108 1.0348 18.671 -15.457)" r="200">
   <stop id="stop4628" offset="0"/>
   <stop id="stop4630" style="stop-color:#fc0d32" offset="1"/>
  </radialGradient>
  <filter id="filter4848" style="color-interpolation-filters:sRGB">
   <feBlend id="feBlend4850" in2="BackgroundImage" mode="overlay"/>
  </filter>
  <filter id="filter5177" style="color-interpolation-filters:sRGB">
   <feFlood id="feFlood5167" result="flood" flood-opacity=".49804" flood-color="rgb(0,0,0)"/>
   <feComposite id="feComposite5169" operator="in" result="composite1" in2="SourceGraphic" in="flood"/>
   <feGaussianBlur id="feGaussianBlur5171" stdDeviation="1.7" result="blur" in="composite1"/>
   <feOffset id="feOffset5173" result="offset" dx="1" dy="1"/>
   <feComposite id="feComposite5175" operator="over" result="composite2" in2="offset" in="SourceGraphic"/>
  </filter>
  <filter id="filter5189" style="color-interpolation-filters:sRGB">
   <feFlood id="feFlood5179" result="flood" flood-opacity=".49804" flood-color="rgb(0,0,0)"/>
   <feComposite id="feComposite5181" operator="in" result="composite1" in2="SourceGraphic" in="flood"/>
   <feGaussianBlur id="feGaussianBlur5183" stdDeviation="1.7" result="blur" in="composite1"/>
   <feOffset id="feOffset5185" result="offset" dx="1" dy="1"/>
   <feComposite id="feComposite5187" operator="over" result="composite2" in2="offset" in="SourceGraphic"/>
  </filter>
 </defs>
 <g id="layer1" transform="translate(0,3)">
  <rect id="rect815" style="fill:url(#radialGradient4636);paint-order:fill markers stroke" ry=".015721" height="300" width="400" y="-3" x="0"/>
  <path id="path817" style="fill-opacity:.99515;fill:#fff;fill-rule:evenodd" d="m138.86 120.38c-0.69-0.96-4.25-2.42-8.11-1.81-8.36 1.32-20.71 1.82-26.88 0.5-3.75-12.3 33.58-12.75 41.46-17.68 0.26-4.741-1.49-13.348-1.77-19.922 1.1-2.062 2.86-2.488 3.78-4.573 0.7-9.126-2.32-22.274 0.08-35.708 1.14-6.369 5.25-16.368 10.74-20.735 10.34-8.225 33.11-12.456 53.33-14.987 18.53-2.3202 34.55-1.9317 47.28 5.581 13.67 8.072 17.45 34.116 23.17 50.028 3.02 1.459 2.2 1.075 4.99 2.23l3.4 21.104c23.9 5.806 24.93 6.909 42.77 12.331 9.2 2.795 15.3 4.131 15.04 6.141-0.19 1.46-4.05 1.94-11.75 2.25l-40.08 1.77c-6.73 0.29-2.75 11.13-0.23 15.32 2.02 3.36-1.38 9.01-0.03 12.4 3.82 9.58 0.73 4.22 6.38 15.15 3.03 4.9 3.31 5.82 2.87 9.15-1.19 9.05-11.8 8.17-13.69 10.72-1.93 3.05-2.73 6.13-2.01 8.46 0.66 2.15 1.59 1.71 3.33 2.53l57.95 20.56c3.59 1.27 0.65 9.14-3.17 7.75l-56.63-20.56c-0.97-0.35-3.25 0.84-4.05 2.38-1.09 2.08-0.98 2.99 0.42 7.03 3.53 10.22-1.34 13.53-3.13 14.99-5.53 4.51-17.29 10-19.88 15.36-1.68 3.48-1.87 3.06 0.01 5.51l43.01 35.42c-76.42-0.59-131.72-1.36-233.08-1.45 12.811-31.62 19.223-54.43 40.25-93.69 0.4-0.74-2.18-1.2-1.85-2.08 1.92-5.17 7.4-13.66 10.34-17.08 0.79-0.93 2.18 1.73 3.1 0.92 11.99-10.61 12.56-24.68 12.64-35.31z"/>
  <g id="flowRoot828" aria-label="THE DARKEST HOUR" style="filter:url(#filter4848);font-variant-numeric:normal;font-variant-ligatures:normal;font-variant-caps:normal;font-feature-settings:normal" transform="matrix(.26458 0 0 .26458 56.392 26.645)">
   <path id="path846" style="font-variant-ligatures:normal;font-variant-numeric:normal;font-feature-settings:normal;font-variant-caps:normal" d="m95.554 949.58v49.33h-18.868v-49.33h-13.45v-15.54h45.764v15.54z"/>
   <path id="path848" style="font-variant-ligatures:normal;font-variant-numeric:normal;font-feature-settings:normal;font-variant-caps:normal" d="m169.74 934.04v64.87h-19.91v-25.24h-15.21v25.24h-19.91v-64.87h19.91v23.86h15.21v-23.86z"/>
   <path id="path850" style="font-variant-ligatures:normal;font-variant-numeric:normal;font-feature-settings:normal;font-variant-caps:normal" d="m229.86 983.42v15.49h-48.81v-64.87h48.81v14.97h-29.27v9.41h23.66v14.4h-23.66v10.6z"/>
   <path id="path852" style="font-variant-ligatures:normal;font-variant-numeric:normal;font-feature-settings:normal;font-variant-caps:normal" d="m262.04 998.91v-64.87h25.09q16.35 0 24.48 9.69 8.12 9.7 8.12 22.44 0 14.54-8.74 23.66-8.7 9.08-22.62 9.08zm19.91-14.92h5.18q4.94 0 8.32-4.8 3.42-4.8 3.42-13.07 0-7.08-3.04-12.22-3-5.13-8.7-5.13h-5.18z"/>
   <path id="path854" style="font-variant-ligatures:normal;font-variant-numeric:normal;font-feature-settings:normal;font-variant-caps:normal" d="m361.99 998.91-3.66-12.78h-17.4l-3.9 12.78h-16.15l20.05-64.87h21.06l20.29 64.87zm-17.68-26.95h10.55l-5.28-18.82z"/>
   <path id="path856" style="font-variant-ligatures:normal;font-variant-numeric:normal;font-feature-settings:normal;font-variant-caps:normal" d="m446.2 998.91h-22.1l-9.46-24.81h-6.27v24.81h-19.91v-64.87h33.88q11.22 0 17.4 5.27 6.22 5.23 6.22 13.83 0 5.61-2.28 9.94-2.28 4.27-9.22 7.55zm-37.83-38.69h8.51q3.75 0 6.03-1.56 2.28-1.57 2.28-4.61 0-6.23-7.65-6.23h-9.17z"/>
   <path id="path858" style="font-variant-ligatures:normal;font-variant-numeric:normal;font-feature-settings:normal;font-variant-caps:normal" d="m514.07 998.91h-21.82l-11.21-24.52-6.7 9.55v14.97h-18.78v-64.87h18.78v26.8l17.91-26.8h17.87l-16.39 23.71z"/>
   <path id="path860" style="font-variant-ligatures:normal;font-variant-numeric:normal;font-feature-settings:normal;font-variant-caps:normal" d="m568.25 983.42v15.49h-48.81v-64.87h48.81v14.97h-29.28v9.41h23.67v14.4h-23.67v10.6z"/>
   <path id="path862" style="font-variant-ligatures:normal;font-variant-numeric:normal;font-feature-settings:normal;font-variant-caps:normal" d="m569.39 980.14 18.49-3.33q2.33 7.84 11.97 7.84 7.51 0 7.51-3.99 0-2.09-1.76-3.23-1.71-1.19-6.17-2.09-17.07-3.28-21.91-8.56-4.85-5.27-4.85-12.4 0-9.17 6.94-15.26 6.98-6.08 20.05-6.08 19.82 0 26.19 15.92l-16.49 4.99q-2.57-6.51-10.41-6.51-6.51 0-6.51 4.04 0 1.81 1.47 2.8 1.48 1 5.71 1.9 11.64 2.48 16.53 4.38 4.9 1.9 8.18 6.51 3.28 4.56 3.28 10.79 0 9.83-7.99 15.97-7.98 6.08-20.96 6.08-23.71 0-29.27-19.77z"/>
   <path id="path864" style="font-variant-ligatures:normal;font-variant-numeric:normal;font-feature-settings:normal;font-variant-caps:normal" d="m662.63 949.58v49.33h-18.86v-49.33h-13.45v-15.54h45.76v15.54z"/>
   <path id="path866" style="font-variant-ligatures:normal;font-variant-numeric:normal;font-feature-settings:normal;font-variant-caps:normal" d="m761.16 934.04v64.87h-19.92v-25.24h-15.21v25.24h-19.91v-64.87h19.91v23.86h15.21v-23.86z"/>
   <path id="path868" style="font-variant-ligatures:normal;font-variant-numeric:normal;font-feature-settings:normal;font-variant-caps:normal" d="m800.51 999.91q-13.69 0-22.34-9.08-8.6-9.08-8.6-24.28 0-14.55 8.22-24 8.27-9.51 22.91-9.51 13.54 0 22.05 8.93 8.55 8.94 8.55 23.86 0 15.45-8.6 24.76-8.6 9.32-22.19 9.32zm-0.1-14.73q5.04 0 7.23-4.38 2.23-4.42 2.23-16.11 0-16.92-9.08-16.92-9.79 0-9.79 19.3 0 18.11 9.41 18.11z"/>
   <path id="path870" style="font-variant-ligatures:normal;font-variant-numeric:normal;font-feature-settings:normal;font-variant-caps:normal" d="m892.38 934.04v42.96q0 12.22-7.28 17.59-7.22 5.32-18.86 5.32-12.27 0-19.73-5.13-7.41-5.14-7.41-16.73v-44.01h20.25v41.68q0 4.66 1.94 6.79 2 2.14 6.32 2.14 3.62 0 5.9-1.52 2.33-1.57 2.75-3.51 0.48-1.95 0.48-7.61v-37.97z"/>
   <path id="path872" style="font-variant-ligatures:normal;font-variant-numeric:normal;font-feature-settings:normal;font-variant-caps:normal" d="m960.81 998.91h-22.1l-9.45-24.81h-6.28v24.81h-19.91v-64.87h33.89q11.21 0 17.39 5.27 6.23 5.23 6.23 13.83 0 5.61-2.29 9.94-2.28 4.27-9.22 7.55zm-37.83-38.69h8.51q3.75 0 6.04-1.56 2.28-1.57 2.28-4.61 0-6.23-7.66-6.23h-9.17z"/>
  </g>
  <ellipse id="path819" style="stroke-linejoin:bevel;paint-order:fill markers stroke;stroke:#000;stroke-linecap:round;stroke-width:.16574" rx="6.9171" ry="6.9171" cy="130.05" cx="214.34"/>
  <path id="rect821-0" style="paint-order:fill markers stroke;filter:url(#filter5189)" d="m216.82 82.593c-2.37 2.708-2.69 3.807-2.15 3.824 2.49 0.081 2.2-0.239 2.2 0.399 0.15 17.494 0.15 4.176 0.38 26.744 0.02 1.83 4.14 3.99 3.99 3.94 0 0-3.12 2.98-3.07 4.68 0.12 4.02 0.31 8.34 0.36 12.39 0.38 4.21 6.12 3.84 0.71 10.65-1.46 1.84-3.28 1.45-4 4.14-0.76-2.65-2.5-2.31-4.09-4.07-5.62-6.17 1.03-7.58 0.25-10.59-0.03-4.06-0.04-8.39-0.05-12.5 0-1.53-3.98-4.48-3.98-4.48s3.98-2.21 3.98-4.2c0.06-22.94-0.18-11.03-0.02-26.653 0.01-0.701-0.46-0.371 2.37-0.441 0.79-0.019 0.16-1.327-2.33-3.773 0 0.163 2.18-3.252 2.64-3.314 0.44-0.059 2.57 3.129 2.81 3.254z"/>
  <path id="rect821" style="paint-order:fill markers stroke;filter:url(#filter5177)" d="m175.69 49.21c13.67 29.912 30.74 57.62 45.62 86.55 0.98 2.03 3.33 2.95 3.51 3.02-1.47 1.98 0.59 4.14 2.27 4.12 0.56-0.01 1.33 0.94 0.86 1.59-1.42 1.53-2.75 5.4-2.17 8.22-1.65-1.99-4.64-3.36-8.14-3.28-0.93 0.19-1.26-1.31-0.79-1.49 1.82-0.68 1.09-4.35-1.51-4.08 0.22-1.67 1.07-1.99-0.77-4.68-12.4-28.82-28.36-58.955-42.35-88.045 2.5-1.312 0.57-0.368 3.47-1.925z"/>
  <path id="rect831-1" style="stroke-linejoin:bevel;paint-order:fill markers stroke;stroke:#000;stroke-linecap:round;stroke-width:.022089;fill:#fff" d="m215.9 127.39l-1.66 1.66-0.89-0.88 1.66-1.66-0.8-0.79v0l-2.4 2.41 0.01 0.01-0.04 0.05 1.66 1.66-0.83 0.83-1.62-1.61-0.79 0.8c-0.01 0-0.01 0 0 0l2.41 2.41v-0.01l0.01 0.01 1.63-1.63 0.81 0.8-1.65 1.66 0.8 0.8 1.65-1.66 0.01 0.01h0.01l0.78-0.8-1.62-1.61 0.86-0.85 1.61 1.6 0.79-0.79v-0.01l-1.6-1.6v-0.01z"/>
 </g>
</svg>
