<?xml version="1.0" encoding="UTF-8" standalone="no"?>
<!-- Created with Inkscape (http://www.inkscape.org/) -->

<svg
   xmlns:dc="http://purl.org/dc/elements/1.1/"
   xmlns:cc="http://creativecommons.org/ns#"
   xmlns:rdf="http://www.w3.org/1999/02/22-rdf-syntax-ns#"
   xmlns:svg="http://www.w3.org/2000/svg"
   xmlns="http://www.w3.org/2000/svg"
   xmlns:xlink="http://www.w3.org/1999/xlink"
   xmlns:sodipodi="http://sodipodi.sourceforge.net/DTD/sodipodi-0.dtd"
   xmlns:inkscape="http://www.inkscape.org/namespaces/inkscape"
   width="300mm"
   height="300mm"
   viewBox="0 0 300 300"
   version="1.1"
   id="svg8"
   inkscape:version="0.92.3 (2405546, 2018-03-11)"
   sodipodi:docname="the-darkest-hour-sq.svg"
   inkscape:export-filename="D:\Graphic Design\Alternative Movie Posters\The darkest hour\the darkest hour.png"
   inkscape:export-xdpi="254"
   inkscape:export-ydpi="254"
   style="enable-background:new">
  <defs
     id="defs2">
    <linearGradient
       inkscape:collect="always"
       id="linearGradient4632">
      <stop
         style="stop-color:#000000;stop-opacity:1;"
         offset="0"
         id="stop4628" />
      <stop
         style="stop-color:#fc0d32;stop-opacity:1"
         offset="1"
         id="stop4630" />
    </linearGradient>
    <radialGradient
       inkscape:collect="always"
       xlink:href="#linearGradient4632"
       id="radialGradient4636"
       cx="202.46855"
       cy="174.21069"
       fx="202.46855"
       fy="174.21069"
       r="200"
       gradientTransform="matrix(0.81103742,0.00593733,-0.00479259,0.99487311,-14.621511,-9.1109076)"
       gradientUnits="userSpaceOnUse"
       spreadMethod="pad" />
    <filter
       inkscape:collect="always"
       style="color-interpolation-filters:sRGB"
       id="filter4848">
      <feBlend
         inkscape:collect="always"
         mode="overlay"
         in2="BackgroundImage"
         id="feBlend4850" />
    </filter>
    <filter
       style="color-interpolation-filters:sRGB"
       inkscape:label="Drop Shadow"
       id="filter5177">
      <feFlood
         flood-opacity="0.498039"
         flood-color="rgb(0,0,0)"
         result="flood"
         id="feFlood5167" />
      <feComposite
         in="flood"
         in2="SourceGraphic"
         operator="in"
         result="composite1"
         id="feComposite5169" />
      <feGaussianBlur
         in="composite1"
         stdDeviation="1.7"
         result="blur"
         id="feGaussianBlur5171" />
      <feOffset
         dx="1"
         dy="1"
         result="offset"
         id="feOffset5173" />
      <feComposite
         in="SourceGraphic"
         in2="offset"
         operator="over"
         result="composite2"
         id="feComposite5175" />
    </filter>
    <filter
       style="color-interpolation-filters:sRGB"
       inkscape:label="Drop Shadow"
       id="filter5189">
      <feFlood
         flood-opacity="0.498039"
         flood-color="rgb(0,0,0)"
         result="flood"
         id="feFlood5179" />
      <feComposite
         in="flood"
         in2="SourceGraphic"
         operator="in"
         result="composite1"
         id="feComposite5181" />
      <feGaussianBlur
         in="composite1"
         stdDeviation="1.7"
         result="blur"
         id="feGaussianBlur5183" />
      <feOffset
         dx="1"
         dy="1"
         result="offset"
         id="feOffset5185" />
      <feComposite
         in="SourceGraphic"
         in2="offset"
         operator="over"
         result="composite2"
         id="feComposite5187" />
    </filter>
  </defs>
  <sodipodi:namedview
     id="base"
     pagecolor="#ffffff"
     bordercolor="#666666"
     borderopacity="1.0"
     inkscape:pageopacity="0.0"
     inkscape:pageshadow="2"
     inkscape:zoom="0.43503489"
     inkscape:cx="676.84853"
     inkscape:cy="426.89237"
     inkscape:document-units="mm"
     inkscape:current-layer="layer1"
     showgrid="false"
     inkscape:snap-global="false"
     inkscape:window-width="1600"
     inkscape:window-height="837"
     inkscape:window-x="-8"
     inkscape:window-y="-8"
     inkscape:window-maximized="1" />
  <metadata
     id="metadata5">
    <rdf:RDF>
      <cc:Work
         rdf:about="">
        <dc:format>image/svg+xml</dc:format>
        <dc:type
           rdf:resource="http://purl.org/dc/dcmitype/StillImage" />
        <dc:title></dc:title>
      </cc:Work>
    </rdf:RDF>
  </metadata>
  <g
     inkscape:label="Layer 1"
     inkscape:groupmode="layer"
     id="layer1"
     transform="translate(0,3)">
    <rect
       style="opacity:1;fill:url(#radialGradient4636);fill-opacity:1;fill-rule:nonzero;stroke:none;stroke-width:0;stroke-linecap:round;stroke-linejoin:bevel;stroke-miterlimit:4;stroke-dasharray:none;stroke-dashoffset:0;stroke-opacity:1;paint-order:fill markers stroke"
       id="rect815"
       width="300"
       height="300"
       x="0"
       y="-3.0000205"
       ry="0.015720837" />
    <path
       style="fill:#ffffff;fill-opacity:0.99514561;fill-rule:evenodd;stroke:none;stroke-width:0.40000001;stroke-linecap:butt;stroke-linejoin:miter;stroke-miterlimit:4;stroke-dasharray:none;stroke-opacity:1"
       d="M 84.35976,120.38392 C 83.670463,119.42093 80.101644,117.95967 76.249145,118.56822 67.884354,119.88955 55.535317,120.3858 49.36837,119.06938 45.620651,106.77459 82.948979,106.31889 90.823784,101.39124 91.087031,96.648991 89.332793,88.041575 89.058323,81.468133 90.157027,79.405524 91.912768,78.980439 92.830612,76.89468 93.538339,67.768749 90.516434,54.620811 92.914282,41.186634 94.050986,34.818108 98.166922,24.819032 103.65682,20.452031 113.99738,12.226527 136.76872,7.9964323 156.98456,5.4653999 175.51985,3.1447731 191.53068,3.5332573 204.26083,11.045745 217.93877,19.117554 221.71183,45.162469 227.43167,61.073693 230.45535,62.532599 229.6322,62.149132 232.42621,63.303917 L 235.82914,84.408374 C 259.72531,90.213898 260.75448,91.316527 278.59697,96.739448 287.7915,99.533967 293.89169,100.86672 293.63117,102.88309 293.44337,104.33661 289.58937,104.82012 281.88895,105.12879 L 241.81018,106.89544 C 235.07571,107.19229 239.0595,118.02911 241.58049,122.22182 243.60048,125.58131 240.19711,131.23003 241.54904,134.62169 245.36822,144.2031 242.27789,138.84074 247.92772,149.77028 250.95348,154.67158 251.23861,155.58614 250.79744,158.92025 249.60056,167.96561 238.99432,167.0884 237.10293,169.63755 235.1714,172.69391 234.3755,175.77102 235.09315,178.09521 235.75884,180.2511 236.68762,179.81014 238.42426,180.63173 L 296.3779,201.18961 C 299.96087,202.4606 297.02167,210.32537 293.20765,208.94052 L 236.57714,188.37832 C 235.60545,188.02551 233.32842,189.22364 232.52724,190.75639 231.43955,192.83728 231.54949,193.75018 232.94452,197.78806 236.47444,208.00528 231.6053,211.31757 229.81518,212.78024 224.29005,217.2947 212.52068,222.7781 209.93401,228.14099 208.25713,231.61761 208.06077,231.20201 209.94694,233.65035 L 252.95313,269.07235 C 176.53536,268.4751 121.23878,267.71168 19.87356,267.61955 32.686536,235.99698 39.09906,213.19233 60.12142,173.93314 60.521137,173.18667 57.948232,172.73023 58.273889,171.85169 60.192,166.67713 65.675596,158.19115 68.612001,154.7695 69.408185,153.84174 70.796759,156.49791 71.713003,155.68704 83.702403,145.07644 84.27194,131.00886 84.35976,120.38392 Z"
       id="path817"
       inkscape:connector-curvature="0"
       sodipodi:nodetypes="csccccsssscccsscssscscscssssssscccssssc" />
    <g
       aria-label="THE DARKEST HOUR"
       transform="matrix(0.26458333,0,0,0.26458333,8.2382342,26.645387)"
       style="font-style:normal;font-variant:normal;font-weight:normal;font-stretch:normal;font-size:97.33333588px;line-height:20px;font-family:'Franklin Gothic Heavy';-inkscape-font-specification:'Franklin Gothic Heavy, Normal';font-variant-ligatures:normal;font-variant-caps:normal;font-variant-numeric:normal;font-feature-settings:normal;text-align:start;letter-spacing:0px;word-spacing:0px;writing-mode:lr-tb;text-anchor:start;fill:#000000;fill-opacity:1;stroke:none;stroke-width:1px;stroke-linecap:butt;stroke-linejoin:miter;stroke-opacity:1;filter:url(#filter4848)"
       id="flowRoot828">
      <path
         d="M 95.554037,949.57888 V 998.91091 H 76.686198 V 949.57888 H 63.236328 V 934.03786 H 109.00391 V 949.57888 Z"
         style="font-style:normal;font-variant:normal;font-weight:normal;font-stretch:normal;font-size:97.33333588px;font-family:'Franklin Gothic Heavy';-inkscape-font-specification:'Franklin Gothic Heavy, Normal';font-variant-ligatures:normal;font-variant-caps:normal;font-variant-numeric:normal;font-feature-settings:normal;text-align:start;writing-mode:lr-tb;text-anchor:start;fill:#000000"
         id="path843"
         inkscape:connector-curvature="0" />
      <path
         d="M 169.74219,934.03786 V 998.91091 H 149.82878 V 973.67458 H 134.62044 V 998.91091 H 114.70703 V 934.03786 H 134.62044 V 957.89594 H 149.82878 V 934.03786 Z"
         style="font-style:normal;font-variant:normal;font-weight:normal;font-stretch:normal;font-size:97.33333588px;font-family:'Franklin Gothic Heavy';-inkscape-font-specification:'Franklin Gothic Heavy, Normal';font-variant-ligatures:normal;font-variant-caps:normal;font-variant-numeric:normal;font-feature-settings:normal;text-align:start;writing-mode:lr-tb;text-anchor:start;fill:#000000"
         id="path845"
         inkscape:connector-curvature="0" />
      <path
         d="M 229.86264,983.41742 V 998.91091 H 181.0534 V 934.03786 H 229.86264 V 949.00857 H 200.5866 V 958.41872 H 224.25457 V 972.81911 H 200.5866 V 983.41742 Z"
         style="font-style:normal;font-variant:normal;font-weight:normal;font-stretch:normal;font-size:97.33333588px;font-family:'Franklin Gothic Heavy';-inkscape-font-specification:'Franklin Gothic Heavy, Normal';font-variant-ligatures:normal;font-variant-caps:normal;font-variant-numeric:normal;font-feature-settings:normal;text-align:start;writing-mode:lr-tb;text-anchor:start;fill:#000000"
         id="path847"
         inkscape:connector-curvature="0" />
      <path
         d="M 262.03777,998.91091 V 934.03786 H 287.13152 Q 303.48048,934.03786 311.60743,943.73318 319.73439,953.42849 319.73439,966.16547 319.73439,980.70844 310.98959,989.83344 302.29233,998.91091 288.3672,998.91091 Z M 281.95118,983.98773 H 287.13152 Q 292.07423,983.98773 295.44858,979.1876 298.87045,974.38747 298.87045,966.11794 298.87045,959.03656 295.82879,953.90375 292.83465,948.77094 287.13152,948.77094 H 281.95118 Z"
         style="font-style:normal;font-variant:normal;font-weight:normal;font-stretch:normal;font-size:97.33333588px;font-family:'Franklin Gothic Heavy';-inkscape-font-specification:'Franklin Gothic Heavy, Normal';font-variant-ligatures:normal;font-variant-caps:normal;font-variant-numeric:normal;font-feature-settings:normal;text-align:start;writing-mode:lr-tb;text-anchor:start;fill:#000000"
         id="path849"
         inkscape:connector-curvature="0" />
      <path
         d="M 361.98504,998.91091 358.32553,986.12641 H 340.931 L 337.03386,998.91091 H 320.87501 L 340.931,934.03786 H 361.98504 L 382.27866,998.91091 Z M 344.30535,971.96365 H 354.85613 L 349.58074,953.14333 Z"
         style="font-style:normal;font-variant:normal;font-weight:normal;font-stretch:normal;font-size:97.33333588px;font-family:'Franklin Gothic Heavy';-inkscape-font-specification:'Franklin Gothic Heavy, Normal';font-variant-ligatures:normal;font-variant-caps:normal;font-variant-numeric:normal;font-feature-settings:normal;text-align:start;writing-mode:lr-tb;text-anchor:start;fill:#000000"
         id="path851"
         inkscape:connector-curvature="0" />
      <path
         d="M 446.20119,998.91091 H 424.10158 L 414.6439,974.10232 H 408.37046 V 998.91091 H 388.45705 V 934.03786 H 422.34312 Q 433.55927,934.03786 439.73765,939.31325 445.96356,944.54112 445.96356,953.14333 445.96356,958.75141 443.68231,963.07628 441.40106,967.35362 434.46226,970.63292 Z M 408.37046,960.22471 H 416.87763 Q 420.63218,960.22471 422.91343,958.65635 425.19468,957.08799 425.19468,954.04633 425.19468,947.82042 417.54299,947.82042 H 408.37046 Z"
         style="font-style:normal;font-variant:normal;font-weight:normal;font-stretch:normal;font-size:97.33333588px;font-family:'Franklin Gothic Heavy';-inkscape-font-specification:'Franklin Gothic Heavy, Normal';font-variant-ligatures:normal;font-variant-caps:normal;font-variant-numeric:normal;font-feature-settings:normal;text-align:start;writing-mode:lr-tb;text-anchor:start;fill:#000000"
         id="path853"
         inkscape:connector-curvature="0" />
      <path
         d="M 514.06839,998.91091 H 492.25394 L 481.03779,974.38747 474.33662,983.94021 V 998.91091 H 455.56383 V 934.03786 H 474.33662 V 960.84255 L 492.25394,934.03786 H 510.12373 L 493.72725,957.75336 Z"
         style="font-style:normal;font-variant:normal;font-weight:normal;font-stretch:normal;font-size:97.33333588px;font-family:'Franklin Gothic Heavy';-inkscape-font-specification:'Franklin Gothic Heavy, Normal';font-variant-ligatures:normal;font-variant-caps:normal;font-variant-numeric:normal;font-feature-settings:normal;text-align:start;writing-mode:lr-tb;text-anchor:start;fill:#000000"
         id="path855"
         inkscape:connector-curvature="0" />
      <path
         d="M 568.24808,983.41742 V 998.91091 H 519.43883 V 934.03786 H 568.24808 V 949.00857 H 538.97204 V 958.41872 H 562.64001 V 972.81911 H 538.97204 V 983.41742 Z"
         style="font-style:normal;font-variant:normal;font-weight:normal;font-stretch:normal;font-size:97.33333588px;font-family:'Franklin Gothic Heavy';-inkscape-font-specification:'Franklin Gothic Heavy, Normal';font-variant-ligatures:normal;font-variant-caps:normal;font-variant-numeric:normal;font-feature-settings:normal;text-align:start;writing-mode:lr-tb;text-anchor:start;fill:#000000"
         id="path857"
         inkscape:connector-curvature="0" />
      <path
         d="M 569.38869,980.13812 587.87632,976.8113 Q 590.2051,984.6531 599.85289,984.6531 607.362,984.6531 607.362,980.66091 607.362,978.56977 605.60354,977.42914 603.8926,976.24099 599.42515,975.33799 582.3633,972.0587 577.51565,966.78331 572.66799,961.50792 572.66799,954.37901 572.66799,945.20648 579.60679,939.12315 586.59312,933.03982 599.66278,933.03982 619.48114,933.03982 625.84963,948.96104 L 609.35809,953.95127 Q 606.79169,947.44021 598.94989,947.44021 592.43882,947.44021 592.43882,951.47992 592.43882,953.28591 593.91213,954.28396 595.38544,955.282 599.61526,956.185 611.25914,958.65635 616.15432,960.55739 621.0495,962.45844 624.3288,967.06846 627.60809,971.63096 627.60809,977.85687 627.60809,987.69477 619.62372,993.82562 611.63934,999.90896 598.66473,999.90896 574.94924,999.90896 569.38869,980.13812 Z"
         style="font-style:normal;font-variant:normal;font-weight:normal;font-stretch:normal;font-size:97.33333588px;font-family:'Franklin Gothic Heavy';-inkscape-font-specification:'Franklin Gothic Heavy, Normal';font-variant-ligatures:normal;font-variant-caps:normal;font-variant-numeric:normal;font-feature-settings:normal;text-align:start;writing-mode:lr-tb;text-anchor:start;fill:#000000"
         id="path859"
         inkscape:connector-curvature="0" />
      <path
         d="M 662.63479,949.57888 V 998.91091 H 643.76695 V 949.57888 H 630.31708 V 934.03786 H 676.08466 V 949.57888 Z"
         style="font-style:normal;font-variant:normal;font-weight:normal;font-stretch:normal;font-size:97.33333588px;font-family:'Franklin Gothic Heavy';-inkscape-font-specification:'Franklin Gothic Heavy, Normal';font-variant-ligatures:normal;font-variant-caps:normal;font-variant-numeric:normal;font-feature-settings:normal;text-align:start;writing-mode:lr-tb;text-anchor:start;fill:#000000"
         id="path861"
         inkscape:connector-curvature="0" />
      <path
         d="M 761.15627,934.03786 V 998.91091 H 741.24286 V 973.67458 H 726.03453 V 998.91091 H 706.12111 V 934.03786 H 726.03453 V 957.89594 H 741.24286 V 934.03786 Z"
         style="font-style:normal;font-variant:normal;font-weight:normal;font-stretch:normal;font-size:97.33333588px;font-family:'Franklin Gothic Heavy';-inkscape-font-specification:'Franklin Gothic Heavy, Normal';font-variant-ligatures:normal;font-variant-caps:normal;font-variant-numeric:normal;font-feature-settings:normal;text-align:start;writing-mode:lr-tb;text-anchor:start;fill:#000000"
         id="path863"
         inkscape:connector-curvature="0" />
      <path
         d="M 800.50785,999.90896 Q 786.82035,999.90896 778.17061,990.83148 769.5684,981.75401 769.5684,966.54568 769.5684,952.00271 777.79041,942.54502 786.05994,933.03982 800.69796,933.03982 814.24288,933.03982 822.75004,941.97471 831.30473,950.90961 831.30473,965.83279 831.30473,981.27875 822.70252,990.59385 814.1003,999.90896 800.50785,999.90896 Z M 800.4128,985.17589 Q 805.45056,985.17589 807.63676,980.80349 809.87048,976.38357 809.87048,964.69216 809.87048,947.77289 800.79301,947.77289 791.00265,947.77289 791.00265,967.06846 791.00265,985.17589 800.4128,985.17589 Z"
         style="font-style:normal;font-variant:normal;font-weight:normal;font-stretch:normal;font-size:97.33333588px;font-family:'Franklin Gothic Heavy';-inkscape-font-specification:'Franklin Gothic Heavy, Normal';font-variant-ligatures:normal;font-variant-caps:normal;font-variant-numeric:normal;font-feature-settings:normal;text-align:start;writing-mode:lr-tb;text-anchor:start;fill:#000000"
         id="path865"
         inkscape:connector-curvature="0" />
      <path
         d="M 892.37569,934.03786 V 977.00141 Q 892.37569,989.2156 885.10421,994.58604 877.88025,999.90896 866.23637,999.90896 853.97465,999.90896 846.51306,994.77615 839.099,989.64333 839.099,978.04698 V 934.03786 H 859.34509 V 975.7182 Q 859.34509,980.37575 861.29366,982.51443 863.28975,984.6531 867.61462,984.6531 871.2266,984.6531 873.50785,983.13227 875.83663,981.56391 876.26436,979.61534 876.73963,977.66677 876.73963,972.01117 V 934.03786 Z"
         style="font-style:normal;font-variant:normal;font-weight:normal;font-stretch:normal;font-size:97.33333588px;font-family:'Franklin Gothic Heavy';-inkscape-font-specification:'Franklin Gothic Heavy, Normal';font-variant-ligatures:normal;font-variant-caps:normal;font-variant-numeric:normal;font-feature-settings:normal;text-align:start;writing-mode:lr-tb;text-anchor:start;fill:#000000"
         id="path867"
         inkscape:connector-curvature="0" />
      <path
         d="M 960.81319,998.91091 H 938.71358 L 929.2559,974.10232 H 922.98246 V 998.91091 H 903.06905 V 934.03786 H 936.95512 Q 948.17127,934.03786 954.34965,939.31325 960.57556,944.54112 960.57556,953.14333 960.57556,958.75141 958.29431,963.07628 956.01306,967.35362 949.07426,970.63292 Z M 922.98246,960.22471 H 931.48962 Q 935.24418,960.22471 937.52543,958.65635 939.80668,957.08799 939.80668,954.04633 939.80668,947.82042 932.15499,947.82042 H 922.98246 Z"
         style="font-style:normal;font-variant:normal;font-weight:normal;font-stretch:normal;font-size:97.33333588px;font-family:'Franklin Gothic Heavy';-inkscape-font-specification:'Franklin Gothic Heavy, Normal';font-variant-ligatures:normal;font-variant-caps:normal;font-variant-numeric:normal;font-feature-settings:normal;text-align:start;writing-mode:lr-tb;text-anchor:start;fill:#000000"
         id="path869"
         inkscape:connector-curvature="0" />
    </g>
    <ellipse
       style="opacity:1;fill:#000000;fill-opacity:1;fill-rule:nonzero;stroke:#000000;stroke-width:0.16573988;stroke-linecap:round;stroke-linejoin:bevel;stroke-miterlimit:4;stroke-dasharray:none;stroke-dashoffset:0;stroke-opacity:1;paint-order:fill markers stroke"
       id="path819"
       cx="159.83676"
       cy="130.04654"
       rx="6.9171295"
       ry="6.91713" />
    <path
       style="opacity:1;fill:#000000;fill-opacity:1;fill-rule:nonzero;stroke:none;stroke-width:0;stroke-linecap:round;stroke-linejoin:bevel;stroke-miterlimit:4;stroke-dasharray:none;stroke-dashoffset:0;stroke-opacity:1;paint-order:fill markers stroke;filter:url(#filter5189)"
       inkscape:transform-center-x="-6.5864826"
       inkscape:transform-center-y="1.656524"
       d="M 162.31784,82.5927 C 159.94145,85.301084 159.62966,86.399955 160.1697,86.417492 162.66034,86.498375 162.36347,86.177681 162.36865,86.815627 162.51079,104.30695 162.51525,90.991862 162.74832,113.55812 162.76724,115.39125 166.88734,117.54994 166.73489,117.49962 166.73489,117.49962 163.61203,120.48184 163.66292,122.18134 163.78333,126.20102 163.97391,130.52423 164.02408,134.56855 164.40061,138.77877 170.14074,138.41196 164.73687,145.21658 163.27057,147.06298 161.45724,146.67041 160.73456,149.35746 159.97103,146.71225 158.23999,147.04637 156.6424,145.29079 151.02762,139.12077 157.67537,137.71094 156.8993,134.6952 156.86847,130.63959 156.85117,126.30721 156.8443,122.20263 156.84174,120.66692 152.86565,117.72369 152.86565,117.72369 152.86565,117.72369 156.84066,115.51312 156.84562,113.51542 156.90252,90.579612 156.66407,102.49135 156.8235,86.866799 156.83064,86.165739 156.36287,86.495917 159.19333,86.426349 159.98179,86.40697 159.35413,85.098838 156.86834,82.653192 156.86925,82.816243 159.04132,79.401388 159.50489,79.338811 159.94141,79.279884 162.07687,82.467763 162.31784,82.5927 Z"
       id="rect821-0"
       inkscape:connector-curvature="0"
       sodipodi:nodetypes="cssscscscscscscscsc" />
    <path
       style="opacity:1;fill:#000000;fill-opacity:1;fill-rule:nonzero;stroke:none;stroke-width:0;stroke-linecap:round;stroke-linejoin:bevel;stroke-miterlimit:4;stroke-dasharray:none;stroke-dashoffset:0;stroke-opacity:1;paint-order:fill markers stroke;filter:url(#filter5177)"
       inkscape:transform-center-x="-7.1365071"
       inkscape:transform-center-y="-1.5433232"
       d="M 121.1879,49.209778 C 134.85716,79.12156 151.92496,106.83152 166.80949,135.75589 167.78329,137.78645 170.13977,138.70645 170.31913,138.7756 168.84397,140.76341 170.90685,142.92323 172.58403,142.89887 173.14801,142.89068 173.91915,143.8414 173.44846,144.49159 172.0244,146.01825 170.69732,149.88969 171.27426,152.71146 169.62106,150.72376 166.6321,149.35239 163.13348,149.43151 162.20455,149.61588 161.87951,148.11764 162.34696,147.94211 164.16469,147.25954 163.43771,143.58844 160.83761,143.86389 161.05879,142.19387 161.9041,141.87186 160.06338,139.17592 147.66635,110.36364 131.70863,80.22535 117.71424,51.135129 120.21155,49.822701 118.28718,50.767351 121.1879,49.209778 Z"
       id="rect821"
       inkscape:connector-curvature="0"
       sodipodi:nodetypes="cccscccscccc" />
    <path
       style="opacity:1;fill:#ffffff;fill-opacity:1;fill-rule:nonzero;stroke:#000000;stroke-width:0.02208875;stroke-linecap:round;stroke-linejoin:bevel;stroke-miterlimit:4;stroke-dasharray:none;stroke-dashoffset:0;stroke-opacity:1;paint-order:fill markers stroke"
       d="M 161.39762,127.38697 C 161.39648,127.38587 161.39473,127.38587 161.3936,127.38697 L 159.73279,129.05025 158.84911,128.17223 160.50299,126.51004 C 160.50402,126.50902 160.50398,126.50738 160.503,126.50637 L 159.708,125.71532 C 159.70695,125.71432 159.7052,125.71428 159.70419,125.71531 L 157.30251,128.1291 C 157.30148,128.13015 157.30148,128.13194 157.30253,128.13295 L 157.31393,128.1443 157.27247,128.18615 C 157.27134,128.18724 157.27134,128.18908 157.27247,128.19018 L 158.93856,129.84561 158.1007,130.68468 156.48762,129.0739 C 156.48662,129.07289 156.48494,129.07289 156.48392,129.0739 L 155.6915,129.8675 C 155.69044,129.86853 155.69044,129.87018 155.69149,129.87121 L 158.10098,132.27731 C 158.10205,132.27833 158.10372,132.27834 158.10476,132.27729 L 158.10977,132.27217 158.11488,132.27732 C 158.11603,132.27841 158.1178,132.27841 158.11891,132.27731 L 159.746,130.64789 160.55727,131.45395 158.90788,133.11076 C 158.90678,133.11181 158.90674,133.11351 158.9078,133.11453 L 159.70262,133.90571 C 159.7036,133.90673 159.70524,133.90673 159.70635,133.90565 L 161.35654,132.24809 161.36666,132.25821 C 161.36779,132.25933 161.36963,132.25938 161.37073,132.25824 L 162.15895,131.46488 C 162.16008,131.46376 162.16009,131.46194 162.15897,131.46085 L 160.54017,129.85255 161.39514,128.99631 163.00302,130.60191 C 163.00403,130.60292 163.00582,130.60292 163.00687,130.60187 L 163.79919,129.80836 C 163.80028,129.80733 163.80025,129.80557 163.79919,129.80456 L 162.19133,128.19902 162.19902,128.19126 C 162.20014,128.19013 162.20017,128.18837 162.199,128.18723 Z"
       id="rect831-1"
       inkscape:connector-curvature="0"
       inkscape:transform-center-x="0.80665844"
       inkscape:transform-center-y="0.11887504" />
  </g>
</svg>
