<?xml version="1.0" encoding="UTF-8" standalone="no"?>
<!-- Created with Inkscape (http://www.inkscape.org/) -->
<svg id="svg8" xmlns:rdf="http://www.w3.org/1999/02/22-rdf-syntax-ns#" xmlns="http://www.w3.org/2000/svg" version="1.1" xmlns:cc="http://creativecommons.org/ns#" xmlns:dc="http://purl.org/dc/elements/1.1/" viewBox="0 0 210 297">
 <defs id="defs2">
  <filter id="filter3635" style="color-interpolation-filters:sRGB">
   <feFlood id="feFlood3625" result="flood" flood-color="rgb(255,171,26)"/>
   <feComposite id="feComposite3627" operator="in" result="composite1" in2="SourceGraphic" in="flood"/>
   <feGaussianBlur id="feGaussianBlur3629" stdDeviation="4.2" result="blur" in="composite1"/>
   <feOffset id="feOffset3631" result="offset" dx="1.3" dy="2"/>
   <feComposite id="feComposite3633" operator="over" result="composite2" in2="offset" in="SourceGraphic"/>
  </filter>
  <filter id="filter1114" style="color-interpolation-filters:sRGB">
   <feFlood id="feFlood1104" result="flood" flood-color="rgb(255,255,255)"/>
   <feComposite id="feComposite1106" operator="in" result="composite1" in2="SourceGraphic" in="flood"/>
   <feGaussianBlur id="feGaussianBlur1108" stdDeviation="0" result="blur" in="composite1"/>
   <feOffset id="feOffset1110" result="offset" dx="0.3" dy="2.5"/>
   <feComposite id="feComposite1112" operator="over" result="composite2" in2="offset" in="SourceGraphic"/>
  </filter>
 </defs>
 <g id="layer1">
  <rect id="rect1261" style="stroke-linejoin:round;paint-order:markers fill stroke;stroke-dashoffset:261.4;stroke:#000;stroke-linecap:square;stroke-width:.17806" height="300.24" width="212.01" y="-.33029" x=".089029"/>
  <path id="path1263" style="stroke-linejoin:round;paint-order:markers fill stroke;stroke-dashoffset:261.4;filter:url(#filter3635);stroke:#000;stroke-linecap:square;stroke-width:.18472;fill:#fff" d="m103.09-15.116 60.66 105.08 60.67 105.08h-94.52l-23.69-50.48-22.607 50.48h-101.85l60.667-105.08z" transform="matrix(.86511 0 0 .86511 16.334 16.072)"/>
  <circle id="path1130" r="41.943" style="paint-order:markers fill stroke;stroke-width:0;fill:#ff802d" cx="105.68" cy="94.736"/>
  <path id="path1237" style="fill:#008000;paint-order:markers fill stroke" transform="matrix(.61531 .10545 -.10545 .61531 50.313 17.643)" d="m123.92 54.086-15.48-5.24-16.245-1.728 12.275-10.782 9.62-13.206 3.2 16.022z"/>
  <path id="path1116" style="fill-rule:evenodd;stroke:#000;stroke-width:.14209px" d="m84.18 73.347c-0.802-0.051-1.639 0.081-2.814 0.782 0.723-0.623 1.689-0.954 2.725-1.2 0.051 0.439 0.101 0.353 0.089 0.418z"/>
  <path id="path1118" style="fill-rule:evenodd;stroke:#000;stroke-width:.14209px" d="m84.216 72.675c-0.389-0.297 1.044 0.3-2.645 0.145 0.897 0.026 1.873 0.017 2.645-0.145z"/>
  <path id="path1124" style="paint-order:markers fill stroke" transform="rotate(183.41)" d="m-89.146-48.446a20.381 14.999 0 0 1 -10.19 12.99 20.381 14.999 0 0 1 -20.384 0 20.381 14.999 0 0 1 -10.19 -12.99h20.38z"/>
  <ellipse id="path1126" style="paint-order:markers fill stroke" rx="25.152" ry="4.0568" cy="54.46" cx="105.32"/>
  <path id="path1136" style="fill-rule:evenodd;stroke:#000;stroke-width:.14209px;fill:#fff" d="m85.11 106.11c-4.077 3.13-2.979 8.43 0.608 10.14l41.262 0.03c5.29-1.9 4.61-8.09 1.43-10.04z"/>
  <path id="path1142" style="stroke:#000;stroke-width:.14209px;fill:none" d="m88.996 106.24-0.07 9.95"/>
  <path id="path1142-8" style="stroke:#000;stroke-width:.14209px;fill:none" d="m96.303 106.27-0.071 9.96"/>
  <path id="path1142-4" style="stroke:#000;stroke-width:.14209px;fill:none" d="m104.35 106.2-0.07 9.96"/>
  <path id="path1142-2" style="stroke:#000;stroke-width:.14209px;fill:none" d="m111.76 106.34-0.07 9.96"/>
  <path id="path1142-48" style="stroke:#000;stroke-width:.14209px;fill:none" d="m118.4 106.34-0.07 9.96"/>
  <path id="path1142-7" style="stroke:#000;stroke-width:.14209px;fill:none" d="m124.96 106.34-0.07 9.96"/>
  <path id="path1208" style="stroke:#000;stroke-width:.14209px;fill:none" d="m82.462 111.36 48.618 0.1"/>
  <ellipse id="path1212" style="paint-order:markers fill stroke" rx="5.0829" ry="5.3653" cy="72.392" cx="90.212"/>
  <ellipse id="path1212-8" style="paint-order:markers fill stroke" rx="5.0829" ry="5.3653" cy="72.531" cx="122"/>
  <rect id="rect1231" style="paint-order:markers fill stroke" height="5.1197" width="7.2292" y="106.22" x="89.042"/>
  <path id="path1233" style="fill:#f00;fill-rule:evenodd" d="m82.823 113.12c-0.112 3.38-0.295 5.77-0.141 9.14-0.601 0.51-1.179 1.67-1.098 2.49 0.22 0.88 0.701 1.16 1.198 1.39 0.714 0.09 1.357-0.08 1.697-1.39-0.1-0.52-0.154-1.06-0.616-1.4 0.162-2.78 0.329-5.08 0.399-8.23-0.478-0.31-1.077-1.23-1.439-2z"/>
  <path id="path1239" style="stroke:#000;stroke-linecap:round;stroke-width:.52157;fill:none" d="m90.046 78.886c-2.383 0.452-6.362-1.427-5.833-6.184"/>
  <path id="path1241" style="fill-rule:evenodd;stroke:#000;stroke-width:.14209px" d="m84.02 73.685c-0.802 0.162-1.656 0.109-3.045 2.111 1.409-1.353 2.118-1.982 3.035-1.53z"/>
  <path id="path1249" style="fill-rule:evenodd;stroke:#000;stroke-width:.14209px" d="m90.044 78.868c-3.089-0.109-2.904 3.287-2.955 2.596-0.077-1.071-0.756-0.885 0.691-2.878 1.084 0.312 1.41 0.332 2.264 0.282z"/>
  <path id="path1257" style="fill-rule:evenodd;stroke:#000;stroke-width:.14209px" d="m84.129 80.858c0.192-1.699 1.14-2.371 1.445-2.689l0.556-0.499c-0.7 0.031-0.926-0.516-1.063-1.172-1.076 2.396-0.999 3.124-0.938 4.36z"/>
  <path id="path1259" style="fill-rule:evenodd;stroke:#000;stroke-width:.14209px" d="m84.684 76.126c-1.01-0.347-1.554-0.469-3.88 1.673 1.76-2.425 2.023-2.18 3.403-2.841 0.041 0.449 0.184 0.846 0.477 1.168z"/>
  <g id="flowRoot887" aria-label="CLOCKWORK ORANGE" style="filter:url(#filter1114);font-variant-numeric:normal;font-variant-ligatures:normal;font-variant-caps:normal;font-feature-settings:normal;fill:#f60" transform="matrix(.23 0 0 .23 15.636 14.812)">
   <path id="path1008" style="font-variant-ligatures:normal;font-variant-numeric:normal;font-feature-settings:normal;font-variant-caps:normal;fill:#f60" d="m49.078 860.15-24.119 22.1q-2.495-2.85-6.297-2.85-3.564 0-6.06 2.62-2.495 2.49-2.495 6.06 0 3.56 2.495 6.17 2.496 2.5 6.06 2.5 3.921 0 6.535-3.09l21.98 25.43q-14.258 10.21-28.753 10.21-17.584 0-29.822-11.88-12.118-12-12.118-29.46 0-17.83 12.831-29.23 12.238-10.93 30.179-10.93 18.059 0 29.584 12.35z"/>
   <path id="path1010" style="font-variant-ligatures:normal;font-variant-numeric:normal;font-feature-settings:normal;font-variant-caps:normal;fill:#f60" d="m141.52 928.59h-79.727v-79.13h35.762v46.34h26.135z"/>
   <path id="path1012" style="font-variant-ligatures:normal;font-variant-numeric:normal;font-feature-settings:normal;font-variant-caps:normal;fill:#f60" d="m220.67 888.67q0 17.58-11.29 29.11-11.29 11.52-28.87 11.52-18.3 0-29.94-11.28-11.64-11.41-11.64-29.47 0-17.7 11.4-29.23 11.41-11.52 28.99-11.52 18.06 0 29.7 11.4 11.65 11.41 11.65 29.47zm-19.37-18.54q0-3.56-2.49-6.05-2.5-2.62-6.06-2.62-3.45 0-5.94 2.62-2.5 2.49-2.5 6.05 0 3.57 2.5 6.18 2.49 2.5 5.94 2.5 3.56 0 6.06-2.5 2.49-2.61 2.49-6.18z"/>
   <path id="path1014" style="font-variant-ligatures:normal;font-variant-numeric:normal;font-feature-settings:normal;font-variant-caps:normal;fill:#f60" d="m307.28 860.15-24.12 22.1q-2.5-2.85-6.3-2.85-3.56 0-6.06 2.62-2.49 2.49-2.49 6.06 0 3.56 2.49 6.17 2.5 2.5 6.06 2.5 3.92 0 6.54-3.09l21.98 25.43q-14.26 10.21-28.76 10.21-17.58 0-29.82-11.88-12.12-12-12.12-29.46 0-17.83 12.83-29.23 12.24-10.93 30.18-10.93 18.06 0 29.59 12.35z"/>
   <path id="path1016" style="font-variant-ligatures:normal;font-variant-numeric:normal;font-feature-settings:normal;font-variant-caps:normal;fill:#f60" d="m409.69 928.59h-42.29l-11.53-16.28v16.28h-35.88v-79.13h35.88v16.4l11.53-16.4h33.38l-24.23 32.56z"/>
   <path id="path1018" style="font-variant-ligatures:normal;font-variant-numeric:normal;font-feature-settings:normal;font-variant-caps:normal;fill:#f60" d="m527.99 849.46-35.4 79.13h-48.12l-35.29-79.13h42.89l6.66 15.45 9.86-21.27 9.5 21.27 6.77-15.45z"/>
   <path id="path1020" style="font-variant-ligatures:normal;font-variant-numeric:normal;font-feature-settings:normal;font-variant-caps:normal;fill:#f60" d="m609.66 888.67q0 17.58-11.29 29.11-11.28 11.52-28.87 11.52-18.3 0-29.94-11.28-11.64-11.41-11.64-29.47 0-17.7 11.4-29.23 11.41-11.52 28.99-11.52 18.06 0 29.71 11.4 11.64 11.41 11.64 29.47zm-19.37-18.54q0-3.56-2.49-6.05-2.5-2.62-6.06-2.62-3.45 0-5.94 2.62-2.5 2.49-2.5 6.05 0 3.57 2.5 6.18 2.49 2.5 5.94 2.5 3.56 0 6.06-2.5 2.49-2.61 2.49-6.18z"/>
   <path id="path1022" style="font-variant-ligatures:normal;font-variant-numeric:normal;font-feature-settings:normal;font-variant-caps:normal;fill:#f60" d="m705.65 928.59h-82.46v-79.13h41.47q16.63 0 26.61 9.39 9.98 9.38 9.98 25.78 0 14.38-11.17 25.9zm-33.87-46.57q0-3.57-2.49-6.06-2.5-2.62-6.06-2.62t-6.06 2.62q-2.49 2.49-2.49 6.06 0 3.56 2.49 6.17 2.5 2.5 6.06 2.5t6.06-2.5q2.49-2.61 2.49-6.17z"/>
   <path id="path1024" style="font-variant-ligatures:normal;font-variant-numeric:normal;font-feature-settings:normal;font-variant-caps:normal;fill:#f60" d="m805.95 928.59h-42.3l-11.52-16.28v16.28h-35.88v-79.13h35.88v16.4l11.52-16.4h33.39l-24.24 32.56z"/>
   <path id="path1026" style="font-variant-ligatures:normal;font-variant-numeric:normal;font-feature-settings:normal;font-variant-caps:normal;fill:#f60" d="m189.43 1025.6q0 17.6-11.29 29.1-11.28 11.5-28.87 11.5-18.29 0-29.94-11.3-11.64-11.4-11.64-29.4 0-17.8 11.41-29.28 11.4-11.52 28.99-11.52 18.05 0 29.7 11.4 11.64 11.4 11.64 29.5zm-19.36-18.6q0-3.5-2.5-6-2.49-2.64-6.06-2.64-3.44 0-5.94 2.64-2.49 2.5-2.49 6 0 3.6 2.49 6.2 2.5 2.5 5.94 2.5 3.57 0 6.06-2.5 2.5-2.6 2.5-6.2z"/>
   <path id="path1028" style="font-variant-ligatures:normal;font-variant-numeric:normal;font-feature-settings:normal;font-variant-caps:normal;fill:#f60" d="m285.3 1065.5h-82.45v-79.14h41.46q16.63 0 26.61 9.39 9.98 9.35 9.98 25.75 0 14.4-11.16 25.9zm-33.86-46.6q0-3.5-2.5-6-2.49-2.7-6.05-2.7-3.57 0-6.06 2.7-2.5 2.5-2.5 6 0 3.6 2.5 6.2 2.49 2.5 6.06 2.5 3.56 0 6.05-2.5 2.5-2.6 2.5-6.2z"/>
   <path id="path1030" style="font-variant-ligatures:normal;font-variant-numeric:normal;font-feature-settings:normal;font-variant-caps:normal;fill:#f60" d="m381.47 1065.5h-35.64l-8.32-15.5-8.2 15.5h-35.28l43.36-81.99z"/>
   <path id="path1032" style="font-variant-ligatures:normal;font-variant-numeric:normal;font-feature-settings:normal;font-variant-caps:normal;fill:#f60" d="m463.58 1065.4-46.1-6.9v7h-28.75v-79.02l46.81 6.89v-7.01h28.04z"/>
   <path id="path1034" style="font-variant-ligatures:normal;font-variant-numeric:normal;font-feature-settings:normal;font-variant-caps:normal;fill:#f60" d="m580.53 1065.5h-64.88q-17.94 0-30.06-11.3-12-11.4-12-29.3 0-18.1 12.72-29.27 12.24-10.93 30.89-10.93 14.49 0 23.64 7.96l-20.31 25.34q-2.14-1.7-4.76-1.7-3.56 0-6.06 2.6-2.49 2.5-2.49 6.1 0 3.4 2.49 6 2.5 2.6 6.06 2.6 2.85 0 5.23-1.9 2.38-2 2.73-4.8h35.65z"/>
   <path id="path1036" style="font-variant-ligatures:normal;font-variant-numeric:normal;font-feature-settings:normal;font-variant-caps:normal;fill:#f60" d="m674.47 1065.5h-86.85v-79.14h66.77v21.24h-15.57v12.6h-15.44v12.5h33.27z"/>
  </g>
  <path id="path1149" style="fill:#f00;paint-order:markers fill stroke" d="m83.055 122.74c0.371 0-0.126-0.03-0.098 0.24 0.01 0.09 0.211-0.06 0.263 0.01 0.048 0.07-0.069 0.15-0.085 0.23-0.014 0.07-0.04 0.16-0.003 0.22 0.042 0.07 0.139 0.08 0.209 0.11-0.077 0.21-0.159 0.28-0.068 0.48 0.063 0.14 0.173 0.15 0.198 0.31 0.011 0.07-0.019 0.14-0.023 0.21-0.004 0.06-0.002 0.13-0.002 0.19 0.024 0.05 0.073 0.1 0.073 0.15-0.001 0.08-0.072 0.15-0.077 0.23-0.003 0.05 0.047 0.1 0.054 0.15 0.007 0.06-0.027 0.13-0.013 0.19 0.086 0.37 0.155-0.15 0.039 0.35 0.032 0.01 0.297 0.1 0.306 0.18 0.008 0.07-0.106 0.13-0.084 0.2 0.018 0.06 0.141 0 0.166 0.05 0.244 0.51-0.275-0.06-0.007 0.22-0.099 0.49 0.087-0.6 0.194 0.06 0.015 0.09-0.14 0.12-0.188 0.19-0.012 0.02 0.006 0.06 0.028 0.06 0.239 0.02 0.208-0.14 0.218 0.02l-0.096 0.12c0.029 0.01 0.088-0.01 0.087 0.02-0.001 0.04-0.132 0.08-0.091 0.11 0.179 0.11 0.25-0.2 0.134 0.04-0.012 0.03-0.017 0.05-0.026 0.08 0.163 0.05 0.028-0.02 0.08 0.07 0.009 0.02 0.055 0.02 0.043 0.03-0.072 0.08-0.209 0.1-0.249 0.19 0 0 0.294-0.11 0.333-0.12-0.142 0.07-0.278 0.15-0.425 0.21-0.04 0.01-0.087-0.01-0.13 0-0.1 0.02-0.27 0.16-0.297 0.07-0.034-0.13 0.187-0.19 0.233-0.3 0.049-0.13-0.154-0.28-0.21-0.33-0.33-0.16-0.301-0.04-0.183-0.43 0.032-0.1 0.142-0.2 0.114-0.31-0.009-0.03-0.391-0.14-0.422-0.15-0.043-0.02-0.081-0.05-0.121-0.07 0.078-0.19 0.094-0.1-0.047-0.15-0.017-0.01-0.053-0.02-0.044-0.03 0.034-0.06 0.1-0.09 0.144-0.13 0.014-0.02 0.046-0.07 0.027-0.06-0.116 0.05-0.219 0.13-0.328 0.19 0.075-0.06 0.166-0.11 0.225-0.19 0.028-0.04-0.083 0.05-0.13 0.06-0.01 0.01-0.004-0.02-0.006-0.03-0.092 0.06-0.173 0.14-0.276 0.18-0.057 0.02 0.085-0.08 0.127-0.13-0.049 0.03-0.099 0.06-0.149 0.09 0.041-0.14 0.007 0.01-0.183 0.06-0.026 0.01 0.049-0.04 0.043-0.07-0.004-0.01-0.053 0.03-0.056 0.01-0.004-0.03 0.074-0.07 0.046-0.07-0.063 0.01-0.114 0.06-0.171 0.08-0.196 0.02 0.09 0.01 0.025-0.1-0.023-0.04-0.147 0.09-0.131 0.04 0.025-0.07 0.23-0.1 0.17-0.15-0.068-0.05-0.157 0.07-0.236 0.1-0.07 0.03-0.141 0.06-0.211 0.08 0.065-0.05 0.14-0.09 0.195-0.16 0.009-0.01-0.012-0.03-0.026-0.03-0.03-0.01-0.062 0.01-0.093 0-0.021 0-0.07 0-0.059-0.02 0.188-0.33 0.138-0.02 0.159-0.21-0.044 0.01-0.122 0.05-0.132 0.01-0.013-0.05 0.081-0.08 0.103-0.13 0.009-0.02-0.019-0.04-0.018-0.06 0.001-0.04 0.035-0.07 0.023-0.1-0.019-0.04-0.191-0.04-0.202-0.04 0.068-0.06 0.137-0.12 0.205-0.18-0.015-0.02-0.048-0.03-0.045-0.05 0.007-0.04 0.069-0.06 0.07-0.1 0.001-0.05-0.161-0.01-0.136-0.05 0.038-0.07 0.114-0.1 0.171-0.15-0.151 0-0.215 0.05-0.095-0.1 0.039-0.05 0.148-0.07 0.131-0.13-0.015-0.06-0.135 0.04-0.171-0.01-0.03-0.03 0.047-0.08 0.069-0.12 0.021-0.04 0.04-0.09 0.06-0.13 0.037-0.05 0.087-0.09 0.112-0.15 0.055-0.12-0.064-0.08-0.117-0.11-0.017-0.01-0.037-0.04-0.024-0.06 0.27-0.33 0.192-0.05 0.237-0.26 0.025-0.06-0.107-0.06-0.094-0.1 0.015-0.05 0.082-0.07 0.103-0.12 0.008-0.02-0.034-0.04-0.026-0.06 0.023-0.05 0.128-0.07 0.108-0.12-0.018-0.05-0.099 0.01-0.149 0.01 0.101-0.1 0.098-0.07 0.14-0.18 0.008-0.02 0.04-0.05 0.02-0.06-0.101-0.04-0.146 0.09-0.226-0.02 0.065-0.13-0.018 0.02 0.087-0.12 0.006-0.01 0.018-0.03 0.01-0.03-0.012-0.01-0.037 0.01-0.048 0-0.003-0.01 0.021-0.03 0.053-0.06 0.612-0.3 0.248-0.11 0.05-0.07-0.015 0 0.007-0.03 0.017-0.04 0.11-0.12 0.119-0.06 0.15-0.22 0.085-0.06 0.196-0.1 0.255-0.18 0.136-0.2-0.244 0.12-0.187-0.04 0.004-0.01 0.177-0.15 0.143-0.22-0.021-0.04-0.079-0.04-0.119-0.06 0.16-0.22 0.232-0.22 0.2-0.47-0.009-0.06-0.023-0.13-0.058-0.19-0.039-0.06-0.102-0.1-0.157-0.15-0.058-0.05-0.155-0.06-0.181-0.13-0.028-0.08 0.03-0.16 0.044-0.24 0.037-0.13-0.077-0.22-0.085-0.33-0.004-0.06 0.074-0.13 0.031-0.17-0.058-0.05-0.221 0.07-0.23 0-0.03-0.25 0.48-0.23 0.014-0.21 0.086-0.07 0.173-0.14 0.259-0.21-0.039 0-0.106 0.04-0.117 0-0.012-0.04 0.124-0.07 0.089-0.1-0.047-0.03-0.114 0.03-0.171 0.04-0.311 0.05-0.044-0.03 0.28-0.22-0.381 0.1-0.222 0.1-0.15-0.02 0.007-0.01-0.002-0.02-0.003-0.03 0.028-0.03 0.058-0.05 0.085-0.08 0.02-0.01 0.073-0.03 0.056-0.05-0.02-0.03-0.064 0-0.096 0 0.029-0.14 0.26-0.13 0.328-0.26 0.016-0.03-0.068 0.01-0.101 0.01-0.14 0.02-0.129 0.04-0.057-0.06 0.082-0.06 0.241-0.08 0.246-0.18 0.005-0.08-0.196 0.1-0.237 0.03-0.04-0.07 0.099-0.11 0.149-0.17 0.056-0.06 0.143-0.11 0.168-0.19 0.011-0.03-0.064-0.04-0.085-0.07-0.019-0.03-0.02-0.06-0.03-0.1-0.07-0.13 0.308-0.19 0.238-0.3-0.044-0.07-0.194 0.09-0.239 0.03-0.041-0.06 0.103-0.11 0.147-0.17 0.088-0.11 0.074-0.09 0.058-0.2-0.239-0.06 0.043-0.14 0.005-0.26-0.009-0.03-0.052-0.03-0.078-0.04-0.11-0.05-0.089-0.01-0.021-0.13 0.01-0.03 0.008-0.06 0.028-0.08 0.486-0.52 0.099 0.11-0.124-0.07-0.079-0.07 0.201-0.1 0.247-0.2 0.023-0.05-0.106 0.02-0.159 0.02-0.023-0.01-0.039-0.03-0.058-0.04 0.022-0.07 0.031-0.1 0.07-0.16 0.019-0.03 0.073-0.05 0.065-0.08-0.085 0-0.078 0.03-0.084 0 0.175-0.09 0.35-0.17 0.524-0.25-0.047 0.04-0.127 0.06-0.142 0.12-0.009 0.04 0.072 0.01 0.108 0.02-0.002 0.04 0.01 0.08-0.005 0.11-0.111 0.26-0.226 0.26-0.321 0.56-0.031 0.09-0.016 0.19-0.023 0.29 0.009 0.1 0.037 0.21 0.028 0.31-0.013 0.14-0.067 0.27-0.092 0.4s-0.032 0.26-0.056 0.39c-0.026 0.14-0.074 0.28-0.092 0.42-0.031 0.24 0.001 0.4 0.028 0.64 0.175 0.3-0.304 0.4-0.289 0.63 0.006 0.1 0.277-0.06 0.291 0.04 0.017 0.12-0.272 0.15-0.248 0.27 0.054 0.27 0.791-0.45 0.032 0.2-0.071 0.14-0.045 0.13 0.079 0.16 0.019 0 0.038 0.01 0.058 0.01 0.128 0 0.224-0.1-0.088 0.11 0.028-0.01 0.113-0.06 0.085-0.04-0.089 0.05-0.174 0.1-0.266 0.14-0.007 0-0.004-0.02-0.001-0.03 0.011-0.02 0.024-0.05 0.042-0.07 0.049-0.05 0.107-0.09 0.158-0.14 0.064-0.07 0.127-0.13 0.19-0.19-0.764 0.16-0.298 0.14-0.198-0.13 0.013-0.04-0.084-0.04-0.095-0.08-0.026-0.1 0.118-0.26 0.135-0.33 0.01-0.04-0.015-0.08-0.023-0.12 0.082-0.31 0.036-0.02 0-0.26-0.007-0.04 0.029-0.09 0.005-0.13-0.027-0.04-0.12-0.01-0.131-0.05-0.008-0.04 0.189-0.35 0.19-0.35-0.023-0.04-0.067-0.08-0.068-0.12-0.002-0.07 0.059-0.13 0.061-0.19 0.002-0.05-0.04-0.09-0.05-0.14-0.012-0.06-0.003-0.11-0.015-0.16-0.068-0.29-0.068 0.02-0.043-0.3-0.314-0.16-0.004 0.06-0.017-0.25-0.001-0.05-0.154-0.01-0.13-0.05 0.071-0.12 0.222-0.16 0.317-0.26 0.023-0.02 0.047-0.07 0.027-0.1-0.021-0.03-0.072-0.01-0.109-0.01 0.181-0.16-0.146-0.04-0.118-0.07 0.069-0.09 0.206-0.11 0.286-0.19 0.024-0.02-0.125 0.03-0.104 0 0.128-0.16 0.513-0.23-0.076-0.07 0.034-0.04 0.068-0.08 0.102-0.11-0.016-0.02-0.058-0.03-0.048-0.05 0.059-0.13 0.18-0.12 0.198-0.27 0.003-0.02-0.022-0.04-0.033-0.07 0.013-0.03 0.025-0.07 0.037-0.1-0.11-0.09-0.032 0-0.071-0.14-0.009-0.02-0.05-0.05-0.039-0.07 0.032-0.08 0.118-0.12 0.152-0.19 0.063-0.13-0.054-0.16-0.134-0.21 0.198-0.38 0.137-0.1 0.039-0.36-0.017-0.05-0.009-0.1-0.022-0.15 0.029-0.1-0.093-0.12-0.114-0.2-0.009-0.03 0.012-0.07 0.018-0.1 0.076-0.06 0.161-0.11 0.228-0.18 0.01-0.01-0.013-0.02-0.019-0.04-0.037 0.01-0.14 0.04-0.111 0.02 0.07-0.05 0.161-0.07 0.236-0.11 0.366-0.22 0.149-0.16 0.331-0.2 0.231 0.21-0.634 0.04 0.214-0.02 0.038 0-0.057 0.07-0.047 0.1 0.007 0.03 0.053 0.02 0.081 0.03 0.036 0.01 0.073 0.01 0.11 0.02 0.053 0.02 0.006 0.13 0.056 0.15 0.051 0.02 0.111-0.02 0.163-0.01 0.024 0.01 0.049 0.04 0.04 0.07-0.123 0.33-0.129 0.01-0.111 0.23-0.022 0.11 0.159 0.05 0.162 0.12 0.004 0.06-0.111 0.1-0.098 0.16 0.009 0.05 0.131 0 0.14 0.05-0.117 0.21-0.128 0.11-0.043 0.28-0.011 0.05-0.043 0.11-0.033 0.17 0.036 0.19 0.171 0.05 0.125 0.29-0.017 0.09-0.124 0.16-0.119 0.25 0.03 0.55 0.409-0.46 0.032 0.35 0.054 0.3 0.028 0.01-0.047 0.34-0.009 0.04 0.015 0.09 0.004 0.13-0.015 0.06-0.101 0.11-0.081 0.16 0.104 0.3 0.241-0.22 0.108 0.16 0.131 0.02-0.113 0.25-0.05 0.26 0.078 0.01 0.163-0.1 0.229-0.06 0.147 0.1-0.556 0.22 0.068 0.08-0.76 0.58-0.139 0.02-0.113 0.2 0.009 0.06-0.105 0.09-0.106 0.15-0.001 0.04 0.101 0.03 0.102 0.07 0.014 0.4-0.238 0.01 0.008 0.32-0.704 1.05-0.004-0.17-0.154 0.5-0.026 0.12-0.173 0.2-0.169 0.32 0.002 0.08 0.17 0.07 0.182 0.15 0.016 0.1-0.085 0.19-0.114 0.29-0.023 0.09-0.028 0.17-0.042 0.26 0.007 0.06 0.03 0.13 0.023 0.2-0.009 0.09-0.078 0.16-0.072 0.25 0.004 0.05 0.065 0.09 0.099 0.14 0.032 0.04 0.104 0.07 0.101 0.13-0.001 0.02-0.23 0.43-0.241 0.45 0 0.04 0.001 0.09 0.001 0.14 0.017 0.04 0.048 0.08 0.051 0.12 0.003 0.05-0.052 0.1-0.036 0.15 0.014 0.04 0.095 0.03 0.11 0.07 0.031 0.09-0.151 0.28-0.172 0.31 0.006 0.06 0.212-0.01 0.227 0.07 0.008 0.05-0.07 0.08-0.062 0.12 0.005 0.03 0.089 0 0.088 0.03 0 0.06-0.066 0.09-0.089 0.13-0.013 0.03-0.011 0.06-0.016 0.09 0.07-0.02 0.18-0.11 0.21-0.04 0.031 0.06-0.134 0.08-0.157 0.15-0.01 0.03 0.107-0.01 0.099 0.03-0.016 0.06-0.158 0.08-0.141 0.15 0.203-0.01 0.169-0.07 0.188 0.06-0.023 0.04-0.107 0.1-0.071 0.12 0.052 0.05 0.142-0.05 0.198-0.02 0.036 0.03-0.031 0.08-0.045 0.12-0.114 0.32 0.093-0.18-0.16 0.26-0.013 0.02-0.005 0.05-0.008 0.08 0.504-0.15 0.349-0.19 0.264 0-0.009 0.02-0.007 0.05-0.01 0.07-0.002 0.02 0.009 0.05-0.004 0.07-0.146 0.17-0.304 0.17 0.029 0.11-0.012 0.03-0.059 0.07-0.035 0.09 0.037 0.03 0.165-0.03 0.15 0.01-0.031 0.1-0.163 0.13-0.221 0.22-0.004 0 0.007 0.2 0.01 0.2 0.017 0.03 0.056 0.04 0.084 0.06 0.108 0-0.272 0.2-0.188 0.27 0.045 0.04 0.17-0.06 0.179 0 0.011 0.08-0.108 0.11-0.155 0.17-0.135 0.18-0.052 0.12 0.128 0.1 0.005 0.03 0.011 0.05 0.016 0.07-0.053 0.05-0.167 0.08-0.159 0.16 0.005 0.05 0.188-0.08 0.172-0.03-0.025 0.09-0.248 0.09-0.214 0.17 0.151 0.39 0.301-0.26 0.236-0.01 0.08 0.08-0.067 0.1-0.082 0.21-0.003 0.03 0.019 0.04 0.028 0.06 0.032 0.01 0.1-0.01 0.097 0.03-0.005 0.06-0.074 0.09-0.111 0.13-0.049 0.09 0.059 0.11 0.017 0.2-0.019 0.04-0.102 0.07-0.077 0.11 0.026 0.04 0.096-0.01 0.144-0.01 0.034 0 0.068 0.01 0.102 0.01-0.057 0.17-0.324 0.18-0.376 0.34-0.022 0.07 0.146-0.04 0.22-0.04 0.148 0.01 0.054 0.06 0.088 0.14 0.011 0.02 0.043 0.03 0.064 0.05-0.026 0.04-0.051 0.08-0.077 0.12 0.018 0.01 0.055 0.02 0.053 0.04-0.004 0.04-0.082 0.07-0.067 0.1 0.043 0.11 0.142-0.07 0.169 0.06 0.007 0.03-0.02 0.06-0.029 0.09 0.299 0.01-0.037-0.03-0.072 0.18-0.017 0.1 0.322-0.14 0.296-0.04-0.038 0.14-0.329 0.18-0.03 0.12 0.017 0 0.064 0 0.051 0.01-0.055 0.05-0.128 0.07-0.191 0.11-0.187 0.12-0.357 0.27-0.557 0.37-0.075 0.03 0.15-0.1 0.167-0.18 0.009-0.05-0.088 0.01-0.133 0.02 0.055-0.06 0.11-0.12 0.164-0.18-0.067 0.01-0.139 0.06-0.202 0.04-0.036-0.02 0.029-0.08 0.027-0.12-0.001-0.03-0.027-0.05-0.035-0.08-0.009-0.03 0.009-0.07-0.016-0.09-0.137-0.09-0.171 0.11-0.086-0.12 0.151 0.04-0.283 0.12-0.282 0.02 0.001-0.04 0.08-0.07 0.061-0.11-0.017-0.04-0.122 0.03-0.119-0.01 0.015-0.19 0.563-0.34-0.231-0.02 0.087-0.29 0.014 0.08-0.091-0.12-0.02-0.04 0.046-0.08 0.047-0.13 0-0.03-0.031-0.05-0.044-0.07-0.057-0.12-0.038-0.08 0.005-0.22-0.071-0.01-0.186 0-0.22-0.09-0.059-0.17 0.065-0.07-0.018-0.21-0.057-0.1-0.132-0.08-0.237-0.09 0.03-0.05 0.077-0.1 0.091-0.17 0.048-0.23-0.208 0.04-0.236-0.08-0.017-0.09 0.233-0.16 0.16-0.21-0.098-0.06-0.217 0.08-0.329 0.1-0.06 0.02-0.122 0.01-0.182 0.02-0.036-0.01-0.118 0.02-0.108-0.01 0.019-0.08 0.125-0.1 0.156-0.18 0.01-0.02-0.049 0-0.071-0.01-0.014-0.01-0.017-0.04-0.032-0.04-0.155 0-0.131 0.1-0.137-0.02-0.056-0.03 0.116-0.15 0.06-0.18-0.054-0.02-0.116 0.04-0.173 0.03-0.024 0 0-0.05-0.017-0.07-0.02-0.02-0.055-0.01-0.081-0.03-0.022-0.01-0.042-0.02-0.063-0.03-0.252-0.01-0.004 0.03 0.045-0.16 0.01-0.03-0.095 0.04-0.117 0.01-0.021-0.03 0.088-0.07 0.057-0.09-0.142-0.07-0.176 0.12-0.148 0 0.018-0.01 0.032-0.03 0.052-0.04 0.006 0 0.013 0.01 0.019 0.01 0.113-0.06 0.219-0.13 0.331-0.19 0.038-0.02 0.08-0.06 0.12-0.05 0.03 0.02-0.048 0.05-0.072 0.07-0.042 0.04-0.085 0.07-0.127 0.11 0.007 0.01 0.004 0.04 0.019 0.04 0.038 0.01 0.087-0.02 0.118 0 0.021 0.02-0.017 0.05-0.014 0.08 0.001 0.03 0.028 0.04 0.026 0.07-0.004 0.04-0.071 0.09-0.044 0.12 0.034 0.04 0.107 0.01 0.16 0.02-0.003 0.04-0.031 0.09-0.01 0.12 0.021 0.04 0.1 0.02 0.115 0.06 0.033 0.09-0.137 0.23-0.035 0.27 0.241 0.12 0.317-0.17 0.166 0.15 0.016 0.03 0.056 0.05 0.047 0.07-0.018 0.06-0.091 0.1-0.114 0.15-0.008 0.02 0.029 0.04 0.034 0.06 0.006 0.02-0.023 0.07-0.001 0.07 0.266-0.03 0.28-0.21 0.24-0.02 0.193-0.02-0.034 0.28-0.024 0.29 0.133 0 0.25-0.17 0.378-0.14 0.401 0.12-0.87 0.37 0.095 0.14-0.313-0.05-0.079 0.23-0.007 0.23 0.056 0 0.108-0.05 0.163-0.04 0.022 0-0.01 0.04-0.015 0.06 0.036-0.01 0.072-0.02 0.107-0.02-0.28 0.32 0.039-0.08 0.08 0.04 0.021 0.07-0.121 0.09-0.149 0.15-0.011 0.03 0.072-0.02 0.087 0 0.054 0.09-0.342 0.18 0.139 0.02 0.342-0.12 0.164-0.1 0.131 0.02-0.004 0.02 0.015 0.04 0.028 0.03 0.062-0.01 0.206-0.12 0.177-0.06-0.128 0.25-0.411 0.22-0.176 0.23 0.069-0.03 0.133-0.08 0.207-0.08 0.029 0-0.075 0.08-0.046 0.07 0.089-0.01 0.201-0.19 0.248-0.11 0.048 0.08-0.136 0.12-0.214 0.17-0.431 0.25-0.432 0.32-0.372 0.12-0.054-0.11-0.244 0.05-0.28-0.03-0.029-0.07 0.122-0.12 0.114-0.2-0.005-0.05-0.135-0.01-0.14-0.06-0.036-0.36 0.332-0.15-0.081-0.3-0.016-0.09-0.032-0.28-0.123-0.34-0.073-0.05-0.212 0.01-0.252-0.07-0.042-0.08 0.056-0.17 0.081-0.26 0.089-0.3 0.121-0.19-0.065-0.39-0.444-0.56 0.197 0.28-0.185-0.3-0.032-0.05-0.116-0.07-0.119-0.13-0.006-0.09 0.073-0.16 0.096-0.25 0.062-0.22 0.046-0.18-0.081-0.34 0.035-0.08 0.094-0.15 0.105-0.23 0.007-0.05-0.041-0.09-0.053-0.14-0.011-0.04-0.021-0.09-0.016-0.13 0.006-0.06 0.034-0.11 0.05-0.16 0.037-0.12 0.037-0.13 0.064-0.25-0.138-0.19 0.018 0.06-0.026-0.19-0.007-0.04-0.126-0.08-0.083-0.15 0.167-0.26 0.339-0.16 0.083-0.24 0.561-0.5 0.173-0.08-0.006-0.19-0.048-0.03 0.067-0.09 0.096-0.14 0.021-0.04 0.042-0.08 0.062-0.13-0.029-0.02-0.099-0.02-0.086-0.05 0.031-0.08 0.121-0.13 0.181-0.19 0.019-0.12-0.124-0.04-0.151-0.1-0.011-0.02 0.114-0.17 0.119-0.18 0.035-0.03 0.152-0.07 0.11-0.1-0.058-0.03-0.132 0.03-0.199 0.05 0.019-0.03 0.053-0.05 0.056-0.08 0.002-0.02-0.029-0.03-0.044-0.04 0.062-0.06 0.145-0.09 0.185-0.16 0.013-0.03-0.076-0.01-0.076-0.04 0.001-0.04 0.047-0.07 0.079-0.1 0.062-0.06 0.134-0.1 0.202-0.15 0 0 0.179-0.09 0.179-0.09-0.027 0.03-0.054 0.07-0.081 0.1-0.021 0.03-0.041 0.06-0.065 0.1-0.03 0.03-0.14 0.09-0.095 0.11 0.074 0.03 0.163-0.07 0.241-0.05 0.06 0.02-0.139 0.12-0.094 0.16-0.348 0.29-0.007-0.02 0.123 0.04 0.063 0.04-0.119 0.08-0.164 0.14-0.014 0.01 0.006 0.04 0.001 0.06-0.041 0.17-0.059 0.04-0.021 0.18 0.047 0.07 0.083 0.09 0.025 0.19-0.004 0-0.21 0.18-0.164 0.27 0.015 0.02 0.065 0.02 0.088 0.04 0.02 0.02 0.02 0.05 0.03 0.08 0.067 0.24 0.004-0.09-0.166 0.29-0.014 0.03 0.081 0.03 0.078 0.06-0.007 0.06-0.072 0.1-0.102 0.15-0.073 0.11-0.062 0.11-0.086 0.23 0.078 0 0.205-0.08 0.234-0.01 0.032 0.08-0.111 0.13-0.161 0.19-0.046 0.07-0.107 0.12-0.128 0.2-0.011 0.04 0.027 0.08 0.041 0.12 0.064 0.19 0.016 0.11 0.172 0.25-0.343 0.5-0.19 0.11-0.16 0.47 0.006 0.07-0.037 0.14-0.016 0.2 0.019 0.06 0.123 0.07 0.125 0.13 0.005 0.09-0.157 0.17-0.108 0.25 0.053 0.09 0.198 0.03 0.296 0.05-0.012 0.13-0.058 0.27 0.044 0.39 0.046 0.06 0.136 0.06 0.182 0.11 0.038 0.05 0.041 0.12 0.053 0.18 0.049 0.24 0.016 0.2-0.095 0.45 0.036 0.04 0.068 0.09 0.108 0.12 0.049 0.05 0.186 0.12 0.24 0.17 0.029 0.02 0.081 0.04 0.08 0.08-0.003 0.06-0.093 0.1-0.09 0.16 0.001 0.04 0.066 0.02 0.099 0.03 0.048 0 0.18-0.04 0.146-0.01-0.123 0.12-0.283 0.2-0.431 0.3-0.009 0-0.04 0-0.032-0.01 0.067-0.07 0.246-0.09 0.222-0.19-0.028-0.11-0.235 0.18-0.33 0.11 0.183-0.22 0.068-0.05-0.177 0.01-0.017 0.01-0.004-0.03 0.004-0.05 0.019-0.04 0.076-0.06 0.076-0.1 0-0.03-0.05 0-0.076-0.01 0.023-0.03 0.045-0.06 0.067-0.1-0.049 0.02-0.096 0.03-0.145 0.04-0.03 0.01-0.111 0.03-0.092 0.01 0.075-0.09 0.206-0.13 0.272-0.23 0.028-0.04-0.097 0.02-0.145 0.04-0.075 0.03-0.143 0.11-0.222 0.09-0.052 0 0.07-0.07 0.106-0.11-0.11-0.09 0.028 0.01-0.285 0.08-0.017 0-0.036-0.03-0.029-0.05 0.02-0.05 0.146-0.1 0.097-0.13-0.166-0.08-0.397 0.28-0.101-0.1-0.165-0.2 0.159 0.15-0.274-0.02-0.037-0.02 0.056-0.09 0.027-0.12-0.037-0.04-0.146 0.04-0.154-0.01-0.038-0.25 0.267-0.13 0.045-0.2 0.044-0.18 0.024 0.01-0.191-0.02-0.028 0 0.049-0.07 0.023-0.08-0.054-0.02-0.192 0.07-0.173 0.02 0.036-0.1 0.183-0.13 0.242-0.22 0.016-0.03-0.039-0.05-0.059-0.07-0.102-0.06-0.131-0.04-0.127-0.17 0.001-0.05 0.06-0.1 0.031-0.14-0.034-0.05-0.113-0.01-0.163-0.04-0.184-0.08-0.002-0.18 0.081-0.28-0.658 0.06-0.041 0.07-0.167-0.12-0.03-0.04-0.108 0.02-0.161 0.01-0.112-0.02-0.035-0.09 0-0.14 0.032-0.04 0.071-0.07 0.107-0.11-0.018-0.01-0.035-0.02-0.053-0.02-0.054 0.01-0.106 0.07-0.155 0.05-0.034-0.02 0.048-0.06 0.078-0.08 0.168-0.12 0.336-0.24 0.514-0.34 0.063-0.03 0.386 0.31-0.144 0.16-0.004 0.02-0.02 0.04-0.013 0.05 0.007 0.02 0.033 0.01 0.045 0.03 0.011 0.01 0.009 0.03 0.02 0.04 0.015 0.01 0.038 0.02 0.054 0.03 0.098 0.07-0.026 0.01 0.105 0.06-0.004 0.02-0.006 0.05-0.013 0.07-0.01 0.03-0.045 0.06-0.036 0.1 0.007 0.02 0.06 0.01 0.071 0.03 0.012 0.03-0.043 0.08-0.014 0.09 0.648 0.03 0.014-0.14 0.292-0.06 0.073-0.03 0.142-0.07 0.219-0.08 0.016 0 0.024 0.03 0.014 0.05-0.062 0.07-0.189 0.1-0.217 0.2-0.016 0.05 0.116-0.07 0.17-0.04 0.031 0.01-0.023 0.06-0.035 0.09h0.137c0.041 0.01 0.082 0.01 0.123 0.02 0.005 0.03-0.014 0.08 0.014 0.09 0.046 0.03 0.111-0.01 0.162 0.01 0.031 0.01 0.075 0.05 0.065 0.08-0.027 0.08-0.143 0.12-0.158 0.21-0.006 0.04 0.076 0.03 0.114 0.05 0.084-0.01 0.168-0.04 0.253-0.04 0.039 0.01 0.124 0.02 0.104 0.06-0.073 0.12-0.293 0.15-0.308 0.29-0.011 0.09 0.217-0.12 0.281-0.05 0.351 0.38-0.516 0.09-0.021 0.23 0.014 0.22-0.033 0.02 0.231 0.08 0.028 0.01 0.035 0.05 0.03 0.08-0.011 0.05-0.116 0.11-0.075 0.14 0.138 0.11 0.39-0.26 0.063 0.13 0.038 0 0.077 0.01 0.116 0.01 0.109-0.01 0.162-0.07 0.249 0 0.017 0.02 0.038 0.04 0.036 0.06-0.009 0.07-0.091 0.12-0.075 0.2 0.525-0.13 0.057-0.06 0.074 0.13 0.011 0.11 0.263-0.1 0.34-0.01 0.032 0.03-0.096 0.11-0.054 0.13 0.068 0.03 0.148-0.03 0.222-0.05-0.046 0.05-0.105 0.1-0.137 0.16-0.051 0.1 0.198-0.04 0.114 0.01-0.162 0.09-0.337 0.16-0.493 0.26-0.083 0.05 0.184-0.07 0.272-0.12 0.017-0.01-0.039 0.01-0.058 0.01-0.018 0-0.043 0.01-0.054-0.01-0.042-0.06 0.12-0.11 0.128-0.19 0.003-0.03-0.1 0.03-0.106 0-0.023-0.14 0.373-0.19-0.137-0.07 0.015-0.03 0.029-0.06 0.044-0.1-0.015-0.02-0.045-0.03-0.044-0.05 0.001-0.04 0.056-0.06 0.051-0.1-0.008-0.06-0.324-0.04-0.353-0.03 0.065-0.07 0.148-0.12 0.195-0.19 0.013-0.03-0.044-0.05-0.04-0.07 0.009-0.07 0.144-0.15-0.004-0.17-0.052-0.01-0.118 0.04-0.159 0.01-0.028-0.02 0.036-0.06 0.054-0.1 0.048-0.05 0.211-0.19 0.138-0.2-0.063-0.02-0.127 0.04-0.191 0.03-0.021 0 0.018-0.06-0.004-0.07-0.218-0.02-0.371 0.18-0.05-0.12 0.049-0.05 0.098-0.1 0.148-0.15-0.015-0.02-0.046-0.03-0.043-0.05 0.005-0.04 0.049-0.07 0.063-0.11 0.008-0.02 0.024-0.07 0.001-0.07-0.229 0.01-0.51 0.25-0.003-0.1-0.187-0.04 0.04 0.03 0.013-0.12-0.007-0.03-0.095 0.03-0.105 0-0.012-0.04 0.054-0.07 0.073-0.1 0.025-0.05 0.029-0.12 0.036-0.17-0.047 0-0.129 0.03-0.14-0.01-0.013-0.06 0.072-0.09 0.104-0.14 0.026-0.04 0.077-0.08 0.07-0.13-0.006-0.03-0.084-0.01-0.097-0.04-0.077-0.18 0.191-0.05-0.068-0.14-0.004-0.03-0.005-0.06-0.013-0.09-0.008-0.04-0.033-0.06-0.034-0.09-0.005-0.15 0.106-0.2 0.197-0.31 0.043-0.05 0.187-0.13 0.126-0.15-0.098-0.04-0.204 0.05-0.305 0.08 0.049-0.05 0.097-0.09 0.146-0.14-0.037 0-0.136 0.03-0.113 0 0.068-0.09 0.197-0.11 0.266-0.2 0.02-0.02-0.062-0.02-0.094-0.01-0.069 0-0.185 0.1-0.204 0.04-0.021-0.08 0.113-0.11 0.169-0.17 0.01-0.03 0.046-0.06 0.029-0.09-0.043-0.07-0.237 0.02-0.234-0.04 0.003-0.08 0.166-0.1 0.139-0.17-0.071-0.18-0.507 0.33-0.021-0.16-0.037 0-0.073-0.02-0.111-0.02-0.056 0-0.173 0.07-0.169 0.01 0.005-0.08 0.131-0.11 0.179-0.18 0.04-0.06-0.071-0.13-0.068-0.18 0.002-0.01 0.024-0.16 0.021-0.17-0.019-0.06-0.1-0.05-0.089-0.12 0.006-0.05 0.105-0.12 0.06-0.13-0.107-0.02-0.214 0.05-0.322 0.07 0.079-0.08 0.179-0.14 0.236-0.23 0.018-0.03-0.038-0.06-0.034-0.1 0.003-0.03 0.12-0.22 0.042-0.28-0.056-0.04-0.21 0.04-0.204-0.03 0.01-0.12 0.154-0.18 0.231-0.27 0.389-0.73-0.04 0.24-0.131-0.26-0.02-0.11 0.149-0.17 0.19-0.28 0.023-0.06 0.019-0.13-0.007-0.19-0.159-0.36-0.197 0.14-0.084-0.38-0.157-0.45-0.029 0.08 0.186-0.56 0.023-0.07-0.057-0.14-0.066-0.21-0.01-0.08-0.007-0.16 0.009-0.24 0.093-0.45 0.127-0.08 0.06-0.45-0.24-0.59 0.084 0.25-0.058-0.3-0.009-0.03-0.059-0.05-0.063-0.09-0.005-0.04 0.026-0.07 0.036-0.11 0.007-0.03 0.007-0.06 0.014-0.09 0.007-0.02 0.018-0.05 0.028-0.07-0.017-0.01-0.05-0.02-0.05-0.04-0.003-0.17 0.24 0.01 0.217-0.22-0.016-0.17-0.258 0.16-0.185-0.05 0.016-0.05 0.047-0.09 0.071-0.13-0.217-0.08-0.048 0.03-0.018-0.2 0.005-0.03-0.063-0.05-0.057-0.09 0.013-0.07 0.092-0.12 0.107-0.19 0.014-0.06-0.091-0.21-0.117-0.25 0.005-0.01 0.11-0.41 0.108-0.42-0.009-0.06-0.098-0.08-0.111-0.13-0.067-0.3 0.143-0.13 0.137-0.43-0.001-0.05-0.073-0.06-0.109-0.1-0.013-0.03-0.005-0.09-0.038-0.11-0.048-0.04-0.157 0.02-0.174-0.03-0.02-0.07 0.08-0.12 0.112-0.18 0.022-0.04 0.028-0.09 0.048-0.13 0.085-0.19 0.146-0.13-0.04-0.18-0.005-0.07-0.014-0.1 0.009-0.17 0.013-0.04 0.06-0.07 0.053-0.12-0.004-0.02-0.057-0.02-0.076-0.04-0.149-0.16 0.395-0.24-0.395 0.07 0.083-0.08 0.195-0.14 0.25-0.24 0.02-0.03-0.082 0-0.123 0.01-0.046 0.01-0.089 0.04-0.136 0.04-0.014-0.01-0.006-0.03-0.008-0.05-0.038 0.02-0.076 0.03-0.113 0.05-0.038 0.01-0.075 0.03-0.113 0.05-0.174 0.06-0.025 0.01 0.264-0.2 0.016-0.01-0.178 0.1-0.145 0.1 0.227 0.01 0.149-0.13 0.203 0-0.384 0.63 0.293-0.57 0.163 0.12-0.026 0.13-0.285 0.15-0.296 0.29-0.007 0.09 0.24-0.07 0.272 0.02 0.036 0.1-0.112 0.17-0.168 0.26 0.021 0.04 0.043 0.09 0.064 0.13-0.031 0.07-0.062 0.14-0.092 0.21 0.062 0.01 0.196-0.03 0.188 0.03-0.014 0.1-0.167 0.13-0.222 0.22-0.016 0.03 0.022 0.06 0.036 0.08 0.071 0.14 0.078 0.03-0.091 0.22 0.002 0 0.167 0.08 0.161 0.1-0.017 0.06-0.112 0.08-0.129 0.15-0.007 0.03 0.089 0.02 0.079 0.04-0.087 0.25-0.215 0.07-0.105 0.2-0.024 0.03-0.046 0.06-0.072 0.09-0.031 0.03-0.108 0.05-0.097 0.1 0.009 0.04 0.08-0.03 0.118-0.01 0.016 0 0.009 0.04-0.001 0.05-0.108 0.14-0.185 0.08-0.057 0.14 0.018 0.02 0.063 0.02 0.055 0.05-0.009 0.02-0.266 0.29-0.26 0.3 0.032 0.07 0.202-0.07 0.221 0 0.023 0.09-0.11 0.14-0.165 0.21 0.022 0.04 0.044 0.07 0.066 0.11 0.024 0.24 0.04 0.1-0.131 0.38 0.009 0.13 0.365 0.04 0.35 0.16-0.029 0.22-0.395 0.3-0.428 0.53 0.42 0.05 0.076-0.05 0.044 0.23-0.005 0.04 0.09 0.03 0.129 0.05 0.27 0.18-0.086 0.39-0.217 0.5 0.061 0.01 0.124 0.02 0.182 0.04 0.04 0.02 0.069 0.06 0.107 0.08 0.041 0.02 0.156 0.02 0.129 0.06-0.094 0.14-0.321 0.17-0.389 0.32-0.034 0.08 0.167 0 0.25 0-0.059 0.06-0.119 0.13-0.178 0.2 0.331 0.08-0.021-0.05-0.03 0.19-0.002 0.05 0.17-0.07 0.162-0.01-0.01 0.07-0.116 0.08-0.177 0.12-0.326 0.19-0.259 0.16-0.489 0.24-0.001-0.07-0.003-0.03 0.005-0.1 0-0.02-0.014-0.04-0.005-0.05 0.089-0.14 0.355-0.24-0.049-0.17-0.107-0.19-0.015 0.03 0.161-0.3 0.024-0.04-0.015-0.1-0.005-0.15 0.032-0.14 0.164-0.32 0.146-0.48-0.009-0.08-0.074-0.14-0.111-0.21 0.385-1.19-0.071 0.38 0.096-0.7 0.044-0.29 0.252-0.67 0.371-0.92 0.019-0.1-0.057-0.2-0.085-0.31 0.023-0.12 0.046-0.24 0.07-0.36-0.007-0.09-0.023-0.18-0.02-0.27 0.002-0.08 0.046-0.16 0.032-0.25-0.008-0.05-0.078-0.07-0.094-0.12-0.013-0.03 0.042-0.09 0.012-0.11-0.037-0.04-0.182 0.03-0.149 0 0.084-0.1 0.216-0.14 0.324-0.21 0.064-0.03 0.125-0.07 0.191-0.11 0.068-0.03 0.27-0.14 0.211-0.09-0.099 0.08-0.232 0.11-0.332 0.19-0.02 0.02 0.05 0.01 0.075 0.01 0.055 0 0.166-0.08 0.163-0.02-0.004 0.07-0.113 0.1-0.169 0.15 0.335 0.01 0.018-0.04 0.117 0.07 0.019 0.03 0.097 0 0.086 0.03-0.025 0.06-0.126 0.08-0.15 0.14-0.015 0.04 0.181-0.02 0.092 0.09-0.012 0.03-0.057 0.06-0.035 0.09 0.116 0.1 0.291-0.19-0.009 0.15-0.041 0.04-0.088 0.09-0.119 0.14-0.017 0.03-0.053 0.09-0.021 0.1 0.077 0.02 0.158-0.03 0.238-0.04-0.024 0.05-0.048 0.09-0.071 0.13 0.022 0.02 0.069 0.03 0.065 0.06-0.022 0.2-0.39 0.22-0.243 0.5 0.09 0.13 0.073 0.05-0.03 0.24 0.014 0.04 0.167-0.01 0.146 0.04-0.048 0.1-0.192 0.13-0.267 0.22-0.018 0.02 0.005 0.06 0.008 0.09-0.079 0.05-0.158 0.11-0.237 0.17 0.085-0.03 0.167-0.06 0.254-0.07 0.014 0 0.035 0.02 0.028 0.03-0.024 0.03-0.074 0.04-0.1 0.08-0.028 0.04 0.078 0.07 0.091 0.08-0.088 0.05-0.176 0.1-0.263 0.15 0.009 0.01 0.031 0.01 0.029 0.02-0.004 0.02-0.062 0.05-0.041 0.06 0.038 0.01 0.15-0.05 0.123-0.02-0.237 0.26-0.239 0.03-0.23 0.18 0.118 0.08-0.051-0.06 0.009 0.08 0.001 0 0.12 0.02 0.116 0.03-0.091 0.16-0.266 0.12-0.015 0.14 0.132 0.18-0.029-0.09-0.172 0.28-0.015 0.04 0.076 0.04 0.105 0.07 0.127 0.14 0.034 0.3 0.137 0.45-0.032 0.09-0.094 0.17-0.096 0.27-0.002 0.07 0.067 0.12 0.087 0.18 0.021 0.07 0.008 0.15 0.035 0.22s0.205 0.22 0.176 0.33c-0.029 0.1-0.122 0.17-0.183 0.26 0.106-0.01 0.217-0.06 0.318-0.03 0.04 0.01-0.03 0.08-0.046 0.12-0.013 0.03-0.027 0.06-0.043 0.09-0.017 0.03-0.061 0.05-0.055 0.09 0.005 0.02 0.091 0 0.077 0.03-0.042 0.06-0.124 0.09-0.185 0.14-0.001 0.02-0.007 0.04-0.004 0.06s0.025 0.04 0.022 0.05c-0.002 0.03-0.025 0.04-0.036 0.07-0.006 0.01-0.032 0.03-0.017 0.04 0.101 0.01 0.378-0.17-0.113 0.1-0.247 0.14-0.048 0.01-0.031 0.04 0.01 0.02-0.034 0.02-0.048 0.04-0.119 0.11 0.36-0.14-0.078 0.11 0.296-0.03-0.084-0.01-0.067 0.13 0.008 0.06 0.125-0.06 0.189-0.05 0.046 0.01-0.202 0.2-0.104 0.21-0.025 0.04-0.089 0.06-0.074 0.1 0.013 0.04 0.084-0.01 0.114 0.01 0.02 0.02-0.008 0.05-0.012 0.08-0.003 0.02 0 0.05-0.007 0.07-0.058 0.21-0.03-0.01-0.047 0.17 0.004 0.03 0.004 0.05 0.012 0.07 0.009 0.02 0.052 0.04 0.038 0.06-0.03 0.04-0.277 0.17-0.283 0.29-0.003 0.06 0.112 0.08 0.081 0.15 0.335 0.12-0.108-0.08-0.053 0.21 0.013 0.07 0.216-0.07 0.204-0.01-0.029 0.15-0.387 0.17-0.345 0.37 0.012 0.02 0.02 0.04 0.034 0.05 0.019 0.01 0.067 0.01 0.062 0.03-0.011 0.04-0.07 0.07-0.094 0.11-0.061 0.11 0.036 0.02 0.021 0.12-0.006 0.04-0.034 0.06-0.05 0.1-0.045 0.16-0.047 0.06 0.168 0.06 0.034 0 0.115 0 0.101 0.03-0.037 0.08-0.175 0.09-0.193 0.17-0.055 0.26 0.549-0.39 0.014 0.13-0.049 0.05-0.181 0.08-0.147 0.14 0.035 0.06 0.13-0.04 0.197-0.05 0.054-0.01 0.082-0.01 0.112 0.03 0.008 0.01 0.02 0.02 0.018 0.03-0.004 0.03-0.023 0.05-0.034 0.07-0.001 0.01 0.001 0.02-0.003 0.04-0.006 0.02-0.049 0.05-0.028 0.05 0.061 0.01 0.257-0.12 0.284-0.11 0.05 0.01-0.143 0.07-0.088 0.13-0.124 0.21 0.005-0.03 0.335-0.18 0.061-0.03-0.102 0.09-0.142 0.14-0.006 0.01 0.007 0.03 0.016 0.02 0.147-0.04 0.267-0.19-0.019 0.09 0.11-0.07 0.219-0.15 0.329-0.22-0.021 0.03-0.091 0.06-0.064 0.08 0.031 0.03 0.069-0.04 0.108-0.04 0.015 0-0.023 0.04-0.009 0.04 0.172-0.05 0.189-0.16 0.159-0.04 0.026-0.01 0.053-0.01 0.08-0.02 0.002 0.02-0.01 0.05 0.004 0.05 0.035 0.01 0.073-0.01 0.109-0.01 0.024 0 0.078 0.01 0.067 0.03-0.112 0.24-0.284 0.14-0.048 0.22-0.03 0.25-0.069 0.15 0.262 0.17 0.026 0.13-0.185 0.2-0.209 0.33-0.045 0.23 0.552 0.3 0.341 0.58 0.009 0.04 0.07 0.33 0.118 0.38 0.043 0.04 0.12 0.02 0.17 0.05 0.137 0.09-0.053 0.23-0.11 0.28-0.174 0.07-0.096 0.08-0.189 0.05-0.017-0.01-0.064-0.01-0.053-0.02 0.048-0.07 0.144-0.09 0.182-0.16 0.042-0.07-0.413 0.11-0.261 0.03 0.005-0.02 0.012-0.05 0.015-0.07 0.002-0.02-0.014-0.05 0-0.06 0.049-0.07 0.18-0.08 0.176-0.16s-0.453 0.22-0.249-0.04c0.017-0.03 0.033-0.07 0.05-0.1-0.024-0.01-0.073 0-0.073-0.03 0-0.05 0.089-0.08 0.074-0.12-0.013-0.04-0.102 0.02-0.119-0.02-0.019-0.04 0.037-0.08 0.055-0.12-0.015-0.02-0.029-0.04-0.044-0.06 0.026-0.09 0.083-0.15-0.021-0.21-0.051-0.03-0.144 0.01-0.169-0.05-0.028-0.06 0.06-0.12 0.058-0.18-0.002-0.1-0.127-0.2-0.18-0.26 0.047-0.37 0.049-0.03-0.071-0.32-0.022-0.06-0.005-0.12-0.029-0.17s-0.111-0.07-0.11-0.13c0-0.09 0.097-0.15 0.111-0.24 0.009-0.06-0.032-0.11-0.048-0.17-0.082-0.24-0.073-0.11 0.027-0.4-0.021-0.07-0.178-0.03-0.185-0.1-0.012-0.11 0.178-0.19 0.142-0.29-0.032-0.09-0.225 0.01-0.273-0.08-0.046-0.08 0.049-0.17 0.073-0.26 0.004-0.08 0.016-0.15 0.012-0.23-0.004-0.07-0.052-0.13-0.038-0.19 0.022-0.1 0.191-0.18 0.14-0.26-0.052-0.09-0.218 0.06-0.296 0-0.049-0.03 0.062-0.11 0.092-0.16-0.02-0.01-0.041-0.03-0.062-0.04l0.319-0.17z"/>
  <path id="path1151" style="fill:#f00;paint-order:markers fill stroke" d="m82.769 120.32c0.035 0.01 0.115-0.02 0.106 0.02-0.032 0.12-0.267 0.18-0.226 0.28 0.017 0.04 0.123-0.02 0.136 0.02 0.016 0.06-0.067 0.09-0.087 0.15-0.014 0.03-0.008 0.07-0.012 0.11-0.063 0.15-0.084 0.15-0.063 0.31 0.007 0.05 0.045 0.1 0.038 0.15-0.011 0.08-0.095 0.15-0.091 0.23 0.004 0.06 0.117 0.09 0.112 0.15-0.008 0.1-0.097 0.18-0.145 0.27-0.577 0.69-0.218 0.1 0.119 0.31 0.064 0.05-0.08 0.14-0.1 0.21-0.01 0.04 0.024 0.08 0.012 0.12-0.056 0.17-0.285 0.17 0.158 0.06-0.916 0.58-0.367 0.08-0.282 0.28 0.015 0.03-0.019 0.08-0.005 0.11 0.017 0.05 0.104 0.06 0.093 0.11-0.101 0.4-0.334 0.14-0.044 0.37 0.2 0.31 0.034-0.04-0.178 0.46-0.021 0.05 0.065 0.09 0.069 0.14 0.005 0.07-0.029 0.14-0.043 0.2-0.031 0.07-0.096 0.13-0.091 0.21 0.002 0.04 0.071 0.06 0.107 0.09-0.067 0.07-0.183 0.13-0.201 0.22-0.009 0.06 0.113 0 0.155 0.03 0.02 0.02-0.023 0.05-0.019 0.08 0.001 0.01 0.04 0 0.031 0.01-0.403 0.21-0.283 0.26-0.468 0.15 0.015-0.04 0.031-0.08 0.047-0.12-0.057-0.02-0.183 0-0.17-0.06 0.029-0.14 0.189-0.21 0.256-0.34 0.147-0.27 0.07-0.29 0.027-0.56-0.015-0.1-0.021-0.2-0.032-0.29 0.461-1.11 0.06 0.12 0.063-0.7 0-0.13 0.119-0.24 0.112-0.37-0.006-0.1-0.145-0.15-0.148-0.24 0.16-0.46 0.151-0.25 0.087-0.64 0.646-1.05 0.153 0.03-0.066-0.49-0.043-0.1 0.115-0.18 0.15-0.29 0.183-0.55-0.077 0.1-0.116-0.28-0.007-0.06 0.066-0.11 0.099-0.17-0.212-0.03 0.032-0.24 0.01-0.25-0.044-0.02-0.095 0.05-0.145 0.04-0.033 0 0.057-0.03 0.087-0.05 0.13-0.06 0.262-0.12 0.393-0.18-0.002 0.02-0.02 0.05-0.005 0.04 0.409-0.02 0.166-0.18-0.022 0.15-0.018 0.03 0.085 0.02 0.096 0.05 0.018 0.06 0 0.12-0.022 0.17-0.045 0.12-0.118 0.21-0.177 0.32-0.123 0.2 0.084 0.42 0.027 0.62-0.053 0.19-0.245 0.32-0.279 0.51-0.019 0.11 0.105 0.2 0.136 0.31 0.038 0.12 0.065 0.5 0.077 0.63-0.091 0.15-0.3 0.27-0.272 0.43 0.019 0.12 0.27 0.01 0.356 0.09 0.059 0.06 0 0.17-0.021 0.25-0.03 0.11-0.168 0.35-0.205 0.47-0.012 0.04-0.008 0.08-0.011 0.12-0.11 0.12 0.097 0.04 0.07 0.05-0.115 0.06-0.229 0.12-0.353 0.16-0.02 0 0.017-0.05 0.011-0.07-0.054-0.18-0.104 0.1-0.002-0.21 0.209-0.22 0.323-0.23 0.305-0.51-0.005-0.08-0.04-0.15-0.055-0.22-0.018-0.08-0.058-0.16-0.044-0.24 0.104-0.62 0.277-0.16 0.002-0.64-0.039-0.1-0.131-0.19-0.117-0.29 0.024-0.17 0.184-0.3 0.222-0.47 0.025-0.11-0.038-0.22-0.039-0.33s0.04-0.23 0.032-0.34c-0.006-0.1-0.082-0.18-0.073-0.28 0.012-0.12 0.089-0.23 0.133-0.35 0.058-0.1 0.306-0.44 0.243-0.63-0.024-0.07-0.169-0.07-0.172-0.14-0.005-0.11 0.096-0.19 0.151-0.28 0.255-0.42 0.131-0.12 0.254-0.48 0.054-0.07 0.213-0.15 0.162-0.22-0.057-0.09-0.245 0.09-0.305 0.01-0.051-0.07 0.11-0.13 0.176-0.19 0.104-0.09 0.259-0.12 0.332-0.24 0.033-0.05-0.124 0.01-0.186 0.01-0.043 0-0.085 0.01-0.128 0.01-0.187 0.18 0.334-0.13 0.261-0.22-0.021-0.03-0.072-0.01-0.089-0.04-0.018-0.03 0.022-0.07 0.001-0.1-0.03-0.04-0.135-0.01-0.131-0.06 0.006-0.1 0.101-0.16 0.152-0.23-0.094-0.2-0.061-0.07-0.041-0.31 0.004-0.06-0.008-0.11 0.007-0.16 0.02-0.08 0.131-0.14 0.095-0.2-0.256-0.45-0.218 0.27-0.218-0.13-0.02-0.03-0.058-0.04-0.06-0.07-0.006-0.11 0.176-0.22 0.207-0.27 0.036-0.06-0.079-0.05-0.117-0.09-0.016-0.01-0.013-0.04-0.019-0.06-0.288-0.04-0.029 0.03 0.004-0.18 0.006-0.04-0.111 0-0.106-0.04 0.021-0.15 0.339-0.24 0.264-0.32-0.054-0.06-0.161 0.02-0.241 0.03 0.162-0.15 0.256-0.14 0.095-0.2-0.028-0.01-0.089 0.01-0.086-0.02 0.005-0.05 0.076-0.06 0.099-0.11 0.009-0.01 0.003-0.04-0.013-0.05-0.032-0.02-0.072-0.01-0.108-0.01 0.088-0.03 0.046-0.13 0.084-0.18 0.032-0.05 0.123-0.07 0.119-0.13-0.002-0.04-0.15 0.04-0.127 0 0.05-0.07 0.174-0.08 0.225-0.15 0.029-0.04-0.102 0.03-0.152 0.04-0.027-0.03-0.192 0.13-0.14 0.1 0.151-0.08 0.302-0.17 0.452-0.25-0.021 0.01-0.092 0.04-0.065 0.04 0.139 0 0.351-0.18-0.058 0.11-0.019 0.03-0.069 0.06-0.059 0.1 0.096 0.36 0.125-0.3 0.122 0.15 0 0.05-0.014 0.1-0.026 0.15-0.016 0.07-0.061 0.13-0.057 0.2 0.002 0.06 0.049 0.11 0.073 0.16 0.12 0.59-0.081-0.17 0.251 0.4 0.051 0.08 0.073 0.19 0.071 0.29-0.003 0.15-0.099 0.28-0.086 0.42 0.018 0.22 0.257 0.45 0.379 0.6 0.022 0.11 0.023 0.23 0.064 0.34 0.037 0.1 0.163 0.16 0.168 0.27 0.044 0.93-0.3-0.08-0.161 0.75 0.016 0.09 0.085 0.17 0.127 0.26 0.009 0.1 0.018 0.2 0.027 0.31-0.092 0.22 0.196 0.34 0.2 0.53 0.003 0.13-0.127 0.24-0.116 0.37 0.007 0.09 0.178 0.12 0.163 0.21-0.113 0.64-0.506 0.22-0.071 0.57-0.152 0.87-0.031-0.36 0.302 0.32 0.052 0.11-0.144 0.2-0.172 0.32-0.015 0.06 0.064 0.12 0.052 0.18-0.019 0.11-0.095 0.19-0.14 0.28-0.043 0.09-0.084 0.18-0.125 0.27 0.241 0.04 0.431-0.03 0.216 0.26-0.086 0.12-0.289 0.17-0.307 0.32-0.011 0.09 0.204-0.06 0.267 0 0.227 0.23-0.536 0.17 0.108 0.17-0.359 0.2 0.032 0.09 0.001 0.1-0.127 0.06-0.249 0.14-0.388 0.16-0.043 0-0.061-0.07-0.073-0.11-0.02-0.07-0.046-0.54-0.048-0.56 0.568-1.42 0.091 0.22-0.072-0.82-0.028-0.18 0.172-0.35 0.145-0.53-0.02-0.13-0.224-0.17-0.271-0.3-0.105-0.28 0.098-0.63 0.191-0.87-0.062-0.24-0.106-0.31-0.068-0.57 0.014-0.09 0.084-0.18 0.078-0.27-0.004-0.06-0.089-0.09-0.107-0.15-0.028-0.09 0.035-0.26 0.059-0.34-0.012-0.04-0.034-0.08-0.035-0.11-0.001-0.05 0.04-0.1 0.029-0.14-0.05-0.23-0.111 0.06-0.133-0.18-0.005-0.05 0.063-0.11 0.031-0.14-0.041-0.05-0.123-0.02-0.184-0.03 0.194-0.24 0.188-0.14 0.184-0.35-0.001-0.04 0.005-0.07-0.006-0.11-0.009-0.03-0.046-0.04-0.053-0.07s0.044-0.08 0.015-0.1c-0.049-0.03-0.115 0-0.173 0 0.124-0.19 0.085-0.05 0.046-0.18-0.007-0.03 0.013-0.07-0.009-0.08-0.038-0.02-0.15 0.03-0.132-0.01 0.112-0.24 0.357-0.14 0.132-0.21-0.019-0.11-0.025-0.05 0.1-0.17l0.443-0.24c-0.068 0.12-0.089 0.08 0.009 0.13-0.005 0.03 0.001 0.06-0.017 0.08-0.057 0.07-0.19 0.09-0.2 0.18-0.007 0.06 0.185-0.08 0.182-0.02-0.004 0.08-0.265 0.13-0.19 0.17 0.169 0.1 0.895-0.49-0.066 0.2 0.03 0.01 0.058 0.04 0.091 0.04 0.077 0 0.208-0.1 0.229-0.03 0.024 0.09-0.133 0.12-0.182 0.19-0.025 0.04-0.044 0.09-0.032 0.13 0.009 0.04 0.063 0.05 0.086 0.08 0.022 0.03 0.031 0.07 0.047 0.11-0.249 0.34-0.161 0.08-0.065 0.28 0.017 0.03-0.018 0.1 0.018 0.11 0.087 0.03 0.208-0.08 0.273-0.01 0.086 0.08-0.247 0.21-0.142 0.33-0.003 0.05 0.011 0.1-0.01 0.15-0.042 0.09-0.176 0.15-0.175 0.25 0 0.07 0.156 0.05 0.178 0.11 0.028 0.09-0.061 0.18-0.057 0.27 0.032 0.64 0.272-0.3-0.06 0.63-0.005 0.13-0.003 0.25-0.016 0.38-0.014 0.15-0.096 0.29-0.066 0.44 0.026 0.13 0.185 0.2 0.222 0.32 0.043 0.15 0.009 0.3 0.009 0.45 0 0.62-0.055 0.28 0.086 0.81 0.048 0.09 0.142 0.17 0.144 0.27 0.001 0.11-0.092 0.21-0.137 0.31-0.146 0.34-0.012 0.12-0.438 0.44-0.085 0.06 0.229-0.08 0.263-0.18 0.023-0.07-0.144 0.02-0.215 0.03 0.032-0.05 0.089-0.09 0.096-0.15 0.005-0.04-0.051-0.06-0.065-0.09-0.016-0.04-0.021-0.08-0.02-0.13 0.001-0.19 0.133-0.36 0.047-0.55 0.03-0.09 0.076-0.17 0.089-0.25 0.032-0.23-0.063-0.17-0.101-0.37-0.013-0.08-0.006-0.15 0.002-0.23 0.035-0.34 0.069-0.29 0.298-0.63-0.092-0.04-0.212-0.04-0.275-0.12-0.055-0.07-0.019-0.17-0.034-0.26-0.015-0.08-0.063-0.17-0.058-0.26 0.006-0.12 0.146-0.24 0.09-0.35-0.057-0.11-0.348-0.01-0.345-0.13 0.006-0.21 0.241-0.34 0.361-0.52-0.036-0.09-0.051-0.19-0.109-0.27-0.063-0.08-0.221-0.09-0.242-0.19-0.026-0.14 0.139-0.26 0.124-0.4-0.011-0.1-0.191-0.13-0.191-0.23 0-0.16 0.207-0.29 0.191-0.45-0.012-0.12-0.173-0.16-0.259-0.24-0.246-0.29-0.286-0.24-0.296-0.64-0.003-0.14 0.054-0.27 0.044-0.4-0.008-0.1-0.066-0.19-0.098-0.28-0.072-0.06-0.202-0.08-0.214-0.17-0.016-0.12 0.097-0.22 0.146-0.33-0.052-0.04-0.102-0.08-0.155-0.11-0.116-0.08-0.204-0.06-0.167-0.23 0.014-0.06 0.085-0.1 0.082-0.17-0.015-0.23-0.288 0.2-0.004-0.16 0.051-0.15-0.018 0.01 0.176-0.18 0.007 0-0.014-0.01-0.021-0.01 0.092-0.06 0.185-0.12 0.277-0.18 0.024-0.01 0.077-0.03 0.079 0 0.003 0.03-0.049 0.04-0.074 0.06 0.02 0.08-0.002 0.03 0.15 0 0.02 0.05-0.075 0.07-0.108 0.11-0.026 0.03-0.043 0.07-0.067 0.1-0.166 0.22-0.198 0.16 0.235 0.02-0.067 0.06-0.15 0.1-0.201 0.17-0.013 0.02 0.057 0.01 0.058 0.03 0.001 0.03-0.04 0.06-0.055 0.09-0.042 0.08-0.025 0.19-0.099 0.26 0.019 0.03 0.085 0.11 0.055 0.16-0.052 0.08-0.228 0.1-0.203 0.19 0.109 0.4 0.551-0.56 0.056 0.16-0.016 0.02 0.005 0.05 0.008 0.08-0.086 0.19-0.056 0.04 0.08 0.11 0.144 0.07-0.124 0.06 0.07 0.11 0.187 0.05 0.219-0.09 0.056 0.15 0.01 0.33-0.032-0.11 0.102 0.19 0.02 0.05-0.007 0.1 0.003 0.15 0.009 0.05 0.059 0.09 0.053 0.13-0.009 0.08-0.091 0.14-0.096 0.22-0.003 0.05 0.05 0.08 0.075 0.12 0.002 0.05 0.022 0.11 0.006 0.15-0.025 0.08-0.149 0.13-0.124 0.2 0.02 0.06 0.173-0.05 0.191 0.01 0.072 0.24-0.43 0.13 0.035 0.13 0.021 0 0.038 0.02 0.056 0.03-0.137 0.08-0.29 0.14-0.412 0.24-0.024 0.02 0.084 0 0.089 0.03 0.006 0.05-0.046 0.08-0.067 0.12-0.024 0.05-0.039 0.1-0.067 0.14-0.168 0.26-0.176 0.1-0.111 0.33 0.003 0.2 0.021 0.17-0.069 0.38-0.038 0.09-0.126 0.17-0.132 0.27-0.005 0.07 0.084 0.11 0.104 0.17 0.112 0.36-0.111 0.39-0.38 0.7 0.021 0.08 0.066 0.17 0.064 0.25-0.002 0.12-0.054 0.23-0.076 0.35-0.024 0.12-0.05 0.24-0.061 0.36-0.011 0.11 0.013 0.23-0.004 0.35-0.098 0.69-0.155 0.13-0.046 0.73-0.002 0.12-0.007 0.51-0.013 0.64-0.004 0.09-0.002 0.19-0.019 0.28-0.018 0.1-0.088 0.18-0.083 0.28 0.003 0.06 0.07 0.1 0.105 0.15v0.16c0.114 0.25-0.001-0.07-0.092 0.26-0.008 0.03 0.116 0 0.091 0.02-0.133 0.1-0.291 0.16-0.437 0.24 0.009-0.01 0.038-0.03 0.026-0.04-0.031-0.02-0.072-0.01-0.108-0.01 0.008-0.05 0.013-0.09 0.025-0.13 0.042-0.14 0.114-0.26 0.101-0.41-0.006-0.07-0.075-0.14-0.067-0.21 0.025-0.22 0.233-0.41 0.178-0.65 0.009-0.12 0.02-0.23 0.029-0.34 0.01-0.12 0.005-0.25 0.025-0.36 0.026-0.15 0.13-0.29 0.113-0.43-0.013-0.12-0.187-0.17-0.196-0.28-0.018-0.24 0.271-0.45 0.146-0.71 0.009-0.08 0.017-0.15 0.026-0.23-0.032-0.04-0.091-0.07-0.095-0.11-0.005-0.06 0.099-0.1 0.073-0.14-0.025-0.05-0.118 0.04-0.151 0-0.056-0.06 0.221-0.15 0.171-0.19 0.097-0.05 0.192-0.11 0.29-0.16 0.041-0.03 0.092-0.09 0.127-0.06 0.032 0.03-0.072 0.05-0.099 0.08-0.088 0.11 0.062 0.16-0.042 0.26 0.045 0.02 0.138 0.01 0.135 0.06-0.005 0.09-0.118 0.14-0.15 0.23-0.022 0.06 0.011 0.12-0.003 0.19-0.022 0.09-0.114 0.17-0.103 0.26 0.008 0.08 0.146 0.1 0.152 0.17 0.009 0.12-0.077 0.22-0.115 0.33 0.116 0.91-0.028-0.6-0.151 0.68-0.018 0.18 0.255 0.32 0.244 0.51-0.009 0.15-0.134 0.27-0.162 0.41-0.021 0.11 0.011 0.22 0.016 0.32 0 0.16 0.01 0.47-0.038 0.63-0.038 0.12-0.144 0.21-0.165 0.33-0.01 0.06 0.053 0.11 0.079 0.17 0.032 0.03 0.103 0.05 0.096 0.09-0.011 0.08-0.091 0.11-0.136 0.17 0.016 0.19 0.019 0.05-0.377 0.26-0.037 0.02 0.099-0.03 0.109-0.07 0.007-0.03-0.059-0.01-0.089-0.02 0.029-0.05 0.058-0.1 0.087-0.14 0.083-0.1 0.182-0.18 0.272-0.27-0.122-0.02-0.275 0.01-0.249-0.18 0.01-0.08 0.092-0.14 0.093-0.22 0.001-0.06-0.076-0.09-0.088-0.14-0.029-0.12 0.052-0.25-0.001-0.37 0.246-0.5 0.067-0.01 0.084-0.38 0.002-0.06 0.032-0.12 0.045-0.18 0.01-0.04 0.044-0.09 0.024-0.13-0.018-0.03-0.113 0-0.11-0.03 0.003-0.06 0.08-0.08 0.121-0.12 0.014-0.03 0.034-0.05 0.044-0.08 0.009-0.02 0.007-0.05 0.014-0.08 0.012-0.05 0.078-0.11 0.044-0.14-0.052-0.06-0.213 0.02-0.222-0.05-0.023-0.19 0.339-0.28 0.264-0.5 0.003-0.07 0.011-0.14 0.01-0.21-0.001-0.06-0.042-0.13-0.017-0.19 0.048-0.12 0.217-0.18 0.222-0.3 0.003-0.08-0.175 0-0.208-0.07-0.048-0.09 0.167-0.2 0.072-0.31 0.041-0.06 0.134-0.1 0.125-0.17-0.013-0.1-0.311 0.05-0.297-0.05 0.012-0.08 0.124-0.11 0.175-0.17 0.042-0.05 0.036-0.13 0.077-0.18l0.344-0.18z"/>
 </g>
</svg>
