<?xml version="1.0" encoding="UTF-8" standalone="no"?>
<svg
   xmlns:dc="http://purl.org/dc/elements/1.1/"
   xmlns:cc="http://creativecommons.org/ns#"
   xmlns:rdf="http://www.w3.org/1999/02/22-rdf-syntax-ns#"
   xmlns:svg="http://www.w3.org/2000/svg"
   xmlns="http://www.w3.org/2000/svg"
   xmlns:sodipodi="http://sodipodi.sourceforge.net/DTD/sodipodi-0.dtd"
   xmlns:inkscape="http://www.inkscape.org/namespaces/inkscape"
   viewBox="0 0 1200 800"
   id="titleSvg"
   version="1.1"
   sodipodi:docname="killing-eve.svg"
   inkscape:export-filename="/home/rob/Programming/Workspace/Web/opening-credits/killing-eve/img/overlay.png"
   inkscape:export-xdpi="63.959999"
   inkscape:export-ydpi="63.959999"
   inkscape:version="0.92.5 (2060ec1f9f, 2020-04-08)">
  <metadata
     id="metadata29">
    <rdf:RDF>
      <cc:Work
         rdf:about="">
        <dc:format>image/svg+xml</dc:format>
        <dc:type
           rdf:resource="http://purl.org/dc/dcmitype/StillImage" />
      </cc:Work>
    </rdf:RDF>
  </metadata>
  <defs
     id="defs27" />
  <sodipodi:namedview
     pagecolor="#ffffff"
     bordercolor="#666666"
     borderopacity="1"
     objecttolerance="10"
     gridtolerance="10"
     guidetolerance="10"
     inkscape:pageopacity="0"
     inkscape:pageshadow="2"
     inkscape:window-width="1920"
     inkscape:window-height="1016"
     id="namedview25"
     showgrid="false"
     inkscape:zoom="3.337544"
     inkscape:cx="1111.3158"
     inkscape:cy="467.55356"
     inkscape:window-x="0"
     inkscape:window-y="27"
     inkscape:window-maximized="1"
     inkscape:current-layer="drip3" />
  <rect
     style="opacity:1;fill:#ff00ff;fill-opacity:1;stroke:none;stroke-width:1;stroke-linecap:round;stroke-miterlimit:4;stroke-dasharray:none;stroke-opacity:1"
     id="rect4768"
     width="1199.6846"
     height="801.78717"
     x="-349.64899"
     y="29.919779" />
  <path
     d="m -136.49907,182.65461 h -43.295 l -38.627,125.003 v -125.003 h -43.552 v 399.999 h 43.552 v -125.003 l 38.627,125.003 h 43.295 l -43.295,-199.85 z m 56.512998,399.999 h -43.551998 v -399.999 h 43.551998 z m 56.513,-50.112 v -349.887 h -43.552 v 399.999 H 9.6719277 v -50.112 z m 89.66,0 v -349.887 h -43.551 v 399.999 h 76.696 v -50.112 z m 89.658002,50.112 h -43.553 v -399.999 h 43.553 z m 85.292,-399.999 v 144.043 l -28.778,-144.043 h -43.553 v 399.999 h 43.553 v -132.948 l 28.778,132.948 h 43.55 v -399.999 z m 139.684,142.786 c 0,4.143 -1.382,7.657 -4.146,10.54 -2.766,2.882 -6.223,4.324 -10.371,4.324 -3.975,0 -7.345,-1.442 -10.109,-4.324 -2.767,-2.883 -4.149,-6.397 -4.149,-10.54 v -87.11 c 0,-4.145 1.382,-7.658 4.15,-10.541 2.763,-3.063 6.133,-4.594 10.108,-4.594 4.148,0 7.605,1.531 10.371,4.594 2.764,2.883 4.146,6.396 4.146,10.54 z m -28.774,159.916 c 0,-4.144 1.382,-7.748 4.15,-10.81 2.763,-2.884 6.133,-4.326 10.108,-4.326 4.148,0 7.605,1.442 10.371,4.325 2.764,3.063 4.146,6.667 4.146,10.811 v 41.621 c 0,4.145 -1.382,7.658 -4.146,10.541 -2.766,2.883 -6.223,4.324 -10.371,4.324 -3.975,0 -7.345,-1.441 -10.109,-4.324 -2.767,-2.883 -4.149,-6.396 -4.149,-10.54 z m 72.639,-326.58 c -19.042,-0.107 -37.492,14.822 -43.604,25.474 0,0 -5.445,-1.596 -14.777,-1.596 -16.072,0 -29.81,5.946 -41.218,17.838 -11.58,11.892 -17.37,26.306 -17.37,43.243 v 76.299 c 0,11.351 2.852,21.892 8.554,31.621 -5.874,5.586 -10.022,12.163 -12.443,19.73 a 40.173,40.173 0 0 0 -1.814,7.568 c -0.171,0.72 -0.26,1.531 -0.26,2.432 v 1.351 c 0,7.748 1.47,14.865 4.409,21.352 a 48.637,48.637 0 0 0 8.812,12.703 l 2.335,1.892 c -1.88,3.02 -9.074,6.01 -9.972,17.333 -1.874,28.485 0.378,56.97 0.378,85.556 0,16.757 5.791,31.171 17.37,43.243 11.408,11.892 25.147,17.838 41.218,17.838 16.246,0 30.074,-5.946 41.479,-17.838 11.582,-12.072 17.37,-26.486 17.37,-43.243 v -30.81 c 0,-16.757 -5.703,-69.647 -17.11,-81.54 -11.233,-12.071 -24.886,-18.197 -40.96,-18.377 -12.961,-0.18 -19.528,-0.271 -19.702,-0.271 -5.356,0 -8.037,-2.072 -8.037,-6.216 0,-3.964 2.506,-6.126 7.52,-6.486 h 1.035 c 1.728,0.18 3.284,0.63 4.666,1.35 4.667,1.262 9.248,1.893 13.74,1.893 16.245,0 30.073,-5.946 41.478,-17.838 11.582,-12.072 17.37,-26.486 17.37,-43.243 v -76.3 c 1.008,-16.266 -6.989,-30.073 -14.776,-37.453 -0.757,-3.464 -0.953,-7.862 0.894,-10.72 1.946,-3.013 7.408,-6.87 13.713,-6.508 z m 122.832,73.99 v -50.112 h -76.695 v 399.999 h 76.695 v -50.112 h -33.143 v -124.683 h 33.143 v -50.111 h -33.143 v -124.981 z m 105.897,-50.112 -21.775,200.149 -21.518,-200.149 h -43.553 c 13.811,138.607 44.258,300.987 65.82,439.817 19.033,-138.83 49.479,-301.211 64.573,-439.817 z m 133.213,50.112 v -50.112 h -76.703 v 399.999 h 76.703 v -50.112 h -33.143 v -124.683 h 33.143 v -50.111 h -33.143 v -124.981 z"
     class="title"
     aria-label="Killing Eve"
     id="path2"
     style="fill:#ffffff"
     inkscape:connector-curvature="0" />
  <g
     id="drip3"
     class="drip"
     transform="translate(-0.42372881,21.398305)">
    <rect
       x="967.258"
       y="250"
       width="5"
       height="100"
       id="rect4"
       style="stroke-width:0.53452247" />
    <path
       d="m 968.10014,362.67975 c -0.858,6.871 -5.056,10.852 -5.212,15.858 0.355,4.356 3.567,7.463 6.672,7.401 3.204,-0.063 6.452,-2.977 6.664,-7.48 -0.093,-5.178 -4.555,-9.508 -5.08,-15.741 0,0 -0.013,-2.304 -1.52,-2.3 -1.526,0.016 -1.524,2.262 -1.524,2.262 z"
       id="path6"
       inkscape:connector-curvature="0" />
    <text
       xml:space="preserve"
       style="font-style:normal;font-variant:normal;font-weight:normal;font-stretch:normal;font-size:26.66666603px;line-height:1.25;font-family:Deutschlander;-inkscape-font-specification:Deutschlander;font-variant-ligatures:normal;font-variant-caps:normal;font-variant-numeric:normal;font-feature-settings:normal;text-align:start;writing-mode:lr-tb;text-anchor:start;opacity:1;fill:#ffffff;fill-opacity:1;stroke:none;stroke-width:1;stroke-linecap:round;stroke-miterlimit:4;stroke-dasharray:none;stroke-opacity:1"
       x="982.20337"
       y="294.06781"
       id="text4772"><tspan
         sodipodi:role="line"
         id="tspan4770"
         x="982.20337"
         y="294.06781"
         style="font-style:normal;font-variant:normal;font-weight:normal;font-stretch:normal;font-size:13.33333302px;font-family:Roboto;-inkscape-font-specification:Roboto;fill:#000000">We move the <tspan
   style="font-style:italic"
   id="tspan4810">trail</tspan></tspan></text>
    <text
       xml:space="preserve"
       style="font-style:normal;font-variant:normal;font-weight:normal;font-stretch:normal;font-size:26.66666603px;line-height:1.25;font-family:Deutschlander;-inkscape-font-specification:Deutschlander;font-variant-ligatures:normal;font-variant-caps:normal;font-variant-numeric:normal;font-feature-settings:normal;text-align:start;writing-mode:lr-tb;text-anchor:start;opacity:1;fill:#ffffff;fill-opacity:1;stroke:none;stroke-width:1;stroke-linecap:round;stroke-miterlimit:4;stroke-dasharray:none;stroke-opacity:1"
       x="984.68945"
       y="377.63138"
       id="text4772-3"
       inkscape:transform-center-x="55.130359"
       inkscape:transform-center-y="4.7939443"><tspan
         sodipodi:role="line"
         id="tspan4770-6"
         x="984.68945"
         y="377.63138"
         style="font-style:normal;font-variant:normal;font-weight:normal;font-stretch:normal;font-size:13.33333302px;font-family:Roboto;-inkscape-font-specification:Roboto;fill:#000000">We move the trail with translateY()</tspan></text>
    <text
       xml:space="preserve"
       style="font-style:normal;font-variant:normal;font-weight:normal;font-stretch:normal;font-size:26.66666603px;line-height:1.25;font-family:Deutschlander;-inkscape-font-specification:Deutschlander;font-variant-ligatures:normal;font-variant-caps:normal;font-variant-numeric:normal;font-feature-settings:normal;text-align:start;writing-mode:lr-tb;text-anchor:start;opacity:1;fill:#ffffff;fill-opacity:1;stroke:none;stroke-width:1;stroke-linecap:round;stroke-miterlimit:4;stroke-dasharray:none;stroke-opacity:1"
       x="982.89172"
       y="311.41504"
       id="text4772-7"><tspan
         sodipodi:role="line"
         id="tspan4770-5"
         x="982.89172"
         y="311.41504"
         style="font-style:normal;font-variant:normal;font-weight:normal;font-stretch:normal;font-size:13.33333302px;font-family:Roboto;-inkscape-font-specification:Roboto;fill:#000000">with</tspan></text>
    <text
       xml:space="preserve"
       style="font-style:normal;font-variant:normal;font-weight:normal;font-stretch:normal;font-size:26.66666603px;line-height:1.25;font-family:Deutschlander;-inkscape-font-specification:Deutschlander;font-variant-ligatures:normal;font-variant-caps:normal;font-variant-numeric:normal;font-feature-settings:normal;text-align:start;writing-mode:lr-tb;text-anchor:start;opacity:1;fill:#ffffff;fill-opacity:1;stroke:none;stroke-width:1;stroke-linecap:round;stroke-miterlimit:4;stroke-dasharray:none;stroke-opacity:1"
       x="1010.5611"
       y="311.63269"
       id="text4772-7-3"><tspan
         sodipodi:role="line"
         id="tspan4770-5-5"
         x="1010.5611"
         y="311.63269"
         style="font-style:normal;font-variant:normal;font-weight:normal;font-stretch:normal;font-size:13.33333302px;font-family:Roboto;-inkscape-font-specification:Roboto;fill:#000000">with</tspan></text>
  </g>
  <g
     id="drip1"
     class="drip">
    <rect
       x="117.482"
       y="-63.355297"
       width="5"
       height="350"
       id="rect9" />
    <path
       d="M118.536 281.74c-.858 6.87-5.056 10.852-5.212 15.857.355 4.357 3.567 7.463 6.672 7.402 3.204-.063 6.452-2.977 6.664-7.48-.093-5.178-4.555-9.508-5.08-15.742 0 0-.013-2.303-1.52-2.3-1.526.016-1.524 2.263-1.524 2.263z"
       id="path11"
       opacity="1" />
  </g>
  <g
     id="drip2"
     class="drip">
    <rect
       x="576.13751"
       y="-45.964664"
       width="5"
       height="350"
       id="rect14" />
    <path
       d="M577.191 299.13c-.857 6.872-5.055 10.852-5.211 15.858.355 4.357 3.567 7.463 6.671 7.402 3.204-.063 6.453-2.977 6.665-7.48-.093-5.178-4.556-9.509-5.08-15.742 0 0-.014-2.303-1.521-2.3-1.525.016-1.524 2.263-1.524 2.263z"
       id="path16" />
  </g>
  <g
     id="drip4"
     class="drip">
    <rect
       x="967.72217"
       y="496.97711"
       width="5"
       height="101.69997"
       id="rect19" />
    <path
       d="M968.72 592.036c-.858 6.871-5.056 10.852-5.212 15.858.355 4.356 3.567 7.463 6.672 7.401 3.204-.063 6.452-2.977 6.664-7.48-.093-5.178-4.555-9.508-5.08-15.741 0 0-.013-2.304-1.52-2.3-1.526.016-1.524 2.262-1.524 2.262z"
       id="path21" />
  </g>
</svg>
