<?xml version="1.0" encoding="UTF-8" standalone="no"?>
<!-- Created with Inkscape (http://www.inkscape.org/) -->
<svg id="svg8" xmlns:rdf="http://www.w3.org/1999/02/22-rdf-syntax-ns#" xmlns="http://www.w3.org/2000/svg" version="1.1" xmlns:cc="http://creativecommons.org/ns#" xmlns:xlink="http://www.w3.org/1999/xlink" viewBox="0 0 210 297" xmlns:dc="http://purl.org/dc/elements/1.1/">
 <defs id="defs2">
  <linearGradient id="linearGradient841" y2="14.994" gradientUnits="userSpaceOnUse" x2="259.89" y1="88.021" x1="112.75">
   <stop id="stop828" style="stop-color:#f9f9f9" offset="0"/>
   <stop id="stop830" style="stop-color:#f9f9f9;stop-opacity:0" offset="1"/>
  </linearGradient>
  <linearGradient id="linearGradient864" y2="110.27" gradientUnits="userSpaceOnUse" x2="72.612" y1="106.24" x1="20.263">
   <stop id="stop847" style="stop-color:#f00" offset="0"/>
   <stop id="stop849" style="stop-color:#a70000;stop-opacity:0" offset="1"/>
  </linearGradient>
 </defs>
 <g id="layer1">
  <g id="g838" transform="matrix(.69295 0 0 .98144 39.946 1.741)">
   <rect id="rect26" style="paint-order:markers fill stroke" height="302.62" width="303.05" y="-1.774" x="-57.645"/>
  </g>
  <rect id="rect22" style="opacity:.672;paint-order:markers fill stroke;fill-opacity:0" height="340.2" width="262.64" y="-20.932" x="-15.359"/>
  <path id="crow" style="fill-rule:evenodd;stroke:#000;stroke-width:.54397" d="m6.0974 31.819-0.0176 9.782c7.9732 1.632 7.7412 6.95 7.7842 13.43l0.204 12.81c0.055 3.46 5.011 3.238 5.418-0.18 0.209-1.751 0.068-7.313 0.146-12.797 0.087-6.148 4.051-13.586 9.718-13.215l0.247-9.83-5-2-1.236-8.645c-1.375-9.609-8.608-12.134-10.889 0.298l-1.375 8.347z"/>
  <ellipse id="eyeball" style="fill:#fff;paint-order:markers fill stroke" rx="4.1262" ry="4.1675" cy="21.939" cx="17.899"/>
  <ellipse id="pupil" style="paint-order:markers fill stroke" rx=".97910" ry=".83923" cy="21.821" cx="17.728"/>
  <path id="path1447" style="stroke:#000;stroke-width:.302;fill:none" d="m0 45.849h88.458"/>
  <path id="path10" style="fill:url(#linearGradient841);fill-rule:evenodd" d="m20.299 75.498c19.328-21.773 44.614-35.716 66.921-53.573 26.75-23.962 81.42-9.809 85.12 30.893 0.64 7.031 2.69 26.182-4.79 36.233-6.16 16.549-20.24 60.809-12.18 76.589 10.93 3.35-43.71-2.87-42.79-26.3 3.42-86.788-76.591-78.898-92.281-63.842z"/>
  <path id="path12" style="fill:#f00;fill-rule:evenodd" d="m61.32 204.23c-57.247 6.37-27.415 54.45-49.251 93.01l147.26 0.33c3.21 1.28 18.9-35.5 5.77-65.94-5.48-12.7-24.13-35.86-24.09-35.97 3.6-3.07-40.92 44.94-77.207 33.52-19.257-6.06-2.483-24.95-2.483-24.95z"/>
  <path id="path824" style="fill:url(#linearGradient864)" d="m20.507 75.465c-6.255 22.736 1.517 44.935 14.353 56.525 4.148 5.21 25.891 8.76 29.191 7.07 4.979-2.54-12.455-10.09-10.5-28 0.546-5-2.116-25.017-8.812-29.121-1.504-0.923-3.772-3.127-3.429-5.671 0.406-3.008 3.63-6.551 4.175-9.867-5.884 0.87-20.35 2.652-24.978 9.064z"/>
  <path id="path843" style="stroke:#000;stroke-width:.30122;fill:none" d="m171.22 45.874h38.79"/>
 </g>
</svg>
