<?xml version="1.0" encoding="UTF-8" standalone="no"?>
<svg xmlns:rdf="http://www.w3.org/1999/02/22-rdf-syntax-ns#" xmlns="http://www.w3.org/2000/svg" version="1.1" xmlns:cc="http://creativecommons.org/ns#" xmlns:xlink="http://www.w3.org/1999/xlink" viewBox="0 0 210 297" xmlns:dc="http://purl.org/dc/elements/1.1/">
 <defs>
  <linearGradient id="linearGradient841" y2="14.994" gradientUnits="userSpaceOnUse" x2="259.89" y1="88.021" x1="112.75">
   <stop stop-color="#f9f9f9" offset="0"/>
   <stop stop-color="#f9f9f9" stop-opacity="0" offset="1"/>
  </linearGradient>
  <linearGradient id="linearGradient864" y2="110.27" gradientUnits="userSpaceOnUse" x2="72.612" y1="106.24" x1="20.263">
   <stop stop-color="#f00" offset="0"/>
   <stop stop-color="#a70000" stop-opacity="0" offset="1"/>
  </linearGradient>
 </defs>
 <g>
  <g transform="matrix(.69295 0 0 .98144 39.946 1.741)">
   <rect style="paint-order:markers fill stroke" fill-opacity=".82222" height="302.62" width="303.05" y="-1.774" x="-57.645" fill="#f05858"/>
  </g>
  <rect opacity=".672" style="paint-order:markers fill stroke" fill-opacity="0" height="340.2" width="262.64" y="-20.932" x="-15.359"/>
  <path id="crow" d="m6.0974 31.819-0.0176 9.782c7.9732 1.632 7.7412 6.95 7.7842 13.43l0.204 12.81c0.055 3.46 5.011 3.238 5.418-0.18 0.209-1.751 0.068-7.313 0.146-12.797 0.087-6.148 4.051-13.586 9.718-13.215l0.247-9.83-5-2-1.236-8.645c-1.375-9.609-8.608-12.134-10.889 0.298l-1.375 8.347z" fill-rule="evenodd" stroke="#000" stroke-width=".54397"/>
  <ellipse id="eyeball" style="paint-order:markers fill stroke" rx="4.1262" ry="4.1675" cy="21.939" cx="17.899" fill="#fff"/>
  <ellipse id="pupil" style="paint-order:markers fill stroke" rx=".97910" ry=".83923" cy="21.821" cx="17.728"/>
  <path d="m0 45.849h88.458" stroke="#000" stroke-width=".302" fill="none"/>
  <path d="m20.299 75.498c19.328-21.773 44.614-35.716 66.921-53.573 26.75-23.962 81.42-9.809 85.12 30.893 0.64 7.031 2.69 26.182-4.79 36.233-1.7 2.288-4.39 4.401-4.63 7.312-2.18 27.207-12.08 62.477-7.55 69.277 11.2 2.7-37.45-8.82-42.79-26.3-21.566-70.645-83.045-71.276-92.281-63.842z" fill-rule="evenodd" fill="url(#linearGradient841)"/>
  <path d="m70.598 204.23c-10.325 2.09-20.399 1.53-34.998 12.43-0.833 0.62-1.297 1.5-1.536 2.93-1.81 10.79 1.988 27.71 2.422 27.72-2.474 20.28-5.042 33.2-15.138 49.93l147.26 0.33c3.21 1.28 18.9-35.5 5.76-65.94-5.47-12.7-24.12-35.86-24.08-35.97 3.6-3.07-40.92 44.94-77.209 33.52-19.257-6.06-2.483-24.95-2.483-24.95z" fill-rule="evenodd" fill="#f00"/>
  <path d="m20.507 75.465c-0.679 0.644 0.268 1.731 0.354 1.809 1.215 1.081-0.094 36.986 13.999 54.716 4.148 5.21 23.207 9.36 26.507 7.67 4.979-2.55-15.796-12.91-11.395-30.39 1.365-5.41-2.263-16.692-7.171-18.832-6.696-4.363-7.723-11.086-7.379-12.68 2.586-6.065-0.036-5.281-0.036-5.281-4.056-0.196-12.47 0.705-14.879 2.988z" fill="url(#linearGradient864)"/>
  <path d="m171.22 45.874h38.79" stroke="#000" stroke-width=".30122" fill="none"/>
 </g>
</svg>
