<?xml version="1.0" encoding="UTF-8" standalone="no"?>
<svg
   xmlns:dc="http://purl.org/dc/elements/1.1/"
   xmlns:cc="http://creativecommons.org/ns#"
   xmlns:rdf="http://www.w3.org/1999/02/22-rdf-syntax-ns#"
   xmlns:svg="http://www.w3.org/2000/svg"
   xmlns="http://www.w3.org/2000/svg"
   xmlns:sodipodi="http://sodipodi.sourceforge.net/DTD/sodipodi-0.dtd"
   xmlns:inkscape="http://www.inkscape.org/namespaces/inkscape"
   id="svg20"
   version="1.1"
   viewBox="0 0 210 297"
   sodipodi:docname="catcher in the rye.svg"
   inkscape:version="0.92.3 (2405546, 2018-03-11)">
  <metadata
     id="metadata16">
    <rdf:RDF>
      <cc:Work
         rdf:about="">
        <dc:format>image/svg+xml</dc:format>
        <dc:type
           rdf:resource="http://purl.org/dc/dcmitype/StillImage" />
      </cc:Work>
    </rdf:RDF>
  </metadata>
  <defs
     id="defs14" />
  <sodipodi:namedview
     pagecolor="#ffffff"
     bordercolor="#666666"
     borderopacity="1"
     objecttolerance="10"
     gridtolerance="10"
     guidetolerance="10"
     inkscape:pageopacity="0"
     inkscape:pageshadow="2"
     inkscape:window-width="1600"
     inkscape:window-height="837"
     id="namedview12"
     showgrid="false"
     inkscape:zoom="2.1882891"
     inkscape:cx="105"
     inkscape:cy="148.5"
     inkscape:window-x="-8"
     inkscape:window-y="-8"
     inkscape:window-maximized="1"
     inkscape:current-layer="svg20" />
  <rect
     id="holden-background"
     style="paint-order:markers fill stroke"
     height="297"
     width="210"
     y="0"
     x="0"
     fill="#ffd42a" />
  <path
     id="path4692"
     d="M 22.823022,139.96885 C 23.786022,139.43885 24.539022,139.56885 25.087022,140.33885 25.501022,141.21885 24.968022,141.63885 24.751022,142.26885 24.797022,143.15885 25.093022,142.49885 25.177022,142.59885 L 26.701022,140.46885 26.971022,138.67885 26.789022,137.35885 C 26.941022,136.69885 27.423022,136.27885 28.074022,136.78885 L 28.481022,138.67885 28.036022,140.79885 26.880022,142.57885 C 28.495022,142.31885 29.677022,142.87885 29.874022,141.07885 29.956022,140.65885 29.575022,140.02885 30.095022,139.89885 31.471022,139.58885 31.425022,141.26885 30.685022,142.72885 30.410022,143.52885 30.384022,143.52885 29.543022,143.59885 28.876022,143.95885 27.093022,144.06885 27.093022,144.06885 25.915022,145.11885 25.840022,146.97885 25.724022,147.39885 25.536022,148.08885 23.469022,149.02885 22.357022,147.31885 21.909022,146.63885 21.398022,145.66885 21.762022,144.06885 L 17.988022,142.80885 16.497022,141.01885 C 15.593022,139.58885 17.103022,139.55885 18.069022,140.75885 L 18.869022,141.73885 21.728022,142.57885 C 20.352022,140.98885 19.455022,140.21885 18.458022,138.03885 18.215022,137.12885 18.454022,136.32885 18.672022,135.52885 19.007022,135.30885 19.343022,135.21885 19.678022,135.64885 19.942022,136.47885 19.891022,137.20885 19.678022,137.91885 L 21.365022,139.83885 22.705022,141.99885 C 22.393022,141.10885 22.370022,140.84885 22.823022,139.96885 Z"
     inkscape:connector-curvature="0"
     style="fill-rule:evenodd;stroke:#000000;stroke-width:0.061512px" />
  <path
     id="holden-hat"
     d="M 46.080374,83.536 C 47.221374,89.629 49.685374,103.18 59.153374,106.46 91.009374,114.2 94.861374,110.27 121.79137,109.22 122.33137,118.64 130.02137,127.61 136.89137,136.46 138.43137,142.6 140.49137,147.33 140.01137,160.55 139.54137,173.29 141.42137,178.86 139.78137,180.76 151.52137,185.95 173.52137,186.41 173.98137,186.48 177.15137,183.03 180.77137,179.35 182.12137,176.81 189.61137,158.11 186.08137,140.13 188.80137,119.44 L 195.93137,126.37 C 199.73137,121.25 200.98137,111.52 205.43137,96.877 207.47137,83.779 205.70137,64.033 201.45137,61.522 195.10137,55.82 191.00137,53.973 186.14137,53.697 176.76137,53.162 167.87137,58.26 159.45137,53.534 138.02137,53.844 130.86137,47.305 121.27137,43.259 121.49137,41.439 112.22137,41.526 107.61137,47.464 102.67137,53.105 101.92137,58.774 100.97137,63.893 98.421374,77.543 88.176374,85.604 87.748374,83.17 86.785374,84.133 92.731374,89.313 92.072374,89.308 77.294374,91.943 67.284374,89.817 46.080374,83.536 Z"
     inkscape:connector-curvature="0"
     style="fill:#d90000;fill-rule:evenodd;stroke-width:0" />
  <g
     id="g8"
     transform="translate(-7.768626)"
     style="fill-rule:evenodd;stroke:#000000">
    <path
       id="path4694"
       d="M 115.63,46.941 117.18,46.197 C 117.34,45.961 117.36,45.74 117.01,45.56 116.52,45.672 116.29,45.583 115.69,45.9 115.93,44.005 115.34,43.521 114.04,42.545 L 114.39,41.797 115.78,41.78 116.54,41.576 C 116.98,41.965 117.3,41.652 117.35,41.313 117.24,40.669 117.54,40.092 117.03,39.381 116.43,39.372 116.36,40.142 116.29,40.719 115.42,40.777 114.56,39.651 114.12,39.997 113.09,40.459 112.46,41.145 111.81,41.825 110.75,42.045 110.47,41.259 110.41,40.931 110.95,39.885 110.2,39.243 109.45,39.275 L 109.88,38.68 111.68,36.689 111.82,35.445 C 112.99,34.35 112.77,34.13 111.22,34.85 L 110.72,36.734 C 110.05,37.204 109.38,37.669 108.6,38.355 L 107.67,38.723 C 107.52,38.447 106.96,38.493 107.32,37.684 107.95,37.311 108.29,36.399 107.88,36.039 107.95,35.127 107.56,35.486 107.22,35.248 106.73,33.843 105.65,33.723 104.79,34.569 104.17,35.151 104.56,36.261 104.51,36.926 104.43,37.782 104.32,38.294 104.14,38.665 103.95,39.048 103.89,39.372 103.14,39.679 102.73,37.95 102.08,37.297 101.96,35.735 102.35,35.01 102.59,34.653 102.33,34.536 102.05,34.408 101.45,34.772 100.84,35.417 101.88,37.465 101.98,38.744 101.9,40.599 102.46,41.435 104.15,41.319 104.48,41.019 104.99,41.635 105.97,43.145 106.73,44.116 107.23,44.932 108.34,45.369 109.24,45.604 110.2,45.858 110.67,46.217 111.53,45.815 112.23,45.49 112.34,45.067 112.59,44.668 113.84,45.072 114.34,45.397 115.29,46.205 Z"
       inkscape:connector-curvature="0"
       style="stroke-width:0.083073px" />
    <path
       id="path4696"
       d="M 79.986,89.704 C 80.665,89.877 80.456,89.755 81.054,89.877 81.747,90.018 82.84,90.489 83.471,90.226 L 84.742,89.877 C 86.346,90.831 87.513,90.746 88.579,90.475 89.81,90.162 90.579,89.367 91.22,88.482 91.747,87.756 92.611,87.16 92.183,85.996 91.934,85.084 91.999,84.478 90.313,84.349 90.848,83.44 90.248,81.956 91.021,81.405 92.242,80.411 92.954,79.74 92.819,79.288 92.676,78.81 91.618,78.564 90.475,77.964 89.939,78.661 90.078,79.396 91.22,79.811 89.941,80.241 89.131,82.116 88.559,83.47 88.558,82.673 88.03,81.505 87.592,80.708 L 87.148,78.769 84.763,77.802 C 84.209,78.173 84.553,78.544 84.602,78.914 L 86.097,79.712 87.732,84.894 C 88.004,85.917 88.141,86.484 88.785,86.62 87.965,86.823 86.832,87.019 85.622,87.344 84.859,86.834 84.01,86.432 83.059,86.156 82.672,85.579 82.323,84.994 81.482,84.507 81.315,84.119 81.547,83.94 80.603,83.616 79.948,83.731 79.576,83.685 80.182,84.304 80.835,84.688 80.651,84.777 81.174,84.9 L 82.497,86.635 84.318,87.709 C 84.159,87.922 84.156,88.847 83.486,87.84 83.145,87.326 83.3,88.298 82.473,87.69 82.346,87.597 82.172,88.056 81.917,87.953 81.193,88.041 81.037,89.142 81.478,89.379 80.398,89.252 79.645,89.236 78.645,88.83 L 77.8,88.345 C 77.079,88.624 77.175,88.593 77.577,89.06 Z"
       inkscape:connector-curvature="0"
       style="stroke-width:0.13785px" />
    <path
       id="path4698"
       d="M 53.296,79.434 48.995,82.194 C 48.805,82.322 48.796,82.539 48.698,82.712 48.011,83.333 47.895,83.686 48.141,83.867 L 53.874,80.156 54.121,80.898 49.293,84.001 C 49.025,84.114 48.764,84.321 48.596,84.682 48.155,85.253 48.17,85.369 48.245,85.682 50.553,84.192 52.951,82.552 55.111,81.31 55.456,82.234 56.823,81.865 57.296,82.836 59.324,83.509 59.968,83.186 61.214,82.96 61.971,84.016 62.473,84.292 63.379,85.125 65.331,85.522 66.06,85.73 68.012,85.537 68.013,85.976 67.963,86.284 67.733,86.459 67.518,86.622 67.137,86.719 67.136,87.063 66.904,87.413 68.179,87.56 68.311,87.455 L 68.878,86.929 C 69.112,86.207 69.057,86.357 69.167,84.919 68.004,84.39 65.991,84.218 63.936,83.867 63.162,83.174 62.887,82.356 62.534,81.558 L 64.926,82.96 C 66.02,82.492 67.253,82.231 67.936,81.145 68.064,80.03 68.78,79.9 68.898,78.869 68.914,78.727 69.629,78.965 70.135,78.924 71.145,78.842 71.951,78.494 69.098,77.705 68.632,77.438 67.893,76.979 67.881,77.39 67.837,78.785 67.84,77.722 67.682,78.712 L 66.74,80.65 C 66.279,80.985 65.935,81.396 64.843,81.31 64.442,80.847 63.869,80.427 63.029,80.073 62.725,79.362 60.976,78.548 60.224,79.083 L 59.585,79.29 C 57.986,78.945 58.003,78.894 54.616,77.929 54.357,77.391 53.99,76.96 54.039,76.114 53.874,74.913 52.885,74.496 52.059,74.836 50.384,75.524 51.238,76.286 50.698,77.475 51.314,77.899 51.547,78.482 51.814,78.77 52.195,79.181 52.794,78.975 52.966,78.135 53.174,78.548 53.597,78.919 53.296,79.434 Z"
       inkscape:connector-curvature="0"
       style="stroke-width:0.23352px" />
  </g>
  <path
     id="rye-59-7"
     d="M -4.463344,188.40978 -4.882844,188.59978 1.394956,181.45978 3.227756,179.59978 3.916356,177.96978 1.851556,179.34978 2.781756,178.27978 4.397356,175.13978 -8.128644,174.43978 4.477356,174.62978 C 4.562856,173.37978 3.767256,172.76978 2.238056,172.69978 L 0.28495597,172.47978 3.245156,171.92978 4.247356,171.53978 -3.830744,169.21978 4.198956,171.05978 7.964356,171.41978 4.748556,169.50978 -2.496444,167.38978 7.494856,170.32978 10.217256,170.65978 0.85685597,166.79978 12.302856,170.72978 3.809756,166.20978 14.212756,171.48978 5.862156,167.23978 C 8.490956,169.51978 12.865756,170.18978 15.466756,170.21978 L 12.938756,169.08978 18.129756,170.68978 11.750756,166.87978 19.490756,170.84978 C 18.928756,170.23978 17.925756,168.98978 19.010756,169.69978 19.828756,170.23978 22.435756,170.37978 23.725756,170.16978 L 15.085756,166.39978 24.545756,169.90978 25.085756,168.77978 29.624756,169.45978 18.517756,165.88978 30.539756,169.01978 C 30.333756,169.15978 33.008756,168.88978 35.332756,168.71978 50.687756,168.13978 69.071756,164.37978 83.868756,162.53978 L 83.472756,164.08978 C 68.671756,166.75978 51.287756,168.09978 35.936756,170.82978 34.810756,170.51978 26.118756,180.88978 25.274756,181.45978 24.490756,181.99978 32.393756,172.64978 31.574756,173.15978 30.878756,174.76978 30.045756,173.34978 29.227756,174.37978 17.162756,189.57978 24.335756,179.10978 28.085756,174.52978 29.748756,172.49978 20.316756,181.42978 18.248756,182.65978 L 27.856756,173.77978 13.368756,182.63978 23.756756,175.08978 C 22.331756,175.72978 17.564756,178.84978 16.782756,179.46978 11.814756,183.35978 14.527756,181.57978 17.102756,178.08978 L 4.698756,188.44978 15.160756,178.80978 2.501756,188.21978 13.209756,179.37978 -2.673244,190.97978 12.771756,178.93978 7.692956,181.51978 11.767756,178.80978 C 11.149756,178.18978 6.796856,180.06978 3.796256,182.97978 3.406156,183.35978 6.999656,180.16978 7.168756,179.75978 7.999856,177.70978 6.691556,179.60978 6.451456,179.53978 L -5.124544,191.92978 6.117456,179.08978 -6.294544,191.41978 5.989456,178.60978 2.956756,180.44978 Z"
     inkscape:connector-curvature="0"
     style="fill:#ffffff;fill-rule:evenodd" />
</svg>
