<?xml version="1.0" encoding="UTF-8" standalone="no"?>
<svg
   xmlns:dc="http://purl.org/dc/elements/1.1/"
   xmlns:cc="http://creativecommons.org/ns#"
   xmlns:rdf="http://www.w3.org/1999/02/22-rdf-syntax-ns#"
   xmlns:svg="http://www.w3.org/2000/svg"
   xmlns="http://www.w3.org/2000/svg"
   xmlns:sodipodi="http://sodipodi.sourceforge.net/DTD/sodipodi-0.dtd"
   xmlns:inkscape="http://www.inkscape.org/namespaces/inkscape"
   id="svg20"
   version="1.1"
   viewBox="0 0 210 210"
   sodipodi:docname="catcher in the rye - background.svg"
   inkscape:version="0.92.3 (2405546, 2018-03-11)">
  <metadata
     id="metadata17">
    <rdf:RDF>
      <cc:Work
         rdf:about="">
        <dc:format>image/svg+xml</dc:format>
        <dc:type
           rdf:resource="http://purl.org/dc/dcmitype/StillImage" />
      </cc:Work>
    </rdf:RDF>
  </metadata>
  <defs
     id="defs15" />
  <sodipodi:namedview
     pagecolor="#ffffff"
     bordercolor="#666666"
     borderopacity="1"
     objecttolerance="10"
     gridtolerance="10"
     guidetolerance="10"
     inkscape:pageopacity="0"
     inkscape:pageshadow="2"
     inkscape:window-width="1600"
     inkscape:window-height="837"
     id="namedview13"
     showgrid="false"
     inkscape:zoom="1.547433"
     inkscape:cx="105"
     inkscape:cy="105"
     inkscape:window-x="-8"
     inkscape:window-y="-8"
     inkscape:window-maximized="1"
     inkscape:current-layer="svg20" />
  <rect
     x="-12.850297"
     y="-24.543053"
     width="243.60202"
     height="286.49188"
     style="fill:#ffd42a;stroke-width:0.92017955;paint-order:markers fill stroke"
     id="holden-background" />
  <path
     style="fill:#d90000;fill-rule:evenodd;stroke-width:0"
     inkscape:connector-curvature="0"
     d="M 31.668828,76.306499 C 32.741921,81.792042 35.059238,93.992438 43.96366,96.945371 73.923434,103.91389 77.546155,100.37566 102.87318,99.430319 103.38074,107.9116 110.61322,115.98734 117.07434,123.95518 118.52261,129.48315 120.46006,133.74171 120.0088,145.64403 119.56641,157.11389 121.33455,162.12886 119.79226,163.83951 130.83354,168.51229 151.52379,168.92635 151.95645,168.98943 154.9379,165.88313 158.34254,162.57011 159.61185,160.28342 166.65625,143.44711 163.33639,127.25929 165.89431,108.63169 L 172.59986,114.87095 C 176.17392,110.26143 177.34943,101.50112 181.53452,88.317677 183.45312,76.52523 181.78826,58.747471 177.79136,56.486747 171.81913,51.353104 167.96345,49.690203 163.39266,49.441719 154.57099,48.960071 146.21016,53.549903 138.29149,49.294955 118.13684,49.574063 111.40306,43.686853 102.38394,40.04413 102.5911,38.405542 93.872822,38.483884 89.537241,43.830006 84.891127,48.908736 84.185979,54.012655 83.292408,58.621412 80.894217,70.910824 71.259062,78.16834 70.856544,75.976927 69.950858,76.84397 75.54294,81.507671 74.923142,81.503044 61.024823,83.87552 51.610669,81.961363 31.668828,76.306499 Z"
     id="holden-hat" />
  <g
     style="fill-rule:evenodd;stroke:#000000"
     id="g8"
     transform="matrix(0.94047475,0,0,0.90032351,-18.974789,1.0970464)">
    <path
       style="stroke-width:0.083073px"
       inkscape:connector-curvature="0"
       d="M 115.63,46.941 117.18,46.197 C 117.34,45.961 117.36,45.74 117.01,45.56 116.52,45.672 116.29,45.583 115.69,45.9 115.93,44.005 115.34,43.521 114.04,42.545 L 114.39,41.797 115.78,41.78 116.54,41.576 C 116.98,41.965 117.3,41.652 117.35,41.313 117.24,40.669 117.54,40.092 117.03,39.381 116.43,39.372 116.36,40.142 116.29,40.719 115.42,40.777 114.56,39.651 114.12,39.997 113.09,40.459 112.46,41.145 111.81,41.825 110.75,42.045 110.47,41.259 110.41,40.931 110.95,39.885 110.2,39.243 109.45,39.275 L 109.88,38.68 111.68,36.689 111.82,35.445 C 112.99,34.35 112.77,34.13 111.22,34.85 L 110.72,36.734 C 110.05,37.204 109.38,37.669 108.6,38.355 L 107.67,38.723 C 107.52,38.447 106.96,38.493 107.32,37.684 107.95,37.311 108.29,36.399 107.88,36.039 107.95,35.127 107.56,35.486 107.22,35.248 106.73,33.843 105.65,33.723 104.79,34.569 104.17,35.151 104.56,36.261 104.51,36.926 104.43,37.782 104.32,38.294 104.14,38.665 103.95,39.048 103.89,39.372 103.14,39.679 102.73,37.95 102.08,37.297 101.96,35.735 102.35,35.01 102.59,34.653 102.33,34.536 102.05,34.408 101.45,34.772 100.84,35.417 101.88,37.465 101.98,38.744 101.9,40.599 102.46,41.435 104.15,41.319 104.48,41.019 104.99,41.635 105.97,43.145 106.73,44.116 107.23,44.932 108.34,45.369 109.24,45.604 110.2,45.858 110.67,46.217 111.53,45.815 112.23,45.49 112.34,45.067 112.59,44.668 113.84,45.072 114.34,45.397 115.29,46.205 Z"
       id="path4694" />
    <path
       style="stroke-width:0.13785px"
       inkscape:connector-curvature="0"
       d="M 79.986,89.704 C 80.665,89.877 80.456,89.755 81.054,89.877 81.747,90.018 82.84,90.489 83.471,90.226 L 84.742,89.877 C 86.346,90.831 87.513,90.746 88.579,90.475 89.81,90.162 90.579,89.367 91.22,88.482 91.747,87.756 92.611,87.16 92.183,85.996 91.934,85.084 91.999,84.478 90.313,84.349 90.848,83.44 90.248,81.956 91.021,81.405 92.242,80.411 92.954,79.74 92.819,79.288 92.676,78.81 91.618,78.564 90.475,77.964 89.939,78.661 90.078,79.396 91.22,79.811 89.941,80.241 89.131,82.116 88.559,83.47 88.558,82.673 88.03,81.505 87.592,80.708 L 87.148,78.769 84.763,77.802 C 84.209,78.173 84.553,78.544 84.602,78.914 L 86.097,79.712 87.732,84.894 C 88.004,85.917 88.141,86.484 88.785,86.62 87.965,86.823 86.832,87.019 85.622,87.344 84.859,86.834 84.01,86.432 83.059,86.156 82.672,85.579 82.323,84.994 81.482,84.507 81.315,84.119 81.547,83.94 80.603,83.616 79.948,83.731 79.576,83.685 80.182,84.304 80.835,84.688 80.651,84.777 81.174,84.9 L 82.497,86.635 84.318,87.709 C 84.159,87.922 84.156,88.847 83.486,87.84 83.145,87.326 83.3,88.298 82.473,87.69 82.346,87.597 82.172,88.056 81.917,87.953 81.193,88.041 81.037,89.142 81.478,89.379 80.398,89.252 79.645,89.236 78.645,88.83 L 77.8,88.345 C 77.079,88.624 77.175,88.593 77.577,89.06 Z"
       id="path4696" />
    <path
       style="stroke-width:0.23352px"
       inkscape:connector-curvature="0"
       d="M 53.296,79.434 48.995,82.194 C 48.805,82.322 48.796,82.539 48.698,82.712 48.011,83.333 47.895,83.686 48.141,83.867 L 53.874,80.156 54.121,80.898 49.293,84.001 C 49.025,84.114 48.764,84.321 48.596,84.682 48.155,85.253 48.17,85.369 48.245,85.682 50.553,84.192 52.951,82.552 55.111,81.31 55.456,82.234 56.823,81.865 57.296,82.836 59.324,83.509 59.968,83.186 61.214,82.96 61.971,84.016 62.473,84.292 63.379,85.125 65.331,85.522 66.06,85.73 68.012,85.537 68.013,85.976 67.963,86.284 67.733,86.459 67.518,86.622 67.137,86.719 67.136,87.063 66.904,87.413 68.179,87.56 68.311,87.455 L 68.878,86.929 C 69.112,86.207 69.057,86.357 69.167,84.919 68.004,84.39 65.991,84.218 63.936,83.867 63.162,83.174 62.887,82.356 62.534,81.558 L 64.926,82.96 C 66.02,82.492 67.253,82.231 67.936,81.145 68.064,80.03 68.78,79.9 68.898,78.869 68.914,78.727 69.629,78.965 70.135,78.924 71.145,78.842 71.951,78.494 69.098,77.705 68.632,77.438 67.893,76.979 67.881,77.39 67.837,78.785 67.84,77.722 67.682,78.712 L 66.74,80.65 C 66.279,80.985 65.935,81.396 64.843,81.31 64.442,80.847 63.869,80.427 63.029,80.073 62.725,79.362 60.976,78.548 60.224,79.083 L 59.585,79.29 C 57.986,78.945 58.003,78.894 54.616,77.929 54.357,77.391 53.99,76.96 54.039,76.114 53.874,74.913 52.885,74.496 52.059,74.836 50.384,75.524 51.238,76.286 50.698,77.475 51.314,77.899 51.547,78.482 51.814,78.77 52.195,79.181 52.794,78.975 52.966,78.135 53.174,78.548 53.597,78.919 53.296,79.434 Z"
       id="path4698" />
  </g>
</svg>
