<svg xmlns="http://www.w3.org/2000/svg" class="frequency-punchcard" viewBox="0 0 800 800"><g transform="translate(10,10)"><rect x="150" y="30" style="fill-opacity: 0; stroke: rgb(0, 0, 0); stroke-width: 3; shape-rendering: crispedges;" width="630" height="540"></rect><text y="30" transform="translate(0,-6)" class="xLabel" style="text-anchor: middle; fill-opacity: 1;" x="195">Sunday</text><text y="30" transform="translate(0,-6)" class="xLabel" style="text-anchor: middle; fill-opacity: 1;" x="285">Monday</text><text y="30" transform="translate(0,-6)" class="xLabel" style="text-anchor: middle; fill-opacity: 1;" x="375">Tuesday</text><text y="30" transform="translate(0,-6)" class="xLabel" style="text-anchor: middle; fill-opacity: 1;" x="465">Wednesday</text><text y="30" transform="translate(0,-6)" class="xLabel" style="text-anchor: middle; fill-opacity: 1;" x="555">Thursday</text><text y="30" transform="translate(0,-6)" class="xLabel" style="text-anchor: middle; fill-opacity: 1;" x="645">Friday</text><text y="30" transform="translate(0,-6)" class="xLabel" style="text-anchor: middle; fill-opacity: 1;" x="735">Saturday</text><line class="vert" y1="31.5" stroke="#888" stroke-width="1" style="shape-rendering: crispedges; stroke-opacity: 0;" x1="150" x2="150" y2="568.5"></line><line class="vert" y1="31.5" stroke="#888" stroke-width="1" style="shape-rendering: crispedges; stroke-opacity: 1;" x1="240" x2="240" y2="568.5"></line><line class="vert" y1="31.5" stroke="#888" stroke-width="1" style="shape-rendering: crispedges; stroke-opacity: 1;" x1="330" x2="330" y2="568.5"></line><line class="vert" y1="31.5" stroke="#888" stroke-width="1" style="shape-rendering: crispedges; stroke-opacity: 1;" x1="420" x2="420" y2="568.5"></line><line class="vert" y1="31.5" stroke="#888" stroke-width="1" style="shape-rendering: crispedges; stroke-opacity: 1;" x1="510" x2="510" y2="568.5"></line><line class="vert" y1="31.5" stroke="#888" stroke-width="1" style="shape-rendering: crispedges; stroke-opacity: 1;" x1="600" x2="600" y2="568.5"></line><line class="vert" y1="31.5" stroke="#888" stroke-width="1" style="shape-rendering: crispedges; stroke-opacity: 1;" x1="690" x2="690" y2="568.5"></line><g class="row" transform="translate(150, 75)"><circle cy="0" r="42" style="fill: rgb(0, 0, 0);" cx="45">18</circle><circle cy="0" r="42" style="fill: rgb(0, 0, 0);" cx="135">18</circle><circle cy="0" r="42" style="fill: rgb(0, 0, 0);" cx="225">18</circle><circle cy="0" r="42" style="fill: rgb(0, 0, 0);" cx="315">18</circle><circle cy="0" r="42" style="fill: rgb(0, 0, 0);" cx="405">18</circle><circle cy="0" r="42" style="fill: rgb(0, 0, 0);" cx="495">18</circle><circle cy="0" r="42" style="fill: rgb(0, 0, 0);" cx="585">18</circle><g class="dot-label" transform="translate(0,-45)"><rect style="fill: rgb(0, 0, 0); opacity: 0;" x="0" y="0" width="90" height="90"></rect><text style="text-anchor: middle; fill: rgb(255, 255, 255); opacity: 0;" x="45" y="49">18</text></g><g class="dot-label" transform="translate(90,-45)"><rect style="fill: rgb(0, 0, 0); opacity: 0;" x="0" y="0" width="90" height="90"></rect><text style="text-anchor: middle; fill: rgb(255, 255, 255); opacity: 0;" x="45" y="49">18</text></g><g class="dot-label" transform="translate(180,-45)"><rect style="fill: rgb(0, 0, 0); opacity: 0;" x="0" y="0" width="90" height="90"></rect><text style="text-anchor: middle; fill: rgb(255, 255, 255); opacity: 0;" x="45" y="49">18</text></g><g class="dot-label" transform="translate(270,-45)"><rect style="fill: rgb(0, 0, 0); opacity: 0;" x="0" y="0" width="90" height="90"></rect><text style="text-anchor: middle; fill: rgb(255, 255, 255); opacity: 0;" x="45" y="49">18</text></g><g class="dot-label" transform="translate(360,-45)"><rect style="fill: rgb(0, 0, 0); opacity: 0;" x="0" y="0" width="90" height="90"></rect><text style="text-anchor: middle; fill: rgb(255, 255, 255); opacity: 0;" x="45" y="49">18</text></g><g class="dot-label" transform="translate(450,-45)"><rect style="fill: rgb(0, 0, 0); opacity: 0;" x="0" y="0" width="90" height="90"></rect><text style="text-anchor: middle; fill: rgb(255, 255, 255); opacity: 0;" x="45" y="49">18</text></g><g class="dot-label" transform="translate(540,-45)"><rect style="fill: rgb(0, 0, 0); opacity: 0;" x="0" y="0" width="90" height="90"></rect><text style="text-anchor: middle; fill: rgb(255, 255, 255); opacity: 0;" x="45" y="49">18</text></g></g><g class="row" transform="translate(150, 165)"><circle cy="0" r="23" style="fill: rgb(147, 147, 147);" cx="45">5</circle><circle cy="0" r="32" style="fill: rgb(91, 91, 91);" cx="135">10</circle><circle cy="0" r="32" style="fill: rgb(91, 91, 91);" cx="225">10</circle><circle cy="0" r="32" style="fill: rgb(91, 91, 91);" cx="315">10</circle><circle cy="0" r="32" style="fill: rgb(91, 91, 91);" cx="405">10</circle><circle cy="0" r="32" style="fill: rgb(91, 91, 91);" cx="495">10</circle><circle cy="0" r="23" style="fill: rgb(147, 147, 147);" cx="585">5</circle><g class="dot-label" transform="translate(0,-45)"><rect style="fill: rgb(0, 0, 0); opacity: 0;" x="0" y="0" width="90" height="90"></rect><text style="text-anchor: middle; fill: rgb(255, 255, 255); opacity: 0;" x="45" y="49">5</text></g><g class="dot-label" transform="translate(90,-45)"><rect style="fill: rgb(0, 0, 0); opacity: 0;" x="0" y="0" width="90" height="90"></rect><text style="text-anchor: middle; fill: rgb(255, 255, 255); opacity: 0;" x="45" y="49">10</text></g><g class="dot-label" transform="translate(180,-45)"><rect style="fill: rgb(0, 0, 0); opacity: 0;" x="0" y="0" width="90" height="90"></rect><text style="text-anchor: middle; fill: rgb(255, 255, 255); opacity: 0;" x="45" y="49">10</text></g><g class="dot-label" transform="translate(270,-45)"><rect style="fill: rgb(0, 0, 0); opacity: 0;" x="0" y="0" width="90" height="90"></rect><text style="text-anchor: middle; fill: rgb(255, 255, 255); opacity: 0;" x="45" y="49">10</text></g><g class="dot-label" transform="translate(360,-45)"><rect style="fill: rgb(0, 0, 0); opacity: 0;" x="0" y="0" width="90" height="90"></rect><text style="text-anchor: middle; fill: rgb(255, 255, 255); opacity: 0;" x="45" y="49">10</text></g><g class="dot-label" transform="translate(450,-45)"><rect style="fill: rgb(0, 0, 0); opacity: 0;" x="0" y="0" width="90" height="90"></rect><text style="text-anchor: middle; fill: rgb(255, 255, 255); opacity: 0;" x="45" y="49">10</text></g><g class="dot-label" transform="translate(540,-45)"><rect style="fill: rgb(0, 0, 0); opacity: 0;" x="0" y="0" width="90" height="90"></rect><text style="text-anchor: middle; fill: rgb(255, 255, 255); opacity: 0;" x="45" y="49">5</text></g></g><g class="row" transform="translate(150, 255)"><circle cy="0" r="0" style="fill: rgb(204, 204, 204);" cx="45">0</circle><circle cy="0" r="32" style="fill: rgb(91, 91, 91);" cx="135">10</circle><circle cy="0" r="32" style="fill: rgb(91, 91, 91);" cx="225">10</circle><circle cy="0" r="32" style="fill: rgb(91, 91, 91);" cx="315">10</circle><circle cy="0" r="32" style="fill: rgb(91, 91, 91);" cx="405">10</circle><circle cy="0" r="32" style="fill: rgb(91, 91, 91);" cx="495">10</circle><circle cy="0" r="32" style="fill: rgb(91, 91, 91);" cx="585">10</circle><g class="dot-label" transform="translate(0,-45)"><rect style="fill: rgb(0, 0, 0); opacity: 0;" x="0" y="0" width="90" height="90"></rect><text style="text-anchor: middle; fill: rgb(255, 255, 255); opacity: 0;" x="45" y="49">0</text></g><g class="dot-label" transform="translate(90,-45)"><rect style="fill: rgb(0, 0, 0); opacity: 0;" x="0" y="0" width="90" height="90"></rect><text style="text-anchor: middle; fill: rgb(255, 255, 255); opacity: 0;" x="45" y="49">10</text></g><g class="dot-label" transform="translate(180,-45)"><rect style="fill: rgb(0, 0, 0); opacity: 0;" x="0" y="0" width="90" height="90"></rect><text style="text-anchor: middle; fill: rgb(255, 255, 255); opacity: 0;" x="45" y="49">10</text></g><g class="dot-label" transform="translate(270,-45)"><rect style="fill: rgb(0, 0, 0); opacity: 0;" x="0" y="0" width="90" height="90"></rect><text style="text-anchor: middle; fill: rgb(255, 255, 255); opacity: 0;" x="45" y="49">10</text></g><g class="dot-label" transform="translate(360,-45)"><rect style="fill: rgb(0, 0, 0); opacity: 0;" x="0" y="0" width="90" height="90"></rect><text style="text-anchor: middle; fill: rgb(255, 255, 255); opacity: 0;" x="45" y="49">10</text></g><g class="dot-label" transform="translate(450,-45)"><rect style="fill: rgb(0, 0, 0); opacity: 0;" x="0" y="0" width="90" height="90"></rect><text style="text-anchor: middle; fill: rgb(255, 255, 255); opacity: 0;" x="45" y="49">10</text></g><g class="dot-label" transform="translate(540,-45)"><rect style="fill: rgb(0, 0, 0); opacity: 0;" x="0" y="0" width="90" height="90"></rect><text style="text-anchor: middle; fill: rgb(255, 255, 255); opacity: 0;" x="45" y="49">10</text></g></g><g class="row" transform="translate(150, 345)"><circle cy="0" r="39" style="fill: rgb(34, 34, 34);" cx="45">15</circle><circle cy="0" r="39" style="fill: rgb(34, 34, 34);" cx="135">15</circle><circle cy="0" r="39" style="fill: rgb(34, 34, 34);" cx="225">15</circle><circle cy="0" r="39" style="fill: rgb(34, 34, 34);" cx="315">15</circle><circle cy="0" r="39" style="fill: rgb(34, 34, 34);" cx="405">15</circle><circle cy="0" r="39" style="fill: rgb(34, 34, 34);" cx="495">15</circle><circle cy="0" r="39" style="fill: rgb(34, 34, 34);" cx="585">15</circle><g class="dot-label" transform="translate(0,-45)"><rect style="fill: rgb(0, 0, 0); opacity: 0;" x="0" y="0" width="90" height="90"></rect><text style="text-anchor: middle; fill: rgb(255, 255, 255); opacity: 0;" x="45" y="49">15</text></g><g class="dot-label" transform="translate(90,-45)"><rect style="fill: rgb(0, 0, 0); opacity: 0;" x="0" y="0" width="90" height="90"></rect><text style="text-anchor: middle; fill: rgb(255, 255, 255); opacity: 0;" x="45" y="49">15</text></g><g class="dot-label" transform="translate(180,-45)"><rect style="fill: rgb(0, 0, 0); opacity: 0;" x="0" y="0" width="90" height="90"></rect><text style="text-anchor: middle; fill: rgb(255, 255, 255); opacity: 0;" x="45" y="49">15</text></g><g class="dot-label" transform="translate(270,-45)"><rect style="fill: rgb(0, 0, 0); opacity: 0;" x="0" y="0" width="90" height="90"></rect><text style="text-anchor: middle; fill: rgb(255, 255, 255); opacity: 0;" x="45" y="49">15</text></g><g class="dot-label" transform="translate(360,-45)"><rect style="fill: rgb(0, 0, 0); opacity: 0;" x="0" y="0" width="90" height="90"></rect><text style="text-anchor: middle; fill: rgb(255, 255, 255); opacity: 0;" x="45" y="49">15</text></g><g class="dot-label" transform="translate(450,-45)"><rect style="fill: rgb(0, 0, 0); opacity: 0;" x="0" y="0" width="90" height="90"></rect><text style="text-anchor: middle; fill: rgb(255, 255, 255); opacity: 0;" x="45" y="49">15</text></g><g class="dot-label" transform="translate(540,-45)"><rect style="fill: rgb(0, 0, 0); opacity: 0;" x="0" y="0" width="90" height="90"></rect><text style="text-anchor: middle; fill: rgb(255, 255, 255); opacity: 0;" x="45" y="49">15</text></g></g><g class="row" transform="translate(150, 435)"><circle cy="0" r="0" style="fill: rgb(204, 204, 204);" cx="45">0</circle><circle cy="0" r="25" style="fill: rgb(136, 136, 136);" cx="135">6</circle><circle cy="0" r="25" style="fill: rgb(136, 136, 136);" cx="225">6</circle><circle cy="0" r="25" style="fill: rgb(136, 136, 136);" cx="315">6</circle><circle cy="0" r="25" style="fill: rgb(136, 136, 136);" cx="405">6</circle><circle cy="0" r="25" style="fill: rgb(136, 136, 136);" cx="495">6</circle><circle cy="0" r="0" style="fill: rgb(204, 204, 204);" cx="585">0</circle><g class="dot-label" transform="translate(0,-45)"><rect style="fill: rgb(0, 0, 0); opacity: 0;" x="0" y="0" width="90" height="90"></rect><text style="text-anchor: middle; fill: rgb(255, 255, 255); opacity: 0;" x="45" y="49">0</text></g><g class="dot-label" transform="translate(90,-45)"><rect style="fill: rgb(0, 0, 0); opacity: 0;" x="0" y="0" width="90" height="90"></rect><text style="text-anchor: middle; fill: rgb(255, 255, 255); opacity: 0;" x="45" y="49">6</text></g><g class="dot-label" transform="translate(180,-45)"><rect style="fill: rgb(0, 0, 0); opacity: 0;" x="0" y="0" width="90" height="90"></rect><text style="text-anchor: middle; fill: rgb(255, 255, 255); opacity: 0;" x="45" y="49">6</text></g><g class="dot-label" transform="translate(270,-45)"><rect style="fill: rgb(0, 0, 0); opacity: 0;" x="0" y="0" width="90" height="90"></rect><text style="text-anchor: middle; fill: rgb(255, 255, 255); opacity: 0;" x="45" y="49">6</text></g><g class="dot-label" transform="translate(360,-45)"><rect style="fill: rgb(0, 0, 0); opacity: 0;" x="0" y="0" width="90" height="90"></rect><text style="text-anchor: middle; fill: rgb(255, 255, 255); opacity: 0;" x="45" y="49">6</text></g><g class="dot-label" transform="translate(450,-45)"><rect style="fill: rgb(0, 0, 0); opacity: 0;" x="0" y="0" width="90" height="90"></rect><text style="text-anchor: middle; fill: rgb(255, 255, 255); opacity: 0;" x="45" y="49">6</text></g><g class="dot-label" transform="translate(540,-45)"><rect style="fill: rgb(0, 0, 0); opacity: 0;" x="0" y="0" width="90" height="90"></rect><text style="text-anchor: middle; fill: rgb(255, 255, 255); opacity: 0;" x="45" y="49">0</text></g></g><g class="row" transform="translate(150, 525)"><circle cy="0" r="21" style="fill: rgb(159, 159, 159);" cx="45">4</circle><circle cy="0" r="21" style="fill: rgb(159, 159, 159);" cx="135">4</circle><circle cy="0" r="21" style="fill: rgb(159, 159, 159);" cx="225">4</circle><circle cy="0" r="21" style="fill: rgb(159, 159, 159);" cx="315">4</circle><circle cy="0" r="21" style="fill: rgb(159, 159, 159);" cx="405">4</circle><circle cy="0" r="21" style="fill: rgb(159, 159, 159);" cx="495">4</circle><circle cy="0" r="21" style="fill: rgb(159, 159, 159);" cx="585">4</circle><g class="dot-label" transform="translate(0,-45)"><rect style="fill: rgb(0, 0, 0); opacity: 0;" x="0" y="0" width="90" height="90"></rect><text style="text-anchor: middle; fill: rgb(255, 255, 255); opacity: 0;" x="45" y="49">4</text></g><g class="dot-label" transform="translate(90,-45)"><rect style="fill: rgb(0, 0, 0); opacity: 0;" x="0" y="0" width="90" height="90"></rect><text style="text-anchor: middle; fill: rgb(255, 255, 255); opacity: 0;" x="45" y="49">4</text></g><g class="dot-label" transform="translate(180,-45)"><rect style="fill: rgb(0, 0, 0); opacity: 0;" x="0" y="0" width="90" height="90"></rect><text style="text-anchor: middle; fill: rgb(255, 255, 255); opacity: 0;" x="45" y="49">4</text></g><g class="dot-label" transform="translate(270,-45)"><rect style="fill: rgb(0, 0, 0); opacity: 0;" x="0" y="0" width="90" height="90"></rect><text style="text-anchor: middle; fill: rgb(255, 255, 255); opacity: 0;" x="45" y="49">4</text></g><g class="dot-label" transform="translate(360,-45)"><rect style="fill: rgb(0, 0, 0); opacity: 0;" x="0" y="0" width="90" height="90"></rect><text style="text-anchor: middle; fill: rgb(255, 255, 255); opacity: 0;" x="45" y="49">4</text></g><g class="dot-label" transform="translate(450,-45)"><rect style="fill: rgb(0, 0, 0); opacity: 0;" x="0" y="0" width="90" height="90"></rect><text style="text-anchor: middle; fill: rgb(255, 255, 255); opacity: 0;" x="45" y="49">4</text></g><g class="dot-label" transform="translate(540,-45)"><rect style="fill: rgb(0, 0, 0); opacity: 0;" x="0" y="0" width="90" height="90"></rect><text style="text-anchor: middle; fill: rgb(255, 255, 255); opacity: 0;" x="45" y="49">4</text></g></g><text x="150" class="yLabel" style="text-anchor: end; fill-opacity: 1;" y="75" transform="translate(-6, 18)">Cork-&gt;Dublin</text><text x="150" class="yLabel" style="text-anchor: end; fill-opacity: 1;" y="165" transform="translate(-6, 18)">Cork-&gt;Tralee</text><text x="150" class="yLabel" style="text-anchor: end; fill-opacity: 1;" y="255" transform="translate(-6, 18)">Cork-&gt;Limerick</text><text x="150" class="yLabel" style="text-anchor: end; fill-opacity: 1;" y="345" transform="translate(-6, 18)">Cork-&gt;Galway</text><text x="150" class="yLabel" style="text-anchor: end; fill-opacity: 1;" y="435" transform="translate(-6, 18)">Galway-&gt;Roscommon</text><text x="150" class="yLabel" style="text-anchor: end; fill-opacity: 1;" y="525" transform="translate(-6, 18)">Roscommon-&gt;Sligo</text><line class="horiz" x1="151.5" stroke="#888" stroke-width="1" style="shape-rendering: crispedges; stroke-opacity: 0;" x2="778.5" y1="30" y2="30"></line><line class="horiz" x1="151.5" stroke="#888" stroke-width="1" style="shape-rendering: crispedges; stroke-opacity: 1;" x2="778.5" y1="120" y2="120"></line><line class="horiz" x1="151.5" stroke="#888" stroke-width="1" style="shape-rendering: crispedges; stroke-opacity: 1;" x2="778.5" y1="210" y2="210"></line><line class="horiz" x1="151.5" stroke="#888" stroke-width="1" style="shape-rendering: crispedges; stroke-opacity: 1;" x2="778.5" y1="300" y2="300"></line><line class="horiz" x1="151.5" stroke="#888" stroke-width="1" style="shape-rendering: crispedges; stroke-opacity: 1;" x2="778.5" y1="390" y2="390"></line><line class="horiz" x1="151.5" stroke="#888" stroke-width="1" style="shape-rendering: crispedges; stroke-opacity: 1;" x2="778.5" y1="480" y2="480"></line></g></svg>