<svg xmlns="http://www.w3.org/2000/svg" data-name="Layer 1" viewBox="0 0 100 125" id="guinness"><path d="M46.066 13.88a56.65 56.65 0 0 0-13.42 1.542c-3.29.84-6.488 1.89-8.878 4.52a2.46 2.46 0 0 0-.74 1.48c-.26 3-.561 6-.811 9a192.33 192.33 0 0 0-.29 20.25 57.7 57.7 0 0 0 .92 10.818c1.48 6.9 3 13.771 4.33 20.711a53.77 53.77 0 0 1 1.06 12.381c-.17 3.73-.38 7.45-.7 11.17a4.55 4.55 0 0 0 2.58 4.61 25.23 25.23 0 0 0 7.16 2.66c4 1 8.11.78 12.2.84a36.35 36.35 0 0 0 9.81-1.18 17.42 17.42 0 0 0 6.94-3.131 3.75 3.75 0 0 0 1.56-3.67 40.69 40.69 0 0 1-.33-4.36c-.25-4.83-.68-9.67.05-14.48.66-4.28 1.5-8.54 2.35-12.78.93-4.64 2.15-9.23 2.93-13.87 1.1-6.19.79-12.47.93-18.09.01-6.9-.53-13.13-.99-19.37a6.06 6.06 0 0 0-3.11-5 20.27 20.27 0 0 0-5.88-2.42c-5.8-1.51-11.72-1.69-17.67-1.63zm3.149 1.667a80.45 80.45 0 0 1 10.082.805 27.93 27.93 0 0 1 7.7 2 21.82 21.82 0 0 1 2 1 3.35 3.35 0 0 1 1.79 2.968 183.93 183.93 0 0 1 1.08 22.932 118 118 0 0 1-.56 12.83 80.33 80.33 0 0 1-1.88 9.059 313.198 313.198 0 0 0-4 20.13 33.88 33.88 0 0 0-.23 6.391c.1 4 .2 8 .63 11.92.18 1.65-.84 2.56-2.05 3.26a20.16 20.16 0 0 1-7.28 2.24 56 56 0 0 1-19.19-.271 18.22 18.22 0 0 1-6.1-2.13 3.12 3.12 0 0 1-1.71-3.15c.27-3.86.42-7.73.65-11.6.28-4.77-.67-9.4-1.54-14-1.24-6.59-2.91-13.09-4.27-19.65a37.78 37.78 0 0 1-.669-6.14 184.66 184.66 0 0 1 .469-27.58c.15-1.38.29-2.76.32-4.14a3.15 3.15 0 0 1 1.65-2.78 20.62 20.62 0 0 1 7.1-2.76 80.45 80.45 0 0 1 16.008-1.334zM27.576 20.7l-1.158 1.93c.34.21 5.14 3 18.52 3a146.55 146.55 0 0 0 23.68-2.19l-.18-1.12-.15-.8-.052-.31c-30.93 5.1-40.56-.46-40.66-.51zm-2.408 7.283c-.093.022-.135.102-.15.207a3.31 3.31 0 0 0 0 .42c0 1.5-.12 3-.16 4.5-.07 2.25-.182 4.5-.212 6.75 0 1.49-.109 3-.109 4.48v.06c0 1.48.17 3 .24 4.44 0 .75.19 1.491.24 2.241a84.64 84.64 0 0 0 1 8.568c.27 1.6.6 3.211 1 4.801.3 1.22.58 2.45.85 3.68.54 2.46 1 4.93 1.47 7.41.23 1.24.44 2.48.67 3.72.23 1.24.38 2.271.59 3.401a63.51 63.51 0 0 1 .84 6.85c0 .58-.1 1.148-.1 1.728 0 .58.19 1.16.17 1.74-.06 2 0 3.94-.11 5.9-.11 1.96-.27 4.151-.39 6.231a4.15 4.15 0 0 0 0 .51 3.07 3.07 0 0 0 .09.56 2.57 2.57 0 0 0 .22.571 2.7 2.7 0 0 0 .601.77 4.21 4.21 0 0 0 .76.529 12.91 12.91 0 0 0 2.5 1.05 20.17 20.17 0 0 0 2.638.6 60.34 60.34 0 0 0 7.4.76 58.75 58.75 0 0 0 7.401-.16c1.647-.14 3.29-.35 4.93-.63a18 18 0 0 0 3.53-.91 10.28 10.28 0 0 0 2-1 2.81 2.81 0 0 0 1-1 2.22 2.22 0 0 0 .22-.64 2.88 2.88 0 0 0 0-.76 531.96 531.96 0 0 1-.3-3.93 121.094 121.094 0 0 1-.22-3.94c0-.39 0-.78-.06-1.17-.09-1.56-.19-3.14-.19-4.7 0-.78 0-1.56.1-2.34 0-.39.08-.78.14-1.16.59-3.77 1.26-7.52 2-11.26s1.51-7.48 2.3-11.21c.25-1.2.53-2.39.8-3.58s.52-2.39.73-3.6c.14-.8.25-1.61.33-2.43.17-1.67.28-3.35.34-5.07 0-1.14.08-2.31.1-3.5.02-1.19 0-2.42 0-3.68v-5.32c-.07-2.04-.19-4.23-.26-6.43 0-1.14-.17-2.27-.24-3.4a1.16 1.16 0 0 0 0-.3.26.26 0 0 0-.31-.2 1.2 1.2 0 0 0-.3.08c-.33.13-.66.25-1 .35l-1 .29a48.87 48.87 0 0 1-5.69 1.1c-3.18.44-6.4.63-9.61.81l-2.25.1c-1.5.047-3 .047-4.5 0l-2.32.01a117.982 117.982 0 0 1-4.35-.24c-1.447-.107-2.99-.24-4.63-.4-.71-.07-1.43-.139-2.14-.239a22.13 22.13 0 0 1-3.15-.611 12.24 12.24 0 0 1-3-1.26c-.215-.13-.357-.168-.449-.147z" id="guinness-path"/></svg>