<?xml version="1.0" encoding="UTF-8" standalone="no"?>
<svg
   xmlns:dc="http://purl.org/dc/elements/1.1/"
   xmlns:cc="http://creativecommons.org/ns#"
   xmlns:rdf="http://www.w3.org/1999/02/22-rdf-syntax-ns#"
   xmlns:svg="http://www.w3.org/2000/svg"
   xmlns="http://www.w3.org/2000/svg"
   xmlns:sodipodi="http://sodipodi.sourceforge.net/DTD/sodipodi-0.dtd"
   xmlns:inkscape="http://www.inkscape.org/namespaces/inkscape"
   viewBox="0 0 100 100"
   version="1.1"
   x="0px"
   y="0px"
   id="svg16"
   sodipodi:docname="invoicing-cover.svg"
   inkscape:version="0.92.1 r15371">
  <metadata
     id="metadata22">
    <rdf:RDF>
      <cc:Work
         rdf:about="">
        <dc:format>image/svg+xml</dc:format>
        <dc:type
           rdf:resource="http://purl.org/dc/dcmitype/StillImage" />
        <dc:title>kden-light-document-excel</dc:title>
      </cc:Work>
    </rdf:RDF>
  </metadata>
  <defs
     id="defs20" />
  <sodipodi:namedview
     pagecolor="#ffffff"
     bordercolor="#666666"
     borderopacity="1"
     objecttolerance="10"
     gridtolerance="10"
     guidetolerance="10"
     inkscape:pageopacity="0"
     inkscape:pageshadow="2"
     inkscape:window-width="1600"
     inkscape:window-height="837"
     id="namedview18"
     showgrid="false"
     inkscape:snap-global="false"
     inkscape:zoom="4.4424607"
     inkscape:cx="34.427464"
     inkscape:cy="69.839827"
     inkscape:window-x="-8"
     inkscape:window-y="-8"
     inkscape:window-maximized="1"
     inkscape:current-layer="layer3" />
  <title
     id="title2">kden-light-document-excel</title>
  <desc
     id="desc4">Created with Sketch.</desc>
  <g
     inkscape:groupmode="layer"
     id="layer3"
     inkscape:label="Base">
    <rect
       style="opacity:1;fill:#ffffff;fill-opacity:1;fill-rule:nonzero;stroke:none;stroke-width:5.81161213;stroke-linecap:round;stroke-linejoin:bevel;stroke-miterlimit:4;stroke-dasharray:none;stroke-dashoffset:0;stroke-opacity:1;paint-order:stroke fill markers"
       id="rect93"
       width="100"
       height="100"
       x="0.22510047"
       y="0.22509713" />
  </g>
  <g
     inkscape:groupmode="layer"
     id="layer2"
     inkscape:label="Top"
     style="display:inline">
    <path
       style="fill:none;fill-rule:evenodd;stroke:#000000;stroke-width:1px;stroke-linecap:butt;stroke-linejoin:miter;stroke-opacity:1"
       d="M 37.760391,60.259359 H 45.909291 L 49.909661,66.648293 54.799001,60.277335 62.799741,60.129173 53.910031,72.278443 64.342731,86.877648 H 56.533551 L 50.057821,77.760431 46.501941,82.649771 H 49.465171 L 51.983921,86.798303 H 35.686121 L 46.205611,71.982119 Z"
       id="path4502-3"
       inkscape:connector-curvature="0"
       sodipodi:nodetypes="ccccccccccccccc" />
    <rect
       style="opacity:1;fill:none;fill-opacity:1;fill-rule:nonzero;stroke:#000000;stroke-width:5.40670824;stroke-linecap:round;stroke-linejoin:bevel;stroke-miterlimit:4;stroke-dasharray:none;stroke-dashoffset:0;stroke-opacity:1;paint-order:stroke fill markers"
       id="rect4504-6"
       width="74.552132"
       height="87.350296"
       x="13.596642"
       y="6.3525486" />
    <path
       style="fill:none;fill-rule:evenodd;stroke:#000000;stroke-width:1px;stroke-linecap:butt;stroke-linejoin:miter;stroke-opacity:1"
       d="M 16.051751,16.17556 86.245131,16.385092"
       id="path4514-5"
       inkscape:connector-curvature="0" />
    <path
       style="fill:none;fill-rule:evenodd;stroke:#000000;stroke-width:1px;stroke-linecap:butt;stroke-linejoin:miter;stroke-opacity:1"
       d="M 15.842221,23.928261 86.035601,24.347326"
       id="path4516-5"
       inkscape:connector-curvature="0" />
    <path
       style="fill:none;fill-rule:evenodd;stroke:#000000;stroke-width:1px;stroke-linecap:butt;stroke-linejoin:miter;stroke-opacity:1"
       d="M 15.632691,32.938158 87.083261,33.14769"
       id="path4518-8"
       inkscape:connector-curvature="0" />
    <path
       style="fill:none;fill-rule:evenodd;stroke:#000000;stroke-width:1px;stroke-linecap:butt;stroke-linejoin:miter;stroke-opacity:1"
       d="M 27.366511,9.2609879 V 33.357223"
       id="path4520-0"
       inkscape:connector-curvature="0" />
    <path
       style="opacity:1;fill:#00b000;fill-opacity:1;fill-rule:nonzero;stroke:#000000;stroke-width:1.20057166;stroke-linecap:round;stroke-linejoin:bevel;stroke-miterlimit:4;stroke-dasharray:none;stroke-dashoffset:0;stroke-opacity:1;paint-order:stroke fill markers"
       d="M 37.931331,84.686434 C 38.539671,83.825237 40.812031,80.62121 42.981011,77.566376 45.530731,73.975296 46.867081,71.918126 46.761861,71.74617 46.672341,71.599892 44.921301,69.154687 42.870641,66.312381 40.819981,63.470076 39.142171,61.089263 39.142171,61.021686 39.142171,60.95411 40.593621,60.89882 42.367601,60.89882 H 45.593021 L 47.635171,64.152293 C 48.758361,65.941704 49.741901,67.445673 49.820821,67.494449 49.899741,67.543224 51.106361,66.094141 52.502191,64.274265 L 55.040081,60.965399 58.231201,60.827277 C 59.986321,60.751309 61.451271,60.718099 61.486651,60.753477 61.522031,60.788854 59.666431,63.388807 57.363101,66.53115 54.879651,69.919225 53.236101,72.344804 53.324781,72.490953 53.407021,72.626501 55.624091,75.731912 58.251601,79.391866 60.879101,83.051819 63.028881,86.092659 63.028881,86.149289 63.028881,86.205918 61.633351,86.252249 59.927701,86.252249 H 56.826531 L 53.488181,81.537769 C 51.652091,78.944804 50.101061,76.825987 50.041461,76.829285 49.932501,76.835316 45.593611,82.820885 45.463071,83.145243 45.424661,83.240696 46.242861,83.318795 47.281311,83.318795 H 49.169391 L 49.951491,84.628373 C 50.381641,85.348641 50.771191,86.008668 50.817161,86.0951 50.863121,86.181532 47.733741,86.252249 43.862991,86.252249 H 36.825251 Z"
       id="path4522-0"
       inkscape:connector-curvature="0" />
    <path
       style="fill:none;fill-rule:evenodd;stroke:#000000;stroke-width:1px;stroke-linecap:butt;stroke-linejoin:miter;stroke-opacity:1"
       d="M 39.519391,8.8419229 39.309861,32.938158"
       id="path4526-0"
       inkscape:connector-curvature="0" />
    <path
       style="fill:none;fill-rule:evenodd;stroke:#000000;stroke-width:1px;stroke-linecap:butt;stroke-linejoin:miter;stroke-opacity:1"
       d="M 51.462751,8.7393309 V 32.835566"
       id="path4520-8-3"
       inkscape:connector-curvature="0" />
    <path
       style="fill:none;fill-rule:evenodd;stroke:#000000;stroke-width:1px;stroke-linecap:butt;stroke-linejoin:miter;stroke-opacity:1"
       d="M 63.615631,8.3202659 63.406101,32.416501"
       id="path4526-9-4"
       inkscape:connector-curvature="0" />
    <path
       style="fill:none;fill-rule:evenodd;stroke:#000000;stroke-width:1px;stroke-linecap:butt;stroke-linejoin:miter;stroke-opacity:1"
       d="M 73.254131,8.7393309 V 32.835566"
       id="path4520-3-0"
       inkscape:connector-curvature="0" />
    <path
       style="fill:none;fill-rule:evenodd;stroke:#000000;stroke-width:1px;stroke-linecap:butt;stroke-linejoin:miter;stroke-opacity:1"
       d="M 85.407011,8.3202659 85.197481,32.416501"
       id="path4526-7-5"
       inkscape:connector-curvature="0" />
  </g>
</svg>
