<?xml version="1.0" encoding="UTF-8" standalone="no"?>
<svg
   xmlns:dc="http://purl.org/dc/elements/1.1/"
   xmlns:cc="http://creativecommons.org/ns#"
   xmlns:rdf="http://www.w3.org/1999/02/22-rdf-syntax-ns#"
   xmlns:svg="http://www.w3.org/2000/svg"
   xmlns="http://www.w3.org/2000/svg"
   xmlns:xlink="http://www.w3.org/1999/xlink"
   xmlns:sodipodi="http://sodipodi.sourceforge.net/DTD/sodipodi-0.dtd"
   xmlns:inkscape="http://www.inkscape.org/namespaces/inkscape"
   version="1.1"
   x="0px"
   y="0px"
   viewBox="0 0 64 80"
   enable-background="new 0 0 64 64"
   xml:space="preserve"
   id="svg196"
   sodipodi:docname="java-tutoring.svg"
   inkscape:version="0.92.1 r15371"><metadata
     id="metadata202"><rdf:RDF><cc:Work
         rdf:about=""><dc:format>image/svg+xml</dc:format><dc:type
           rdf:resource="http://purl.org/dc/dcmitype/StillImage" /><dc:title /></cc:Work></rdf:RDF></metadata><defs
     id="defs200" /><sodipodi:namedview
     pagecolor="#ffff00"
     bordercolor="#666666"
     borderopacity="1"
     objecttolerance="10"
     gridtolerance="10"
     guidetolerance="10"
     inkscape:pageopacity="0"
     inkscape:pageshadow="2"
     inkscape:window-width="1600"
     inkscape:window-height="837"
     id="namedview198"
     showgrid="false"
     inkscape:zoom="5.1121298"
     inkscape:cx="20.475565"
     inkscape:cy="39.724715"
     inkscape:window-x="-8"
     inkscape:window-y="-8"
     inkscape:window-maximized="1"
     inkscape:current-layer="svg196"
     inkscape:pagecheckerboard="true" /><rect
     style="opacity:1;fill:#ffffff;fill-opacity:1;fill-rule:nonzero;stroke:none;stroke-width:2.29743552;stroke-linecap:round;stroke-linejoin:bevel;stroke-miterlimit:4;stroke-dasharray:none;stroke-dashoffset:0;stroke-opacity:1;paint-order:stroke fill markers"
     id="rect4687"
     width="78.046005"
     height="80.836983"
     x="-9.3429794"
     y="-0.041051056" /><g
     display="none"
     id="g8"><rect
       x="63.996"
       y="-355.987"
       display="inline"
       fill="#000000"
       width="20"
       height="430"
       id="rect2" /><rect
       x="290.496"
       y="-521.487"
       transform="matrix(1.067751e-10 -1 1 1.067751e-10 310.4831 290.509)"
       display="inline"
       fill="#000000"
       width="20"
       height="1023"
       id="rect4" /><rect
       x="-138.023"
       y="-373.655"
       display="inline"
       fill="#000000"
       width="947.424"
       height="496.184"
       id="rect6" /></g><g
     display="none"
     id="g52"><g
       display="inline"
       id="g50"><g
         id="g12"><rect
           x="0"
           y="8"
           transform="matrix(4.462190e-11 1 -1 4.462190e-11 64 -1.415167e-09)"
           fill="#000000"
           width="64"
           height="48"
           id="rect10" /></g><g
         id="g16"><rect
           x="29.805"
           y="-21.805"
           transform="matrix(6.505808e-10 1 -1 6.505808e-10 34.1948 -29.8052)"
           width="4.39"
           height="48"
           id="rect14" /></g><g
         id="g20"><rect
           x="29.805"
           y="37.746"
           transform="matrix(6.505808e-10 1 -1 6.505808e-10 93.7459 29.7459)"
           fill="#000000"
           width="4.39"
           height="48"
           id="rect18" /></g><g
         id="g38"><g
           id="g24"><rect
             x="15.293"
             y="43.428"
             width="33.285"
             height="1.333"
             id="rect22" /></g><g
           id="g28"><rect
             x="15.293"
             y="47.428"
             fill="#000000"
             width="33.285"
             height="1.333"
             id="rect26" /></g><g
           id="g32"><rect
             x="15.293"
             y="50.095"
             fill="#000000"
             width="33.285"
             height="1.333"
             id="rect30" /></g><g
           id="g36"><rect
             x="15.293"
             y="52.762"
             fill="#000000"
             width="33.285"
             height="1.333"
             id="rect34" /></g></g><g
         id="g48"><path
           fill="#000000"
           d="M17.129,18.373h2.488v6.975c0,3.144-1.506,4.241-3.93,4.241c-0.573,0-1.326-0.099-1.817-0.263     l0.278-2.013c0.344,0.115,0.786,0.196,1.278,0.196c1.048,0,1.703-0.475,1.703-2.195V18.373z"
           id="path40" /><path
           fill="#000000"
           d="M24.103,26.576l-0.786,2.833h-2.586l3.372-11.036h3.275l3.423,11.036h-2.686l-0.852-2.833H24.103z      M26.904,24.71l-0.688-2.342c-0.198-0.656-0.394-1.474-0.558-2.129h-0.032c-0.164,0.656-0.327,1.49-0.507,2.129l-0.656,2.342     H26.904z"
           id="path42" /><path
           fill="#000000"
           d="M33.747,29.409l-3.538-11.036h2.735l1.343,4.666c0.376,1.311,0.719,2.571,0.981,3.946h0.049     c0.279-1.326,0.622-2.635,0.999-3.897l1.408-4.715h2.653l-3.717,11.036H33.747z"
           id="path44" /><path
           fill="#000000"
           d="M43.078,26.576l-0.786,2.833h-2.586l3.372-11.036h3.275l3.423,11.036H47.09l-0.85-2.833H43.078z      M45.879,24.71l-0.689-2.342c-0.196-0.656-0.392-1.474-0.557-2.129h-0.032c-0.164,0.656-0.327,1.49-0.507,2.129l-0.656,2.342     H45.879z"
           id="path46" /></g></g></g><g
     display="none"
     id="g94"><g
   display="inline"
   id="g56"><circle
     fill="#000000"
     cx="32"
     cy="32"
     r="32"
     id="circle54" /></g><g
   display="inline"
   id="g66"><defs
     id="defs59"><circle
       id="b"
       cx="32"
       cy="32"
       r="32" /></defs><clipPath
     id="a"><use
       xlink:href="#b"
       overflow="visible"
       id="use61" /></clipPath><polygon
     clip-path="url(#a)"
     fill="#000000"
     points="48.168,10.491 72.673,34.996 48.927,70.175 36.555,74.088     15.918,53.451   "
     id="polygon64" /></g><rect
   x="10.543"
   y="15.866"
   transform="matrix(4.462901e-11 1 -1 4.462901e-11 64.0343 -0.0521)"
   display="inline"
   fill="#000000"
   width="43"
   height="32.25"
   id="rect68" /><rect
   x="30.569"
   y="-4.159"
   transform="matrix(6.506767e-10 1 -1 6.506767e-10 44.009 -20.0774)"
   display="inline"
   width="2.949"
   height="32.25"
   id="rect70" /><rect
   x="30.569"
   y="35.852"
   transform="matrix(6.506767e-10 1 -1 6.506767e-10 84.0198 19.9334)"
   display="inline"
   fill="#000000"
   width="2.949"
   height="32.25"
   id="rect72" /><g
   display="inline"
   id="g82"><rect
     x="20.818"
     y="39.67"
     width="22.363"
     height="0.896"
     id="rect74" /><rect
     x="20.818"
     y="42.357"
     fill="#000000"
     width="22.363"
     height="0.896"
     id="rect76" /><rect
     x="20.818"
     y="44.149"
     fill="#000000"
     width="22.363"
     height="0.896"
     id="rect78" /><rect
     x="20.818"
     y="45.94"
     fill="#000000"
     width="22.363"
     height="0.896"
     id="rect80" /></g><text
   transform="matrix(1 0 0 1 19.8729 30.2498)"
   display="inline"
   id="text92"><tspan
     x="0"
     y="0"
     fill="#000000"
     font-family="'MyriadPro-Bold'"
     font-size="11px"
     id="tspan84">J</tspan><tspan
     x="4.41"
     y="0"
     fill="#000000"
     font-family="'MyriadPro-Bold'"
     font-size="11px"
     id="tspan86">A</tspan><tspan
     x="10.868"
     y="0"
     fill="#000000"
     font-family="'MyriadPro-Bold'"
     font-size="11px"
     id="tspan88">V</tspan><tspan
     x="17.159"
     y="0"
     fill="#000000"
     font-family="'MyriadPro-Bold'"
     font-size="11px"
     id="tspan90">A</tspan></text>

</g><g
     id="g114"
     transform="translate(-0.38625962,3.9913494)"><g
       id="g112"><path
         d="M 19.617,23.348 V 16.373 H 17.129 V 23.315 C 17.129,25.034 16.473,25.51 15.426,25.51 14.935,25.51 14.493,25.429 14.148,25.314 L 13.87,27.327 C 14.361,27.491 15.114,27.59 15.687,27.59 18.112,27.589 19.617,26.492 19.617,23.348 Z"
         id="path96"
         inkscape:connector-curvature="0" /><path
         d="M 24.103,24.576 H 27.263 L 28.115,27.409 H 30.801 L 27.378,16.373 H 24.103 L 20.731,27.409 H 23.317 Z M 25.119,20.368 C 25.299,19.728 25.462,18.894 25.626,18.239 H 25.658 C 25.822,18.895 26.018,19.713 26.216,20.368 L 26.904,22.71 H 24.464 Z"
         id="path98"
         inkscape:connector-curvature="0" /><path
         d="M 36.661,27.409 40.378,16.373 H 37.725 L 36.317,21.088 C 35.941,22.35 35.598,23.659 35.318,24.985 H 35.269 C 35.007,23.61 34.664,22.35 34.288,21.039 L 32.945,16.373 H 30.21 L 33.748,27.409 H 36.661 Z"
         id="path100"
         inkscape:connector-curvature="0" /><path
         d="M 43.078,16.373 39.706,27.409 H 42.292 L 43.078,24.576 H 46.239 L 47.089,27.409 H 49.775 L 46.352,16.373 H 43.078 Z M 43.439,22.71 44.095,20.368 C 44.275,19.728 44.438,18.894 44.602,18.239 H 44.634 C 44.798,18.895 44.994,19.713 45.191,20.368 L 45.88,22.71 Z"
         id="path102"
         inkscape:connector-curvature="0" /><path
         d="M 7,64 H 57 V 0 H 7 Z M 9,2 H 55 V 62 H 9 Z"
         id="path104"
         inkscape:connector-curvature="0" /><rect
         x="14.293"
         y="40.428001"
         width="35.285"
         height="2"
         id="rect106" /><rect
         x="14.293"
         y="45.331001"
         width="35.285"
         height="2"
         id="rect108" /><rect
         x="14.293"
         y="50.236"
         width="35.285"
         height="2"
         id="rect110" /></g></g><g
     display="none"
     id="g180"><g
       display="inline"
       id="g118"><circle
         fill="#000000"
         cx="32"
         cy="32"
         r="32"
         id="circle116" /></g><g
       display="inline"
       id="g178"><g
         id="g150"><g
           id="g130"><g
             id="g128"><g
               id="g122"><rect
                 x="11"
                 y="4.84"
                 width="42"
                 height="54.32"
                 id="rect120" /></g><g
               id="g126"><path
                 fill="#000000"
                 d="M52,5.84v52.32H12V5.84H52 M54,3.84H10v56.32h44V3.84L54,3.84z"
                 id="path124" /></g></g></g><g
           id="g136"><g
             id="g134"><rect
               x="16.418"
               y="39.297"
               fill="#000000"
               width="31.051"
               height="2"
               id="rect132" /></g></g><g
           id="g142"><g
             id="g140"><rect
               x="16.418"
               y="43.612"
               fill="#000000"
               width="31.051"
               height="2"
               id="rect138" /></g></g><g
           id="g148"><g
             id="g146"><rect
               x="16.418"
               y="47.927"
               fill="#000000"
               width="31.051"
               height="2"
               id="rect144" /></g></g></g><g
         id="g176"><g
           id="g156"><g
             id="g154"><path
               fill="#000000"
               d="M18.914,18.248h2.19v6.138c0,2.767-1.325,3.732-3.459,3.732c-0.504,0-1.167-0.087-1.599-0.232       l0.244-1.772c0.303,0.101,0.692,0.173,1.124,0.173c0.922,0,1.499-0.418,1.499-1.931V18.248z"
               id="path152" /></g></g><g
           id="g162"><g
             id="g160"><path
               fill="#000000"
               d="M25.05,25.467l-0.692,2.493h-2.275l2.967-9.712h2.882l3.012,9.712h-2.364l-0.75-2.493H25.05z        M27.515,23.825l-0.605-2.061c-0.174-0.577-0.347-1.297-0.491-1.874h-0.028c-0.145,0.577-0.288,1.311-0.446,1.874l-0.577,2.061       H27.515z"
               id="path158" /></g></g><g
           id="g168"><g
             id="g166"><path
               fill="#000000"
               d="M33.537,27.96l-3.113-9.712h2.407l1.182,4.106c0.331,1.154,0.633,2.263,0.863,3.473h0.043       c0.246-1.167,0.547-2.319,0.879-3.429l1.239-4.149h2.334l-3.271,9.712H33.537z"
               id="path164" /></g></g><g
           id="g174"><g
             id="g172"><path
               fill="#000000"
               d="M41.749,25.467l-0.692,2.493h-2.275l2.967-9.712h2.882l3.012,9.712h-2.364l-0.748-2.493H41.749z        M44.214,23.825l-0.606-2.061c-0.173-0.577-0.345-1.297-0.49-1.874h-0.028c-0.145,0.577-0.288,1.311-0.446,1.874l-0.577,2.061       H44.214z"
               id="path170" /></g></g></g></g></g><g
     display="none"
     id="g190"><g
       display="inline"
       id="g188"><path
         d="M7,64h50V0H7V64z M49.578,52.236H14.293v-2h35.285V52.236z M49.578,47.331H14.293v-2h35.285V47.331z M49.578,42.428    H14.293v-2h35.285V42.428z M46.353,15.373l3.423,11.036H47.09l-0.85-2.833h-3.161l-0.786,2.833h-2.586l3.372-11.036H46.353z     M32.944,15.373l1.343,4.666c0.376,1.311,0.719,2.571,0.981,3.946h0.049c0.279-1.326,0.622-2.635,0.999-3.897l1.408-4.715h2.653    l-3.717,11.036h-2.914l-3.538-11.036H32.944z M24.103,15.373h3.275l3.423,11.036h-2.686l-0.852-2.833h-3.16l-0.786,2.833h-2.586    L24.103,15.373z M14.148,24.313c0.344,0.115,0.786,0.196,1.278,0.196c1.048,0,1.703-0.475,1.703-2.195v-6.942h2.488v6.975    c0,3.144-1.506,4.241-3.93,4.241c-0.573,0-1.326-0.099-1.817-0.263L14.148,24.313z"
         id="path182" /><path
         d="M26.216,19.368c-0.198-0.656-0.394-1.474-0.558-2.129h-0.032c-0.164,0.656-0.327,1.49-0.507,2.129l-0.656,2.342h2.44    L26.216,19.368z"
         id="path184" /><path
         d="M45.19,19.368c-0.196-0.656-0.392-1.474-0.557-2.129h-0.032c-0.164,0.656-0.327,1.49-0.507,2.129l-0.656,2.342h2.44    L45.19,19.368z"
         id="path186" /></g></g><path
     style="opacity:1;fill:none;fill-opacity:1;fill-rule:nonzero;stroke:none;stroke-width:0.24331315;stroke-linecap:round;stroke-linejoin:bevel;stroke-miterlimit:4;stroke-dasharray:none;stroke-dashoffset:0;stroke-opacity:1;paint-order:stroke fill markers"
     d="M 8.6184177,36.047277 V 6.1121561 H 31.600865 54.583312 V 36.047277 65.982397 H 31.600865 8.6184177 Z M 49.240054,55.231504 V 54.201479 L 31.568677,54.168833 13.897299,54.136189 V 55.231504 56.326819 L 31.568677,56.294175 49.240054,56.26153 Z M 49.277449,50.306694 49.314844,49.24448 H 31.606072 13.897299 V 50.33934 51.434198 L 31.568677,51.401553 49.240054,51.368908 Z M 49.277449,45.414072 49.314844,44.351858 H 31.606072 13.897299 V 45.446718 46.541576 L 31.568677,46.508932 49.240054,46.476286 Z M 16.975922,31.403635 C 17.828833,31.150348 18.656455,30.355849 18.98791,29.472172 19.19794,28.912219 19.231873,28.330696 19.274771,24.556053 L 19.323424,20.275009 H 18.026647 16.72987 V 23.798148 C 16.72987,27.900994 16.648327,28.549402 16.06571,29.079373 15.672261,29.437269 15.622588,29.447987 14.662404,29.382175 L 13.666984,29.313947 13.576361,30.160173 C 13.526518,30.625598 13.457401,31.080243 13.422768,31.170497 13.262199,31.588933 15.792819,31.754978 16.975922,31.403635 Z M 23.366492,30.060252 23.746447,28.643967 H 25.309953 26.873457 L 26.959931,28.998039 C 27.007491,29.192778 27.191096,29.830106 27.36794,30.414324 L 27.689475,31.476538 H 29.111744 C 30.308604,31.476538 30.522531,31.446616 30.461563,31.287733 30.421714,31.183891 29.889834,29.489177 29.279607,27.521701 28.669379,25.554228 27.910555,23.118845 27.593331,22.109742 L 27.01656,20.275009 H 25.360049 23.703537 L 23.441317,21.079716 C 22.898059,22.74688 20.33496,31.2154 20.33496,31.343173 20.33496,31.426522 20.83216,31.476538 21.660748,31.476538 H 22.986537 Z M 38.180263,25.94015 C 39.197773,22.930544 40.031163,20.422725 40.03224,20.367218 40.033318,20.311711 39.415169,20.282742 38.658576,20.302841 L 37.282953,20.339385 36.528785,22.850073 C 36.113993,24.230951 35.578937,26.113783 35.339773,27.034141 34.978206,28.425539 34.890705,28.642503 34.820521,28.321673 34.724894,27.884549 33.371038,22.934972 32.918869,21.369411 L 32.621375,20.339385 31.162211,20.302836 C 29.85622,20.270123 29.71152,20.288367 29.783765,20.476634 29.828159,20.592326 30.617548,23.042209 31.537964,25.920819 32.458378,28.799429 33.239044,31.228927 33.272774,31.319703 33.318926,31.443905 33.704856,31.47577 34.832174,31.448457 L 36.330245,31.412161 Z M 42.137364,30.800583 C 42.241942,30.428809 42.421488,29.79148 42.536358,29.384298 L 42.745211,28.643967 H 44.278861 45.812511 L 46.134047,29.706181 C 46.310891,30.290399 46.494495,30.927727 46.542055,31.122466 L 46.62853,31.476538 H 48.040297 C 49.19896,31.476538 49.444602,31.443482 49.410436,31.292161 49.387541,31.190753 48.615601,28.671236 47.695016,25.693231 L 46.021224,20.278678 44.337688,20.276844 42.654153,20.275009 40.999334,25.714832 C 40.089183,28.706734 39.319678,31.227078 39.289323,31.315596 39.247464,31.437658 39.561839,31.476538 40.590678,31.476538 H 41.947226 Z"
     id="path4679"
     inkscape:connector-curvature="0" /><path
     style="opacity:1;fill:#ffffff;fill-opacity:1;fill-rule:nonzero;stroke:none;stroke-width:0.24331315;stroke-linecap:round;stroke-linejoin:bevel;stroke-miterlimit:4;stroke-dasharray:none;stroke-dashoffset:0;stroke-opacity:1;paint-order:stroke fill markers"
     d="M 24.246017,26.358598 C 24.310722,26.137076 24.811591,24.241181 25.104004,23.110936 L 25.253034,22.534903 25.819697,24.51047 C 26.131362,25.597031 26.38636,26.508059 26.38636,26.534976 26.38636,26.561893 25.889975,26.583916 25.283282,26.583916 24.293494,26.583916 24.186962,26.560775 24.246017,26.358598 Z"
     id="path4681"
     inkscape:connector-curvature="0" /><path
     style="opacity:1;fill:#ffffff;fill-opacity:1;fill-rule:nonzero;stroke:none;stroke-width:0.24331315;stroke-linecap:round;stroke-linejoin:bevel;stroke-miterlimit:4;stroke-dasharray:none;stroke-dashoffset:0;stroke-opacity:1;paint-order:stroke fill markers"
     d="M 43.340232,25.907962 C 43.451374,25.536187 43.701583,24.602435 43.896253,23.832957 L 44.250197,22.433906 44.413676,23.124814 C 44.503589,23.504813 44.742077,24.366142 44.94365,25.038877 45.145222,25.711613 45.310806,26.334457 45.311613,26.422974 45.312673,26.53914 45.010537,26.583916 44.225619,26.583916 H 43.138157 Z"
     id="path4683"
     inkscape:connector-curvature="0" /><path
     style="opacity:1;fill:#ffffff;fill-opacity:1;fill-rule:nonzero;stroke:none;stroke-width:0.17204838;stroke-linecap:round;stroke-linejoin:bevel;stroke-miterlimit:4;stroke-dasharray:none;stroke-dashoffset:0;stroke-opacity:1;paint-order:stroke fill markers"
     d="M 8.6200249,36.02194 V 6.0690342 H 31.608197 54.596369 V 36.02194 65.974845 H 31.608197 8.6200249 Z M 49.224875,55.231857 V 54.230393 H 31.562676 13.900476 V 55.231857 56.233322 H 31.562676 49.224875 Z M 49.205096,50.338336 49.230838,49.31411 H 31.565657 13.900476 V 50.361327 51.408543 L 31.539915,51.385552 49.179354,51.362561 Z M 49.224875,45.444814 V 44.397828 H 31.562676 13.900476 V 45.444814 46.4918 H 31.562676 49.224875 Z M 16.696925,31.466867 C 17.753318,31.240311 18.640718,30.406654 19.019652,29.284812 19.21178,28.716012 19.220782,28.531333 19.251546,24.527854 L 19.283552,20.36267 H 18.008458 16.733364 L 16.705315,24.300248 C 16.674401,28.639925 16.674568,28.638602 16.097437,29.124225 15.733143,29.430759 15.124564,29.525447 14.35852,29.394778 14.034602,29.339526 13.759316,29.304583 13.746773,29.317126 13.721794,29.342104 13.445265,31.142993 13.445265,31.280688 13.445265,31.357733 13.948,31.486333 14.674336,31.595085 15.061043,31.652984 16.151384,31.583865 16.696925,31.466867 Z M 23.21551,30.536643 C 23.353539,30.023392 23.529812,29.387419 23.607226,29.12337 L 23.747979,28.643281 25.30939,28.668159 26.870801,28.693037 27.282091,30.080783 27.693379,31.46853 29.081774,31.469178 C 29.845391,31.469535 30.470169,31.459232 30.470169,31.446283 30.470169,31.433333 29.700799,28.944465 28.760457,25.915465 L 27.050745,20.408191 25.362458,20.38348 23.674171,20.358771 22.108282,25.481847 C 21.247044,28.29954 20.483837,30.799528 20.412269,31.037375 L 20.282144,31.469826 H 21.623346 22.964547 Z M 38.172372,25.916248 C 39.192339,22.886817 40.027475,20.397949 40.028232,20.38543 40.028987,20.372912 39.41683,20.36267 38.667882,20.36267 H 37.306158 L 37.034169,21.250332 C 36.0324,24.51971 35.512279,26.355635 34.977224,28.510953 34.920372,28.739963 34.854475,28.559174 34.569258,27.391688 34.382169,26.625872 33.864723,24.731414 33.419379,23.181779 L 32.609662,20.364262 31.221267,20.363466 C 30.45765,20.363029 29.831769,20.393397 29.830421,20.430952 29.829074,20.468507 30.617443,22.968562 31.582354,25.986631 L 33.336738,31.474028 34.827313,31.449167 36.317889,31.424305 Z M 42.0646,30.991854 C 42.139414,30.72897 42.315863,30.09395 42.456707,29.580699 L 42.712788,28.647516 H 44.267923 45.823059 L 45.969512,29.125488 C 46.050062,29.388372 46.243664,30.023392 46.399739,30.536643 L 46.683511,31.469826 H 48.045235 C 48.82425,31.469826 49.40696,31.433586 49.40696,31.385138 49.40696,31.338559 48.649033,28.859827 47.722678,25.876845 46.796323,22.893862 46.038396,20.431959 46.038396,20.405947 46.038396,20.379934 45.27217,20.369798 44.335671,20.383421 L 42.632946,20.408191 41.017018,25.688642 C 40.128258,28.592891 39.375376,31.081759 39.343946,31.21946 L 39.286801,31.469826 H 40.607687 41.928573 Z"
     id="path4685"
     inkscape:connector-curvature="0" /></svg>