<?xml version="1.0" encoding="UTF-8" standalone="no"?>
<svg
   xmlns:dc="http://purl.org/dc/elements/1.1/"
   xmlns:cc="http://creativecommons.org/ns#"
   xmlns:rdf="http://www.w3.org/1999/02/22-rdf-syntax-ns#"
   xmlns:svg="http://www.w3.org/2000/svg"
   xmlns="http://www.w3.org/2000/svg"
   xmlns:sodipodi="http://sodipodi.sourceforge.net/DTD/sodipodi-0.dtd"
   xmlns:inkscape="http://www.inkscape.org/namespaces/inkscape"
   version="1.1"
   x="0px"
   y="0px"
   viewBox="0 0 300 400"
   enable-background="new 0 0 100 100"
   xml:space="preserve"
   id="svg20"
   sodipodi:docname="mountain_river.svg"
   inkscape:version="0.92.1 r15371"
   width="300"
   height="400"><metadata
     id="metadata26"><rdf:RDF><cc:Work
         rdf:about=""><dc:format>image/svg+xml</dc:format><dc:type
           rdf:resource="http://purl.org/dc/dcmitype/StillImage" /><dc:title /></cc:Work></rdf:RDF></metadata><defs
     id="defs24" /><sodipodi:namedview
     pagecolor="#ffffff"
     bordercolor="#666666"
     borderopacity="1"
     objecttolerance="10"
     gridtolerance="10"
     guidetolerance="10"
     inkscape:pageopacity="0"
     inkscape:pageshadow="2"
     inkscape:window-width="1600"
     inkscape:window-height="837"
     id="namedview22"
     showgrid="false"
     inkscape:zoom="3.4737343"
     inkscape:cx="147.7855"
     inkscape:cy="60.957273"
     inkscape:window-x="-8"
     inkscape:window-y="-8"
     inkscape:window-maximized="1"
     inkscape:current-layer="svg20"
     inkscape:snap-global="true" /><path
     style="fill:none;fill-rule:evenodd;stroke:#fadc1d;stroke-width:1px;stroke-linecap:butt;stroke-linejoin:miter;stroke-opacity:1"
     d="M 0.25320512,189.89487 37.900054,146.92545 51.34846,157.3174 95.972716,75.40438 138.7631,115.7496 163.21475,133.47704 177.88574,123.69638 231.67936,61.344683 270.1907,133.47704 300.14397,149.67626"
     id="path4494"
     inkscape:connector-curvature="0"
     sodipodi:nodetypes="cccccccccc" /><path
     style="fill:none;fill-rule:evenodd;stroke:#fadc1d;stroke-width:1px;stroke-linecap:butt;stroke-linejoin:miter;stroke-opacity:1"
     d="M 163.21475,133.47704 180.3309,149.9819"
     id="path4496"
     inkscape:connector-curvature="0" /><path
     style="fill:none;fill-rule:evenodd;stroke:#fadc1d;stroke-width:1px;stroke-linecap:butt;stroke-linejoin:miter;stroke-opacity:1"
     d="M 180.3309,149.9819 204.71506,170.92435 242.08845,175.06602 C 245.27996,176.28521 207.19981,192.57419 202.05998,194.77138 167.6105,209.49791 144.02995,221.57755 122.10386,235.51227 99.139932,250.10657 94.017732,270.05448 94.152247,293.54998 97.560263,339.19366 127.94629,380.45001 148.31459,400.14603"
     id="path4499"
     inkscape:connector-curvature="0"
     sodipodi:nodetypes="cccsscc" /><path
     style="fill:none;fill-rule:evenodd;stroke:#fadc1d;stroke-width:1px;stroke-linecap:butt;stroke-linejoin:miter;stroke-opacity:1"
     d="M 210.3081,400.16293 C 192.16384,389.48657 130.42352,337.82576 137.95759,275.73364 139.58321,262.33611 157.39233,249.13872 211.4534,224.48918 237.80567,212.21577 276.05233,192.796 272.63085,180.34307 265.04398,152.65543 226.95224,160.35805 204.71506,170.92435"
     id="path4501"
     inkscape:connector-curvature="0"
     sodipodi:nodetypes="csccc" /></svg>