<svg xmlns="http://www.w3.org/2000/svg" viewBox="-0.4 0 86 107.5" id="shamrock" width="86" height="107.5"><style id="style2">.st0{fill:none}</style><path d="M39.8 50.4c-1.1.7-10.1 7.2-13.4 9-4.9 2.6-10.3.9-11.8-3.9-1.2-3.8.9-8 4.7-9.2-3.8-1.2-6-5.4-4.7-9.2 1.5-4.8 7-6.4 11.8-3.9 3.3 1.7 6.9 4.3 10.6 6.8l.1.1c-.3-.5-6-8.7-7.7-12.1-2.6-4.9-.9-10.3 3.9-11.8 3.8-1.2 8 .9 9.2 4.7 1.2-3.8 5.4-6 9.2-4.7 4.7 1.5 6.4 7 3.9 11.8-1.7 3.3-7.4 11.6-7.7 12.1l.1-.1c3.7-2.5 7.3-5 10.6-6.8 4.9-2.6 10.3-.9 11.8 3.9 1.2 3.8-.9 8-4.7 9.2 3.8 1.2 6 5.4 4.7 9.2-1.5 4.7-7 6.4-11.8 3.9-3.3-1.7-12.3-8.3-13.4-9l1.7 18.9h-8.8l1.7-18.9z" id="path4" fill="green"/></svg>