<?xml version="1.0" encoding="UTF-8" standalone="no"?>
<svg
   xmlns:dc="http://purl.org/dc/elements/1.1/"
   xmlns:cc="http://creativecommons.org/ns#"
   xmlns:rdf="http://www.w3.org/1999/02/22-rdf-syntax-ns#"
   xmlns:svg="http://www.w3.org/2000/svg"
   xmlns="http://www.w3.org/2000/svg"
   xmlns:sodipodi="http://sodipodi.sourceforge.net/DTD/sodipodi-0.dtd"
   xmlns:inkscape="http://www.inkscape.org/namespaces/inkscape"
   version="1.1"
   x="0px"
   y="0px"
   viewBox="0 0 100 125"
   enable-background="new 0 0 100 100"
   xml:space="preserve"
   id="svg12"
   sodipodi:docname="warehouse.svg"
   inkscape:version="0.92.3 (2405546, 2018-03-11)"><metadata
     id="metadata18"><rdf:RDF><cc:Work
         rdf:about=""><dc:format>image/svg+xml</dc:format><dc:type
           rdf:resource="http://purl.org/dc/dcmitype/StillImage" /><dc:title></dc:title></cc:Work></rdf:RDF></metadata><defs
     id="defs16" /><sodipodi:namedview
     pagecolor="#ffffff"
     bordercolor="#666666"
     borderopacity="1"
     objecttolerance="10"
     gridtolerance="10"
     guidetolerance="10"
     inkscape:pageopacity="0"
     inkscape:pageshadow="2"
     inkscape:window-width="1600"
     inkscape:window-height="837"
     id="namedview14"
     showgrid="false"
     inkscape:zoom="5.074"
     inkscape:cx="50"
     inkscape:cy="62.5"
     inkscape:window-x="-8"
     inkscape:window-y="-8"
     inkscape:window-maximized="1"
     inkscape:current-layer="svg12" /><g
     id="g6"><path
       d="M46.6,50.4H25.1v16.8v0.1v3.1V84v3.1h18.5h3.1h18.5v-20H46.6V50.4z M28.3,56.3l10.8,10.8h-4.7l-6.1-6.1V56.3z M28.3,62.8   l4.4,4.4h-4.4V62.8z M28.3,84v-4.4l4.4,4.4H28.3z M34.4,84l-6.2-6.2v-4.7L39.2,84H34.4z M43.5,84h-2.6L28.3,71.4v-1H32l11.5,11.5   V84z M43.5,80.1l-9.8-9.8h4.7l5,5V80.1z M43.5,73.7l-3.3-3.3h3.3V73.7z M43.5,67.2h-2.6L28.3,54.6v-1.1h3.7l11.5,11.5V67.2z    M43.5,63.3l-9.8-9.8h4.7l5.1,5.1V63.3z M43.5,56.9l-3.3-3.3h3.3V56.9z M61.9,70.3v3.3l-3.3-3.3H61.9z M56.9,70.3l5.1,5.1v4.7   l-9.8-9.8H56.9z M46.7,70.3h3.7l11.5,11.5V84h-2.6L46.7,71.4V70.3z M46.7,73.1L57.6,84h-4.7l-6.2-6.2V73.1z M46.7,79.6l4.4,4.4   h-4.4V79.6z"
       id="path2" /><path
       d="M50.3,12.1l-45,26.2l3,5.1l5-2.9v46.7h3.9h3.6V46h58.8v41.1h3.6h4V40.4l5,2.9l3-5.1L50.3,12.1z M52,35.8h-3.5v-6.6H52V35.8   z"
       id="path4" /></g></svg>