<?xml version="1.0" encoding="UTF-8" standalone="no"?>
<svg
   xmlns:dc="http://purl.org/dc/elements/1.1/"
   xmlns:cc="http://creativecommons.org/ns#"
   xmlns:rdf="http://www.w3.org/1999/02/22-rdf-syntax-ns#"
   xmlns:svg="http://www.w3.org/2000/svg"
   xmlns="http://www.w3.org/2000/svg"
   xmlns:sodipodi="http://sodipodi.sourceforge.net/DTD/sodipodi-0.dtd"
   xmlns:inkscape="http://www.inkscape.org/namespaces/inkscape"
   version="1.1"
   x="0px"
   y="0px"
   viewBox="0 0 125 125"
   enable-background="new 0 0 100 100"
   sodipodi:docname="worldcup-team.svg"
   inkscape:version="0.92.3 (2405546, 2018-03-11)"
   id="svg12">
  <metadata
     id="metadata14">
    <rdf:RDF>
      <cc:Work
         rdf:about="">
        <dc:format>image/svg+xml</dc:format>
        <dc:type
           rdf:resource="http://purl.org/dc/dcmitype/StillImage" />
        <dc:title></dc:title>
      </cc:Work>
    </rdf:RDF>
  </metadata>
  <defs
     id="defs12" />
  <sodipodi:namedview
     pagecolor="#ffffff"
     bordercolor="#666666"
     borderopacity="1"
     objecttolerance="10"
     gridtolerance="10"
     guidetolerance="10"
     inkscape:pageopacity="0"
     inkscape:pageshadow="2"
     inkscape:window-width="1600"
     inkscape:window-height="837"
     id="namedview10"
     showgrid="false"
     inkscape:zoom="2.4105933"
     inkscape:cx="49.303892"
     inkscape:cy="22.062142"
     inkscape:window-x="-8"
     inkscape:window-y="-8"
     inkscape:window-maximized="1"
     inkscape:current-layer="svg12" />
  <rect
     style="opacity:1;fill:#fffdfd;fill-opacity:0.99029122;fill-rule:nonzero;stroke:none;stroke-width:29.23711395;stroke-linecap:round;stroke-linejoin:round;stroke-miterlimit:4;stroke-dasharray:29.23711356, 29.23711356;stroke-dashoffset:261.3973999;stroke-opacity:1;paint-order:normal"
     id="rect856"
     width="122.80199"
     height="123.222"
     x="0.2355203"
     y="1.3077043" />
  <path
     d="M 72.14463,54.428681 C 73.99176,55.592171 73.81821,57.871233 71.62378,61.266615 70.35975,63.146617 69.42917,65.446279 68.83204,68.1652 L 68.76959,68.408528 C 68.50571,69.774922 68.31813,71.255851 68.20704,72.852095 68.15151,74.786385 68.35292,76.916829 68.81128,79.243423 V 79.263639 C 69.07517,80.575746 69.44321,81.955235 69.91541,83.402862 H 70.37379 C 70.48488,83.402862 70.58212,83.44329 70.66534,83.524519 70.74875,83.605768 70.79046,83.700472 70.79046,83.808657 70.79046,83.916853 70.74875,84.011565 70.66534,84.0928 70.58212,84.173647 70.48488,84.214465 70.37379,84.214465 H 57.08196 C 56.97088,84.214465 56.87363,84.173647 56.79041,84.0928 56.70701,84.011565 56.6653,83.916853 56.6653,83.808657 56.6653,83.700472 56.70701,83.605768 56.79041,83.524519 56.87363,83.44329 56.97088,83.402862 57.08196,83.402862 H 57.70697 C 58.15151,82.009516 58.52646,80.630033 58.83204,79.263639 V 79.243423 C 59.04038,78.228938 59.20009,77.342828 59.31117,76.585525 V 76.564914 C 59.4778,75.307098 59.56121,74.116652 59.56121,72.993967 59.76954,68.192147 58.48476,64.580381 55.70704,62.159068 54.34596,61.0772 53.64446,60.076174 53.60296,59.156385 53.60296,58.561168 53.84588,58.033703 54.33213,57.573615 54.29042,57.23558 54.26946,56.876939 54.26946,56.498486 54.26946,54.077164 55.15834,52.00736 56.93628,50.289455 58.70001,48.558068 60.82504,47.692575 63.31121,47.692575 65.78334,47.692575 67.90838,48.558068 69.68613,50.289455 70.90846,51.4799 71.70701,52.846298 72.08196,54.388254 Z M 68.22779,56.883687 C 68.79726,57.438488 69.08208,58.101074 69.08208,58.872245 69.08208,59.643432 68.79726,60.306021 68.22779,60.860824 67.67238,61.401754 66.99183,61.672419 66.18617,61.672419 65.39454,61.672419 64.72091,61.401754 64.1653,60.860824 63.59584,60.306021 63.31121,59.643432 63.31121,58.872245 63.31121,58.101074 63.59584,57.438488 64.1653,56.883687 64.73475,56.329277 65.40838,56.051874 66.18617,56.051874 66.9778,56.051874 67.65834,56.329277 68.22779,56.883687 Z M 66.18617,60.860824 C 66.75563,60.860824 67.24167,60.664657 67.64451,60.272341 68.04734,59.880015 68.24876,59.413189 68.24876,58.872245 68.24876,58.344787 68.04734,57.871233 67.64451,57.451964 67.22784,57.059628 66.74179,56.863471 66.18617,56.863471 65.63075,56.863471 65.15142,57.059628 64.74879,57.451964 64.34596,57.871233 64.14454,58.344787 64.14454,58.872245 64.14454,59.413189 64.34596,59.880015 64.74879,60.272341 65.13759,60.664657 65.61671,60.860824 66.18617,60.860824 Z M 71.39451,55.159032 C 71.11679,53.522374 70.34591,52.088598 69.08208,50.857733 67.49863,49.288424 65.57501,48.504176 63.31121,48.504176 61.06125,48.504176 59.13071,49.288424 57.51959,50.857733 55.90846,52.427027 55.10279,54.307009 55.10279,56.498486 55.10279,57.025941 55.15834,57.560141 55.26963,58.101074 55.76951,59.318469 56.44313,60.082911 57.29029,60.393991 58.05426,60.67813 58.971,60.596901 60.04034,60.150676 L 59.58197,59.460741 C 58.27641,57.580348 58.05426,56.309059 58.91545,55.646078 59.19317,55.47052 59.45704,55.382537 59.70708,55.382537 L 60.01958,55.422968 C 60.51947,55.558102 60.95708,56.051874 61.33204,56.904291 L 63.20704,60.941671 C 63.72096,62.375432 64.65153,63.072114 65.99878,63.031689 67.30433,62.788363 68.45708,61.766739 69.45704,59.967995 70.40146,58.18231 71.04741,56.579329 71.39451,55.159032 Z M 70.18621,60.353568 C 69.06113,62.396046 67.70696,63.559151 66.12371,63.843291 H 66.06125 C 64.2835,63.911047 63.06809,63.045165 62.41541,61.246021 L 60.58213,57.249063 C 60.30421,56.613413 60.04034,56.261515 59.79029,56.194134 59.69325,56.166799 59.56121,56.200874 59.39459,56.295583 58.96408,56.633626 59.26254,57.539927 60.29038,59.014119 L 60.99879,60.130068 C 61.87363,61.591177 62.55417,63.133136 63.04041,64.756337 L 63.10288,64.959227 C 63.85279,67.826773 62.85975,71.756364 60.12375,76.747611 L 59.74878,78.918867 H 61.51963 C 64.26947,75.685955 66.42238,72.121742 67.97796,68.225832 L 68.01947,68.002717 C 68.60296,65.229894 69.56813,62.835528 70.91538,60.820011 72.55416,58.290507 72.97084,56.525441 72.16538,55.52441 71.74871,57.079848 71.08892,58.689566 70.18621,60.353568 Z M 67.49863,71.330352 C 66.13754,74.089701 64.49876,76.619202 62.58204,78.918867 H 67.9153 C 67.49863,76.71392 67.31816,74.678185 67.37371,72.811281 Z M 68.06117,79.730468 H 59.56121 C 59.31117,80.880102 58.98483,82.104231 58.58201,83.402862 H 69.04038 C 68.70712,82.347554 68.38059,81.123423 68.06117,79.730468 Z M 54.43629,59.136173 C 54.46396,59.798773 55.06821,60.603628 56.24863,61.550364 59.22084,64.120681 60.60288,67.941692 60.39454,73.01418 L 60.35284,74.515714 C 62.25571,70.592855 62.90146,67.482008 62.2903,65.182347 L 62.22784,64.999657 C 61.81116,63.56589 61.22788,62.186407 60.47796,60.860824 59.15838,61.428705 57.99871,61.52342 56.99876,61.144566 55.97091,60.766113 55.15834,59.913699 54.56121,58.588116 54.47779,58.77753 54.43629,58.96023 54.43629,59.136173 Z"
     id="path2"
     inkscape:connector-curvature="0"
     style="clip-rule:evenodd;fill:#000000;fill-opacity:1;fill-rule:evenodd;stroke:none;stroke-width:0.41119698;stroke-opacity:1" />
  <text
     x="0.19708318"
     y="133.52582"
     font-size="5px"
     font-weight="bold"
     id="text4"
     style="font-weight:bold;font-size:5px;font-family:'Helvetica Neue', Helvetica, Arial-Unicode, Arial, Sans-serif;fill:#000000">Inspired by Saeful Muslim and Iain Hector from the Noun Project</text>
  <path
     inkscape:connector-curvature="0"
     d="M 40.307312,47.834687 C 40.427602,46.995051 40.627969,45.325577 40.510798,44.199988 40.460528,43.720248 40.517383,43.298908 40.589143,42.765482 40.65119,42.302957 40.726414,41.741848 40.744796,41.005194 H 41.124719 L 40.956243,38.970761 C 41.223168,38.916062 41.510192,38.770213 41.725814,38.455219 42.209725,37.74894 41.952861,36.639892 41.864821,36.323893 42.079392,34.770547 42.028779,33.114571 41.959456,32.080145 H 42.45309 L 42.402119,31.698982 C 42.067955,29.197628 40.749987,28.495745 38.942196,28.307351 L 38.648237,27.701015 C 39.034064,27.373865 39.328713,26.911333 39.473972,26.371836 L 39.477085,26.387028 39.483678,26.329298 C 39.542598,26.097357 39.575532,25.852594 39.575532,25.599041 39.575532,25.578794 39.573451,25.559216 39.5731,25.539298 L 39.60465,25.258062 C 39.608809,25.219918 39.710727,24.316137 39.710727,24.000804 39.710727,23.628757 39.630301,23.099726 39.626845,23.077445 L 39.61089,22.97413 39.509323,22.941723 C 39.479856,22.932271 39.089186,22.80938 38.605943,22.697297 38.598321,22.691558 38.592432,22.684136 38.583413,22.679746 37.624233,22.194595 37.272374,22.057526 36.229652,21.764141 L 35.649014,21.600739 36.558277,22.588591 C 35.85943,22.708777 35.159544,22.929236 35.119679,22.942064 L 35.018098,22.974473 35.00216,23.077788 C 34.998351,23.099726 34.917579,23.629097 34.917579,24.000804 34.917579,24.316137 35.019145,25.219573 35.02365,25.258062 L 35.055542,25.538961 C 35.055207,25.559216 35.052766,25.578794 35.052766,25.599041 35.052766,25.853268 35.086046,26.098375 35.144983,26.330649 L 35.151219,26.387028 35.153993,26.372171 C 35.299243,26.911333 35.593891,27.373865 35.979718,27.701015 L 35.685766,28.307351 C 33.877972,28.496067 32.560004,29.197628 32.225831,31.698982 L 32.174874,32.080145 H 32.668505 C 32.599175,33.114571 32.548563,34.770889 32.763141,36.323893 32.675437,36.639892 32.418569,37.74894 32.902148,38.455219 33.117765,38.770213 33.405139,38.916062 33.671713,38.970761 L 33.50324,41.005194 H 33.88317 C 33.901541,41.741848 33.97677,42.303298 34.038815,42.765482 34.110575,43.298908 34.167078,43.720248 34.117161,44.199988 33.999992,45.325577 34.200698,46.995051 34.320646,47.834687 32.461207,48.614575 32.455661,48.894099 32.455661,48.986952 32.455661,49.133464 32.553763,49.304318 32.829698,49.304318 H 33.077207 V 49.400857 H 33.482789 V 49.304641 H 34.073137 V 49.401198 H 34.47872 V 49.304641 H 35.06872 V 49.401198 H 35.4743 V 49.304641 H 36.064649 V 49.401198 H 36.470227 V 49.294513 C 36.532286,49.273917 36.579429,49.220914 36.58705,49.153731 L 36.681344,48.298563 C 36.687233,48.244555 36.666443,48.191208 36.624838,48.155078 36.617903,48.149001 36.609233,48.147654 36.601608,48.142929 36.695208,47.385329 36.816534,46.284048 36.816534,45.681752 36.816534,44.880265 36.759683,44.386692 36.738889,44.233071 L 37.181556,41.00485 H 37.443971 L 37.886646,44.233071 C 37.865847,44.386692 37.808996,44.880265 37.808996,45.681752 37.808996,46.284048 37.930666,47.385329 38.023918,48.142929 38.016641,48.147654 38.007621,48.149339 38.000694,48.155078 37.959446,48.191208 37.938293,48.244889 37.944189,48.298563 L 38.038479,49.153731 C 38.045759,49.220577 38.093251,49.273575 38.155302,49.294513 V 49.401198 H 38.560884 V 49.304641 H 39.151229 V 49.401198 H 39.556811 V 49.304641 H 40.146812 V 49.401198 H 40.552403 V 49.304641 H 41.142737 V 49.401198 H 41.548327 V 49.304641 H 41.795823 C 42.071771,49.304641 42.169871,49.133464 42.169871,48.987291 42.172296,48.894099 42.166746,48.614575 40.307312,47.834687 Z M 39.831356,44.402887 C 39.928766,45.657785 39.645903,47.596337 39.564439,48.11288 39.37482,48.175002 39.148108,48.194585 38.949482,48.194585 38.873911,48.194585 38.800765,48.191541 38.729703,48.18716 38.636801,47.44542 38.504028,46.278987 38.504028,45.682094 38.504028,45.029829 38.543555,44.596682 38.565738,44.403218 H 39.831356 Z M 41.653704,31.404588 H 40.558635 C 40.548927,31.232406 40.540608,31.098705 40.535755,31.013954 H 41.564608 C 41.597895,31.1372 41.627362,31.266839 41.653704,31.404588 Z M 41.168404,36.300928 41.157649,36.37453 41.179827,36.445435 C 41.267883,36.729029 41.451261,37.638888 41.148988,38.080473 41.075139,38.188178 40.985716,38.247924 40.899047,38.281695 L 40.748953,36.470754 C 40.74825,35.161166 40.660553,33.283379 40.59642,32.0798 H 41.264767 C 41.334787,33.096683 41.389556,34.76211 41.168404,36.300928 Z M 35.746068,25.599041 C 35.746068,25.118297 35.890272,24.678727 36.127047,24.340444 36.662616,24.582505 37.196465,25.017678 37.202361,25.022401 L 37.314329,25.114919 37.426287,25.022401 C 37.432184,25.017678 37.966031,24.582505 38.50161,24.340444 38.738368,24.678727 38.882577,25.118297 38.882577,25.599041 38.882577,26.665219 38.179221,27.532874 37.314667,27.532874 36.450129,27.532874 35.746068,26.665219 35.746068,25.599041 Z M 37.314329,28.207757 C 37.574305,28.207757 37.823557,28.154075 38.0565,28.060565 L 38.335907,28.637199 37.314329,29.234433 36.292743,28.637882 36.57249,28.060894 C 36.805088,28.154414 37.053992,28.207757 37.314329,28.207757 Z M 35.557497,28.99574 37.313972,30.02139 39.069419,28.995408 C 40.346484,29.155432 41.125755,29.616271 41.511229,30.844825 H 40.511485 C 40.469896,30.693242 40.328449,30.584201 40.16172,30.592296 39.970714,30.603781 39.825117,30.763799 39.836902,30.949826 39.838992,30.98291 40.032766,34.086901 40.05356,36.146311 H 34.574391 C 34.59519,34.086901 34.78897,30.98291 34.79105,30.949826 34.802838,30.763799 34.657247,30.603781 34.46624,30.592296 34.303315,30.583857 34.159454,30.693242 34.117161,30.844825 H 33.116725 C 33.502202,29.616937 34.281474,29.156104 35.557497,28.99574 Z M 33.063688,31.013954 H 34.092548 C 34.087348,31.098705 34.079375,31.232406 34.069669,31.404588 H 32.974598 C 33.000944,31.266839 33.03041,31.1372 33.063688,31.013954 Z M 33.729259,38.281356 C 33.642594,38.247587 33.553505,38.188855 33.479321,38.080473 33.177043,37.639218 33.354528,36.750292 33.44847,36.444757 L 33.47031,36.373859 33.45991,36.300928 C 33.238747,34.76211 33.293517,33.096683 33.363888,32.0798 H 34.03223 C 33.967754,33.283379 33.880398,35.161166 33.879706,36.470754 Z M 36.06256,44.402887 C 36.084753,44.596341 36.124271,45.029492 36.124271,45.681752 36.124271,46.278987 35.991161,47.445089 35.898602,48.186809 35.827536,48.191208 35.754393,48.194242 35.678823,48.194242 35.480193,48.194242 35.253486,48.174667 35.063867,48.112543 34.982745,47.595999 34.699536,45.658119 34.796946,44.402549 H 36.06256 Z M 36.063957,44.065286 H 34.818783 C 34.84444,43.59228 34.792093,43.162844 34.726924,42.677702 34.664522,42.213154 34.59519,41.693914 34.577519,41.00485 H 36.484098 Z M 36.905618,38.176349 36.741309,40.329974 H 34.255126 L 34.545623,36.82187 H 40.082676 L 40.373175,40.329974 H 37.886989 L 37.722678,38.176349 Z M 40.051141,41.005194 C 40.033455,41.694247 39.964125,42.213154 39.901737,42.678047 39.836562,43.163193 39.784217,43.592628 39.809874,44.065619 H 38.564698 L 38.144906,41.005531 H 40.051141 Z"
     id="path2-8"
     style="stroke-width:0.34210074" />
  <path
     inkscape:connector-curvature="0"
     d="M 41.960614,103.98634 C 42.080904,103.14671 42.281271,101.47725 42.1641,100.35162 42.11383,99.871888 42.170685,99.450552 42.242445,98.917126 42.304492,98.454605 42.379716,97.893493 42.398098,97.156838 H 42.778021 L 42.609545,95.122406 C 42.87647,95.067701 43.163494,94.921862 43.379116,94.606861 43.863027,93.900592 43.606163,92.791542 43.518123,92.475543 43.732694,90.922194 43.682081,89.266219 43.612758,88.231789 H 44.106392 L 44.055421,87.850625 C 43.721257,85.349279 42.403289,84.647385 40.595498,84.459 L 40.301539,83.852659 C 40.687366,83.525509 40.982015,83.062986 41.127274,82.52348 L 41.130387,82.538678 41.13698,82.480941 C 41.1959,82.249006 41.228834,82.004237 41.228834,81.750692 41.228834,81.730435 41.226753,81.710862 41.226402,81.690944 L 41.257952,81.409705 C 41.262111,81.371563 41.364029,80.46778 41.364029,80.152452 41.364029,79.780405 41.283603,79.251369 41.280147,79.229087 L 41.264192,79.125779 41.162625,79.093374 C 41.133158,79.083919 40.742488,78.961027 40.259245,78.848944 40.251623,78.843209 40.245734,78.835784 40.236715,78.831389 39.277535,78.346243 38.925676,78.209171 37.882954,77.915788 L 37.302315,77.752386 38.211579,78.740232 C 37.512732,78.860425 36.812846,79.080883 36.77298,79.093712 L 36.6714,79.126122 36.655461,79.229432 C 36.651652,79.251369 36.57088,79.780742 36.57088,80.152452 36.57088,80.46778 36.672446,81.37122 36.676951,81.409705 L 36.708844,81.690608 C 36.708509,81.710862 36.706067,81.730435 36.706067,81.750692 36.706067,82.004913 36.739347,82.250021 36.798284,82.482296 L 36.804521,82.538678 36.807294,82.523821 C 36.952544,83.062986 37.247193,83.525509 37.63302,83.852659 L 37.339068,84.459 C 35.531273,84.647714 34.213305,85.349279 33.879132,87.850625 L 33.828175,88.231789 H 34.321806 C 34.252476,89.266219 34.201865,90.922537 34.416442,92.475543 34.328738,92.791542 34.071871,93.900592 34.555449,94.606861 34.771066,94.921862 35.05844,95.067701 35.325014,95.122406 L 35.156542,97.156838 H 35.536472 C 35.554842,97.893493 35.630071,98.454944 35.692116,98.917126 35.763876,99.450552 35.820379,99.871888 35.770462,100.35162 35.653294,101.47725 35.854,103.14671 35.973948,103.98634 34.114508,104.76624 34.108962,105.04576 34.108962,105.13857 34.108962,105.28513 34.207065,105.45596 34.483,105.45596 H 34.730508 V 105.5525 H 35.13609 V 105.45631 H 35.726438 V 105.55282 H 36.132022 V 105.45631 H 36.722021 V 105.55282 H 37.127601 V 105.45631 H 37.717951 V 105.55282 H 38.123529 V 105.44616 C 38.185588,105.42556 38.232731,105.37254 38.240352,105.30538 L 38.334646,104.45022 C 38.340535,104.3962 38.319745,104.34287 38.27814,104.30673 38.271205,104.30063 38.262535,104.2993 38.25491,104.29457 38.34851,103.53697 38.469836,102.43568 38.469836,101.83342 38.469836,101.03191 38.412985,100.53834 38.392191,100.38472 L 38.834858,97.156495 H 39.097273 L 39.539948,100.38472 C 39.519149,100.53834 39.462298,101.03191 39.462298,101.83342 39.462298,102.43568 39.583968,103.53697 39.67722,104.29457 39.669943,104.2993 39.660923,104.30099 39.653996,104.30673 39.612748,104.34287 39.591595,104.39656 39.597491,104.45022 L 39.691781,105.30538 C 39.699061,105.37222 39.746553,105.42523 39.808604,105.44616 V 105.55282 H 40.214186 V 105.45631 H 40.804531 V 105.55282 H 41.210113 V 105.45631 H 41.800114 V 105.55282 H 42.205705 V 105.45631 H 42.796039 V 105.55282 H 43.201629 V 105.45631 H 43.449125 C 43.725073,105.45631 43.823173,105.28513 43.823173,105.13894 43.825598,105.04576 43.820048,104.76624 41.960614,103.98634 Z M 41.484658,100.55453 C 41.582068,101.80946 41.299205,103.74797 41.217741,104.26453 41.028122,104.32665 40.80141,104.34623 40.602784,104.34623 40.527213,104.34623 40.454067,104.3432 40.383005,104.33883 40.290103,103.59708 40.15733,102.43063 40.15733,101.83377 40.15733,101.18149 40.196857,100.74832 40.21904,100.55487 H 41.484658 Z M 43.307006,87.556242 H 42.211937 C 42.202229,87.384055 42.19391,87.250357 42.189057,87.165604 H 43.21791 C 43.251197,87.288853 43.280664,87.41848 43.307006,87.556242 Z M 42.821706,92.452569 42.810951,92.526178 42.833129,92.597077 C 42.921185,92.880677 43.104563,93.790538 42.80229,94.23212 42.728441,94.339825 42.639018,94.399567 42.552349,94.433345 L 42.402255,92.622402 C 42.401552,91.312813 42.313855,89.435028 42.249722,88.231448 H 42.918069 C 42.988089,89.248324 43.042858,90.913752 42.821706,92.452569 Z M 37.39937,81.750692 C 37.39937,81.269943 37.543574,80.830373 37.780349,80.492087 38.315918,80.73415 38.849767,81.169324 38.855663,81.174046 L 38.967631,81.266565 39.079589,81.174046 C 39.085486,81.169324 39.619333,80.73415 40.154912,80.492087 40.39167,80.830373 40.535879,81.269943 40.535879,81.750692 40.535879,82.816866 39.832523,83.684523 38.967969,83.684523 38.103431,83.684523 37.39937,82.816866 37.39937,81.750692 Z M 38.967631,84.359404 C 39.227607,84.359404 39.476859,84.305721 39.709802,84.212209 L 39.989209,84.78884 38.967631,85.386072 37.946045,84.789527 38.225792,84.212541 C 38.45839,84.306054 38.707294,84.359404 38.967631,84.359404 Z M 37.210799,85.147381 38.967274,86.173044 40.722721,85.147048 C 41.999786,85.307078 42.779057,85.767916 43.164531,86.996476 H 42.164787 C 42.123198,86.844884 41.981751,86.735843 41.815022,86.743938 41.624016,86.755425 41.478419,86.915453 41.490204,87.10147 41.492294,87.134558 41.686068,90.238545 41.706862,92.297958 H 36.227693 C 36.248492,90.238545 36.442272,87.134558 36.444351,87.10147 36.45614,86.915453 36.310548,86.755425 36.119541,86.743938 35.956616,86.735501 35.812755,86.844884 35.770462,86.996476 H 34.770026 C 35.155503,85.768583 35.934776,85.307752 37.210799,85.147381 Z M 34.716989,87.165604 H 35.745849 C 35.740649,87.250357 35.732676,87.384055 35.722971,87.556242 H 34.627899 C 34.654246,87.41848 34.683711,87.288853 34.716989,87.165604 Z M 35.38256,94.432998 C 35.295895,94.399235 35.206806,94.340509 35.132622,94.23212 34.830344,93.790868 35.007829,92.901943 35.101772,92.596407 L 35.123611,92.525507 35.113211,92.452569 C 34.892049,90.913752 34.946818,89.248324 35.01719,88.231448 H 35.685531 C 35.621055,89.435028 35.533699,91.312813 35.533007,92.622402 Z M 37.715862,100.55453 C 37.738055,100.74799 37.777573,101.18118 37.777573,101.83342 37.777573,102.43063 37.644463,103.59676 37.551904,104.33846 37.480838,104.34287 37.407695,104.34586 37.332124,104.34586 37.133495,104.34586 36.906787,104.32632 36.717168,104.26418 36.636047,103.74765 36.352838,101.8098 36.450248,100.55419 H 37.715862 Z M 37.717259,100.21693 H 36.472084 C 36.497742,99.743923 36.445395,99.314498 36.380226,98.82935 36.317823,98.364801 36.248492,97.845566 36.230821,97.156495 H 38.1374 Z M 38.55892,94.327991 38.394611,96.481614 H 35.908427 L 36.198924,92.973517 H 41.735978 L 42.026477,96.481614 H 39.540291 L 39.37598,94.327991 Z M 41.704443,97.156838 C 41.686757,97.845897 41.617427,98.364801 41.555039,98.82969 41.489864,99.314839 41.437519,99.744279 41.463176,100.21727 H 40.218 L 39.798208,97.157174 H 41.704443 Z"
     id="path2-8-9"
     style="stroke-width:0.34210074" />
  <path
     inkscape:connector-curvature="0"
     d="M 89.7968,48.180623 C 89.91709,47.340987 90.11745,45.671513 90.00028,44.545924 89.95001,44.066181 90.00687,43.644843 90.07863,43.111418 90.14067,42.648896 90.2159,42.087788 90.23428,41.351134 H 90.6142 L 90.44573,39.316702 C 90.71265,39.261999 90.99967,39.116148 91.2153,38.801158 91.69921,38.094878 91.44234,36.985828 91.3543,36.66983 91.56888,35.116482 91.51826,33.460511 91.44894,32.426078 H 91.94257 L 91.8916,32.044915 C 91.55744,29.54357 90.23947,28.841678 88.43168,28.653293 L 88.13772,28.04695 C 88.52355,27.719798 88.8182,27.257275 88.96345,26.717771 L 88.96657,26.732967 88.97316,26.67523 C 89.03208,26.443297 89.06502,26.198527 89.06502,25.944984 89.06502,25.924729 89.06293,25.905148 89.06258,25.885235 L 89.09413,25.603996 C 89.09829,25.565852 89.20021,24.662074 89.20021,24.346741 89.20021,23.974694 89.11978,23.445659 89.11633,23.423378 L 89.10037,23.32007 88.99881,23.287661 C 88.96934,23.27821 88.57867,23.155316 88.09543,23.043235 88.0878,23.037499 88.08191,23.030074 88.0729,23.025681 87.11372,22.540533 86.76186,22.403462 85.71913,22.11008 L 85.1385,21.946677 86.04776,22.934525 C 85.34891,23.054715 84.64903,23.275172 84.60916,23.288002 L 84.50758,23.320412 84.49164,23.423723 C 84.48783,23.445659 84.40706,23.975033 84.40706,24.346741 84.40706,24.662074 84.50863,25.565512 84.51313,25.603996 L 84.54502,25.884892 C 84.54469,25.905148 84.54225,25.924729 84.54225,25.944984 84.54225,26.199202 84.57553,26.444306 84.63447,26.676582 L 84.6407,26.732967 84.64347,26.71811 C 84.78873,27.257275 85.08337,27.719798 85.4692,28.04695 L 85.17525,28.653293 C 83.36745,28.842011 82.04949,29.54357 81.71531,32.044915 L 81.66436,32.426078 H 82.15799 C 82.08866,33.460511 82.03805,35.116826 82.25262,36.66983 82.16492,36.985828 81.90805,38.094878 82.39163,38.801158 82.60725,39.116148 82.89462,39.261999 83.1612,39.316702 L 82.99272,41.351134 H 83.37265 C 83.39102,42.087788 83.46625,42.649236 83.5283,43.111418 83.60006,43.644843 83.65656,44.066181 83.60664,44.545924 83.48947,45.671513 83.69018,47.340987 83.81013,48.180623 81.95069,48.960512 81.94514,49.240038 81.94514,49.332886 81.94514,49.479399 82.04325,49.65025 82.31918,49.65025 H 82.56669 V 49.746792 H 82.97227 V 49.650582 H 83.56262 V 49.747135 H 83.9682 V 49.650582 H 84.5582 V 49.747135 H 84.96378 V 49.650582 H 85.55413 V 49.747135 H 85.95971 V 49.640451 C 86.02177,49.619851 86.06891,49.566848 86.07653,49.499665 L 86.17083,48.644498 C 86.17672,48.59049 86.15593,48.537146 86.11432,48.501013 86.10739,48.494935 86.09872,48.493589 86.09109,48.488866 86.18469,47.731268 86.30602,46.629986 86.30602,46.02769 86.30602,45.2262 86.24917,44.73263 86.22837,44.57901 L 86.67104,41.350783 H 86.93345 L 87.37613,44.57901 C 87.35533,44.73263 87.29848,45.2262 87.29848,46.02769 87.29848,46.629986 87.42015,47.731268 87.5134,48.488866 87.50612,48.493589 87.4971,48.495277 87.49018,48.501013 87.44893,48.537146 87.42778,48.590826 87.43367,48.644498 L 87.52796,49.499665 C 87.53524,49.566514 87.58273,49.619512 87.64478,49.640451 V 49.747135 H 88.05037 V 49.650582 H 88.64071 V 49.747135 H 89.04629 V 49.650582 H 89.6363 V 49.747135 H 90.04189 V 49.650582 H 90.63222 V 49.747135 H 91.03781 V 49.650582 H 91.28531 C 91.56125,49.650582 91.65935,49.479399 91.65935,49.33323 91.66178,49.240038 91.65623,48.960512 89.7968,48.180623 Z M 89.32084,44.748822 C 89.41825,46.003722 89.13539,47.942272 89.05392,48.458818 88.8643,48.52094 88.63759,48.540519 88.43896,48.540519 88.36339,48.540519 88.29025,48.537477 88.21919,48.533095 88.12628,47.791356 87.99351,46.624926 87.99351,46.028029 87.99351,45.375764 88.03304,44.94262 88.05522,44.749156 H 89.32084 Z M 91.14319,31.750526 H 90.04812 C 90.03841,31.578339 90.03009,31.444639 90.02524,31.359894 H 91.05409 C 91.08738,31.483137 91.11684,31.612771 91.14319,31.750526 Z M 90.65789,36.646862 90.64713,36.720469 90.66931,36.791368 C 90.75737,37.074962 90.94074,37.984822 90.63847,38.426413 90.56462,38.534114 90.4752,38.59386 90.38853,38.627629 L 90.23844,36.816692 C 90.23773,35.5071 90.15004,33.62932 90.0859,32.425737 H 90.75425 C 90.82427,33.442617 90.87904,35.108046 90.65789,36.646862 Z M 85.23555,25.944984 C 85.23555,25.464234 85.37976,25.024665 85.61653,24.686377 86.1521,24.92844 86.68595,25.363612 86.69184,25.368338 L 86.80381,25.460858 86.91577,25.368338 C 86.92167,25.363612 87.45551,24.92844 87.99109,24.686377 88.22785,25.024665 88.37206,25.464234 88.37206,25.944984 88.37206,27.011152 87.6687,27.878813 86.80415,27.878813 85.93961,27.878813 85.23555,27.011152 85.23555,25.944984 Z M 86.80381,28.553702 C 87.06379,28.553702 87.31304,28.500014 87.54598,28.406498 L 87.82539,28.983137 86.80381,29.580364 85.78223,28.983813 86.06197,28.406833 C 86.29457,28.500347 86.54348,28.553702 86.80381,28.553702 Z M 85.04698,29.341677 86.80345,30.367332 88.5589,29.341339 C 89.83597,29.501363 90.61524,29.962204 91.00071,31.190761 H 90.00097 C 89.95938,31.039176 89.81793,30.930133 89.6512,30.938225 89.4602,30.949718 89.3146,31.109738 89.32639,31.295761 89.32847,31.32884 89.52225,34.432833 89.54304,36.492247 H 84.06387 C 84.08467,34.432833 84.27845,31.32884 84.28053,31.295761 84.29232,31.109738 84.14673,30.949718 83.95572,30.938225 83.7928,30.929794 83.64894,31.039176 83.60664,31.190761 H 82.60621 C 82.99168,29.962867 83.77096,29.502034 85.04698,29.341677 Z M 82.55317,31.359894 H 83.58203 C 83.57683,31.444639 83.56886,31.578339 83.55915,31.750526 H 82.46408 C 82.49043,31.612771 82.51989,31.483137 82.55317,31.359894 Z M 83.21874,38.627295 C 83.13208,38.593523 83.04299,38.534791 82.9688,38.426413 82.66652,37.985155 82.84401,37.096232 82.93795,36.790695 L 82.95979,36.719796 82.94939,36.646862 C 82.72823,35.108046 82.783,33.442617 82.85337,32.425737 H 83.52171 C 83.45724,33.62932 83.36988,35.5071 83.36919,36.816692 Z M 85.55204,44.748822 C 85.57424,44.942275 85.61375,45.375431 85.61375,46.02769 85.61375,46.624926 85.48064,47.791027 85.38809,48.532747 85.31702,48.537146 85.24388,48.540178 85.16831,48.540178 84.96968,48.540178 84.74297,48.520603 84.55335,48.458476 84.47223,47.941936 84.18902,46.004056 84.28643,44.748484 H 85.55204 Z M 85.55344,44.411217 H 84.30827 C 84.33392,43.938218 84.28158,43.508781 84.21641,43.023638 84.154,42.559092 84.08467,42.039852 84.067,41.350783 H 85.97358 Z M 86.3951,38.522283 86.23079,40.675908 H 83.74461 L 84.03511,37.167808 H 89.57216 L 89.86266,40.675908 H 87.37647 L 87.21216,38.522283 Z M 89.54062,41.351134 C 89.52294,42.040183 89.45361,42.559092 89.39122,43.023984 89.32604,43.50913 89.2737,43.938566 89.29936,44.411556 H 88.05418 L 87.63439,41.351464 H 89.54062 Z"
     id="path2-8-93"
     style="stroke-width:0.34210074" />
  <path
     inkscape:connector-curvature="0"
     d="M 89.40843,104.05224 C 89.52872,103.21258 89.72909,101.5431 89.61191,100.41751 89.56164,99.937767 89.6185,99.516429 89.69026,98.983004 89.75231,98.520482 89.82753,97.959369 89.84591,97.222715 H 90.22584 L 90.05736,95.188283 C 90.32429,95.133575 90.61131,94.987737 90.82693,94.672737 91.31084,93.966454 91.05398,92.857405 90.96594,92.54141 91.18051,90.988062 91.1299,89.332084 91.06057,88.297666 H 91.55421 L 91.50324,87.916493 C 91.16907,85.415143 89.8511,84.713254 88.04331,84.524864 L 87.74935,83.91852 C 88.13518,83.591374 88.42983,83.12885 88.57509,82.589343 L 88.5782,82.604541 88.58479,82.546804 C 88.64372,82.314871 88.67665,82.070106 88.67665,81.816561 88.67665,81.796303 88.67457,81.776725 88.67422,81.756813 L 88.70577,81.475576 C 88.70993,81.437426 88.81184,80.533645 88.81184,80.218317 88.81184,79.846274 88.73142,79.317236 88.72796,79.294955 L 88.71201,79.191645 88.61044,79.159235 C 88.58097,79.149782 88.1903,79.02689 87.70706,78.914806 87.69944,78.909072 87.69355,78.901644 87.68453,78.897253 86.72535,78.412103 86.37349,78.275037 85.33077,77.98165 L 84.75013,77.81825 85.65939,78.806099 C 84.96055,78.926286 84.26066,79.146748 84.2208,79.159579 L 84.11921,79.191985 84.10328,79.295297 C 84.09947,79.317236 84.0187,79.846607 84.0187,80.218317 84.0187,80.533645 84.12026,81.437087 84.12477,81.475576 L 84.15666,81.756472 C 84.15632,81.776725 84.15388,81.796303 84.15388,81.816561 84.15388,82.070777 84.18716,82.315889 84.2461,82.548163 L 84.25234,82.604541 84.25511,82.589684 C 84.40036,83.12885 84.69501,83.591374 85.08083,83.91852 L 84.78688,84.524864 C 82.97909,84.713579 81.66112,85.415143 81.32695,87.916493 L 81.27599,88.297666 H 81.76962 C 81.70029,89.332084 81.64968,90.988403 81.86426,92.54141 81.77655,92.857405 81.51969,93.966454 82.00326,94.672737 82.21888,94.987737 82.50626,95.133575 82.77283,95.188283 L 82.60436,97.222715 H 82.98429 C 83.00266,97.959369 83.07789,98.520821 83.13993,98.983004 83.21169,99.516429 83.2682,99.937767 83.21828,100.41751 83.10111,101.5431 83.30182,103.21258 83.42176,104.05224 81.56232,104.8321 81.55678,105.11164 81.55678,105.20449 81.55678,105.35097 81.65488,105.52185 81.93081,105.52185 H 82.17832 V 105.61838 H 82.58391 V 105.52218 H 83.17425 V 105.61872 H 83.57984 V 105.52218 H 84.16984 V 105.61872 H 84.57542 V 105.52218 H 85.16577 V 105.61872 H 85.57134 V 105.51203 C 85.6334,105.49143 85.68055,105.43843 85.68817,105.37126 L 85.78246,104.51608 C 85.78835,104.4621 85.76756,104.40874 85.72595,104.37264 85.71902,104.36651 85.71035,104.36516 85.70273,104.36048 85.79632,103.60284 85.91765,102.50156 85.91765,101.89927 85.91765,101.0978 85.8608,100.60422 85.84001,100.45059 L 86.28267,97.222366 H 86.54509 L 86.98776,100.45059 C 86.96696,100.60422 86.91011,101.0978 86.91011,101.89927 86.91011,102.50156 87.03178,103.60284 87.12503,104.36048 87.11776,104.36516 87.10874,104.36685 87.10181,104.37264 87.06056,104.40874 87.03941,104.46241 87.04531,104.51608 L 87.1396,105.37126 C 87.14688,105.43809 87.19437,105.49107 87.25642,105.51203 V 105.61872 H 87.662 V 105.52218 H 88.25235 V 105.61872 H 88.65793 V 105.52218 H 89.24793 V 105.61872 H 89.65352 V 105.52218 H 90.24385 V 105.61872 H 90.64944 V 105.52218 H 90.89694 C 91.17289,105.52218 91.27099,105.35097 91.27099,105.20481 91.27341,105.11164 91.26786,104.8321 89.40843,104.05224 Z M 88.93247,100.62042 C 89.02988,101.87529 88.74702,103.81386 88.66556,104.33041 88.47594,104.39253 88.24922,104.4121 88.0506,104.4121 87.97503,104.4121 87.90188,104.40909 87.83082,104.4047 87.73792,103.66293 87.60514,102.49651 87.60514,101.89961 87.60514,101.24734 87.64467,100.81421 87.66685,100.62072 H 88.93247 Z M 90.75482,87.622106 H 89.65975 C 89.65004,87.449922 89.64172,87.316218 89.63687,87.231476 H 90.66572 C 90.69901,87.354717 90.72848,87.484355 90.75482,87.622106 Z M 90.26952,92.518446 90.25877,92.592044 90.28094,92.662943 C 90.369,92.946538 90.55238,93.8564 90.25011,94.297995 90.17626,94.405699 90.08683,94.465441 90.00016,94.499219 L 89.85007,92.688264 C 89.84937,91.37868 89.76167,89.500893 89.69754,88.297313 H 90.36588 C 90.4359,89.314199 90.49067,90.979626 90.26952,92.518446 Z M 84.84718,81.816561 C 84.84718,81.335805 84.99139,80.896237 85.22816,80.557954 85.76373,80.800019 86.29758,81.23519 86.30348,81.239916 L 86.41545,81.332428 86.5274,81.239916 C 86.5333,81.23519 87.06715,80.800019 87.60273,80.557954 87.83948,80.896237 87.98369,81.335805 87.98369,81.816561 87.98369,82.882735 87.28034,83.750388 86.41578,83.750388 85.55125,83.750388 84.84718,82.882735 84.84718,81.816561 Z M 86.41545,84.425269 C 86.67542,84.425269 86.92467,84.371588 87.15762,84.278073 L 87.43702,84.854709 86.41545,85.451949 85.39386,84.85539 85.67361,84.278405 C 85.9062,84.371923 86.15511,84.425269 86.41545,84.425269 Z M 84.65861,85.213248 86.41509,86.23891 88.17054,85.212921 C 89.4476,85.37294 90.22687,85.833776 90.61235,87.062334 H 89.6126 C 89.57101,86.910754 89.42957,86.801718 89.26284,86.809812 89.07183,86.821292 88.92623,86.981317 88.93802,87.167345 88.94011,87.200419 89.13388,90.30442 89.15468,92.363825 H 83.67551 C 83.69631,90.30442 83.89009,87.200419 83.89217,87.167345 83.90395,86.981317 83.75836,86.821292 83.56736,86.809812 83.40443,86.801377 83.26057,86.910754 83.21828,87.062334 H 82.21784 C 82.60332,85.834443 83.38259,85.373616 84.65861,85.213248 Z M 82.16481,87.231476 H 83.19366 C 83.18846,87.316218 83.18049,87.449922 83.17079,87.622106 H 82.07572 C 82.10206,87.484355 82.13153,87.354717 82.16481,87.231476 Z M 82.83038,94.498872 C 82.74371,94.465107 82.65462,94.406373 82.58044,94.297995 82.27816,93.856732 82.45565,92.967812 82.54959,92.662274 L 82.57143,92.591369 82.56103,92.518446 C 82.33986,90.979626 82.39463,89.314199 82.46501,88.297313 H 83.13335 C 83.06887,89.500893 82.98152,91.37868 82.98082,92.688264 Z M 85.16368,100.62042 C 85.18587,100.81386 85.22539,101.24699 85.22539,101.89927 85.22539,102.49651 85.09228,103.6626 84.99972,104.40434 84.92865,104.40874 84.85551,104.41178 84.77994,104.41178 84.58131,104.41178 84.3546,104.3922 84.16498,104.33004 84.08386,103.81353 83.80065,101.87562 83.89806,100.62009 H 85.16368 Z M 85.16507,100.2828 H 83.9199 C 83.94556,99.8098 83.89321,99.380361 83.82804,98.895229 83.76564,98.430678 83.69631,97.911432 83.67864,97.222366 H 85.58522 Z M 86.00674,94.393872 85.84243,96.547486 H 83.35624 L 83.64674,93.039382 H 89.18379 L 89.47429,96.547486 H 86.98811 L 86.8238,94.393872 Z M 89.15226,97.222715 C 89.13457,97.911763 89.06524,98.430678 89.00285,98.895568 88.93768,99.380715 88.88533,99.810155 88.91099,100.28314 H 87.66581 L 87.24602,97.223052 H 89.15226 Z"
     id="path2-8-5"
     style="stroke-width:0.34210074" />
</svg>
