<?xml version="1.0" encoding="UTF-8" standalone="no"?>
<svg
   xmlns:dc="http://purl.org/dc/elements/1.1/"
   xmlns:cc="http://creativecommons.org/ns#"
   xmlns:rdf="http://www.w3.org/1999/02/22-rdf-syntax-ns#"
   xmlns:svg="http://www.w3.org/2000/svg"
   xmlns="http://www.w3.org/2000/svg"
   xmlns:xlink="http://www.w3.org/1999/xlink"
   xmlns:sodipodi="http://sodipodi.sourceforge.net/DTD/sodipodi-0.dtd"
   xmlns:inkscape="http://www.inkscape.org/namespaces/inkscape"
   width="600"
   height="360"
   version="1.1"
   id="svg182"
   sodipodi:docname="mvc.svg"
   inkscape:version="0.92.5 (2060ec1f9f, 2020-04-08)"
   inkscape:export-filename="D:\Programming\Workspace\Web\github-pages-website\robole.github.io\assets\img\blog\2020-05-27-spring-boot-api\mvc.png"
   inkscape:export-xdpi="100"
   inkscape:export-ydpi="100">
  <metadata
     id="metadata188">
    <rdf:RDF>
      <cc:Work
         rdf:about="">
        <dc:format>image/svg+xml</dc:format>
        <dc:type
           rdf:resource="http://purl.org/dc/dcmitype/StillImage" />
        <dc:title></dc:title>
      </cc:Work>
    </rdf:RDF>
  </metadata>
  <defs
     id="defs186" />
  <sodipodi:namedview
     pagecolor="#ffffff"
     bordercolor="#666666"
     borderopacity="1"
     objecttolerance="10"
     gridtolerance="10"
     guidetolerance="10"
     inkscape:pageopacity="0"
     inkscape:pageshadow="2"
     inkscape:window-width="1600"
     inkscape:window-height="837"
     id="namedview184"
     showgrid="false"
     inkscape:zoom="0.7814066"
     inkscape:cx="194.54172"
     inkscape:cy="71.613624"
     inkscape:window-x="-8"
     inkscape:window-y="-8"
     inkscape:window-maximized="1"
     inkscape:current-layer="g180" />
  <g
     transform="translate(-220 -140)"
     id="g180">
    <rect
       style="opacity:1;fill:#ffffff;fill-opacity:1;fill-rule:evenodd;stroke:#000000;stroke-width:0.9988535;stroke-linecap:square;stroke-linejoin:round;stroke-miterlimit:4;stroke-dasharray:none;stroke-dashoffset:0;stroke-opacity:1;paint-order:stroke fill markers"
       id="rect4856"
       width="599.00116"
       height="359.00116"
       x="220.49944"
       y="140.4994" />
    <path
       d="M417.38 240H502v60h-84.62z"
       fill="none"
       id="path2" />
    <use
       xlink:href="#a"
       transform="matrix(1,0,0,1,417.38055937020243,240) translate(12.574999999999996 33.6)"
       id="use4" />
    <path
       d="M368 160c17.67 0 32 17.9 32 40s-14.33 40-32 40h-96c-17.67 0-32-17.9-32-40s14.33-40 32-40z"
       stroke="#000"
       stroke-width="2"
       fill="#fff"
       id="path6"
       style="fill:#0546b0;fill-opacity:1" />
    <use
       xlink:href="#b"
       transform="matrix(1,0,0,1,245,165) translate(42.99382716049383 39.44444444444444)"
       id="use8"
       style="stroke:#ffffff;fill:#ffffff" />
    <path
       d="M768 160c17.67 0 32 17.9 32 40s-14.33 40-32 40h-96c-17.67 0-32-17.9-32-40s14.33-40 32-40z"
       stroke="#000"
       stroke-width="2"
       fill="#fff"
       id="path10"
       style="fill:#9e0009;fill-opacity:1" />
    <use
       xlink:href="#c"
       transform="matrix(1,0,0,1,645,165) translate(49.907407407407405 39.44444444444444)"
       id="use12"
       style="fill:#ffffff" />
    <path
       d="M568 400c17.67 0 32 17.9 32 40s-14.33 40-32 40h-96c-17.67 0-32-17.9-32-40s14.33-40 32-40z"
       id="path14"
       style="fill:#0546b0;fill-opacity:1"
       stroke-width="2"
       stroke="#000"
       fill="#fff" />
    <path
       d="M441.6 424.24l-8.38-2.94-7.84-3.1-7.35-3.3-6.9-3.43-6.5-3.58-6.14-3.74-5.83-3.87-5.52-4.03-5.24-4.17-5-4.32-4.75-4.5-4.55-4.64-4.34-4.84-4.16-5.03-3.97-5.25-3.8-5.48-3.6-5.72-3.47-6-3.28-6.3-3.1-6.6-2.92-7-2.73-7.37-2.53-7.82-2.3-8.3-2.06-8.83-1.8-9.43-1.46-10.08-1.12-10.83-.72-11.63L320 240"
       stroke="#000"
       stroke-width="2"
       fill="none"
       id="path18" />
    <use
       xlink:href="#d"
       transform="matrix(1,0,0,1,445,405) translate(22.067901234567906 39.44444444444444)"
       id="use16"
       style="fill:#ffffff" />
    <path
       d="M442.86 423.63l-.6 1.9-1-.35.7-1.88zM325.03 254.13l-9.27.26L320 240z"
       id="path20" />
    <path
       d="M326.44 255.1l-12.02.33 4.54-15.43h2.1zm-9.33-1.75l6.53-.18-3.54-9.94z"
       id="path22" />
    <path
       d="M383.36 236.3l46.4 63.35 7.15 11.2 5.38 9.26 4.4 8.37 3.74 7.95 3.3 7.82 2.95 7.9 2.68 8.22 2.43 8.68 2.2 9.4 2 10.35 1.6 10.6"
       stroke="#000"
       stroke-width="2"
       fill="none"
       id="path24" />
    <path
       d="M384.17 235.7l-1.6 1.18-.66-.9.7-.38.98-.7zM467.57 399.4l-6.85-13.34 9.15-1.48z"
       id="path26" />
    <path
       d="M240 320h84.62v60H240z"
       fill="none"
       id="path30" />
    <use
       xlink:href="#e"
       transform="matrix(1,0,0,1,240,320) translate(9.024999999999999 33.6)"
       id="use32" />
    <path
       d="M598.68 424.96l7.34-2.06 6.9-2.25 6.55-2.44 6.2-2.6 5.9-2.77 5.6-2.94 5.37-3.12 5.13-3.27 4.93-3.42 4.75-3.6 4.56-3.8 4.4-3.96 4.27-4.17 4.1-4.4 3.98-4.6 3.84-4.86 3.7-5.14 3.6-5.4 3.46-5.74 3.33-6.08 3.2-6.45 3.03-6.87 2.9-7.32 2.7-7.8 2.52-8.38 2.3-8.97 2.03-9.64 1.74-10.34 1.4-11.15 1-11.98.52-12.9.06-6.52"
       stroke="#000"
       stroke-width="2"
       fill="none"
       id="path34" />
    <path
       d="M468.45 400.3l-1.44.2-7.8-15.2 11.87-1.93zm-6.22-13.47l4.83 9.38 1.6-10.4z"
       id="path28" />
    <path
       d="M598.97 425.92l-1 .3-.4-1.55-.15-.37.97-.3zM724.24 254.4l-9.26-.27L720 240z"
       id="path36" />
    <path
       d="M725.6 255.42l-12.03-.32 5.37-15.1h2.1zm-9.22-2.25l6.5.18-2.97-10.12z"
       id="path38" />
    <path
       d="M651.14 231.7l-9.64 9.5-8 8.55-6.8 7.92-5.9 7.5-5.23 7.26-4.72 7.15-4.32 7.18-4.02 7.36-3.78 7.72-3.66 8.3-3.6 9.2-3.68 10.67-3.95 13.3-4.8 19.02-7.67 36.9"
       stroke="#000"
       stroke-width="2"
       fill="none"
       id="path40" />
    <path
       d="M652.54 231.72l-.7.7-1.4-1.43.73-.74zM578.8 386.2l-7.44 13-1.63-14.9z"
       id="path42" />
    <path
       d="M580.36 385.5l-8.48 14.82-.64-.12-.78-.05-1.87-17.1zm-8.34 10.54l5.24-9.15-6.38-1.34z"
       id="path44" />
    <path
       d="M715.38 320H800v60h-84.62z"
       fill="none"
       id="path46" />
    <use
       xlink:href="#e"
       transform="matrix(1,0,0,1,715.3805593702025,320) translate(9.024999999999999 33.6)"
       id="use48" />
    <path
       d="M522.38 240H607v60h-84.62z"
       fill="none"
       id="path50" />
    <use
       xlink:href="#f"
       transform="matrix(1,0,0,1,522.3805593702025,240) translate(23.549999999999997 22.799999999999997)"
       id="use52" />
    <use
       xlink:href="#g"
       transform="matrix(1,0,0,1,522.3805593702025,240) translate(17.525 44.4)"
       id="use54" />
    <defs
       id="defs178">
      <path
         d="M190 0L58-211 59 0H30v-248h39L202-35l-2-213h31V0h-41"
         id="h" />
      <path
         d="M100-194c62-1 85 37 85 99 1 63-27 99-86 99S16-35 15-95c0-66 28-99 85-99zM99-20c44 1 53-31 53-75 0-43-8-75-51-75s-53 32-53 75 10 74 51 75"
         id="i" />
      <path
         d="M59-47c-2 24 18 29 38 22v24C64 9 27 4 27-40v-127H5v-23h24l9-43h21v43h35v23H59v120"
         id="j" />
      <path
         d="M24-231v-30h32v30H24zM24 0v-190h32V0H24"
         id="k" />
      <path
         d="M101-234c-31-9-42 10-38 44h38v23H63V0H32v-167H5v-23h27c-7-52 17-82 69-68v24"
         id="l" />
      <path
         d="M100-194c63 0 86 42 84 106H49c0 40 14 67 53 68 26 1 43-12 49-29l28 8c-11 28-37 45-77 45C44 4 14-33 15-96c1-61 26-98 85-98zm52 81c6-60-76-77-97-28-3 7-6 17-6 28h103"
         id="m" />
      <path
         d="M135-143c-3-34-86-38-87 0 15 53 115 12 119 90S17 21 10-45l28-5c4 36 97 45 98 0-10-56-113-15-118-90-4-57 82-63 122-42 12 7 21 19 24 35"
         id="n" />
      <g
         id="a">
        <use
           transform="matrix(0.05,0,0,0.05,0,0)"
           xlink:href="#h"
           id="use63" />
        <use
           transform="matrix(0.05,0,0,0.05,12.950000000000001,0)"
           xlink:href="#i"
           id="use65" />
        <use
           transform="matrix(0.05,0,0,0.05,22.950000000000003,0)"
           xlink:href="#j"
           id="use67" />
        <use
           transform="matrix(0.05,0,0,0.05,27.950000000000003,0)"
           xlink:href="#k"
           id="use69" />
        <use
           transform="matrix(0.05,0,0,0.05,31.900000000000002,0)"
           xlink:href="#l"
           id="use71" />
        <use
           transform="matrix(0.05,0,0,0.05,36.900000000000006,0)"
           xlink:href="#k"
           id="use73" />
        <use
           transform="matrix(0.05,0,0,0.05,40.85000000000001,0)"
           xlink:href="#m"
           id="use75" />
        <use
           transform="matrix(0.05,0,0,0.05,50.85000000000001,0)"
           xlink:href="#n"
           id="use77" />
      </g>
      <path
         d="M230 0l2-204L168 0h-37L68-204 70 0H24v-248h70l56 185 57-185h69V0h-46"
         id="o" />
      <path
         d="M110-194c64 0 96 36 96 99 0 64-35 99-97 99-61 0-95-36-95-99 0-62 34-99 96-99zm-1 164c35 0 45-28 45-65 0-40-10-65-43-65-34 0-45 26-45 65 0 36 10 65 43 65"
         id="p" />
      <path
         d="M88-194c31-1 46 15 58 34l-1-101h50l1 261h-48c-2-10 0-23-3-31C134-8 116 4 84 4 32 4 16-41 15-95c0-56 19-97 73-99zm17 164c33 0 40-30 41-66 1-37-9-64-41-64s-38 30-39 65c0 43 13 65 39 65"
         id="q" />
      <path
         d="M185-48c-13 30-37 53-82 52C43 2 14-33 14-96s30-98 90-98c62 0 83 45 84 108H66c0 31 8 55 39 56 18 0 30-7 34-22zm-45-69c5-46-57-63-70-21-2 6-4 13-4 21h74"
         id="r" />
      <path
         d="M25 0v-261h50V0H25"
         id="s" />
      <g
         id="b">
        <use
           transform="matrix(0.06172839506172839,0,0,0.06172839506172839,0,0)"
           xlink:href="#o"
           id="use85" />
        <use
           transform="matrix(0.06172839506172839,0,0,0.06172839506172839,18.456790123456788,0)"
           xlink:href="#p"
           id="use87" />
        <use
           transform="matrix(0.06172839506172839,0,0,0.06172839506172839,31.9753086419753,0)"
           xlink:href="#q"
           id="use89" />
        <use
           transform="matrix(0.06172839506172839,0,0,0.06172839506172839,45.49382716049382,0)"
           xlink:href="#r"
           id="use91" />
        <use
           transform="matrix(0.06172839506172839,0,0,0.06172839506172839,57.8395061728395,0)"
           xlink:href="#s"
           id="use93" />
      </g>
      <path
         d="M147 0H94L2-248h55l64 206c17-72 42-137 63-206h54"
         id="t" />
      <path
         d="M25-224v-37h50v37H25zM25 0v-190h50V0H25"
         id="u" />
      <path
         d="M231 0h-52l-39-155L100 0H48L-1-190h46L77-45c9-52 24-97 36-145h53l37 145 32-145h46"
         id="v" />
      <g
         id="c">
        <use
           transform="matrix(0.06172839506172839,0,0,0.06172839506172839,0,0)"
           xlink:href="#t"
           id="use99" />
        <use
           transform="matrix(0.06172839506172839,0,0,0.06172839506172839,14.382716049382715,0)"
           xlink:href="#u"
           id="use101" />
        <use
           transform="matrix(0.06172839506172839,0,0,0.06172839506172839,20.555555555555554,0)"
           xlink:href="#r"
           id="use103" />
        <use
           transform="matrix(0.06172839506172839,0,0,0.06172839506172839,32.901234567901234,0)"
           xlink:href="#v"
           id="use105" />
      </g>
      <path
         d="M67-125c0 53 21 87 73 88 37 1 54-22 65-47l45 17C233-25 199 4 140 4 58 4 20-42 15-125 8-235 124-281 211-232c18 10 29 29 36 50l-46 12c-8-25-30-41-62-41-52 0-71 34-72 86"
         id="w" />
      <path
         d="M135-194c87-1 58 113 63 194h-50c-7-57 23-157-34-157-59 0-34 97-39 157H25l-1-190h47c2 12-1 28 3 38 12-26 28-41 61-42"
         id="x" />
      <path
         d="M115-3C79 11 28 4 28-45v-112H4v-33h27l15-45h31v45h36v33H77v99c-1 23 16 31 38 25v30"
         id="y" />
      <path
         d="M135-150c-39-12-60 13-60 57V0H25l-1-190h47c2 13-1 29 3 40 6-28 27-53 61-41v41"
         id="z" />
      <g
         id="d">
        <use
           transform="matrix(0.06172839506172839,0,0,0.06172839506172839,0,0)"
           xlink:href="#w"
           id="use112" />
        <use
           transform="matrix(0.06172839506172839,0,0,0.06172839506172839,15.987654320987653,0)"
           xlink:href="#p"
           id="use114" />
        <use
           transform="matrix(0.06172839506172839,0,0,0.06172839506172839,29.50617283950617,0)"
           xlink:href="#x"
           id="use116" />
        <use
           transform="matrix(0.06172839506172839,0,0,0.06172839506172839,43.02469135802469,0)"
           xlink:href="#y"
           id="use118" />
        <use
           transform="matrix(0.06172839506172839,0,0,0.06172839506172839,50.37037037037037,0)"
           xlink:href="#z"
           id="use120" />
        <use
           transform="matrix(0.06172839506172839,0,0,0.06172839506172839,59.01234567901234,0)"
           xlink:href="#p"
           id="use122" />
        <use
           transform="matrix(0.06172839506172839,0,0,0.06172839506172839,72.53086419753086,0)"
           xlink:href="#s"
           id="use124" />
        <use
           transform="matrix(0.06172839506172839,0,0,0.06172839506172839,78.7037037037037,0)"
           xlink:href="#s"
           id="use126" />
        <use
           transform="matrix(0.06172839506172839,0,0,0.06172839506172839,84.87654320987653,0)"
           xlink:href="#r"
           id="use128" />
        <use
           transform="matrix(0.06172839506172839,0,0,0.06172839506172839,97.22222222222221,0)"
           xlink:href="#z"
           id="use130" />
      </g>
      <path
         d="M232-93c-1 65-40 97-104 97C67 4 28-28 28-90v-158h33c8 89-33 224 67 224 102 0 64-133 71-224h33v155"
         id="A" />
      <path
         d="M115-194c55 1 70 41 70 98S169 2 115 4C84 4 66-9 55-30l1 105H24l-1-265h31l2 30c10-21 28-34 59-34zm-8 174c40 0 45-34 45-75s-6-73-45-74c-42 0-51 32-51 76 0 43 10 73 51 73"
         id="B" />
      <path
         d="M85-194c31 0 48 13 60 33l-1-100h32l1 261h-30c-2-10 0-23-3-31C134-8 116 4 85 4 32 4 16-35 15-94c0-66 23-100 70-100zm9 24c-40 0-46 34-46 75 0 40 6 74 45 74 42 0 51-32 51-76 0-42-9-74-50-73"
         id="C" />
      <path
         d="M141-36C126-15 110 5 73 4 37 3 15-17 15-53c-1-64 63-63 125-63 3-35-9-54-41-54-24 1-41 7-42 31l-33-3c5-37 33-52 76-52 45 0 72 20 72 64v82c-1 20 7 32 28 27v20c-31 9-61-2-59-35zM48-53c0 20 12 33 32 33 41-3 63-29 60-74-43 2-92-5-92 41"
         id="D" />
      <g
         id="e">
        <use
           transform="matrix(0.05,0,0,0.05,0,0)"
           xlink:href="#A"
           id="use137" />
        <use
           transform="matrix(0.05,0,0,0.05,12.950000000000001,0)"
           xlink:href="#B"
           id="use139" />
        <use
           transform="matrix(0.05,0,0,0.05,22.950000000000003,0)"
           xlink:href="#C"
           id="use141" />
        <use
           transform="matrix(0.05,0,0,0.05,32.95,0)"
           xlink:href="#D"
           id="use143" />
        <use
           transform="matrix(0.05,0,0,0.05,42.95,0)"
           xlink:href="#j"
           id="use145" />
        <use
           transform="matrix(0.05,0,0,0.05,47.95,0)"
           xlink:href="#m"
           id="use147" />
        <use
           transform="matrix(0.05,0,0,0.05,57.95,0)"
           xlink:href="#n"
           id="use149" />
      </g>
      <path
         d="M114-163C36-179 61-72 57 0H25l-1-190h30c1 12-1 29 2 39 6-27 23-49 58-41v29"
         id="E" />
      <g
         id="f">
        <use
           transform="matrix(0.05,0,0,0.05,0,0)"
           xlink:href="#A"
           id="use153" />
        <use
           transform="matrix(0.05,0,0,0.05,12.950000000000001,0)"
           xlink:href="#n"
           id="use155" />
        <use
           transform="matrix(0.05,0,0,0.05,21.950000000000003,0)"
           xlink:href="#m"
           id="use157" />
        <use
           transform="matrix(0.05,0,0,0.05,31.950000000000003,0)"
           xlink:href="#E"
           id="use159" />
      </g>
      <path
         d="M205 0l-28-72H64L36 0H1l101-248h38L239 0h-34zm-38-99l-47-123c-12 45-31 82-46 123h93"
         id="F" />
      <path
         d="M96-169c-40 0-48 33-48 73s9 75 48 75c24 0 41-14 43-38l32 2c-6 37-31 61-74 61-59 0-76-41-82-99-10-93 101-131 147-64 4 7 5 14 7 22l-32 3c-4-21-16-35-41-35"
         id="G" />
      <path
         d="M117-194c89-4 53 116 60 194h-32v-121c0-31-8-49-39-48C34-167 62-67 57 0H25l-1-190h30c1 10-1 24 2 32 11-22 29-35 61-36"
         id="H" />
      <g
         id="g">
        <use
           transform="matrix(0.05,0,0,0.05,0,0)"
           xlink:href="#F"
           id="use165" />
        <use
           transform="matrix(0.05,0,0,0.05,12,0)"
           xlink:href="#G"
           id="use167" />
        <use
           transform="matrix(0.05,0,0,0.05,21,0)"
           xlink:href="#j"
           id="use169" />
        <use
           transform="matrix(0.05,0,0,0.05,26,0)"
           xlink:href="#k"
           id="use171" />
        <use
           transform="matrix(0.05,0,0,0.05,29.950000000000003,0)"
           xlink:href="#i"
           id="use173" />
        <use
           transform="matrix(0.05,0,0,0.05,39.95,0)"
           xlink:href="#H"
           id="use175" />
      </g>
    </defs>
    <rect
       style="opacity:1;fill:#0546b0;fill-opacity:1;fill-rule:evenodd;stroke:none;stroke-width:3.0374794;stroke-linecap:square;stroke-linejoin:round;stroke-miterlimit:4;stroke-dasharray:none;stroke-dashoffset:0;stroke-opacity:1;paint-order:stroke fill markers"
       id="rect8630"
       width="14"
       height="14"
       x="226.46661"
       y="478.0224"
       ry="0.10418376" />
    <text
       xml:space="preserve"
       style="font-style:normal;font-variant:normal;font-weight:normal;font-stretch:normal;font-size:32px;line-height:60px;font-family:Verdana;-inkscape-font-specification:Verdana;font-variant-ligatures:normal;font-variant-caps:normal;font-variant-numeric:normal;font-feature-settings:normal;text-align:start;writing-mode:lr-tb;text-anchor:start;opacity:1;fill:#0546b0;fill-opacity:1;fill-rule:evenodd;stroke:none;stroke-width:3.5;stroke-linecap:square;stroke-linejoin:round;stroke-miterlimit:4;stroke-dasharray:none;stroke-dashoffset:0;stroke-opacity:1;paint-order:stroke fill markers"
       x="243.72951"
       y="491.91803"
       id="text8649"><tspan
         sodipodi:role="line"
         id="tspan8647"
         x="243.72951"
         y="491.91803"
         style="font-style:normal;font-variant:normal;font-weight:normal;font-stretch:normal;font-size:18.66666603px;font-family:Verdana;-inkscape-font-specification:'Verdana, Normal';font-variant-ligatures:normal;font-variant-caps:normal;font-variant-numeric:normal;font-feature-settings:normal;text-align:start;writing-mode:lr-tb;text-anchor:start">Backend</tspan></text>
    <rect
       style="opacity:1;fill:#9e0009;fill-opacity:1;fill-rule:evenodd;stroke:none;stroke-width:3.0374794;stroke-linecap:square;stroke-linejoin:round;stroke-miterlimit:4;stroke-dasharray:none;stroke-dashoffset:0;stroke-opacity:1;paint-order:stroke fill markers"
       id="rect8630-9"
       width="14"
       height="14"
       x="331.686"
       y="478.43716"
       ry="0.10418376" />
    <text
       xml:space="preserve"
       style="font-style:normal;font-variant:normal;font-weight:normal;font-stretch:normal;font-size:32px;line-height:60px;font-family:Verdana;-inkscape-font-specification:Verdana;font-variant-ligatures:normal;font-variant-caps:normal;font-variant-numeric:normal;font-feature-settings:normal;text-align:start;writing-mode:lr-tb;text-anchor:start;opacity:1;fill:#9e0009;fill-opacity:1;fill-rule:evenodd;stroke:none;stroke-width:3.5;stroke-linecap:square;stroke-linejoin:round;stroke-miterlimit:4;stroke-dasharray:none;stroke-dashoffset:0;stroke-opacity:1;paint-order:stroke fill markers;"
       x="348.94888"
       y="492.33279"
       id="text8649-7"><tspan
         sodipodi:role="line"
         id="tspan8647-2"
         x="348.94888"
         y="492.33279"
         style="font-style:normal;font-variant:normal;font-weight:normal;font-stretch:normal;font-size:18.66666603px;font-family:Verdana;-inkscape-font-specification:'Verdana, Normal';font-variant-ligatures:normal;font-variant-caps:normal;font-variant-numeric:normal;font-feature-settings:normal;text-align:start;writing-mode:lr-tb;text-anchor:start;fill:#9e0009;fill-opacity:1;">Frontend</tspan></text>
  </g>
</svg>
